<?xml version="1.0" encoding="utf-8"?>
<!-- Generator: Adobe Illustrator 24.0.3, SVG Export Plug-In . SVG Version: 6.00 Build 0)  -->
<svg version="1.1" id="Layer_1" xmlns="http://www.w3.org/2000/svg" xmlns:xlink="http://www.w3.org/1999/xlink" x="0px" y="0px"
	 viewBox="0 0 260 50" style="enable-background:new 0 0 260 50;" xml:space="preserve">
<style type="text/css">
	.st0{opacity:0.7;clip-path:url(#SVGID_2_);}
	.st1{opacity:0.7;fill:#B1CDD3;enable-background:new    ;}
</style>
<g>
	<defs>
		<rect id="SVGID_1_" width="260" height="47.5"/>
	</defs>
	<clipPath id="SVGID_2_">
		<use xlink:href="#SVGID_1_"  style="overflow:visible;"/>
	</clipPath>
	<g class="st0">
		<path class="st1" d="M222.3,26.8c-0.2,0.4-0.2,0.4,0,1c0.1,0,0.3,0,0.5-0.1c0.3,0.1,0.6,0.3,0.9,0.5c0.1,0.1,0.1,0.1-0.1,0.3
			c-0.1,0-0.1,0.1-0.2,0.1c-0.4,0.1-0.7,0.1-1.1,0.2c-0.3,0.1-0.7,0-1.1,0.1c-0.4,0-0.9,0.1-1.2,0.1c-0.5,0.1-0.7,0.3-1.4,0.2
			c-0.1,0-0.3-0.1-0.5-0.2c-0.2,0.1-0.3,0.1-0.5,0.1c-0.1,0-0.3-0.1-0.5-0.1c-0.1,0-0.2,0-0.3,0l-1.8,0.1c-0.2,0-0.4,0.1-0.6,0.1
			c-0.4,0.1-0.8,0.1-1.3,0.2c-0.2,0-0.5-0.1-0.7-0.1c-0.2,0.1-0.3,0.1-0.6,0.2c-0.1,0-0.3-0.1-0.5-0.1c-0.3,0-0.5,0.1-0.8,0.2
			c-0.6,0.1-1.3,0.1-2.1,0.1c-0.2,0-0.5-0.1-0.7-0.1c-0.1,0-0.2,0-0.3,0.1c-0.7,0.2-1.3,0.3-1.9,0.2c-0.4-0.1-0.7-0.1-1.1,0.1
			c-0.3,0.1-0.5,0.1-0.9,0.1c-0.8,0.1-1.6,0.1-2.3,0.1c-0.9,0.3-0.9,0.3-2.3,0.2c-0.2,0.1-0.4,0.1-0.7,0.2c-0.9,0.1-1.8,0.2-2.7,0.2
			c-0.3,0-0.6,0.1-0.9,0.1c-0.4,0.1-0.8,0.1-1.2,0.2c-0.7,0.1-1.5,0.1-2.3,0.1c-0.1,0-0.3-0.1-0.6-0.1c-0.8,0.3-1.7,0.3-2.7,0.3
			c-0.1,0-0.5,0.1-0.8,0.1c-0.2,0-0.4,0-0.6,0.1c-0.5,0.1-0.9,0.1-1.3,0.2l-5.2,0.3l-2.5,0.1c-0.3,0-0.5,0.1-0.8,0.1
			c-0.1,0-0.3-0.1-0.6-0.1c-0.5,0.1-1.1,0.3-1.8,0.1c-0.2,0.1-0.5,0.1-0.7,0.1c-0.3,0.1-0.5,0.1-0.7,0.1l-3.2,0.2
			c-0.2,0-0.4,0-0.6,0.1c-0.6,0.2-1.3,0.2-1.9,0.3c-0.5,0.1-0.9,0.1-1.5,0.2c-0.3,0.1-0.7,0.1-1.1,0.1c-0.5,0.1-1.1,0.2-1.7,0.3
			c-0.5,0.1-1,0.2-1.5,0.3c-0.7,0.3-1.5,0.3-2.3,0.5c-0.7,0.2-1.4,0.3-2.1,0.5c-0.9,0.2-1.7,0.3-2.6,0.5c-0.2,0.1-0.4,0.1-0.6,0.1
			c-0.5,0.1-1,0.1-1.4,0.2c-1,0.1-1.9,0.4-3,0.4c-0.5,0-0.9,0.1-1.5,0.1c-0.2,0-0.4,0.1-0.6,0.1c-0.3,0.1-0.5,0.1-0.8,0.1
			c-0.1,0-0.1,0-0.1,0c-1.1,0.3-2.1,0.2-3.2,0.3c-1.1,0.1-2.1,0.2-3.2,0.3c-0.3,0-0.5,0.1-0.7,0c-0.4-0.1-0.8-0.1-1.2,0l-4.6,0.4
			c-0.2,0-0.4,0.1-0.6,0c-0.5-0.1-0.9,0-1.4,0c-0.3,0-0.6,0.1-0.9,0.1c-0.3,0-0.5-0.1-0.8-0.1c-0.1,0.1-0.3,0.1-0.5,0.1
			c-0.3-0.1-0.7-0.1-1.1-0.1c-0.3,0.1-0.7,0.2-1,0.1c-0.5-0.1-1,0-1.5,0c-0.1,0-0.1,0-0.3,0c-0.1-0.1-0.3-0.1-0.5-0.2
			c-0.6,0.1-1.1,0.3-1.7,0.1c-0.3-0.1-0.6,0.1-0.9,0.1c-0.3-0.1-0.6-0.1-0.9-0.1c-0.5,0.1-1,0.1-1.5,0.1c-0.5,0.1-0.9,0.1-1.4,0
			c-0.2-0.1-0.5,0-0.7,0c-0.3,0-0.7,0.1-1.1,0c-0.1,0-0.3,0-0.5,0c-0.5,0.1-1.1,0.1-1.6,0.1c-0.1,0-0.3,0-0.5,0.1
			c-0.4,0.1-0.9,0.1-1.2,0c-0.3,0.1-0.5,0.1-0.7,0.1c-1,0.1-1.9,0.1-2.9,0.1c-0.1,0-0.3-0.1-0.5,0c-0.7,0.1-1.5,0-2.2,0.1
			c-0.2,0-0.5,0-0.7,0c-0.1,0.1-0.3,0.1-0.4,0.1c-0.4,0-0.7,0-1.1,0.1c-0.3,0-0.6,0.1-0.9,0.1c-0.4,0-0.9,0.1-1.3,0.1
			c-0.3,0.1-0.7,0.1-1.1,0.1c-0.3,0-0.6,0-0.9,0.1c-0.5,0.1-1,0.1-1.5,0.1c-0.4,0-0.8,0.1-1.1,0.1c-0.4,0.1-0.7,0.1-1.1,0.1
			c-0.3,0-0.5,0.1-0.8,0.1c-0.7,0.1-1.3,0.2-1.9,0.2c-0.2,0-0.5,0.1-0.7,0.1c-0.5,0.1-1,0.2-1.5,0.1c-0.2,0-0.5,0.1-0.7,0.1
			c-0.7,0.1-1.3,0.3-1.9,0.2c-0.2,0-0.5,0.1-0.7,0.1c-0.3,0.1-0.6,0.1-0.9,0.1c-0.3,0-0.6,0.1-0.9,0.1c-0.2,0-0.5,0-0.7,0.1
			c-0.5,0.1-1.1,0.3-1.6,0.2c-0.2,0-0.4,0.1-0.6,0.1C82,40.8,81.1,41,80.3,41l-1.5,0.3c-0.3,0.1-0.7,0.1-1.1,0.1
			c-0.2,0-0.5,0.1-0.7,0.1l-1.5,0.3c-0.3,0.1-0.7,0.1-1.1,0.1c-0.4,0-0.8,0.1-1.2,0.2c-0.5,0.1-1.1,0.3-1.7,0.3
			c-0.4,0-0.8,0.1-1.2,0.2c-0.5,0.1-0.9,0.2-1.3,0.2c-0.1,0-0.1,0-0.3,0c-0.5,0.1-1.1,0.2-1.7,0.3c-0.3,0.3-0.8,0.3-1.3,0.5
			c-0.3,0.1-0.7,0.1-1.1,0.1c-0.2,0-0.4,0.1-0.6,0.1c-0.4,0.1-0.8,0.1-1.3,0.1c-0.1,0-0.3,0-0.4,0.1c-0.7,0.1-1.4,0.2-2.1,0.3
			c-0.5,0.1-0.9,0.1-1.4,0.1c-0.4,0.1-0.9,0.1-1.3,0.1c-0.1,0-0.3,0-0.4,0.1c-0.7,0.1-1.3,0.1-2,0.2c-0.4-0.1-0.9,0.1-1.3,0.1
			c-0.3,0.1-0.5,0.1-0.7,0.1c-0.3,0-0.5,0-0.7,0.1c-0.5,0.1-0.9,0.2-1.4,0.2c-0.4,0-0.9,0.1-1.3,0.1c-0.5,0-0.9,0.1-1.4,0.1
			c-0.4,0.1-0.9,0.1-1.3,0.1c-0.4,0-0.7,0.1-1.1,0.3c-0.5,0-1.1,0-1.9,0c-0.3,0.1-0.7,0.1-1.1,0.2c-0.3,0.1-0.6,0.1-0.9,0.1
			c-0.6-0.1-1.1,0.1-1.7,0.3c-0.1,0-0.1,0.1-0.3,0.1c-0.1,0-0.3,0-0.5,0l-0.3,0.1c-0.2,0.1-0.4,0.1-0.6,0.2
			c-0.4,0.1-0.7,0.3-1.1,0.3c-0.3,0-0.7,0-1.1,0c-0.1,0-0.3,0.1-0.5,0.1c-0.1,0.1-0.3,0.1-0.5,0.1c-1.1,0-2.2-0.1-3.2-0.2
			c-0.3-0.1-0.8-0.1-1.2-0.1c-0.3-0.1-0.7-0.1-1.1-0.3c-0.4,0-0.8,0.1-1.3,0.1c-0.4,0-0.9-0.1-1.2-0.1c-0.5,0-0.9,0-1.3,0
			c-0.6,0-1.2,0-1.8-0.1c-0.2-0.1-0.5-0.1-0.7-0.1c-0.9-0.1-1.9-0.3-2.8-0.5c-0.7-0.2-1.4-0.5-2.1-0.7c-0.3,0-0.6,0-0.9-0.1
			c-0.6-0.1-1.2-0.3-1.8-0.5c-0.6-0.1-1.3-0.3-1.9-0.5c-0.4-0.1-0.7-0.2-1.1-0.3c-0.7-0.2-1.3-0.5-1.9-0.8c-1.4-0.7-2.6-1.7-3.8-2.7
			C7,40.4,6.8,40.2,6.6,40c-0.2-0.1-0.5-0.2-0.7-0.3c-0.1-0.1-0.3-0.1-0.5-0.2c-0.5-0.3-0.9-0.6-1.3-1c-0.5-0.3-0.9-0.5-1.3-0.8
			c-0.4-0.2-0.7-0.5-1-0.8c-0.3-0.3-0.6-0.6-0.8-1c-0.1-0.2-0.3-0.4-0.4-0.6c-0.1-0.4-0.2-0.8-0.3-1.2c0-0.3-0.1-0.7-0.2-1.1
			c-0.1-0.3,0.2-0.3,0.2-0.8c0-0.1,0-0.3,0-0.5c0.1-0.3,0.3-0.3,0.5-0.3c0.2-0.1,0.4-0.2,0.6-0.3c0.2,0,0.5,0,0.8,0
			c0.1-0.1,0.3-0.2,0.5-0.4c0.2,0,0.5,0,0.7,0c0.3,0,0.5,0.1,0.8,0.1c0.3-0.1,0.5-0.1,0.8,0c0.1-0.1,0.3-0.2,0.5-0.3
			c0.1-0.1,0.3-0.1,0.4-0.1c0.3-0.3,0.5-0.6,0.7-0.8c0.2-0.5,0.2-1.1,0.1-1.6c-0.1-0.6-0.1-1.3,0-1.8c0-0.2,0-0.5,0-0.7
			c0-0.1,0.1-0.2,0.1-0.3c0.9-0.5,0.9-0.5,1.7-0.5c0.1-0.1,0.3-0.2,0.5-0.3c0.1,0.1,0.3,0.1,0.5,0.1c0.5-0.2,1.1-0.4,1.5-0.7
			c0.3-0.3,0.5-0.5,0.7-0.8c0.2-0.2,0.3-0.4,0.6-0.5c0,0,0.1,0,0.1-0.1c0.2-0.2,0.3-0.4,0.5-0.5c0.2-0.1,0.4-0.3,0.5-0.5
			c0.4-0.5,0.9-0.8,1.4-1c0.1,0,0.1-0.1,0.2-0.1c0.1-0.2,0.3-0.4,0.5-0.6c0.5-0.4,1-1,1.5-1.3c0.2-0.1,0.3-0.3,0.5-0.4
			c0.4-0.4,0.8-0.7,1.1-1.1c0.3-0.3,0.6-0.5,0.9-0.9c0.2-0.3,0.5-0.5,0.7-0.6c0.2-0.3,0.4-0.4,0.6-0.7c0.3-0.4,0.6-0.9,0.9-1
			l0.1-0.1c0.3-0.3,0.3-0.4,0.4-0.6c0.1-0.1,0.1-0.3,0.1-0.3c0.1-0.1,0.1-0.2,0.2-0.3c0.1-0.1,0.1-0.3,0.2-0.4
			c0.1-0.1,0.3-0.2,0.4-0.3c0.1-0.2,0.4-0.5,0.6-0.8c0.1-0.1,0.2,0.1,0.3-0.1c0.1-0.1,0.3-0.3,0.4-0.5c0.3-0.1,0.7-0.4,1.3-0.4
			c0.3-0.2,0.7-0.4,1-0.7c0.2-0.1,0.3-0.2,0.5-0.3c0.2-0.1,0.4-0.2,0.7-0.3c0.3,0,0.5,0,0.7,0c0.3-0.1,0.5-0.2,0.9-0.4
			c0.2,0,0.5-0.1,0.8-0.1c0.1,0,0.3-0.1,0.4,0c0.3,0.1,0.5,0,0.8-0.1c0.5-0.1,0.9-0.2,1.3-0.3c0.4-0.1,0.9-0.1,1.2-0.3
			c0.4-0.2,0.8-0.2,1.2-0.4c0.1-0.1,0.3-0.1,0.5-0.1c0.2,0.1,0.5,0.1,0.7,0.2c0.2,0,0.3-0.1,0.6-0.1c0.3-0.3,0.6-0.5,0.9-0.7
			c0.3-0.1,0.6-0.1,0.9-0.2c0.4,0,0.7,0.1,1.1,0.1c0.5-0.2,1-0.3,1.5-0.3c0.3-0.1,0.5-0.1,0.7-0.3c0.2,0,0.4,0.1,0.6,0.1
			c0.3-0.1,0.8-0.1,1.2-0.3C44.9,5.1,45.5,5,46,5.2c0.1-0.1,0.3-0.1,0.5-0.1c0.1,0.1,0.3,0.1,0.5,0.2c0.6-0.1,1.3-0.3,1.9-0.4
			c0.6-0.1,1.2-0.3,1.7-0.4c0.3,0,0.6,0,0.9,0c0.3-0.1,0.6-0.1,0.9-0.1c0.3,0,0.5-0.1,0.9-0.1c0.1,0.1,0.3,0.1,0.5,0.1
			c0.5-0.3,1.2-0.4,1.9-0.5c0.3,0.1,0.7,0.1,1.1,0.2c0.3-0.2,0.6-0.3,0.9-0.5c0.6-0.3,1.3-0.2,1.9-0.6c0.5-0.1,0.9-0.1,1.4,0
			c0.5,0,0.9-0.1,1.3-0.1c0.1,0.1,0.3,0.3,0.5,0.3c0.3,0,0.4-0.3,0.8-0.5c0.2-0.1,0.5-0.1,0.9-0.2c0.5,0,0.9,0,1.5,0
			c0.2-0.1,0.5-0.2,0.7-0.3C67,2,67.4,1.8,67.8,1.8c0.3,0,0.7-0.1,1.1-0.1c0.1-0.1,0.2-0.2,0.3-0.3c0.2-0.1,0.4-0.1,0.6-0.2
			c0.3,0,0.5,0,0.7,0c0.2,0,0.4-0.1,0.7-0.1c0.2,0.1,0.5,0.1,0.7,0.2c0.2,0.1,0.5,0.1,0.7,0.1l0.1,0.1l-0.1,0.1
			c-0.3,0-0.6,0.1-0.9,0.2c-0.1-0.1-0.3-0.1-0.5-0.1C71.2,1.8,71.1,1.9,71,2c0,0.4,0.2,0.7,0.1,1.2c-0.3,0.1-0.4-0.3-0.7-0.2
			C70.1,3,70,3.2,70,3.5c0,0.1,0.1,0.3,0.2,0.4c0.1,0.1,0.1,0.1,0.1,0.3c-0.3,0.1-0.5-0.1-0.9-0.2c-0.2,0-0.6,0.1-0.9,0.1
			c-0.3,0-0.5,0.2-0.9,0.1c-0.1-0.2-0.3-0.4-0.5-0.5C67,3.4,67,3.1,66.9,2.8c-0.1,0-0.1,0-0.1,0c-0.1,0.3-0.1,0.5-0.4,0.8
			c0.1,0.2,0.1,0.3,0.1,0.5c0.1,0.1,0.1,0.2,0.2,0.3c-0.1,0.1-0.1,0.1-0.2,0.2c-0.2-0.1-0.3-0.1-0.5-0.1c-0.1,0.1-0.2,0.1-0.3,0.1
			c-0.1,0.2-0.1,0.4,0.1,0.5c0.2,0,0.4,0.1,0.7,0.1c0.2,0.1,0.3,0.2,0.4,0.4c0.3,0.1,0.4,0.1,0.6,0c0.3-0.2,0.5-0.4,0.5-0.7
			c0-0.1,0.1-0.1,0.1-0.3c0.5,0.1,1,0.3,1.3,0.5c0.5,0,0.5-0.3,0.7-0.3c0.3,0,0.2,0.2,0.3,0.3c0.1,0.1,0.3,0.2,0.4,0.3
			c0.2,0.3,0.2,0.5,0.1,0.7c0.2,0.1,0.3,0.3,0.5,0.4c0,0,0.1,0,0.1,0c0.1-0.1,0-0.3,0.1-0.5c0-0.1,0.1-0.3,0.1-0.5
			c-0.1-0.1-0.3-0.2-0.4-0.3c0-0.1,0.1-0.3,0.2-0.5c0.2-0.1,0.4-0.1,0.6-0.2C72,4.3,72.3,4.1,72.5,4c0.2-0.1,0.4-0.1,0.6-0.1
			c0.1,0,0.3,0,0.5-0.1c0.1-0.1,0.1-0.2,0.2-0.3c0-0.1,0.1-0.3,0.3-0.3c0.3,0,0.2,0.2,0.4,0.3c0.3,0.1,0.5-0.2,0.7-0.2
			c0.1,0.1,0.1,0.1,0.1,0.1c0.1,0.1,0,0.3-0.1,0.3c-0.1,0.1-0.3,0.1-0.3,0.1c-0.1,0.1-0.2,0.1-0.3,0.2c-0.1,0.2,0.1,0.3,0.1,0.5
			c-0.1,0.2-0.1,0.4-0.2,0.6c0.1,0.2,0.3,0.2,0.5,0.3c0.1,0.1,0.1,0.2,0.3,0.2c0.1-0.3-0.1-0.5-0.1-0.8c0.1-0.3,0.3-0.5,0.5-0.6
			c0.3-0.1,0.5-0.1,0.8-0.1c0.3-0.1,0.4-0.5,0.9-0.5c0-0.3-0.1-0.5-0.1-0.7c0.1-0.2-0.1-0.4-0.1-0.6c0-0.1,0.1-0.3,0.5-0.4l0.1-0.5
			c-0.1-0.1-0.1-0.1-0.3-0.1c-0.2,0.1-0.4,0.3-0.6,0.4c-0.1,0-0.1,0-0.3,0.1c-0.3,0-0.5-0.3-0.9-0.3c-0.1,0-0.1,0-0.3,0
			c-0.1,0-0.1,0-0.1,0.1c-0.2,0.2-0.1,0.3,0.1,0.5c0,0.1,0,0.1-0.1,0.2c-0.2,0.1-0.2,0.3-0.2,0.5c0,0.1-0.1,0.3-0.3,0.3
			c-0.4-0.2-0.1-0.6-0.1-0.9c-0.2-0.2-0.3-0.4-0.7-0.5c-0.3,0-0.6,0.1-0.9,0.1C73,1.8,73,1.8,73,1.7c0.1-0.1,0.1-0.1,0.2-0.2
			c0.5-0.1,0.9,0.1,1.5,0c0.1-0.1,0.3-0.1,0.5-0.1c0.5,0,0.9-0.1,1.3-0.2c0.1,0,0.2-0.1,0.3-0.1c1.1,0.1,2.1-0.3,3.2-0.5
			c0.1,0,0.3,0,0.3-0.1c0.3,0,0.4,0.1,0.5,0.3C80.9,1,81,1.2,81.1,1.3c0,0.1,0,0.1-0.1,0.2c-0.3,0.2-0.5,0.3-0.7,0.5
			c-0.1-0.1-0.1-0.3-0.1-0.4c-0.1-0.1-0.1-0.3-0.1-0.4c0-0.1-0.1-0.2-0.3-0.1c-0.3,0.1-0.6,0.1-0.9,0.2c-0.3,0.2-0.5,0.4-0.6,0.7
			c-0.1,0.1-0.2,0.1-0.3,0.2c0.1,0.1,0.1,0.1,0.1,0.3c0,0.1-0.1,0.3-0.1,0.3c0.2,0.1,0.3,0.3,0.5,0.4c0.1,0.1,0.1,0.3-0.1,0.3
			c-0.3,0.2-0.3,0.5-0.5,0.7c0,0.1-0.1,0.1-0.1,0.2c-0.1,0.1-0.3,0.2-0.3,0.3c-0.1,0.1-0.2,0.2,0,0.3c0.2,0.1,0.4,0.1,0.7,0.1
			c0-0.5,0.3-0.9,0.5-1.4c0.1-0.1,0.3-0.1,0.5-0.2c0-0.2-0.3-0.3-0.3-0.5c-0.1-0.1,0-0.3,0.2-0.3c0.1,0.1,0.3,0.1,0.4,0.1
			C80,2.7,79.8,2.4,80,2.2c0.1,0,0.2-0.1,0.3-0.1c0.1,0.3,0.1,0.7,0.2,1c0.2,0.1,0.3,0.3,0.5,0.4c-0.1,0.3-0.1,0.6,0.4,0.7
			c0.2,0,0.3-0.1,0.4-0.2c0.1-0.1,0.1-0.2,0.3-0.3c0.1,0,0.2-0.1,0.3-0.1c0.1-0.1,0.1-0.1,0.3-0.3c0.1,0,0.3-0.1,0.5-0.1
			c0.1-0.1,0.1-0.3,0.1-0.5c0-0.1,0-0.1,0.3-0.2c0,0,0.1,0,0.1,0.1c0.3,0.3,0.5,0.6,0.7,0.9c-0.1,0.2-0.2,0.4-0.3,0.5
			c0,0.2,0.2,0.2,0.3,0.2s0.3-0.1,0.3-0.1c0-0.1,0-0.1,0-0.2c0.1-0.1,0.2-0.1,0.3-0.1c0.3-0.1,0.3-0.5,0.7-0.5
			c0.3,0,0.4,0.1,0.5,0.3c0.3,0,0.3-0.1,0.4-0.3c-0.1-0.1-0.1-0.3-0.2-0.4c0.1-0.1,0.1-0.1,0.1-0.1c0.2-0.1,0.4-0.1,0.6,0
			c0.3,0.1,0.5,0.3,0.7,0.4c0.1,0,0.2,0,0.3,0.1c0.2-0.1,0.3-0.3,0.5-0.4c0.1-0.1,0.3-0.2,0.5-0.3c0.1-0.1,0.2-0.2,0.2-0.3
			c-0.3-0.2-0.7-0.4-0.9-0.6c0-0.1,0-0.1-0.1-0.2c-0.1-0.1-0.3-0.1-0.3-0.2c-0.1-0.1-0.1-0.2-0.3-0.3c-0.2,0.2-0.5,0.4-0.7,0.6
			c-0.1,0.1-0.3,0.1-0.4,0.3c-0.1,0-0.2,0-0.3,0c-0.1-0.1-0.1-0.1-0.1-0.2s0-0.2,0.1-0.3c-0.1,0-0.3-0.1-0.5-0.1
			C85.7,1.2,85.6,1,85.4,1c-0.3-0.1-0.6,0-0.9,0c-0.4-0.1-0.8-0.1-1.1-0.2c0-0.1,0-0.1,0-0.1c0.1-0.1,0.1-0.1,0.2-0.1
			c0.2,0.1,0.4,0.1,0.6,0.1c0.1-0.1,0.3-0.1,0.5-0.1c0.3,0.1,0.5,0.1,0.8,0.1c0.5,0.1,0.9,0.1,1.4,0.1c0.6-0.1,1.1,0,1.7,0.1
			c0.3-0.1,0.7-0.1,1.1-0.1c0.1,0,0.3,0.1,0.4,0.1C90.3,1,90.5,1,90.7,1c0.1,0.1,0.3,0,0.5,0.2c-0.4,0.1-0.7,0.2-1.1,0.3
			c-0.1,0-0.1,0.1-0.1,0.1c0,0,0,0.1,0.1,0.1L90,1.8c0.1,0.1,0.3,0.1,0.4,0.1c0.3,0,0.5-0.1,0.7-0.2c0.1-0.1,0.3-0.1,0.5-0.1
			c0.3,0.1,0.5,0.1,0.8,0.2c0.5-0.1,0.5-0.1,0.7-0.4C93,1.2,93,1.2,92.9,1.2c-0.2-0.1-0.4-0.1-0.5-0.1c-0.1,0.1-0.3,0.1-0.4,0.1
			c-0.2,0.1-0.3,0-0.4-0.2c0.1-0.1,0.2-0.1,0.3-0.2c0.5-0.1,1.7,0.1,2.5,0.3c0.1,0,0.3,0.1,0.5,0.1c0.3,0,0.6-0.1,0.9-0.1
			c0.4,0.1,0.7,0.3,1.2,0.2C97,1.2,97,1.1,97.1,1c0-0.1,0.1-0.1,0.1-0.2c0.2-0.2,0.5-0.2,0.7-0.2c0.4,0.1,0.7,0.1,1.1,0.1
			c0.3-0.1,0.5-0.2,0.9-0.3c0.8,0,1.7-0.1,2.5,0.2c0.2-0.1,0.3-0.1,0.5-0.1c0.3,0.3,0.2,0.7,0.3,1c-0.1,0.1-0.1,0.1-0.1,0.2
			c-0.1,0.1-0.3,0-0.3-0.1c-0.1-0.1-0.1-0.1-0.2-0.2c-0.1-0.1-0.1-0.1-0.1-0.1l-0.1-0.1c-0.3-0.1-0.5,0.2-0.7,0.1
			c-0.1-0.1,0.2-0.3,0.1-0.4c-0.1-0.1-0.2-0.2-0.4-0.1C101.3,1,101.1,1,101,1.2c-0.1,0-0.1,0-0.1,0c-0.1-0.1-0.3-0.2-0.3-0.3
			c-0.1-0.1-0.3-0.1-0.5,0.1C99.8,1,100,1.2,99.9,1.4c-0.1,0.3-0.5,0.5-0.6,0.9c0.1,0.1,0.1,0.1,0.2,0.2c0.3,0.1,0.7,0.2,1,0.3
			c0.3,0.2,0.5,0.5,0.4,0.8c-0.3,0.1-0.5,0-0.7,0.1c-0.3,0.1-0.5,0.1-0.7,0.3c-0.3,0-0.3-0.2-0.5-0.3c0-0.1,0-0.2,0.1-0.4
			c-0.1-0.1-0.1-0.2-0.2-0.3c-0.1-0.1-0.3-0.1-0.5-0.1c0,0.1,0,0.3-0.2,0.3c-0.1,0-0.3,0-0.5,0c-0.3,0.1-0.5,0.2-0.9,0.3
			c-0.1,0.2-0.1,0.2,0.2,0.1c0.1,0,0.1,0,0.3-0.1c0.2,0.2,0.4,0.4,0.7,0.5c0.2,0.3-0.2,0.5-0.2,0.7c0.1,0.1,0.3,0,0.5-0.1
			c0.1-0.1,0.3-0.3,0.4-0.5C99,4.4,99.1,4.7,99.1,5c0,0.1,0,0.2-0.3,0.4c-0.1-0.1-0.3-0.1-0.5-0.1c-0.2,0-0.5,0-0.7,0
			c-0.2,0.3-0.1,0.4,0.1,0.6c0.2-0.1,0.4-0.1,0.7-0.2c0.1,0.1,0.3,0.1,0.3,0.1c0.2,0.2,0,0.3,0,0.5c0.1,0.1,0.3,0.2,0.4,0.3
			c0,0.1,0,0.1,0,0.2c-0.2,0.3-0.5,0.5-0.8,0.7c-0.1,0.1-0.1,0.1-0.1,0.1l0.1,0.1c0.3,0,0.6-0.3,0.9-0.1c0.4-0.2,0.5-0.5,0.9-0.7
			c0.2,0,0.4,0.1,0.6,0.1c0,0.1,0,0.2,0,0.3c0.1,0.1,0.2,0.1,0.5,0.1c0.2-0.2,0.3-0.4,0.5-0.6c0.2-0.2,0.4-0.5,0.7-0.6
			c0.5,0,0.3,0.5,0.7,0.5c0.3-0.1,0.4-0.3,0.5-0.4c0.1-0.3-0.2-0.5-0.2-0.7l0.1-0.1c0.4,0,0.7,0,1.1-0.1c0.2,0.1,0.3,0.2,0.2,0.3
			c-0.1,0.3-0.1,0.5-0.1,0.7c-0.1,0.3-0.5,0.3-0.6,0.6c0.1,0.3,0.4,0.5,0.2,1c-0.1,0.3-0.5,0.5-0.9,0.8c0.1,0.1,0.1,0.1,0.1,0.2
			c0.7-0.2,0.7-0.2,1.6-0.2c0-0.1,0-0.2-0.1-0.3c0.1-0.1,0.2-0.1,0.4-0.2c0.1,0.3,0.3,0.5,0.5,0.7c0.1,0.1,0.1,0.2,0.1,0.3
			c-0.2,0.2-0.5,0.1-0.7,0.2c-0.3,0-0.5-0.1-0.9,0.1c-0.1-0.1-0.3-0.1-0.5-0.2c-0.5,0-0.9,0.1-1.4,0.1c-0.3,0.2-0.5,0.5-0.9,0.6
			c-0.1,0.3-0.2,0.7-0.7,0.9c-0.1,0-0.2,0-0.3,0c-0.2-0.1-0.5-0.1-0.7-0.2c-0.1,0-0.3-0.1-0.3-0.1c-0.2,0.1-0.3,0.1-0.4,0.3
			c0,0.1,0.1,0.3,0.3,0.3c0.2,0.1,0.3,0,0.5-0.1c0.5,0,0.9,0,1.3,0.2c0.1,0,0.1,0,0.1-0.1c0.2-0.1,0.4-0.3,0.6-0.5
			c0.2-0.1,0.3-0.1,0.5-0.1c0.3,0.1,0.4,0.4,0.6,0.6c-0.1,0.1-0.2,0.2-0.3,0.3c0.1,0.1,0.3,0.2,0.5,0.3c0.1,0.1,0.1,0.3,0.3,0.3
			c0.2-0.1,0.4-0.3,0.6-0.5c0.1-0.1,0.3-0.1,0.5,0c0,0.3-0.1,0.5-0.2,0.7c-0.3,0.1-0.7,0.3-1.1,0.3c-0.5-0.1-0.3-0.3-0.3-0.5
			c-0.1-0.2-0.4-0.3-0.6-0.4c-0.2,0.1-0.3,0.1-0.5,0.1c-0.1,0-0.3-0.1-0.3-0.2c-0.1-0.1-0.1-0.2-0.3-0.3c-0.3-0.1-0.3,0.2-0.5,0.3
			c-0.3,0-0.7,0-1.1,0.1c-0.1,0.1-0.2,0.1-0.3,0.2c-0.1,0.1-0.1,0.2-0.1,0.3v0.1c-0.1,0.2-0.4,0.2-0.6,0.3c-0.1,0.1-0.3,0.3-0.5,0.4
			c-0.3-0.1-0.2-0.3-0.2-0.5c0.1-0.1,0.3-0.2,0.5-0.3c-0.3-0.2-0.3-0.2-1.1-0.3c-0.3,0.1-0.5,0.3-0.8,0.4c-0.1,0-0.1,0-0.1,0
			c-0.2,0.1-0.3,0.1-0.2,0.1c0.1,0.1,0.1,0.1,0.2,0.1c0.1,0,0.2,0,0.3-0.1c0.1-0.1,0.3-0.1,0.4-0.2c0.3,0,0.5,0.1,0.5,0.3
			c-0.3,0.2-0.5,0.3-0.9,0.3c-0.3,0.1-0.6,0.3-0.9,0.3c-0.1,0.3,0.2,0.3,0.3,0.5c0.3,0.1,0.5,0.2,0.8,0.2c0.2-0.1,0.3-0.1,0.4-0.2
			c0.1,0,0.3,0.1,0.5,0.1c0.1,0,0.1,0,0.1,0c0.1-0.1,0.3-0.2,0.5-0.3c0.1,0.1,0.2,0.1,0.3,0.1c0.2,0.1,0.3,0.3,0.5,0.5
			c0.1,0,0.3,0,0.4,0c0.1,0.1,0.3,0.1,0.5,0.1s0.4-0.1,0.5-0.1c0.2-0.1,0.2-0.3,0.1-0.5c-0.1-0.1-0.2-0.3-0.3-0.5
			c0.1-0.1,0.1-0.1,0.2-0.3c0.1,0.1,0.3,0.1,0.4,0.1c0.1,0,0.2-0.1,0.2-0.1c0.1-0.2,0.2-0.3,0.3-0.5c0.1-0.1,0.1-0.2,0.2-0.3
			c0.1-0.1,0.1-0.1,0.2-0.1c0.1,0,0.1,0.1,0.2,0.1c-0.1,0.3-0.1,0.7-0.3,1c0.1,0.1,0.1,0.1,0.1,0.2c0.1,0.1,0,0.3-0.2,0.4l-0.4-0.1
			c-0.1,0-0.2,0.1-0.2,0.2c0.1,0.1,0.2,0.3,0.3,0.4c0.1,0,0.3,0,0.3-0.1c0.2-0.1,0.3-0.1,0.4,0.1c-0.1,0.1-0.2,0.3-0.3,0.3
			c0.1,0.1,0.2,0.1,0.3,0.2c0.1,0.1,0.2,0.1,0.3,0.1c0.3-0.1,0.1-0.3,0.2-0.5c0.1-0.1,0.1-0.1,0.2-0.1c0.2-0.1,0.5-0.1,0.7-0.1
			c0.1-0.1,0.1-0.1,0.1-0.2c-0.3-0.3-0.6-0.4-0.9-0.6c-0.1-0.1-0.3-0.3,0.1-0.5c0.2,0,0.4,0,0.6,0c0.2-0.1,0.4-0.3,0.5-0.3
			c0.2,0,0.3,0.1,0.3,0.1c-0.1,0.1-0.2,0.2-0.3,0.3c0.1,0.1,0.1,0.1,0.1,0.1c0.3,0.1,0.7,0.1,1.1,0.2c0.1,0.1,0.2,0.2,0.4,0.3
			c0.1,0.1,0.3,0.1,0.3,0.1c0.1,0.2,0,0.3-0.1,0.4c-0.3,0.2-0.4,0.5-0.5,0.7c-0.1,0.1-0.3,0.2-0.5,0.3c0.1,0.2,0.1,0.2,0.4,0.2
			c0.5-0.2,0.8-0.5,1.1-0.8c0.3,0.1,0.3,0.1,0.7,0.5c0.1-0.1,0.2-0.1,0.3-0.1c0.3-0.3,0.1-0.7,0.5-1c0.3-0.1,0.5,0,0.6,0.1
			c0.1,0.3-0.2,0.4-0.5,0.5c0.3,0.1,0.7,0.1,0.9,0.3c0.2,0,0.5-0.1,0.7-0.1c0,0.1,0.1,0.1,0.1,0.2c-0.1,0.2-0.2,0.3-0.3,0.5
			c0,0.1,0.1,0.1,0.1,0.1c0.1,0.1,0.2,0.1,0.3,0c0.1,0,0.1-0.1,0.2-0.1c0.1-0.1,0.2-0.1,0.3-0.1c0.3-0.1,0.5-0.1,0.8-0.2
			c0.2,0.1,0.4,0.3,0.3,0.5c-0.2,0.1-0.4,0.1-0.7,0.2c0.1,0.3,0.5,0.2,0.7,0.3c0.5,0,0.9,0,1.3-0.1c0.1-0.1,0.1-0.1,0.1-0.3
			c0-0.1,0.1-0.1,0.1-0.1c0.1-0.1,0.3-0.1,0.5,0c0.2,0.3,0.2,0.7,0.1,1.2c0.1,0.3,0.3,0.5,0.3,0.7l0.1,0.1c0.2,0,0.3-0.1,0.4-0.1
			c0.2-0.3,0.3-0.5,0.3-0.8c0-0.3,0.2-0.5,0.6-0.6c0.1,0,0.1-0.1,0.2-0.1c0.1-0.1,0.3-0.2,0.3-0.3c0-0.2,0-0.3-0.1-0.5
			c-0.1,0-0.3,0-0.5,0.1c-0.1,0.1-0.3,0.3-0.4,0.5c-0.1,0.1-0.1,0.1-0.2,0.1c-0.1,0-0.1-0.1-0.2-0.1c0-0.1,0-0.2,0-0.3
			c-0.1-0.2-0.3-0.5-0.4-0.7c0.1-0.3,0.5-0.2,0.7-0.3c0.1-0.1,0.1-0.2,0.1-0.4c-0.1-0.1-0.2-0.1-0.3-0.2c-0.1-0.1-0.1-0.2,0-0.3
			c0.5,0,0.6,0.5,1.1,0.7c0.2-0.1,0.5-0.1,0.7-0.2c0.1,0.1,0.3,0.1,0.3,0.2c0.1,0.2,0,0.4-0.1,0.6c0.1,0.1,0.1,0.3,0.2,0.4
			c0,0.1-0.1,0.3,0,0.5l0.1,0.1c0.1,0,0.3,0.1,0.3,0c0.4-0.1,0.8-0.1,1.2-0.3c0.3-0.3,0.6-0.7,1.1-1.1c0.2-0.1,0.3,0,0.3,0.1
			c-0.1,0.1-0.3,0.2-0.4,0.3v0.1c0.3,0.3,0.7,0.2,1.1,0.4c0.1,0.1,0.2,0.3,0.3,0.5c0.1,0.2-0.2,0.3-0.3,0.6c0,0.1-0.1,0.3-0.1,0.5
			c-0.3,0.2-0.7,0.3-0.9,0.5c-0.2,0-0.4,0-0.5-0.1c-0.2,0.1-0.3,0.1-0.3,0.3c0,0.1-0.1,0.1-0.1,0.2c0,0.4,0.1,0.8,0.1,1.2
			c0.3,0.1,0.5,0.1,0.7,0.2c0,0.1,0,0.2,0.1,0.3c-0.1,0.1-0.2,0.2-0.3,0.3c0,0.1,0,0.1,0,0.2c0.1,0.1,0.3,0.3,0.4,0.4
			c0.1,0.1,0.3,0.1,0.5,0.1c0.3,0.1,0.4-0.1,0.5-0.3v-0.1c-0.1,0-0.2,0-0.3,0c-0.2-0.2-0.2-0.2,0-0.5c0.2-0.1,0.5-0.2,0.7-0.3
			c-0.1-0.1-0.1-0.3-0.2-0.4c0.1-0.2,0.1-0.5,0.2-0.7c0.1-0.1,0.2-0.1,0.3-0.2c0.3-0.1,0.5,0.1,0.7,0.1c0.1-0.3,0.1-0.3-0.1-1
			c0.2-0.1,0.3,0,0.5,0.1c0.3,0.3,0.1,0.7,0.1,1.1c0.2,0.1,0.2,0.1,0.5,0c0.1-0.1,0.2-0.3,0.3-0.4c0.2-0.1,0.4-0.2,0.6-0.3
			c0.1-0.1,0-0.2-0.1-0.2s-0.2-0.1-0.3-0.1c0.1-0.1,0.3-0.1,0.3-0.2c0.3-0.2,0.5-0.5,0.7-0.7c0.3,0,0.5,0.1,0.6,0.3
			c-0.1,0.2-0.3,0.3-0.5,0.4c0,0.1-0.1,0.1-0.1,0.1c0,0.1,0.1,0.1,0.1,0.1c0.1,0.1,0.2,0.1,0.3,0.1c0.3,0,0.5-0.1,0.7-0.1
			c0.1-0.1,0.3-0.2,0.4-0.3c0.3-0.1,0.4,0.1,0.7,0.1c0.1-0.1,0.1-0.3,0.3-0.4c0.3,0,0.5,0.1,0.7,0.1c0.2,0,0.4,0,0.6,0
			c0.3,0.1,0.7,0.1,0.9,0.3c0.3,0.3,0.1,0.5,0.1,0.8c0.1,0.1,0.3,0.1,0.4,0.1c0.1-0.1,0.1-0.1,0.1-0.1c-0.1-0.3,0.1-0.5,0.2-0.8
			c-0.1-0.3-0.4-0.7-0.5-1c0.3-0.2,0.6-0.2,0.9-0.2c0.3,0.1,0.3,0.3,0.5,0.4c0,0.3-0.3,0.5,0,0.9c0.1,0.1,0.4,0.3,0.6,0.5
			c0.3,0.1,0.7,0.1,0.9-0.1c-0.1-0.3-0.5-0.3-0.6-0.5c-0.1-0.2,0-0.4,0.3-0.5c0.1-0.1,0.2-0.1,0.5,0l-0.3,0.4c0,0.2,0.1,0.3,0.5,0.3
			c0.2,0,0.3-0.1,0.4-0.2c0.1-0.1,0.1-0.3,0.2-0.4c0.3-0.2,0.5-0.3,0.9-0.3c0.3,0.1,0.5,0.3,0.8,0.4c0.3,0,0.4-0.1,0.5-0.3
			c0-0.1-0.1-0.2-0.1-0.3c0.1-0.1,0.1-0.2,0.3-0.3c0.2,0,0.4,0.1,0.6,0.1c0.1,0,0.1-0.1,0.3-0.1c0.3,0.2,0.5,0.3,0.7,0.5
			c0.7,0.1,0.7,0.1,0.9,0.4c-0.1,0.1-0.1,0.1-0.2,0.2s-0.1,0.1-0.1,0.1c0,0.1,0.1,0.2,0.3,0.3c0.3-0.1,0.3-0.3,0.6-0.5
			c0.2-0.1,0.4-0.1,0.6,0c0.2,0.1,0.2,0.2,0.1,0.3c-0.2,0.1-0.4,0.2-0.6,0.3c0.1,0.2,0.1,0.3,0.2,0.5c-0.1,0.2-0.1,0.4-0.2,0.5
			c0.1,0.1,0.1,0.1,0.1,0.2l0.1,0.1c0.1,0,0.1,0,0.3,0c0.1,0,0.1,0,0.1-0.1c0.2-0.3,0.5-0.5,0.8-0.7c0-0.1-0.1-0.3-0.1-0.3
			c0.1-0.2,0.3-0.3,0.4-0.4c0.1-0.1,0.4-0.1,0.5-0.2c-0.1-0.1-0.2-0.2-0.3-0.2c-0.3,0-0.5,0.3-0.8,0.1c0,0-0.1-0.1,0-0.1
			c0.1-0.2,0.3-0.5,0.5-0.7c0.1-0.1,0.3-0.2,0.4-0.3c0.3,0,0.5,0.1,0.6,0.2c0.1,0.2,0.1,0.4,0.2,0.7c0,0.1,0.1,0.1,0.1,0.3
			c0,0.1-0.1,0.3-0.1,0.5c0.2,0.1,0.4,0,0.5,0c0.2-0.1,0.4-0.1,0.6-0.1c0.1-0.1,0.2-0.1,0.3-0.3h0.3c0.3-0.1,0.4-0.4,0.7-0.5
			c0.2-0.1,0.4,0.1,0.6,0.1c0.2,0.2,0.4,0.3,0.6,0.5c-0.1,0.1-0.1,0.3-0.1,0.5c0.1,0.2,0.2,0.3,0.4,0.3c0.1,0,0.1,0,0.2-0.1
			c0.1-0.1,0.2-0.1,0.3-0.2c0.2-0.3,0.5-0.5,0.9-0.7c0.1-0.1,0.2-0.2,0.2-0.3c0-0.1-0.1-0.1-0.1-0.1c-0.1,0-0.3,0.1-0.5,0.1
			c-0.2,0-0.3-0.1-0.4-0.2c0.1-0.2,0.3-0.2,0.5-0.3c0.2,0,0.5,0,0.7-0.1c0.1,0,0.1,0,0.1,0.1c0.2,0.1,0.4,0.3,0.6,0.4
			c0.1,0.1,0.1,0.3,0.2,0.3c0.2,0.1,0.3,0.1,0.5,0c0.1-0.1,0.3-0.1,0.4-0.2c0.1-0.1,0.2-0.1,0.3-0.1c0.3,0,0.5,0.2,0.9,0.3
			c0.1-0.1,0.2-0.1,0.3-0.1c0.1-0.1,0.2-0.2,0.3-0.3c0.1-0.1,0.3-0.1,0.4,0c0.1,0.1,0.1,0.1,0.1,0.3c0.4,0,0.6-0.1,0.8-0.3
			c-0.1-0.1-0.1-0.2-0.1-0.3c0-0.1,0.1-0.1,0.1-0.1c0.4,0.1,0.8,0.3,1.3,0.2c0.1,0.2,0.3,0.3,0.4,0.5c0.3,0.1,0.5-0.1,0.7-0.1
			c0.3,0.1,0.5-0.1,0.7-0.1c0.3,0,0.5-0.1,0.7-0.1c0.5,0,0.9,0,1.5,0c0.1,0.1,0.3,0.1,0.6,0.3c0.4,0.1,0.9-0.1,1.3,0.1
			c0.7,0,1.3,0,1.9-0.2c0.3,0.1,0.6,0.1,0.9,0.1c0.2,0.1,0.5,0.3,0.7,0.4c0.1,0,0.3,0,0.4,0c0.2-0.1,0.4-0.2,0.6-0.3
			c0.1-0.1,0.2,0,0.7,0.1c0.3,0,0.7-0.1,1.1-0.1c0.5,0.1,1,0.2,1.5,0.3c0.3-0.1,0.5-0.1,0.7-0.2c0.2,0.1,0.4,0.1,0.7,0.1
			c0.5,0.1,0.9-0.1,1.4,0c0.2,0.2,0.4,0.4,0.7,0.6c0.2,0.2,0.5,0.3,0.7,0.5c0.5,0.1,0.9,0.3,1.5,0.1c0.2-0.1,0.4-0.2,0.6-0.3
			c0.5-0.1,0.7,0.1,1.1,0.1c0.3,0.1,0.5,0.2,0.7,0.3c0.5,0.1,1.1-0.1,1.5,0.1c0.1-0.1,0.3-0.1,0.5-0.1c0.3,0.1,0.7,0.1,1.1,0.1
			c0.3,0.1,0.5,0.3,0.9,0.4c0.1-0.1,0.3-0.1,0.3-0.1c0.1-0.1,0.1-0.1,0.1-0.2c0.1-0.1,0.1-0.2,0.1-0.3c0.1-0.1,0.3-0.1,0.5-0.1
			c0.3,0.1,0.6,0.1,0.9,0.3c0.1,0.1,0.2,0.1,0.3,0.1s0.1,0,0.1-0.1c0.2-0.1,0.1-0.3,0.3-0.4c0.1-0.1,0.2-0.1,0.3-0.1
			c0.4,0.1,0.3,0.3,0.5,0.5c0.3,0.1,0.5-0.1,0.7-0.2c0.2-0.1,0.5-0.1,0.7-0.1c0.2,0.1,0.3,0.1,0.5,0.3c0.1,0,0.1,0,0.1,0
			c0.3-0.1,0.5-0.2,1-0.1c0.1,0,0.2,0.1,0.4,0.1c0.3,0,0.5-0.1,0.8-0.1c0.3,0,0.6,0,0.9-0.1c0.1-0.1,0.3-0.3,0.5-0.5
			c0.1-0.1,0.3-0.1,0.5-0.1c0.2,0,0.4,0.1,0.5,0.1s0.2-0.1,0.3-0.1c0.3-0.1,0.7-0.3,1-0.4c0.1,0.1,0.3,0.1,0.3,0.1
			c0.1,0.1,0.1,0.2,0.2,0.3c0.4,0.1,0.5-0.2,0.8-0.3c0.1,0,0.2,0,0.3-0.1c0.2,0.1,0.4,0.2,0.6,0.3c0.1,0,0.2,0,0.3-0.1
			c0.1-0.1,0.3-0.1,0.3-0.2c0.3,0,0.5,0,0.7-0.1c0.3,0.2,0.3,0.2,0.4,0.6c0.1,0.1,0.1,0.1,0.5,0.1c0.1-0.1,0.2-0.3,0.3-0.4
			c0.3-0.2,0.7-0.4,1-0.5c0.2,0,0.3,0,0.5-0.1c0.3,0.1,0.5,0.3,0.8,0.4c0.1,0,0.1,0,0.1,0c0.1-0.1,0.3-0.2,0.5-0.3
			c0.1,0,0.3,0,0.3,0c0.2,0.1,0.3,0.1,0.5,0.2c0.3-0.1,0.5-0.1,0.8-0.2c0.2-0.1,0.5-0.1,0.7-0.1c0.3,0,0.5-0.1,0.8-0.2
			c0.1,0,0.2,0.1,0.3,0.2c0.1,0.2,0.2,0.3,0.5,0.4c0.3,0,0.5-0.2,0.8-0.3c0.1,0,0.2-0.1,0.3-0.1c0.3,0,0.5,0.1,0.7,0.1
			c0.1,0,0.2-0.1,0.3-0.1c0.2-0.1,0.2-0.3,0.2-0.3c0.1-0.1,0.1-0.2,0.3-0.3c0.3,0,0.3,0.3,0.6,0.3c0.1-0.1,0.3-0.1,0.5-0.1
			c0.3,0,0.3,0.3,0.5,0.3c-0.1,0.2-0.1,0.3-0.1,0.5c0.1,0.5,0.7,0.7,1.1,1c0.1,0,0.3,0,0.4-0.1c0.1,0,0.1-0.2,0.1-0.2
			c-0.1-0.1-0.3-0.1-0.5-0.2c-0.2-0.2-0.4-0.4-0.6-0.6c0.1-0.1,0.1-0.1,0.1-0.1c0,0,0.1,0,0.1-0.1c0.1,0.1,0.3,0.1,0.4,0.2
			c0.2,0,0.4,0,0.6,0.1c0.2,0.1,0.4,0.1,0.7,0.3c0.1,0,0.3,0,0.3-0.1c0.3-0.1,0.5-0.4,0.8-0.5c0.3,0.1,0.5,0.2,0.6,0.3
			c0,0.1,0,0.2-0.1,0.3c0.1,0.2,0.1,0.4,0.3,0.5c0.1,0,0.3-0.1,0.3-0.1c0.1-0.1,0.3-0.3,0.4-0.4c0.1,0,0.3,0,0.3,0.1
			c0.2,0.1,0.3,0.3,0.3,0.5c0.4,0,0.7-0.1,1-0.1c0.3,0,0.4,0.3,0.7,0.3c0.2-0.1,0.4-0.3,0.7-0.5c0.5,0.1,0.9,0.2,1.3,0.3
			c0.1,0,0.2,0,0.2-0.1c0.1-0.1,0.1-0.1,0.1-0.3v-0.1l-0.1-0.5l0.1-0.1c0.1-0.1,0.2-0.1,0.3-0.1c0.1-0.1,0.1-0.2,0.2-0.3
			c0.1-0.1,0.1-0.1,0.3-0.1c0.2,0.1,0.3,0.2,0.4,0.3c0.1,0.1,0.2,0.3,0.5,0.3c0.1,0,0.2-0.1,0.3-0.1c0.1,0,0.1,0,0.3,0
			c0.3,0.1,0.4,0.3,0.6,0.5c0,0.1,0.1,0.1,0.1,0.2c0,0.3,0.1,0.5,0.3,0.8c0.1,0.1,0,0.2,0,0.2c-0.1,0.1-0.3,0.1-0.5,0.2
			c-0.3,0.1-0.5,0.1-0.7,0.3c-0.1,0.1-0.1,0.1,0.1,0.2c0.2-0.1,0.4-0.1,0.6-0.1c0.3,0.1,0.2,0.5,0.3,0.7c0.1,0.2,0.4,0.3,0.7,0.4
			c0.1,0.1,0.2,0.3,0.3,0.3c0.3,0.1,0.5,0,0.7-0.2c0.1-0.2,0.2-0.5,0.3-0.8c-0.2-0.5-0.4-0.9-0.6-1.4c0.1-0.4,0.2-0.8,0.5-1.2
			c0.2-0.1,0.4-0.1,0.5-0.2c0.2-0.1,0.3-0.2,0.5-0.3c0.7-0.2,1.2-0.1,1.7,0.1c0.1,0.1,0.1,0.2-0.1,0.2c-0.1,0.1-0.2,0.1-0.6,0.2
			c-0.1,0-0.2,0.3-0.5,0.4c-0.1-0.1-0.3-0.1-0.4-0.2c-0.2,0-0.3,0.1-0.5,0.1c0,0.1,0,0.1,0,0.3c0.5,0.2,1.1,0.3,1.7,0.4
			c0.3,0.1,0.4,0.3,0.3,0.5c-0.2,0.3-0.5,0.1-0.8,0.1c-0.2,0.1-0.3,0.1-0.3,0.3c0.1,0.1,0.3,0.2,0.4,0.3v0.1
			c-0.1,0.1-0.2,0.2-0.3,0.3c-0.1,0.1-0.2,0.2-0.3,0.3c0.1,0.1,0.1,0.1,0.2,0.2c0.1,0,0.1,0,0.1,0c0.1-0.1,0.3-0.1,0.4-0.3
			c0.1-0.1,0.3-0.2,0.3-0.3c0.3-0.1,0.3,0,0.5,0.1c0.1,0.1,0.1,0.1,0.1,0.1c0,0.2,0,0.3-0.1,0.5c0.3,0.1,0.3,0.1,0.6-0.1
			c0-0.2-0.3-0.5-0.1-0.7c0.1-0.1,0.3-0.3,0.5-0.5c0.1,0,0.2,0,0.3,0.1c0.3,0.2,0.5,0.4,0.7,0.6c0.4,0.1,0.8,0.1,1.1,0.1
			c0.3-0.1,0.5-0.3,0.6-0.5c-0.4-0.4-1.1-0.5-1.8-0.5c-0.1-0.1-0.1-0.1-0.2-0.2c0-0.1,0-0.1,0-0.1c0.3-0.3,0.4-0.6,0.9-0.8
			c0.2,0.1,0.5,0.1,0.7,0.2c0.3,0.1,0.5-0.1,0.7-0.1c0.2,0,0.5,0.1,0.7,0.1c0.2,0.2,0.4,0.5,0.7,0.6c0.1,0.3,0.2,0.7,0.3,1
			c-0.3,0.3-0.7,0.1-1.1,0.3c-0.3,0.1-0.8,0.3-1.3,0.5c-0.2,0.1-0.2,0.4-0.5,0.5c-0.2,0.1-0.4-0.1-0.5-0.1c-0.3,0-0.7,0-1.1,0
			c-0.2,0.1-0.4,0.2-0.5,0.3c-0.1,0.1-0.1,0.1-0.1,0.2c0,0.3,0,0.6,0.1,0.9c0.1,0.1,0.3,0.3,0.5,0.3c0.1,0,0.3,0,0.5,0
			c0.1,0,0.1,0.1,0.3,0.2c-0.3,0.3-0.5,0.6-0.9,1c-0.1,0.1,0.2,0.2,0.2,0.3c-0.1,0.3-0.3,0.5-0.5,0.7c-0.4,0.1-0.8,0.1-1.1,0.4
			c-0.1,0.1-0.1,0.2-0.1,0.3c0,0.1-0.1,0.2-0.1,0.3c-0.3,0.1-0.5-0.1-0.8-0.1C223.1,26.9,222.7,27,222.3,26.8z M225.2,24.3
			c0,0.1,0.1,0.1,0.1,0.1c0.1,0,0.1,0,0.2-0.1c0-0.1,0-0.1,0.1-0.2c-0.1-0.1-0.1-0.1-0.1-0.1s-0.1,0.1-0.2,0.1
			C225.2,24.2,225.2,24.3,225.2,24.3z M224.7,23c0,0,0.1,0,0.1,0l0.1-0.1l-0.1-0.1C224.7,22.9,224.6,23,224.7,23z M222.7,25
			c0.3,0.1,0.5,0.3,0.7,0.5c0.1,0.1,0.2,0.2,0.3,0.3c0.1,0.1,0.1,0.1,0.2,0.1c0.1,0,0.3-0.1,0.3-0.1c0.2,0,0.4,0.1,0.6,0.1
			c0.2-0.1,0.3-0.1,0.3-0.3c-0.1-0.1-0.3-0.2-0.5-0.3c-0.4-0.1-0.9-0.1-1.1-0.4c0-0.1,0-0.2,0-0.3c-0.1-0.1-0.2-0.3-0.3-0.4
			c-0.1-0.1-0.1-0.1-0.1-0.1c-0.1-0.1-0.3-0.1-0.3-0.1c-0.1,0.1-0.1,0.1-0.1,0.1C222.6,24.3,222.7,24.6,222.7,25z M119.5,16.6
			c0.1,0,0.1-0.1,0.2-0.1c0-0.1,0-0.1-0.1-0.1c-0.1,0-0.1,0-0.2,0.1C119.3,16.5,119.4,16.6,119.5,16.6z M119.2,17.7
			c0.1,0,0.1,0,0.1,0c0.1-0.1,0.3-0.1,0.3-0.3c0-0.1-0.1-0.1-0.1-0.1c-0.1-0.1-0.3,0.1-0.4,0.2C119,17.5,119,17.7,119.2,17.7z
			 M99.5,9.9c0.5,0.3,0.9,0.1,1.3-0.1l0.3,0.1c0.1-0.1,0.2-0.2,0.3-0.3c0.1-0.1,0.3-0.2,0.3-0.3c0.1-0.1,0.1-0.1,0-0.2
			c0-0.1-0.1-0.1-0.2-0.1c-0.1,0-0.3,0.1-0.4,0.1c-0.1-0.1-0.3-0.2-0.3-0.5c0.2-0.3,0.6-0.2,0.9-0.3c0.3,0,0.4,0.2,0.7,0.1
			c0.1-0.2,0.5-0.3,0.4-0.5c-0.3-0.1-0.5-0.2-0.7-0.3c-0.2-0.1-0.3-0.3-0.5-0.5c-0.3,0.1-0.3,0.2-0.4,0.4c-0.1,0.1,0.2,0.3,0,0.5
			c-0.3,0.1-0.7,0.3-1.1,0.5C100,8.8,99.8,9,99.6,9.1C99.5,9.4,99.5,9.6,99.5,9.9z M98.4,9.1c0.1,0,0.1-0.1,0.2-0.1
			c0-0.1,0-0.1-0.1-0.1c-0.1,0-0.1,0-0.2,0.1C98.2,9,98.3,9.1,98.4,9.1z M97.4,1.7c0.3,0.1,0.1,0.4,0.2,0.6c0.1,0,0.2,0,0.3,0
			c-0.1-0.2,0-0.5,0.1-0.7c0.1-0.1,0-0.3-0.1-0.3C97.6,1.3,97.5,1.4,97.4,1.7z M69.5,2.3c0.1,0.2,0.3,0.3,0.6,0.2
			c0.1-0.1,0.1-0.3,0.1-0.3C70.1,2,70,2,69.8,1.8C69.4,2,69.4,2.2,69.5,2.3z M68.1,2.7L68.1,2.7c0.1,0,0.1,0,0.2,0
			c0.1-0.1,0.2-0.2,0.3-0.3c0-0.1-0.1-0.1-0.1-0.1c-0.1,0-0.1,0-0.2,0.1C68.1,2.4,68.1,2.6,68.1,2.7z M65.3,2.9
			c0.1,0.1,0.1,0.3,0.3,0.6c0.3-0.4,0.3-0.5-0.1-0.7C65.3,2.8,65.3,2.8,65.3,2.9z M34.4,7.3c0-0.1-0.2-0.2-0.3-0.1
			c-0.1,0.1-0.1,0.1-0.2,0.2c0.1,0.2,0.3,0.2,0.5,0.1l0.1-0.1C34.4,7.5,34.4,7.4,34.4,7.3z M36.3,8.8c-0.1-0.1-0.1-0.2-0.3-0.3
			c-0.1-0.1-0.1-0.1-0.3,0.1c0.1,0.1,0.1,0.2,0.3,0.3C36.1,8.8,36.1,8.8,36.3,8.8z M37.1,6.8L37.1,6.8c-0.1,0-0.2,0-0.2,0.1
			c-0.1,0.1,0,0.1,0.1,0.1c0,0,0.1,0,0.1-0.1C37,6.9,37.1,6.9,37.1,6.8z M39,7.3c-0.3-0.2-0.5-0.5-0.6-0.7c-0.2,0-0.3-0.1-0.4,0.1
			c0.1,0.5,0.7,0.6,1.1,0.9C39.1,7.6,39.1,7.5,39,7.3z M49.7,6c0.1,0.1,0.2,0.3,0.5,0.3c0.1,0,0.1,0,0.2-0.1
			c-0.1-0.1-0.1-0.1-0.1-0.2c0.1-0.2,0.2-0.3,0.2-0.5c0.1-0.2,0.1-0.3,0.1-0.7C50.3,5,50.3,5,50.3,5.1c-0.2,0.3-0.4,0.5-0.6,0.7
			C49.7,5.9,49.7,6,49.7,6z M46.8,6.9c0.1,0,0.3,0.1,0.5,0.1c0,0.1,0.1,0.1,0.1,0.2c0.1,0.1,0.3,0,0.4-0.1l-0.1-0.6
			c-0.1-0.1-0.3-0.1-0.3-0.2c-0.1-0.1-0.2-0.2-0.4-0.1C46.8,6.5,46.6,6.7,46.8,6.9z M44.8,6.3c0,0.1,0.1,0.1,0.2,0.1L45,6.3
			C45,6.2,45,6.2,44.8,6.3C44.8,6.2,44.8,6.2,44.8,6.3z M42.1,6c0.1,0.1,0.2,0.3,0.2,0.4c0.1,0.1,0.1,0.3,0.1,0.5
			c0.3,0,0.4,0.2,0.6,0.3c0.1,0,0.1,0,0.2,0c0-0.1,0.1-0.1,0.1-0.1c-0.1-0.2-0.1-0.4-0.1-0.6c-0.1-0.1-0.3-0.1-0.3-0.1
			c-0.1-0.2-0.2-0.3-0.4-0.5c-0.1,0-0.1,0-0.2,0C42.2,6,42.1,6,42.1,6z M42.6,11.4L42.6,11.4L42.6,11.4v0.1V11.4
			C42.6,11.5,42.6,11.4,42.6,11.4z M42.2,7.6c0.1-0.2,0.1-0.4,0.3-0.6c-0.3-0.1-0.7-0.2-1.1-0.1C41.2,6.9,41.1,7,41,7.2
			c0.1,0.2,0.2,0.2,0.4,0.1c0.1-0.1,0.3,0,0.3,0.1c-0.3,0.3-0.3,0.4,0.1,0.5C42,7.9,42.1,7.7,42.2,7.6z M43,10.3
			c-0.1,0-0.1-0.1-0.1-0.1c-0.1-0.1-0.3,0-0.3,0.1c0,0.1,0,0.1,0,0.3c0.1,0,0.1,0.1,0.1,0.1c0.1,0.1,0.3,0,0.3-0.1
			C43.1,10.4,43.1,10.3,43,10.3z M42.7,7.7c0,0,0.1,0.1,0.1,0.1C42.8,7.7,42.8,7.7,42.7,7.7c0.1-0.1,0.1-0.1,0-0.1h-0.1
			C42.7,7.7,42.7,7.7,42.7,7.7z M43.2,9.2C43.2,9.2,43.1,9.2,43.2,9.2l-0.1,0.1h0.1C43.2,9.2,43.2,9.2,43.2,9.2z M43.8,9.9
			C43.8,9.9,43.8,9.8,43.8,9.9C43.8,9.8,43.7,9.8,43.8,9.9h-0.1H43.8C43.8,9.9,43.8,9.9,43.8,9.9z M44,10.5L44,10.5L44,10.5v0.1
			V10.5C44.1,10.6,44,10.6,44,10.5z M44.4,7.7c-0.1-0.5-0.1-0.5-0.5-0.6c-0.1,0.1-0.2,0.1-0.2,0.2c-0.1,0.1-0.1,0.3-0.1,0.3
			c0,0.1-0.1,0.2-0.3,0.3C43.2,8,43,8,42.8,7.9C42.9,8.2,43,8.5,43,8.8c0.1,0.1,0.1,0.1,0.2,0.1c0.3-0.1,0.5-0.2,0.7-0.3
			c0.1-0.1,0.2-0.1,0.3-0.2C44.3,8.1,44.4,7.9,44.4,7.7z M45.4,9.3c-0.1-0.1-0.2-0.1-0.3-0.1c-0.1,0.1-0.1,0.1-0.1,0.2
			c0.1,0.1,0.1,0.1,0.1,0.1c0.1,0.1,0.1,0.1,0.2,0C45.4,9.4,45.4,9.3,45.4,9.3z M46.3,9.3L46.3,9.3c-0.1-0.1-0.2,0-0.1,0H46.3
			L46.3,9.3z M47.1,8.2C47,8,46.8,7.8,46.8,7.5c-0.1-0.2-0.3-0.4-0.5-0.5C46,7,46,6.8,45.9,6.7c-0.3,0.1-0.3,0.3-0.7,0.3
			c-0.1,1-0.1,1-0.4,1.4c0,0,0,0.1,0.1,0.1c0.3,0.1,0.5,0.1,0.7,0c0.2-0.1,0.3-0.2,0.3-0.4C46,8,46,7.9,46,7.8
			c0.1-0.1,0.3-0.2,0.5-0.1c0.1,0.1,0.1,0.3,0.1,0.5c0,0.1,0.1,0.1,0.1,0.1C46.9,8.4,47,8.4,47.1,8.2C47,8.4,47.1,8.3,47.1,8.2z
			 M47.8,9.6c0.2-0.1,0.4-0.1,0.6-0.1c0-0.2,0.3-0.3,0.3-0.5C48.4,9,48.3,9,48.2,9C48.1,9.1,48,9.2,48,9.2c-0.1,0-0.2,0-0.3,0.1
			c-0.1,0-0.1,0.1-0.1,0.1c0,0.1,0.1,0.1,0.1,0.1C47.6,9.6,47.7,9.6,47.8,9.6z M48.4,11.1c-0.1-0.1-0.1,0-0.1,0
			C48.3,11.2,48.4,11.3,48.4,11.1C48.4,11.2,48.4,11.2,48.4,11.1z M49.1,9.7c0-0.1-0.1-0.1-0.1-0.1c-0.1-0.1-0.4-0.1-0.6-0.1
			c0.1,0.3,0.2,0.4,0.5,0.4C49.1,9.9,49.1,9.8,49.1,9.7z M49.4,7.9c0.1,0,0.2-0.1,0.3-0.2c0.1-0.1,0.1-0.3,0.1-0.5
			C50,7,50.3,7.1,50.4,6.9c-0.1-0.1-0.2-0.1-0.4-0.1c-0.3,0.1-0.5,0.3-0.8,0.5c-0.1,0-0.3-0.1-0.4,0.1c0.1,0.1,0.2,0.1,0.3,0.2
			c0,0.1,0,0.1,0,0.2C49.1,7.8,49.3,7.9,49.4,7.9z M50.2,9C50.2,8.9,50.1,8.9,50.2,9l-0.1-0.1C50,9,49.9,9,49.9,9.1
			c-0.1,0.1,0,0.1,0.1,0.1c0,0,0.1,0,0.1-0.1C50.1,9.1,50.1,9,50.2,9z M52,10.9C51.9,10.9,51.9,10.9,52,10.9
			c-0.1-0.1-0.1-0.1-0.1-0.1C51.8,10.9,51.8,10.9,52,10.9C51.9,10.9,51.9,10.9,52,10.9z M51.4,7.1c-0.1-0.1-0.2-0.1-0.3-0.3
			c-0.3,0.2-0.4,0.5-0.6,0.7c-0.1,0-0.1,0-0.2,0.1c-0.1,0.2-0.2,0.3-0.1,0.5c0.1,0,0.1,0.1,0.3,0.1c0.3-0.4,0.7-0.7,1-1
			C51.4,7.2,51.4,7.2,51.4,7.1z M51.8,5.6c0.1-0.1,0.1-0.1,0.1-0.1c-0.1-0.1-0.2-0.1-0.3-0.1c-0.3,0.1-0.5,0.3-0.8,0.4
			c-0.1,0-0.1,0.1-0.1,0.1C50.7,6,50.9,6,51,6C51.3,6,51.5,5.8,51.8,5.6z M53.3,8.3L53.3,8.3l-0.1,0.1l0.1,0.1
			C53.3,8.4,53.4,8.3,53.3,8.3z M53,6.7L53,6.7c-0.2-0.1-0.3-0.1-0.5-0.1c-0.2,0.1-0.3,0.2-0.3,0.3c0,0.1,0.2,0.3,0.1,0.4
			c-0.1,0.1-0.3,0.2-0.3,0.4c0.1,0,0.3,0,0.3-0.1C52.8,7.3,53,7.1,53,6.7z M53.8,9c0,0-0.1,0-0.1,0.1c-0.1,0.1-0.1,0.2,0,0.2
			c0.1,0,0.1-0.1,0.2-0.1C53.9,9,53.9,9,53.8,9z M54.1,8c0-0.1-0.1-0.1-0.1-0.1c-0.1-0.1-0.1-0.1-0.2,0c-0.1,0.1-0.1,0.2,0,0.3
			c0.1,0,0.1,0.1,0.2,0.1C54.1,8.1,54.1,8,54.1,8z M54.3,6c-0.1-0.2-0.3-0.3-0.5-0.2c-0.3,0.1-0.5,0.2-0.5,0.5
			c0.1,0.4,0.1,0.4,0.3,0.4C53.9,6.5,54.1,6.3,54.3,6z M55.4,5.8c-0.1-0.1-0.2-0.2-0.3-0.1c-0.1,0.1-0.2,0.3-0.1,0.5
			c0.1,0,0.1,0,0.3,0.1C55.4,6,55.4,5.9,55.4,5.8z M56.2,7.3c0.3-0.1,0.5-0.3,0.7-0.4c0.1-0.1,0.1-0.3,0.1-0.4c0.1,0,0.1,0,0.1-0.1
			c0.1-0.1,0.2-0.1,0.1-0.2C57,6,56.8,5.9,56.5,5.9c-0.3,0-0.5,0-0.7,0.3c0,0.3,0,0.6,0,1C56,7.2,56,7.2,56.2,7.3z M56.6,8.3
			C56.6,8.3,56.6,8.2,56.6,8.3c-0.1-0.1-0.1-0.1-0.1-0.1C56.4,8.3,56.4,8.3,56.6,8.3C56.6,8.4,56.6,8.3,56.6,8.3z M57.8,7.2
			C57.6,7,57.3,7,57,7.2C57,7.3,57,7.5,57,7.6c0,0.1,0,0.1,0,0.2C57,7.9,57.2,7.9,57.2,8C57.4,7.7,57.6,7.4,57.8,7.2z M59.5,5.2
			C59.5,5.2,59.5,5.2,59.5,5.2c-0.1-0.1-0.1-0.1-0.1,0v0.1C59.4,5.3,59.5,5.3,59.5,5.2z M61.4,3.2c0,0.1,0.1,0.1,0.2,0.1
			c0.2,0,0.4-0.1,0.5-0.2C61.9,2.9,61.9,2.9,61.4,3.2z M60.4,4.2c0.1,0.1,0.2,0.3,0.3,0.4c0.3,0,0.3,0,0.3-0.2
			c-0.1-0.1-0.1-0.1-0.3-0.3c0,0-0.1-0.1-0.1-0.1C60.6,4.1,60.5,4.1,60.4,4.2z M60.2,6.5c0.1,0.2,0.3,0.3,0.4,0.5
			c0.1,0.1,0.1,0.1,0.1,0.1c0,0,0.1,0,0.1,0c0.1,0,0.1-0.1,0.1-0.1c0-0.3-0.2-0.5-0.3-0.9C60.7,6.1,60.8,6,60.8,6
			c-0.2-0.1-0.4-0.1-0.5-0.1c-0.1,0-0.2,0.1-0.3,0.2C60.1,6.3,60.1,6.4,60.2,6.5z M61.2,9.6c-0.1,0.2-0.1,0.3,0.1,0.5
			c0.1,0,0.1,0,0.2,0l0.1-0.1C61.6,9.8,61.5,9.6,61.2,9.6z M61.2,7.9C61.2,7.9,61.1,8,61,8C61,8,61,8.1,61,8.1
			c0,0.1,0.1,0.1,0.3,0.1c0.1-0.1,0.1-0.1,0.2-0.1C61.4,8,61.3,7.9,61.2,7.9z M61,5.2L61,5.2c-0.1-0.1-0.2-0.1-0.3-0.1
			c-0.1,0.1-0.2,0.1-0.2,0.2c0,0,0,0.1,0.1,0.1c0.1,0,0.3,0,0.3-0.1C61,5.4,61,5.3,61,5.2z M61.4,5.8L61.4,5.8l-0.1-0.1l-0.1,0.1
			C61.2,5.8,61.3,5.8,61.4,5.8z M61.9,6.5c0-0.1-0.1-0.2-0.3-0.3c-0.1,0-0.1,0.1-0.2,0.1v0.1C61.6,6.6,61.7,6.6,61.9,6.5z M64.2,7.7
			c0.1-0.1,0.1-0.1,0.1-0.3l-0.1-0.1c-0.1,0-0.3,0-0.4,0C63.4,7.3,63.1,7,62.7,7c-0.1,0.1-0.3,0.3-0.2,0.5C62.7,7.7,63,7.9,63.3,8
			C63.5,8,63.9,7.8,64.2,7.7z M64.7,9c-0.1,0-0.1,0-0.1,0.1c0,0,0.1,0,0.1,0.1L64.7,9C64.7,9.1,64.7,9.1,64.7,9z M64.9,5.4
			c-0.5,0.2-1,0.4-1.5,0.6c0,0.1,0,0.1,0.1,0.1c0.1,0.1,0.3,0,0.5-0.1c0.2-0.1,0.4-0.2,0.6-0.3c0.1,0.1,0.3,0.1,0.4,0.1
			C65.3,5.6,65.3,5.6,64.9,5.4z M64.9,3.4c-0.2-0.1-0.2-0.3-0.6-0.3c-0.1,0.1-0.1,0.3-0.2,0.4c-0.2,0.1-0.4,0.2-0.6,0.2
			c-0.1-0.1-0.3-0.1-0.4-0.1c-0.2,0.1-0.3,0.3-0.4,0.4c-0.1,0.2-0.1,0.3-0.1,0.5c-0.1,0.1-0.2,0.3-0.3,0.4c0.1,0.1,0.1,0.2,0.1,0.3
			c-0.1,0.2-0.2,0.3-0.3,0.5c0,0.3,0.1,0.5,0.1,0.6C62.1,6.5,62,6.5,62,6.6c0,0.1,0.1,0.2,0.3,0.3c0.3-0.1,0.5-0.2,0.7-0.5
			c-0.1-0.2-0.3-0.3-0.3-0.5c-0.1-0.3,0.1-0.4,0.3-0.5c0.1-0.1,0.3-0.1,0.5-0.2c-0.1-0.1-0.3-0.3-0.4-0.3c0-0.1,0-0.1,0.1-0.2
			c0.1-0.1,0.1-0.1,0.3-0.3c0.3,0,0.6,0,0.9,0c0.1,0,0.2,0.1,0.3,0.1C64.9,4.1,64.9,3.7,64.9,3.4z M67.6,10.5c0-0.1-0.1-0.1-0.1-0.1
			c-0.1,0-0.3,0.1-0.3,0.3c0,0,0,0.1,0.1,0.1c0,0,0.1,0,0.1,0C67.5,10.7,67.6,10.7,67.6,10.5z M67.6,6c0.4,0.1,0.6,0,0.9-0.1V5.8
			c0-0.1-0.2-0.1-0.3-0.1C68,5.8,67.8,5.9,67.6,6z M69.6,13c-0.1-0.1-0.1-0.1-0.2,0c-0.1,0.1-0.1,0.1-0.1,0.1s0.1,0,0.1,0.1
			C69.5,13.1,69.6,13.1,69.6,13C69.6,13,69.7,13,69.6,13z M68.2,6.8c0.1,0,0.1-0.1,0.2-0.1c0.1-0.1,0.1-0.1,0.1-0.2
			c0-0.1-0.1-0.1-0.1-0.1s-0.1,0-0.1,0c0,0.1-0.1,0.1-0.1,0.3C68.1,6.7,68.2,6.8,68.2,6.8z M70.3,14.4L70.3,14.4
			c-0.2-0.1-0.3,0.1-0.3,0.1l0.1,0.1C70.3,14.6,70.4,14.5,70.3,14.4z M69.4,7.7c-0.1,0.1-0.4,0-0.6,0.2c0.3,0.2,0.3,0.2,0.5,0.3
			c0.1,0,0.1-0.1,0.3-0.1C69.6,7.8,69.6,7.7,69.4,7.7z M70.1,5.2C70,5.2,70,5.1,69.8,5.2c-0.2,0.3-0.1,0.4,0.3,0.5
			C70.2,5.5,70.2,5.4,70.1,5.2z M73.1,6.8c0.1,0,0.3,0,0.5,0l0.1-0.1c-0.1-0.1-0.1-0.3-0.2-0.5c0.1-0.3,0.1-0.5,0.1-0.6
			c-0.1-0.1-0.2-0.3-0.3-0.4c0-0.1,0.1-0.3,0.3-0.4c0.1-0.1,0.3-0.2,0.4-0.3c0.1-0.1,0-0.1,0-0.2c-0.3,0-0.5,0-0.7,0.1
			c-0.3-0.1-0.5-0.1-0.7-0.1c-0.2,0.1-0.3,0.1-0.5,0.1c0.1,0.2-0.3,0.4-0.3,0.6c0.5,0.3,0.8,0.7,1.1,1.1c0,0.3-0.3,0.5-0.2,0.8
			C72.8,7,73,6.8,73.1,6.8z M73.8,8.1L73.8,8.1L73.8,8.1v0.1C73.8,8.2,73.8,8.2,73.8,8.1C73.8,8.2,73.8,8.1,73.8,8.1z M73.2,7.6
			c0.1-0.1,0.3-0.1,0.3-0.3c-0.1-0.1-0.3,0-0.5,0.1C73,7.5,73,7.5,73.2,7.6z M74.4,11.9c0.1,0,0.1-0.1,0.1-0.1
			c-0.1,0-0.1-0.1-0.1-0.1c-0.1,0-0.1,0.1-0.2,0.1C74.2,11.8,74.4,12,74.4,11.9z M75,12.5c-0.3,0.1-0.3,0.2-0.2,0.3
			c0.1,0.1,0.3,0.2,0.6,0.3C75.4,12.8,75.2,12.6,75,12.5z M77,18.5c-0.1-0.1-0.1-0.1-0.1-0.1c0,0-0.1,0-0.1,0
			c-0.1,0.1-0.1,0.1,0,0.1S76.9,18.5,77,18.5C77,18.6,77,18.5,77,18.5z M74.5,6.4L74.5,6.4L74.5,6.4v0.1V6.4
			C74.5,6.5,74.5,6.5,74.5,6.4z M76.3,7.7L76.3,7.7c0.2,0.1,0.3,0,0.3-0.1l-0.1-0.1C76.4,7.5,76.3,7.5,76.3,7.7z M77.3,12.4
			c0.1,0,0.1,0,0.2,0l0.1-0.1c-0.1-0.1-0.1-0.1-0.1-0.1c0,0-0.1,0-0.1,0C77.2,12.2,77.1,12.3,77.3,12.4z M77.5,13.3
			c-0.1-0.1-0.1-0.1-0.3-0.1c-0.2,0.1-0.3,0.2-0.5,0.3c0,0.1,0,0.1,0.1,0.1c0.1,0,0.2,0,0.2,0C77.2,13.5,77.3,13.5,77.5,13.3z
			 M78.5,15.8c0-0.1-0.1-0.1-0.2-0.1c-0.2,0.1-0.3,0.2-0.5,0.3C78.1,16,78.3,16,78.5,15.8L78.5,15.8z M79.8,12.8
			c0.1-0.1,0.1-0.1,0.2-0.2c0.1-0.1,0-0.1-0.1-0.1c0,0-0.1,0-0.1,0.1c-0.1,0.1-0.1,0.1-0.1,0.3C79.7,12.8,79.7,12.8,79.8,12.8
			C79.7,12.8,79.7,12.8,79.8,12.8z M80,13.5c0.1,0.1,0.1,0,0.1-0.1c0,0,0-0.1-0.1-0.1H80C80,13.4,80,13.4,80,13.5z M80.8,16.3
			c-0.1,0-0.1,0.1-0.1,0.1c0.1,0.1,0.1,0.1,0.1,0.1c0.1,0,0.1,0,0.2-0.1C81,16.4,80.9,16.3,80.8,16.3z M78.7,4.8
			c-0.1-0.1-0.3-0.1-0.5-0.1c-0.1,0.1-0.1,0.3-0.3,0.4c-0.2,0-0.4,0.1-0.6,0.1c-0.1,0.1-0.1,0.2-0.1,0.3c0.1,0.1,0.2,0.3,0.3,0.5
			c0.1,0.1,0.1,0.3,0.2,0.5c0.5,0.2,0.5,0.1,0.9-0.3c0-0.3-0.1-0.5-0.1-0.8C78.4,5.2,78.7,5,78.7,4.8z M80.1,8.2L80.1,8.2
			c-0.1-0.1-0.2,0-0.3,0.1c-0.1,0.1,0,0.1,0.1,0.1S80,8.4,80.1,8.2L80.1,8.2z M80.4,8.9L80.4,8.9L80.3,9c0,0,0,0.1,0.1,0.1
			C80.4,9,80.5,8.9,80.4,8.9z M79.9,4.4c-0.1-0.2-0.2-0.3-0.3-0.5c-0.1-0.2-0.1-0.4-0.2-0.6l-0.2-0.1c0.1,0.3,0.1,0.5,0,0.9
			c-0.1,0.1,0,0.3,0.1,0.4C79.6,4.6,79.6,4.6,79.9,4.4z M80.5,6c-0.3,0.1-0.5,0.2-0.6,0.4c0.1,0.1,0.2,0.1,0.3,0.1
			c0.2-0.1,0.3-0.3,0.4-0.4C80.7,6,80.7,6,80.5,6z M84.3,13.5C84,13.3,84,13,83.6,13c-0.1,0.1-0.1,0.2,0,0.4
			c0.1,0.1,0.3,0.1,0.5,0.2C84.2,13.7,84.3,13.6,84.3,13.5z M83.9,11.1c-0.1,0-0.1-0.1-0.2-0.1c-0.1,0-0.2,0.1-0.2,0.1
			c0,0.1,0,0.1,0.1,0.1c0.1,0,0.1,0,0.2,0C83.8,11.2,84,11.2,83.9,11.1C84,11.2,84,11.1,83.9,11.1z M83.1,4.4
			C83,4.3,83,4.2,82.8,4.2c-0.3,0.1-0.5,0.2-0.7,0.4L82,4.8c-0.1,0.1-0.2,0.1-0.3,0.2c0,0.1,0.1,0.1,0.2,0.1c0.3,0,0.5,0.1,0.7,0.2
			c0.1,0,0.1,0,0.2,0C83.1,5,83.2,4.8,83.1,4.4z M84.6,10c0,0-0.1,0-0.1,0.1c-0.1,0.1-0.1,0.1-0.1,0.1s0.1,0,0.1,0.1
			c0.1,0,0.1-0.1,0.2-0.1C84.7,10.1,84.6,10,84.6,10z M84.4,6.2L84.4,6.2L84.4,6l-0.1,0.1C84.3,6.3,84.4,6.3,84.4,6.2z M84.8,7.1
			c-0.1,0-0.1,0-0.1,0c-0.1,0-0.2,0.1-0.3,0.2c0,0-0.1,0.1,0,0.1c0.1,0.1,0.1,0.1,0.2,0.1C84.8,7.3,84.8,7.2,84.8,7.1z M84.8,3.9
			c-0.1,0-0.1-0.1-0.2-0.1c0,0.1,0,0.1,0.1,0.1c0,0,0,0.1,0.1,0.1h0.1C84.9,4,84.9,3.9,84.8,3.9z M86.2,4.3L86.2,4.3l-0.1,0.1
			c0,0,0,0.1,0.1,0.1h0.1C86.2,4.3,86.2,4.3,86.2,4.3z M86.8,3.7C86.8,3.7,86.8,3.7,86.8,3.7c-0.1-0.1-0.1-0.1-0.1-0.1
			C86.6,3.7,86.6,3.7,86.8,3.7C86.7,3.8,86.8,3.7,86.8,3.7z M91.4,4.8C91.4,4.8,91.4,4.9,91.4,4.8c0.3,0.1,0.5,0.3,0.7,0.3
			c0.1,0,0.1,0,0.3,0c0.1-0.3,0.5-0.7,0.4-1.1c-0.1-0.2-0.5-0.3-0.5-0.5c0.2-0.2,0.4-0.3,0.5-0.5c0-0.2-0.1-0.3-0.4-0.3
			C92.3,3,92,3.1,91.7,3.2c-0.1,0-0.3,0.1-0.3,0.2c0.1,0.1,0.1,0.3,0.1,0.4c0.1,0.1,0.2,0.3,0.2,0.4C91.7,4.5,91.4,4.6,91.4,4.8z
			 M92.1,9.9C92.1,9.9,92.1,9.9,92.1,9.9c0.1,0.1,0.2,0,0.3-0.1c0.1-0.1,0-0.1-0.1-0.1c0,0-0.1,0-0.1,0.1
			C92.1,9.8,92.1,9.9,92.1,9.9z M89.9,2.3c0.1-0.1,0.2-0.1,0.3-0.1C90.3,2.1,90.3,2,90.3,2L90.2,2C90.1,2,90,2,90,2
			C89.9,2.1,89.9,2.2,89.9,2.3z M89.5,2.4c0.1,0.1,0.1,0,0.2,0c0.1-0.1,0.1-0.1,0.1-0.1l-0.2,0.1C89.7,2.4,89.6,2.4,89.5,2.4z
			 M89.9,3.7C89.9,3.7,89.9,3.7,89.9,3.7c0.1-0.1,0.1-0.1,0-0.1c0,0-0.1,0-0.1,0C89.7,3.7,89.7,3.7,89.9,3.7z M90.6,10.5
			c0.2-0.1,0.4-0.2,0.5-0.3c0.1,0,0.3,0,0.4,0c0.1-0.2,0.1-0.2-0.3-0.3c-0.3,0.1-0.5,0.3-0.8,0.3C90.5,10.3,90.5,10.4,90.6,10.5z
			 M89,4.2c0.1,0,0.1,0.1,0.2,0.1l0.1-0.1c0-0.1-0.1-0.1-0.1-0.1C89.1,4,89,4.1,89,4.2C88.9,4.1,88.9,4.2,89,4.2z M89.1,6.9
			c0,0.2-0.1,0.4,0.3,0.5c0.2-0.1,0.3-0.2,0.3-0.3C89.7,6.9,89.5,6.9,89.1,6.9z M88.3,5c0.1,0.3,0.5,0.3,0.8,0.4
			c0.1-0.1,0.1-0.2,0.1-0.2C89.1,5,89,4.8,88.8,4.8S88.5,4.8,88.3,5z M87.2,4.4c0.1,0.1,0.2,0.1,0.3,0.1c0.1-0.1,0.2-0.1,0.3-0.3
			c0.1-0.1,0-0.1-0.1-0.1c0,0-0.1,0-0.1,0C87.4,4.2,87.3,4.3,87.2,4.4z M88.3,8.9c0.1-0.1,0.1-0.1,0.2-0.2c-0.1-0.1-0.1-0.1-0.1-0.1
			c-0.1,0-0.3-0.1-0.5-0.1c-0.1,0.1-0.1,0.1-0.1,0.2v0.1C88,9,88.1,9,88.3,8.9z M90.5,15.2L90.5,15.2h-0.1
			C90.3,15.2,90.4,15.3,90.5,15.2L90.5,15.2z M93.3,17.3c-0.1-0.1-0.3-0.2-0.5-0.1c-0.1,0-0.2,0.1-0.2,0.2c0.2,0.1,0.3,0.3,0.5,0.4
			C93.3,17.6,93.3,17.5,93.3,17.3z M93.3,15.1c0-0.1-0.1-0.3-0.1-0.4c-0.1-0.1-0.3-0.2-0.5-0.3c0.1-0.1,0.1-0.2,0.2-0.3
			c-0.3,0-0.6,0-0.9,0c-0.1-0.1-0.2-0.2-0.3-0.3c0-0.2,0.1-0.4,0.1-0.5c-0.1-0.1-0.3-0.1-0.4,0c-0.3,0.2-0.2,0.5-0.5,0.7
			c-0.1,0-0.2,0.1-0.3,0c-0.2-0.1-0.4-0.2-0.5-0.3c-0.2,0-0.4,0-0.6,0c-0.1,0-0.1,0.1-0.1,0.1c0.2,0.3,0.5,0.5,0.9,0.7
			c0.2,0,0.4,0,0.6,0c0.3,0.1,0.7,0.3,0.9,0.4c0.2,0,0.3-0.1,0.5-0.1c0.2,0.1,0.3,0.2,0.4,0.3c0.3,0.3,0.1,0.7,0.5,1
			c0.1-0.1,0.2-0.1,0.3-0.1C93.3,15.6,93.3,15.4,93.3,15.1z M91.9,6.4c0.2-0.2,0.1-0.4,0.2-0.6c-0.1-0.1-0.3-0.1-0.5,0
			c-0.1,0.3-0.1,0.4,0,0.5L91.9,6.4z M93.9,16.6C93.9,16.5,93.9,16.5,93.9,16.6c-0.1-0.1-0.1-0.1-0.1-0.1
			C93.7,16.6,93.7,16.6,93.9,16.6L93.9,16.6z M92.8,9.2c0,0,0.1,0,0.1,0L93,9.1c0.1-0.1,0-0.3-0.1-0.3c0,0-0.1,0-0.1,0
			c-0.1,0.1-0.1,0.1-0.1,0.1C92.6,9,92.7,9.1,92.8,9.2z M92.9,10.1c0.3,0.1,0.7,0.1,0.9,0.2c0,0,0.1,0,0.1,0s0.1-0.1,0.2-0.1
			c0.1-0.1,0.1-0.1,0-0.2c-0.2-0.1-0.4-0.2-0.7-0.3C93.2,9.9,93,10,92.9,10.1z M94.3,13.9L94.3,13.9c-0.2,0.1-0.3,0.2-0.2,0.3
			l0.1,0.1c0.1,0,0.1,0,0.1,0C94.4,14.1,94.4,14,94.3,13.9z M95,15.1c-0.2-0.2-0.4-0.3-0.8-0.3c-0.1,0.1-0.1,0.2-0.1,0.3
			c0.2,0.2,0.4,0.3,0.8,0.3C95,15.2,95,15.2,95,15.1z M96.2,10.1c-0.1-0.1-0.1-0.1-0.1-0.1c-0.3-0.1-0.5-0.1-0.7,0.3
			c0.1,0.1,0.3,0.3,0.5,0.3C96.2,10.3,96.3,10.2,96.2,10.1z M95.8,8c-0.1,0.1-0.1,0.1-0.1,0.3l0.1,0.1c0.1,0,0.1,0,0.2-0.1
			c0.1-0.1,0.1-0.1,0.1-0.2C96.1,8,96,8,96,8C96,8,95.9,8,95.8,8z M96,7.2c0.1,0,0.2,0,0.3-0.1c-0.1-0.3-0.1-0.3-0.4-0.2
			c0,0.1,0,0.1,0,0.1C95.9,7.1,95.9,7.2,96,7.2z M95.5,6.3c-0.1,0-0.1,0.1-0.1,0.1c0.1,0.1,0.1,0.1,0.1,0.1c0.1,0,0.1,0,0.2-0.1
			C95.7,6.4,95.6,6.3,95.5,6.3z M97.8,10.5c-0.1,0.1-0.1,0.3-0.1,0.5c0.3-0.1,0.5-0.1,0.5-0.4C98.2,10.4,98,10.4,97.8,10.5z
			 M97.5,9.2L97.5,9.2V9.1c0,0-0.1,0-0.1,0C97.4,9.2,97.4,9.3,97.5,9.2z M97.3,11.3c-0.1,0.1-0.3,0.2-0.5,0.3c0,0.1,0.1,0.2,0.1,0.4
			c-0.1,0.1-0.1,0.1-0.2,0.2c-0.1,0.1-0.1,0.1,0.2,0.3c0.2-0.1,0.4-0.3,0.7-0.4c0.3,0,0.5,0,0.7,0c0.1-0.1,0.1-0.1,0.1-0.1
			c-0.1-0.3-0.3-0.6-0.5-0.9C97.6,11.1,97.4,11.2,97.3,11.3z M94.1,0.7C94.1,0.7,94.1,0.7,94.1,0.7c0.1,0.1,0.2,0,0.2-0.1
			c0-0.1,0-0.1,0-0.1C94.3,0.5,94.2,0.5,94.1,0.7C94.1,0.6,94.1,0.7,94.1,0.7z M94.1,1.2c0.3,0.1,0.3,0.1,0.4,0.1c0,0,0.1,0,0.1-0.1
			c0.1-0.1,0-0.1-0.1-0.1C94.4,1,94.2,1,94.1,1.2z M93.3,3.5c0,0.1,0.1,0.1,0.3,0.1l0.1-0.1C93.7,3.5,93.6,3.5,93.3,3.5L93.3,3.5z
			 M94.8,12.7c-0.1,0.1,0,0.3,0,0.4c0.1,0.1,0.3,0.1,0.4-0.1C95.2,12.7,95.2,12.7,94.8,12.7z M93.9,2.9c0.2-0.1,0.3-0.1,0.3-0.3
			c-0.1-0.1-0.2-0.1-0.5-0.2c-0.2,0.3-0.2,0.3-0.1,0.3C93.7,2.9,93.9,2.9,93.9,2.9z M94.8,5.4C94.8,5.3,95,5.2,95,5.2
			c0.1-0.2-0.1-0.5,0.1-0.7c0.5-0.1,0.6,0.2,1,0.2c0.2-0.2,0.1-0.4,0.3-0.7c-0.3-0.2-0.5-0.2-0.6-0.1c-0.3,0.1-0.7,0.1-1,0.2
			c-0.3,0.2-0.4,0.5-0.5,0.8C94.3,5.2,94.5,5.4,94.8,5.4z M98.1,14.7L98.1,14.7c-0.4-0.1-0.7,0-1,0.1c-0.1,0.1-0.1,0.1-0.2,0.1
			c-0.1,0.3,0.1,0.4,0.3,0.6c0.1,0,0.1-0.1,0.2-0.1c0.1-0.1,0.1-0.1,0.1-0.1c-0.1-0.1-0.1-0.2,0-0.3C97.6,14.8,98,14.9,98.1,14.7z
			 M99,15.5l-0.8-0.1c0,0-0.1,0-0.1,0c0,0.1-0.1,0.1-0.1,0.1c0,0.1,0.1,0.2,0.3,0.2C98.6,15.9,98.9,15.8,99,15.5z M99.8,15.4
			L99.8,15.4c-0.2-0.1-0.2,0-0.1,0H99.8L99.8,15.4z M100.9,15.8c-0.1,0.1-0.2,0.1-0.2,0.2c-0.1,0.1,0,0.1,0,0.2
			c0.1,0.1,0.3,0.3,0.7,0.3C101.3,16.2,101.3,15.9,100.9,15.8z M102,16.1C101.9,16,101.9,16,102,16.1c-0.1-0.1-0.1,0-0.1,0
			C101.9,16.2,101.9,16.2,102,16.1L102,16.1z M102.4,15.1c-0.1,0-0.3,0.1-0.4,0.2v0.1c0.1,0.1,0.1,0.1,0.2,0.1
			C102.4,15.4,102.4,15.2,102.4,15.1z M103.4,16.2c-0.1-0.1-0.1-0.1-0.2,0c-0.1,0.1-0.1,0.1-0.1,0.1l0.1,0.1
			C103.3,16.3,103.3,16.3,103.4,16.2L103.4,16.2z M104.3,15.1C104.2,15.1,104.2,15.1,104.3,15.1c-0.1-0.1-0.1-0.1-0.1,0
			C104.1,15.2,104.1,15.2,104.3,15.1C104.2,15.2,104.2,15.2,104.3,15.1z M105.1,14.6c0.1,0.1,0.1,0.1,0.1,0.1c0.1,0.1,0.1,0.1,0.2,0
			c0-0.1,0.1-0.1,0-0.1c-0.1-0.1-0.2-0.1-0.3-0.1C105.1,14.5,105.1,14.5,105.1,14.6z M105.7,16.8L105.7,16.8c-0.2-0.1-0.3,0-0.3,0.1
			l0.1,0.1C105.7,17,105.7,16.9,105.7,16.8z M107.5,16.1c-0.1,0.1-0.1,0.1-0.1,0.1c-0.1,0.1-0.1,0.1-0.2,0.2
			c-0.1,0.1,0.1,0.2,0.1,0.2c0.1,0,0.3-0.1,0.4-0.3C107.8,16.2,107.7,16.2,107.5,16.1z M110.2,18.1c-0.1-0.1-0.1-0.3-0.2-0.4
			c0-0.1,0.1-0.2,0.1-0.3c0,0,0-0.1-0.1-0.1c-0.1,0-0.2-0.1-0.3-0.1c-0.3,0.1-0.5,0.3-0.4,0.5c0.2,0.2,0.5,0.3,0.5,0.5l0.1,0.1
			c0.1,0,0.1,0.1,0.2,0C110.2,18.2,110.2,18.1,110.2,18.1z M116.3,16.1c0.1,0,0.3-0.1,0.4-0.1v-0.1c0-0.1-0.1-0.1-0.1-0.1
			C116.4,15.9,116.3,16,116.3,16.1z M116.7,18.1c0-0.1-0.1-0.1-0.2-0.1c-0.1,0.1-0.1,0.1-0.1,0.1c0,0.1,0,0.1,0.1,0.1
			C116.5,18.3,116.7,18.1,116.7,18.1z M117.9,18.5c-0.1-0.1-0.1-0.1-0.2-0.1c-0.1,0-0.1,0.1-0.1,0.1c0,0.1,0.1,0.2,0.1,0.3
			c-0.1,0.1-0.1,0.1-0.2,0.2c-0.1,0.1-0.3,0.1-0.5,0.1c-0.1,0.1-0.3,0.1-0.3,0.3c0.1,0.1,0.3,0.2,0.3,0.3c0.1,0.1,0,0.4,0.3,0.5
			c0.2-0.1,0.4-0.1,0.5-0.3c0.1-0.2-0.1-0.3-0.1-0.5c0.1-0.2,0.2-0.4,0.3-0.6C118.1,18.8,118.1,18.6,117.9,18.5z M118,16.9
			c-0.3,0.1-0.3,0.1-0.3,0.3c0,0.1,0.1,0.1,0.1,0.1s0.1,0,0.2-0.1C118.1,17.1,118.1,17.1,118,16.9z M120,21.1
			c-0.2,0.1-0.4-0.1-0.7,0c0,0.3,0,0.3,0.1,0.3c0.1,0.1,0.3,0,0.4-0.1C119.9,21.2,119.9,21.1,120,21.1z M121.2,20.5c0,0-0.1,0-0.1,0
			c-0.1,0.1-0.1,0.2-0.1,0.3C121,20.7,121.2,20.6,121.2,20.5C121.3,20.5,121.3,20.5,121.2,20.5z M122,20.2L122,20.2
			c0.3,0.1,0.5,0,0.6-0.2c-0.1-0.1-0.2-0.1-0.3-0.1C122.2,19.9,122.1,20,122,20.2L122,20.2z M122.9,21.9c-0.1-0.2-0.2-0.4-0.5-0.5
			c-0.2,0.1-0.3,0.3-0.5,0.5c0,0.3,0,0.6,0.2,0.9c0.2,0.1,0.3,0.3,0.6,0.2c0.1-0.3-0.1-0.5,0.1-0.8C122.8,22.2,122.8,22,122.9,21.9z
			 M123.2,22.5C123.1,22.5,123.1,22.5,123.2,22.5l-0.1,0.1l0.1,0.1C123.1,22.6,123.2,22.6,123.2,22.5z M123,20.5
			c-0.1,0-0.1,0-0.2,0.1c-0.1,0.1,0,0.2,0.1,0.2c0.1,0,0.1-0.1,0.2-0.1C123.1,20.5,123.1,20.5,123,20.5z M124.8,20.9
			c-0.2-0.1-0.4-0.3-0.6-0.5c-0.2,0.1-0.3,0.1-0.4,0.2c-0.1,0.1-0.1,0.1-0.1,0.2c0.3,0.1,0.7,0.2,1,0.3
			C124.8,21,124.8,20.9,124.8,20.9z M124.9,18.7L124.9,18.7h-0.1C124.8,18.8,124.8,18.8,124.9,18.7L124.9,18.7z M129.4,20.2
			c-0.1-0.1-0.3-0.1-0.4-0.1c-0.1,0.1-0.1,0.2,0,0.3c0.1,0.1,0.3,0.1,0.4,0.1C129.5,20.4,129.5,20.3,129.4,20.2z M129,17.9
			c-0.2,0-0.4,0.1-0.5,0.2c-0.1,0.1-0.1,0.3-0.2,0.4c-0.1,0-0.1,0-0.1,0c-0.1-0.1-0.2-0.1-0.3-0.1s-0.3-0.2-0.5-0.2
			c-0.2,0.1-0.5,0.1-0.5,0.3c0.1,0.1,0.3,0.3,0.3,0.3c0,0.3-0.1,0.4-0.2,0.4c-0.2,0.1-0.3,0-0.4-0.1c-0.1-0.1-0.1-0.2-0.1-0.3
			c-0.1-0.1-0.1-0.1-0.3-0.1c-0.2,0.2-0.2,0.4-0.3,0.6c0.1,0.2,0.3,0.3,0.4,0.5c0.1,0.1,0.1,0.2,0.1,0.3c0,0.1-0.1,0.1-0.1,0.1
			c0,0-0.1,0-0.1,0c-0.1-0.1-0.3-0.2-0.4-0.3c-0.2,0-0.3,0-0.4,0.1c0.1,0.2,0.1,0.5,0.2,0.6c0.1,0.2,0,0.4,0.1,0.6
			c0.2-0.1,0.5-0.1,0.6-0.1c0.3,0.1,0.5,0.1,0.7,0.2c0,0,0.1,0,0.1,0c0.2-0.1,0.5-0.3,0.5-0.5c-0.2-0.1-0.3-0.2-0.6-0.3
			c0-0.3,0.5-0.5,0.4-0.9c0.2-0.3,0.4-0.5,0.6-0.8c0.1-0.1,0.2-0.1,0.3-0.1c0.1,0,0.1,0,0.1,0c0.1,0.1,0.1,0.3,0.3,0.5
			c0.1,0.1,0.1,0.1,0.3,0l0.1-0.1l0.1-0.5c-0.1-0.1-0.1-0.2-0.1-0.3c0.1-0.1,0.2-0.3,0.3-0.4C129.3,18.1,129.2,17.9,129,17.9z
			 M129.6,19.1L129.6,19.1L129.6,19.1v0.1V19.1C129.6,19.2,129.6,19.2,129.6,19.1z M130.7,19.4L130.7,19.4h-0.1
			C130.5,19.5,130.6,19.6,130.7,19.4C130.6,19.5,130.6,19.4,130.7,19.4z M131.8,22.6C131.8,22.6,131.8,22.6,131.8,22.6
			c-0.1-0.1-0.1-0.1-0.1-0.1C131.6,22.6,131.6,22.6,131.8,22.6C131.7,22.6,131.7,22.6,131.8,22.6z M131.5,19c0-0.1-0.1-0.3-0.3-0.3
			c0,0-0.1,0-0.1,0.1c-0.1,0.1-0.1,0.3,0.1,0.3C131.4,19.2,131.5,19.1,131.5,19z M132.7,20.9C132.7,20.9,132.7,20.9,132.7,20.9
			l-0.1-0.1v0.1C132.7,21.1,132.7,21,132.7,20.9z M132.8,19.9c-0.1-0.1-0.1-0.1-0.1-0.1c0,0-0.1,0-0.1,0c-0.1,0.1-0.1,0.1-0.1,0.1
			c0.1,0.1,0.1,0.1,0.2,0.1S132.8,19.9,132.8,19.9z M134.6,19.3c0-0.1-0.1-0.1-0.2-0.1s-0.1,0.1-0.3,0.1c0.3,0.2,0.3,0.5,0.1,1
			c0.2-0.1,0.3-0.1,0.3-0.2C134.7,19.8,134.7,19.6,134.6,19.3z M135.1,21L135.1,21c-0.1-0.1-0.2-0.1-0.3,0c-0.1,0.1,0,0.1,0.1,0.1
			c0,0,0.1,0,0.1,0C135,21.1,135.1,21.1,135.1,21z M135.3,18.5c0-0.1,0.1-0.3,0.2-0.4c0.1-0.1,0.1-0.1,0.1-0.2
			c-0.1,0-0.1-0.1-0.1-0.1c-0.3-0.1-0.7-0.1-1.1-0.1c-0.1,0.1-0.1,0.1-0.2,0.1c0.1,0.2,0.3,0.4,0.3,0.6
			C134.9,18.6,135.1,18.5,135.3,18.5z M135.4,18.7c0.1-0.1,0.1-0.1,0-0.1c-0.1,0-0.1-0.1-0.1-0.1c0,0.1,0,0.1,0,0.1
			C135.3,18.6,135.3,18.7,135.4,18.7C135.4,18.7,135.4,18.8,135.4,18.7z M136,19.3L136,19.3c-0.1-0.1-0.1-0.1-0.2-0.1
			c-0.2,0-0.3,0.1-0.3,0.2l0.1,0.1C135.8,19.6,135.9,19.5,136,19.3C136,19.4,136,19.4,136,19.3z M137.4,17.7
			c0.1-0.2,0.1-0.4,0.1-0.6c0,0-0.1,0-0.1-0.1c-0.2,0.1-0.4,0.1-0.5,0.3c0,0.1-0.1,0.1-0.1,0.2c0,0.1,0,0.1,0.1,0.2
			C136.9,17.9,137,17.9,137.4,17.7z M137.6,18.3c-0.1-0.1-0.1-0.1-0.1-0.1s-0.1,0-0.2,0.1c-0.1,0.1,0.1,0.2,0.1,0.2
			C137.6,18.4,137.6,18.3,137.6,18.3z M141.5,30.2C141.4,30.2,141.4,30.1,141.5,30.2c-0.1-0.1-0.1-0.1-0.1-0.1
			C141.3,30.2,141.3,30.2,141.5,30.2C141.4,30.2,141.4,30.2,141.5,30.2z M142.1,20.5c-0.1,0-0.1,0.1-0.1,0.1
			c0.1,0.1,0.1,0.1,0.1,0.1c0.1,0,0.1,0,0.2-0.1C142.3,20.5,142.2,20.4,142.1,20.5z M154.1,18C154.1,17.9,154.1,17.9,154.1,18
			c-0.1-0.1-0.1-0.1-0.1-0.1C153.9,18,154,18,154.1,18C154.1,18,154.1,18,154.1,18z M154.1,17.3c0-0.1-0.1-0.1-0.1-0.1
			c-0.1,0-0.1,0.1-0.2,0.1c-0.1,0.1,0,0.1,0.1,0.1C154,17.5,154.1,17.4,154.1,17.3z M156.6,17.5c0-0.1-0.1-0.2-0.2-0.1l-0.1,0.1
			C156.3,17.5,156.5,17.6,156.6,17.5C156.6,17.6,156.6,17.6,156.6,17.5z M161.3,17.9c-0.1-0.1-0.3-0.1-0.5-0.1
			c-0.1,0.1-0.1,0.3,0.2,0.4C161.2,18.1,161.2,18,161.3,17.9z M173.1,21.7C173.1,21.6,173.1,21.6,173.1,21.7
			c-0.1-0.1-0.1-0.1-0.1-0.1C172.9,21.7,173,21.7,173.1,21.7L173.1,21.7z M178.1,22.7C178.1,22.7,178.1,22.6,178.1,22.7
			c-0.1-0.1-0.1-0.1-0.1-0.1c-0.1,0.1-0.2,0.1-0.3,0.1v0.1l0.1,0.1C177.9,22.9,178,22.8,178.1,22.7z M192.6,26.8
			c-0.1-0.1-0.1-0.1-0.2-0.1c-0.1,0-0.2,0.1-0.1,0.2c0.1,0.1,0.1,0.1,0.2,0.1C192.6,27,192.7,26.9,192.6,26.8z M193.2,19.8
			c-0.1-0.1-0.1,0-0.1,0.1l0.1,0.1C193.1,19.9,193.2,19.9,193.2,19.8C193.3,19.8,193.2,19.8,193.2,19.8z M198.1,17.9L198.1,17.9
			L198.1,17.9v0.1V17.9C198.1,18,198.1,18,198.1,17.9z M201.4,19.1c-0.1-0.1-0.2-0.1-0.3-0.1c-0.1,0-0.1,0.1-0.2,0.1
			c-0.1,0.1-0.1,0.3-0.1,0.5c0.1,0,0.2,0.1,0.3,0.1c0.3-0.2,0.3-0.3,0.4-0.3C201.5,19.3,201.4,19.2,201.4,19.1z M204.4,19.2
			c0.2-0.1,0.5-0.1,0.6-0.3c-0.2-0.1-0.3-0.4-0.7-0.3c-0.1,0.1-0.1,0.3-0.1,0.4C204.3,19.1,204.4,19.2,204.4,19.2z M205.7,22.3
			c-0.1-0.1-0.1-0.1-0.1-0.1s-0.1,0-0.2,0.1c-0.1,0.1,0.1,0.2,0.1,0.1C205.5,22.4,205.6,22.4,205.7,22.3z M205.4,19.6
			c-0.2,0.1-0.3,0.3-0.5,0.5c0.1,0.2,0.1,0.2,0.3,0.1c0.2-0.1,0.5-0.1,0.6-0.3v-0.1C205.7,19.6,205.7,19.6,205.4,19.6z M209.1,22.1
			c-0.1-0.1-0.1-0.1-0.1-0.1c-0.1,0-0.1,0-0.2,0l-0.1,0.1c-0.1,0.1,0,0.2,0.1,0.3S209,22.3,209.1,22.1
			C209.1,22.2,209.1,22.2,209.1,22.1z M215.8,21.6c-0.5-0.1-0.5-0.1-1,0.1c-0.1,0.1-0.1,0.3,0.1,0.3c0.3-0.1,0.5-0.1,0.9-0.2
			C215.8,21.8,215.9,21.7,215.8,21.6z M216,19.8c0.2,0.1,0.4,0,0.5-0.3c-0.2-0.2-0.4-0.3-0.7-0.4c-0.2,0.1-0.4,0.1-0.3,0.3
			C215.6,19.6,215.8,19.7,216,19.8z M216.5,20.3c-0.3,0.2-0.4,0.5-0.5,0.7c0.1,0.1,0.2,0.1,0.3,0.1c0.3,0,0.5-0.1,0.5-0.3
			C216.9,20.5,216.8,20.3,216.5,20.3z M218.9,19.3c0.1,0.1,0.1,0.1,0.1,0.1c0.1,0,0.1,0,0.2-0.1c0.1-0.1-0.1-0.2-0.1-0.1
			C219,19.2,219,19.3,218.9,19.3z M219.8,27.5c-0.1-0.1-0.1-0.1-0.2-0.2c0,0-0.1,0-0.1,0c-0.1,0-0.1,0.1-0.1,0.1s0,0.1,0.1,0.1
			c0.1,0.1,0.1,0.1,0.2,0.1C219.7,27.6,219.7,27.5,219.8,27.5z M220.3,22.5c-0.2-0.1-0.4-0.2-0.7-0.3c-0.1,0-0.1,0.1-0.3,0.1
			c0.1,0.4,0.1,0.7,0.1,1.2c0,0,0.1,0.1,0.1,0.1c0.1,0,0.1,0.1,0.3,0.1c0.1-0.1,0.1-0.1,0.1-0.1c0-0.1-0.1-0.3-0.1-0.4
			c0,0,0-0.1,0.1-0.1C220.2,22.7,220.2,22.7,220.3,22.5z M221.1,26.8c-0.1,0-0.3,0-0.3,0c-0.1,0-0.1,0.1-0.1,0.1c0,0,0,0.1,0.1,0.1
			c0.1,0.1,0.2,0.1,0.3,0C221.1,27,221.1,26.9,221.1,26.8z"/>
		<path class="st1" d="M232.8,24.3c-0.1,0.3-0.5,0.3-0.8,0.4c-0.1,0-0.1,0-0.3,0c-0.2,0-0.4-0.1-0.6-0.1c-0.3,0-0.5,0.1-0.7,0.1
			c-0.1,0.1-0.1,0.1-0.2,0.1c-0.1,0.2-0.1,0.4,0.1,0.7c0.3,0,0.5,0,0.7,0c0.2,0.1,0.3,0.2,0.1,0.4c-0.1,0.1-0.3,0.3-0.6,0.3
			c-0.2,0.1-0.4,0.1-0.7,0.1c-0.3,0.2-0.6,0.5-0.9,0.7c-0.2,0.1-0.4,0.2-0.6,0.3c-0.1,0-0.3-0.1-0.3-0.1c-0.2-0.1-0.4-0.2-0.5-0.3
			c0-0.1-0.1-0.1-0.1-0.2c0.1-0.3,0-0.5,0.1-0.8c0.1-0.3,0.5-0.5,0.9-0.8c-0.1-0.1-0.1-0.3-0.2-0.4c0-0.1,0.1-0.3,0.1-0.4
			c-0.1-0.2-0.5-0.3-0.3-0.7c0,0,0.1-0.2,0.2-0.4c0.2-0.1,0.5-0.3,0.7-0.4c0.1-0.2,0.2-0.3,0.3-0.5c0.3-0.1,0.7-0.1,1.1-0.2
			c0.1,0.1,0.3,0.1,0.3,0.1c0.1,0.1,0.1,0.1,0.1,0.1l0.1,0.4c0.1,0.1,0.3,0.3,0.5,0.2c0.3,0,0.4-0.3,0.7-0.3c0.1,0,0.1,0,0.2,0.1
			c0.1,0.1-0.1,0.2-0.1,0.3l-0.1,0.1c-0.3,0.1-0.5,0.3-0.7,0.3c-0.5,0.1-0.6-0.1-0.9-0.1c-0.2,0.1-0.3,0.2-0.4,0.3
			c-0.1,0.2,0.2,0.2,0.3,0.3c0.1,0.1,0.1,0.2,0.3,0.3c0.3,0.1,0.6,0.1,0.9,0.1c0.3-0.1,0.4-0.2,0.6-0.3c0.2-0.1,0.4-0.1,0.6-0.1
			C232.7,24.1,232.8,24.1,232.8,24.3z M229.8,25.6c-0.1-0.1-0.3-0.3-0.6-0.3c-0.3,0.1-0.5,0.3-0.7,0.5c-0.1,0.2-0.1,0.4-0.1,0.5
			c0.2,0.1,0.3,0.1,0.4,0l0.1-0.1c0.1-0.3,0.5-0.5,0.7-0.7C229.8,25.7,229.7,25.6,229.8,25.6z M229.5,23.1c0-0.1-0.1-0.1-0.1-0.1
			c-0.1,0-0.1,0.1-0.2,0.1c-0.1,0.1,0,0.1,0.1,0.1C229.4,23.3,229.6,23.2,229.5,23.1z"/>
		<path class="st1" d="M237.1,22.6c0.4-0.1,0.4-0.4,0.5-0.6c-0.1-0.2-0.2-0.5-0.3-0.7c-0.5-0.3-0.5-0.3-1-0.9
			c-0.3-0.1-0.5,0.2-0.9,0.1c-0.2-0.1-0.4-0.3-0.7-0.4c0,0,0-0.1-0.1-0.1V20l0.1-0.2c0.1-0.1-0.1-0.3-0.2-0.3s-0.3,0.1-0.3,0.1
			l-0.4,1v0.1c0.1,0.1,0.1,0.1,0.2,0.1c0.6,0,1.1,0.3,1.7,0.3c0.3,0,0.5,0.1,0.5,0.3c0,0.1-0.1,0.2-0.1,0.3c0,0.1,0.1,0.3,0.1,0.3
			C236.5,22.4,236.7,22.6,237.1,22.6C236.9,22.6,237,22.6,237.1,22.6z"/>
		<path class="st1" d="M227.1,27.8c-0.3-0.1-0.5-0.3-0.8-0.3c-0.3,0.1-0.3,0.3-0.5,0.5c-0.1,0.1-0.3,0.2-0.6,0.2
			c-0.4-0.2,0-0.5-0.1-0.7l-0.1-0.1c-0.2,0-0.3,0-0.5,0.1c-0.1,0.2-0.1,0.4-0.2,0.7c0.1,0.1,0.3,0.3,0.4,0.4
			c0.1,0.1,0.2,0.1,0.3,0.1c0.1-0.1,0.3-0.1,0.5-0.2c0.8,0.1,1.6-0.1,2.4-0.2c0.1,0,0.1-0.1,0.1-0.1c0.1-0.1,0.1-0.1,0.1-0.1
			C227.9,27.8,227.5,27.9,227.1,27.8z"/>
		<path class="st1" d="M233.6,18.6c0.2-0.1,0.5-0.2,0.9-0.4c0.1,0,0.1-0.1,0.1-0.2c0-0.1-0.1-0.3-0.1-0.5c-0.1,0-0.2-0.1-0.3-0.1
			c-0.3,0.2-0.1,0.5-0.3,0.6c-0.1,0-0.2,0-0.3,0c-0.1,0-0.3-0.1-0.5,0c-0.3,0.2-0.6,0.4-0.9,0.6l-0.1,0.1c-0.1,0.3-0.1,0.6,0.1,0.9
			c0.1,0.1,0.2,0.1,0.5,0C232.8,19.3,233.1,19,233.6,18.6z"/>
		<path class="st1" d="M239.6,19.2c-0.1-0.1-0.2-0.1-0.3-0.1c-0.1-0.1-0.2,0-0.4,0.1c0,0.1,0,0.3-0.1,0.5c-0.1,0.2-0.2,0.4-0.3,0.6
			c0,0.1,0,0.1,0,0.2c0,0.1,0.1,0.2,0.3,0.2c0.1-0.1,0.3-0.2,0.5-0.3c0.2-0.3,0.3-0.5,0.5-0.7c0,0,0-0.1,0-0.1
			C239.8,19.5,239.8,19.4,239.6,19.2z"/>
		<path class="st1" d="M104.1,10.1c-0.1,0-0.1-0.1-0.2-0.1c-0.1,0-0.2-0.1-0.3-0.1c-0.3,0-0.6-0.1-0.9-0.1c-0.2,0.1-0.2,0.2-0.1,0.3
			c0.1,0.1,0.1,0.2,0.3,0.3c0.2,0.1,0.4,0.1,0.6,0.1c0.2,0.1,0.3,0.1,0.5,0.1C104.3,10.5,104.3,10.3,104.1,10.1z"/>
		<path class="st1" d="M231.8,20.1c-0.3,0.1-0.4,0.3-0.3,0.5c0,0.2,0.1,0.4,0.1,0.6c0.2,0.1,0.4,0.1,0.6,0.1c0.2,0,0.3-0.1,0.3-0.3
			c-0.1-0.1-0.1-0.2-0.1-0.3c0.1-0.1,0.1-0.3,0.1-0.4C232.3,20.2,232.1,20,231.8,20.1z"/>
		<path class="st1" d="M249.8,18.6c-0.3,0.1-0.7,0.3-1,0.4c-0.2,0.1-0.3,0.2-0.2,0.4c0.2,0.1,0.5,0.2,0.8,0.1
			c0.3-0.1,0.3-0.3,0.5-0.5c0.1-0.1,0.2-0.1,0.3-0.1c0-0.1,0-0.2-0.1-0.3C250.1,18.7,249.9,18.6,249.8,18.6z"/>
		<path class="st1" d="M242.5,19c-0.1,0-0.1,0.1-0.1,0.2c0.5,0,0.5,0.4,0.9,0.4c0.2-0.1,0.3-0.2,0.3-0.3c0-0.3,0.2-0.5,0.3-0.7
			c-0.1,0-0.1-0.1-0.2-0.1C243.2,18.7,242.9,18.8,242.5,19z"/>
		<path class="st1" d="M85,2.2c0.1,0,0.1-0.1,0.1-0.2C85,2,84.9,1.9,84.8,1.8c-0.1-0.2-0.1-0.4-0.3-0.5c-0.1,0-0.2,0.1-0.2,0.1
			C84,1.7,84,2,84.1,2.3c0.1,0,0.1,0.1,0.2,0.1C84.6,2.3,84.8,2.3,85,2.2z"/>
		<path class="st1" d="M147.2,14c0.1-0.1,0.1-0.1,0.2-0.2c0-0.1-0.1-0.1-0.1-0.1c-0.1-0.1-0.1-0.1-0.2-0.1c-0.9,0-0.9,0-1.3,0.2
			c0,0.1,0,0.2,0,0.3c0.1,0,0.1,0.1,0.1,0.1C146.4,14.1,146.8,14.1,147.2,14z"/>
		<path class="st1" d="M234,21.8c0.1-0.1,0-0.1,0.1-0.2c-0.1-0.2-0.3-0.3-0.6-0.2c-0.2,0.1-0.4,0.3-0.5,0.5c0,0.1,0,0.1,0,0.3
			c0.3,0.1,0.5,0.1,0.7,0C233.7,22.1,233.9,21.9,234,21.8z"/>
		<path class="st1" d="M100.5,6.2c0.1,0,0.2,0,0.3-0.1c0.3-0.1,0.4-0.3,0.5-0.5c0.1-0.1,0.1-0.2,0-0.3c-0.1-0.1-0.1-0.1-0.2,0
			c-0.1,0.1-0.2,0.2-0.4,0.3c-0.3-0.1-0.5-0.1-0.7-0.2c-0.3,0.1-0.3,0.2-0.1,0.3C100.1,6,100.2,6.1,100.5,6.2z"/>
		<path class="st1" d="M237.4,19.2c-0.1,0.2-0.1,0.4,0.1,0.6c0.1,0.1,0.2,0.1,0.4,0c0.1-0.3,0.3-0.5,0.3-0.8
			C237.9,18.8,237.8,18.8,237.4,19.2z"/>
		<path class="st1" d="M226.3,19.5c0.3-0.1,0.4-0.4,0.4-0.7c-0.3-0.2-0.5-0.2-0.9-0.1c-0.1,0.1-0.1,0.1-0.2,0.2
			C225.9,19.2,226,19.4,226.3,19.5z"/>
		<path class="st1" d="M107.9,14.5c0.3-0.1,0.5-0.3,0.5-0.5c0-0.3-0.2-0.3-0.5-0.3c-0.4,0.2-0.4,0.5-0.3,0.7
			C107.7,14.4,107.8,14.5,107.9,14.5z"/>
		<path class="st1" d="M81.1,2.1c0.1,0.1,0.3,0.3,0.4,0.6c0.3-0.1,0.5-0.2,0.7-0.3C82.2,2.2,82.1,2,81.9,2
			C81.7,1.8,81.3,1.8,81.1,2.1z"/>
		<path class="st1" d="M143.2,16.9c0.3-0.3,0.4-0.5,0.3-0.9c-0.1,0-0.2-0.1-0.3-0.1c-0.1,0.1-0.2,0.2-0.3,0.3c0,0.3-0.1,0.5,0.1,0.7
			C143,16.9,143.1,16.9,143.2,16.9z"/>
		<path class="st1" d="M105.2,6.9c0.2-0.2,0.1-0.5,0.4-0.6c0.1,0,0.3,0,0.5,0c0.1-0.1,0.3-0.1,0.3-0.3c-0.4-0.1-0.7,0.1-1.1,0.1
			c-0.2,0.2-0.3,0.4-0.3,0.6C105,6.9,105,6.9,105.2,6.9z"/>
		<path class="st1" d="M131.6,15.6c0.3,0.1,0.5,0.2,0.9,0.3c0.2-0.2,0.1-0.4-0.1-0.6c-0.3-0.1-0.5-0.1-0.8-0.1
			c-0.1,0.1-0.1,0.1-0.2,0.1c0,0.1,0,0.1,0.1,0.1C131.5,15.5,131.5,15.6,131.6,15.6z"/>
		<path class="st1" d="M123.4,16.3c0-0.1,0-0.2,0-0.3c-0.2-0.1-0.3-0.1-0.5,0c-0.2,0.2-0.4,0.4-0.5,0.7c0.1,0.1,0.2,0.1,0.3,0.1
			C123,16.6,123.2,16.4,123.4,16.3z"/>
		<path class="st1" d="M112.4,16c0.3,0.1,0.5,0.2,0.9,0.2c0.2,0,0.4,0,0.5-0.2c0-0.1,0-0.1,0.1-0.4c-0.5,0.3-1,0.3-1.4,0.2
			C112.4,15.8,112.4,15.9,112.4,16C112.4,16,112.4,16,112.4,16z"/>
		<path class="st1" d="M248.2,17.6c0-0.1-0.1-0.1-0.2-0.1c-0.1,0-0.1,0-0.1,0.1c-0.1,0.1-0.2,0.3-0.3,0.5c0.2,0.2,0.3,0.3,0.7,0.3
			c0.1-0.1,0.1-0.1,0.1-0.2C248.4,18,248.2,17.9,248.2,17.6z"/>
		<path class="st1" d="M102.1,3.1L102.1,3.1c0.1,0.2,0.2,0.3,0.3,0.1c0.1-0.1,0.1-0.1,0.2-0.2c-0.1-0.1-0.3-0.3-0.5-0.4
			c-0.1,0-0.3-0.1-0.5-0.1c-0.1,0-0.1,0.1-0.2,0.1C101.7,2.9,101.9,3,102.1,3.1z"/>
		<path class="st1" d="M137.4,15.4c0-0.1,0-0.1,0-0.2c-0.1-0.1-0.3-0.2-0.5-0.2c-0.2,0.3-0.1,0.5,0,0.7
			C137.2,15.8,137.3,15.6,137.4,15.4z"/>
		<path class="st1" d="M140.9,15.7c0.1-0.2,0.1-0.4,0.3-0.6V15c-0.1-0.1-0.2-0.1-0.3,0c-0.1,0.1-0.2,0.2-0.3,0.3
			c0,0.3,0,0.3,0.1,0.5C140.8,15.8,140.9,15.8,140.9,15.7z"/>
		<path class="st1" d="M232.2,25c-0.3,0.1-0.5,0.3-0.5,0.5c0.1,0.1,0.2,0.2,0.3,0.2c0.2-0.1,0.3-0.2,0.3-0.4c0-0.1,0-0.2-0.1-0.3
			C232.4,25,232.3,24.9,232.2,25z"/>
		<path class="st1" d="M237.1,23.1c-0.1,0.1-0.1,0.1-0.1,0.2s0.1,0.1,0.3,0.1c0.2-0.1,0.5-0.2,0.7-0.3c0-0.1-0.1-0.1-0.1-0.2
			C237.6,23,237.4,23,237.1,23.1z"/>
		<path class="st1" d="M101.9,4.6c-0.1-0.1-0.1-0.1-0.1-0.2c-0.2-0.1-0.4-0.1-0.7-0.1L101,4.3v0.1c0.1,0.1,0.2,0.3,0.5,0.4
			C101.5,4.8,101.7,4.7,101.9,4.6z"/>
		<path class="st1" d="M148.3,15.2c-0.5-0.1-0.7-0.1-0.8,0.3C148,15.8,148.2,15.6,148.3,15.2z"/>
		<path class="st1" d="M120.1,19.1c0,0.1,0,0.1,0.2,0.2c0.2-0.1,0.3-0.3,0.5-0.4c0-0.1,0.1-0.1,0-0.2c0-0.1-0.1-0.1-0.1-0.1
			c-0.1,0-0.1,0-0.2,0C120.2,18.7,120.1,18.9,120.1,19.1z"/>
		<path class="st1" d="M105.3,1.2c0.1,0,0.1,0,0.1,0c0.1-0.1,0.1-0.1,0.3-0.2c-0.3-0.2-0.6-0.5-1.1-0.3c0.2,0.1,0.4,0.3,0.5,0.4
			C105.3,1.1,105.3,1.2,105.3,1.2z"/>
		<path class="st1" d="M236.1,18.4c0.1,0,0.1-0.1,0.2-0.1c0.3-0.2,0.2-0.4-0.3-0.5c-0.3,0.3-0.3,0.3-0.1,0.6
			C236,18.4,236,18.4,236.1,18.4z"/>
		<path class="st1" d="M99.3,3.9c0,0.1,0,0.1,0.1,0.3c0.2,0.1,0.5,0.1,0.6-0.1c0-0.1,0-0.1-0.1-0.2C99.7,3.7,99.5,3.7,99.3,3.9z"/>
		<path class="st1" d="M220.3,18.1c0.3-0.1,0.5-0.2,0.5-0.5c-0.1,0-0.2,0-0.3,0c-0.2,0.1-0.4,0.1-0.6,0.3
			C219.9,18,220.1,18.1,220.3,18.1z"/>
		<path class="st1" d="M112.2,14.8c-0.3-0.2-0.3-0.2-0.6,0c0.1,0.2-0.1,0.4,0.1,0.6C112,15.2,112.1,15,112.2,14.8z"/>
		<path class="st1" d="M99.8,5.1c0.2,0.1,0.2,0.1,0.5,0c0.2-0.2,0.2-0.4,0-0.5c-0.1,0-0.1,0-0.2,0C99.8,4.7,99.8,4.9,99.8,5.1z"/>
		<path class="st1" d="M138.3,15.4C138.4,15.4,138.4,15.3,138.3,15.4c0.1-0.1,0.1-0.3,0.1-0.3c-0.1-0.1-0.1-0.3-0.4-0.4
			c-0.1,0.3-0.1,0.5,0.1,0.7C138.1,15.4,138.2,15.4,138.3,15.4z"/>
		<path class="st1" d="M253.4,15.5c0.1,0.3,0.1,0.3,0.5,0.3c0.1-0.1,0.1-0.3,0-0.4C253.8,15.3,253.6,15.4,253.4,15.5z"/>
		<path class="st1" d="M233.8,25.1c0.1,0.1,0.1,0.1,0.3,0.1c0.1,0.1,0.3,0,0.4-0.1c0-0.1,0-0.2-0.1-0.3
			C233.9,24.9,233.9,24.9,233.8,25.1z"/>
		<path class="st1" d="M235.8,23.4c-0.2,0.3-0.1,0.4,0.3,0.4c0.2-0.2,0.2-0.2,0-0.4C236,23.4,235.9,23.4,235.8,23.4z"/>
		<path class="st1" d="M228.5,18.5c-0.2-0.1-0.2-0.1-0.5-0.1c-0.2,0.2-0.2,0.4,0.1,0.6C228.2,18.8,228.4,18.7,228.5,18.5z"/>
		<path class="st1" d="M111.2,15.7c0.1-0.1,0.1-0.2,0.1-0.2c-0.1-0.1-0.3-0.1-0.5-0.1c-0.1,0.1-0.1,0.2-0.1,0.3
			C110.9,15.8,111.1,15.8,111.2,15.7z"/>
		<path class="st1" d="M254,17.1c-0.1,0.1-0.2,0.1-0.2,0.2c-0.1,0.1,0.1,0.4,0.3,0.4c0.2,0,0.3-0.2,0.3-0.3
			C254.3,17.2,254.2,17.1,254,17.1z"/>
		<path class="st1" d="M144.5,15.9c0.1,0,0.1-0.1,0.2-0.2c-0.1-0.1-0.1-0.2-0.4-0.3c-0.1,0.1-0.3,0.2-0.3,0.4
			C144.1,16,144.3,16,144.5,15.9z"/>
		<path class="st1" d="M231.3,22.3c0.2,0,0.4-0.1,0.6-0.1c0.1,0,0.1,0,0.1,0s0.1-0.1,0.1-0.1l-0.1-0.1c-0.3-0.1-0.5-0.1-0.8,0
			c-0.1,0-0.1,0.1-0.1,0.1C231.2,22.2,231.3,22.3,231.3,22.3z"/>
		<path class="st1" d="M152.3,15.5c0.3-0.2,0.3-0.3,0.1-0.5c-0.1-0.1-0.2-0.1-0.3,0c-0.1,0.1-0.1,0.1-0.1,0.1
			C152,15.3,152,15.4,152.3,15.5z"/>
		<path class="st1" d="M117.9,16c0.1,0,0.2,0,0.3-0.1c0-0.1-0.1-0.3-0.3-0.3c-0.1,0-0.2,0-0.3,0.1C117.7,16,117.7,16,117.9,16z"/>
		<path class="st1" d="M110.7,14.5c0.1-0.2,0.1-0.3,0.2-0.4L111,14c0-0.1-0.1-0.1-0.1-0.1c-0.1,0-0.1,0-0.2,0
			c-0.1,0.2-0.2,0.4-0.1,0.6C110.5,14.5,110.6,14.5,110.7,14.5z"/>
		<path class="st1" d="M239.7,23.6c-0.2,0.1-0.3,0.1-0.3,0.3c0.1,0.1,0.1,0.1,0.3,0.1c0.1,0.1,0.3,0,0.3-0.1
			C240,23.8,240,23.7,239.7,23.6z"/>
		<path class="st1" d="M244.5,17.9c-0.1,0-0.2,0-0.2,0.1c-0.1,0.1-0.1,0.1-0.1,0.2c0.1,0.1,0.3,0.2,0.5,0.1c0.1-0.1,0.1-0.2,0.1-0.3
			C244.6,18,244.5,17.9,244.5,17.9z"/>
		<path class="st1" d="M103.9,0.4c0.1,0,0.2,0,0.2-0.1V0.2c-0.1-0.1-0.3-0.2-0.5-0.1c-0.1,0.1-0.2,0.2-0.1,0.4
			C103.7,0.5,103.8,0.4,103.9,0.4z"/>
		<path class="st1" d="M235.9,24.5L235.9,24.5c0.1,0.2,0.2,0.3,0.3,0.3c0.1,0,0.1-0.1,0.2-0.1c0.1-0.1,0.1-0.2-0.1-0.3
			C236.1,24.3,235.9,24.3,235.9,24.5z"/>
		<path class="st1" d="M230.3,26.8c-0.1,0-0.1,0-0.1,0c0,0.1-0.1,0.1-0.1,0.3c0,0.1,0.1,0.2,0.3,0.1c0.1,0,0.2-0.1,0.2-0.2
			C230.5,26.9,230.4,26.8,230.3,26.8z"/>
		<path class="st1" d="M103.5,11.4c0.1,0.1,0.1,0.1,0.2,0.1s0.1-0.1,0.1-0.1c0-0.1-0.1-0.3-0.4-0.4
			C103.3,11.1,103.3,11.3,103.5,11.4z"/>
		<path class="st1" d="M142.3,14.9c0.1-0.1,0.1-0.1,0.2-0.2c0-0.1,0-0.1-0.1-0.1s-0.1-0.1-0.2-0.1c-0.1,0-0.3,0.1-0.3,0.2
			c0,0.1,0,0.1,0.1,0.1C142.1,14.9,142.3,14.9,142.3,14.9z"/>
		<path class="st1" d="M72.9,3.1c0.1,0.1,0.2,0.1,0.3,0.1c0.1,0,0.2-0.1,0.3-0.2c0-0.1-0.1-0.1-0.3-0.1c-0.1,0-0.1,0.1-0.2,0.1
			C72.9,2.9,72.8,3,72.9,3.1z"/>
		<path class="st1" d="M253.6,16.2c-0.1-0.1-0.2-0.1-0.3,0c-0.1,0.1-0.1,0.1-0.2,0.3c0.1,0.1,0.2,0.1,0.3,0.1c0.1,0,0.3-0.1,0.3-0.3
			C253.6,16.3,253.6,16.2,253.6,16.2z"/>
		<path class="st1" d="M97.2,13.7c-0.3,0.1-0.3,0.2-0.1,0.5c0.1,0,0.2,0,0.3,0C97.4,14,97.4,13.8,97.2,13.7z"/>
		<path class="st1" d="M129.1,17c0.1,0,0.2,0,0.3-0.1c-0.1-0.2-0.3-0.2-0.6-0.1c-0.1,0-0.1,0.1-0.1,0.1v0.1
			C128.7,16.9,128.9,17,129.1,17z"/>
		<path class="st1" d="M149.9,14c0.1-0.1,0.1-0.1,0.2-0.2c-0.2-0.1-0.4-0.3-0.7-0.2C149.5,13.9,149.7,13.9,149.9,14z"/>
		<path class="st1" d="M108,8.4c0.1-0.1,0.1-0.2,0-0.3c-0.1,0-0.1-0.1-0.2,0c-0.1,0-0.1,0.1-0.1,0.1C107.6,8.4,107.8,8.4,108,8.4z"
			/>
		<path class="st1" d="M106.4,13.5c0.1,0,0.2,0,0.2-0.1c0-0.1,0-0.1-0.1-0.1c-0.1,0-0.1-0.1-0.2-0.1c-0.1,0-0.2,0.1-0.2,0.1
			s0,0.1,0.1,0.1C106.2,13.5,106.3,13.5,106.4,13.5z"/>
		<path class="st1" d="M240.7,19C240.7,19,240.6,19,240.7,19c-0.1,0.1-0.2,0.2-0.1,0.3c0,0.1,0.1,0.1,0.2,0.1
			c0.1-0.1,0.2-0.1,0.2-0.2v-0.1C240.8,19.1,240.8,19,240.7,19z"/>
		<path class="st1" d="M102.6,2.4c0-0.1-0.1-0.3-0.3-0.3c-0.1,0.1-0.1,0.3-0.1,0.4C102.3,2.6,102.5,2.5,102.6,2.4z"/>
		<path class="st1" d="M148.5,13.9c0.1,0,0.1,0,0.2-0.1c0,0,0-0.1,0-0.1c-0.1,0-0.2-0.1-0.3-0.1c-0.1,0-0.1,0.1-0.2,0.1
			c0,0.1,0.1,0.1,0.1,0.1C148.4,13.9,148.4,13.9,148.5,13.9z"/>
		<path class="st1" d="M103.7,1.2c-0.3,0.2-0.2,0.3,0,0.6C103.9,1.2,103.9,1.2,103.7,1.2z"/>
		<path class="st1" d="M122,16.3c0.1-0.1,0.1-0.1,0.2-0.2c0.1-0.1-0.1-0.2-0.2-0.1c-0.1,0-0.1,0.1-0.1,0.1
			C121.8,16.2,121.8,16.3,122,16.3C121.8,16.3,121.9,16.2,122,16.3z"/>
		<path class="st1" d="M148.8,15.6c0,0.1,0.1,0.2,0.3,0.2c0-0.1,0.1-0.1,0.1-0.1c0-0.1,0-0.1-0.1-0.1c-0.1-0.1-0.1-0.1-0.2-0.1
			C148.8,15.5,148.8,15.6,148.8,15.6z"/>
		<path class="st1" d="M144.1,13.9c0.1,0,0.1,0,0.1-0.1c0.1-0.1,0.1-0.1,0.1-0.1c0,0-0.1-0.1-0.1-0.1c-0.1,0-0.2,0-0.3,0
			s-0.1,0.1-0.1,0.1C143.9,13.7,144.1,13.8,144.1,13.9z"/>
		<path class="st1" d="M85.6,1.3c0.1,0,0.1-0.1,0.1-0.1c-0.1-0.1-0.2-0.3-0.4-0.3c-0.2,0.2,0,0.3,0.2,0.5
			C85.4,1.3,85.5,1.3,85.6,1.3z"/>
		<path class="st1" d="M128.3,15.8c0.1,0,0.1-0.1,0.1-0.1c0.1-0.1-0.1-0.1-0.2-0.1c-0.1,0-0.1,0.1-0.2,0.1c0,0,0,0.1,0.1,0.1
			C128.2,15.8,128.3,15.8,128.3,15.8z"/>
		<path class="st1" d="M127.1,16c0.1-0.1-0.1-0.2-0.1-0.1c-0.1,0-0.1,0.1-0.1,0.1c0.1,0.1,0.1,0.1,0.1,0.1C126.9,16,127,16,127.1,16
			z"/>
		<path class="st1" d="M221.2,20.9c0.1,0,0.3-0.1,0.2-0.1c0-0.1-0.1-0.1-0.1-0.1c-0.1,0-0.1,0.1-0.2,0.1
			C221.1,20.9,221.1,20.9,221.2,20.9z"/>
		<path class="st1" d="M240.8,18.6c0.1-0.1-0.1-0.2-0.2-0.1c-0.1,0-0.1,0.1-0.1,0.1c0.1,0.1,0.1,0.1,0.1,0.1
			C240.7,18.8,240.8,18.7,240.8,18.6z"/>
		<path class="st1" d="M71.2,3.9c-0.1,0.1,0.1,0.2,0.2,0.1c0.1,0,0.1-0.1,0.1-0.1c-0.1,0-0.1-0.1-0.1-0.1
			C71.4,3.8,71.2,3.9,71.2,3.9z"/>
		<path class="st1" d="M226.2,23.4c0.1,0,0.3-0.1,0.2-0.1c0-0.1-0.1-0.1-0.1-0.1c-0.1,0-0.1,0.1-0.2,0.1
			C226.1,23.3,226.2,23.4,226.2,23.4z"/>
		<path class="st1" d="M239.6,20.9c-0.1,0-0.1,0.1-0.1,0.1c0.1,0.1,0.1,0.1,0.1,0.1c0.1,0,0.1,0,0.2-0.1
			C239.8,20.9,239.8,20.9,239.6,20.9z"/>
		<path class="st1" d="M259.8,18.3c-0.1,0-0.1,0.1-0.1,0.1c0.1,0.1,0.1,0.1,0.1,0.1c0.1,0,0.1,0,0.2-0.1
			C260,18.4,259.9,18.3,259.8,18.3z"/>
		<path class="st1" d="M81.2,0.4c0.1,0.1,0.2,0.1,0.2,0s0.1-0.1,0-0.1c-0.1-0.1-0.2-0.1-0.3-0.1C81,0.2,81,0.3,81.1,0.3
			C81.1,0.3,81.2,0.3,81.2,0.4z"/>
		<path class="st1" d="M127.1,12c0.1-0.1,0.1-0.1-0.1-0.2c-0.1,0-0.1,0-0.2,0c-0.1,0.1-0.1,0.1-0.1,0.1c0,0.1,0.1,0.1,0.1,0.1
			C127,12,127.1,12,127.1,12z"/>
		<path class="st1" d="M228.8,28.3C228.8,28.3,228.8,28.3,228.8,28.3c0.2,0.1,0.5-0.1,0.5-0.2l-0.1-0.1
			C229,28.1,228.8,28.1,228.8,28.3z"/>
		<path class="st1" d="M105.6,7.8c0-0.1,0-0.1-0.1-0.1c-0.1,0-0.1,0-0.1,0c-0.1,0.1-0.1,0.2-0.1,0.3C105.3,8,105.5,8,105.6,7.8z"/>
		<path class="st1" d="M226.2,26.6c-0.1,0.1,0,0.1,0.1,0.1c0,0,0.1,0,0.1,0c0.1-0.1,0.1-0.1,0.1-0.1l-0.1-0.1
			C226.3,26.5,226.2,26.5,226.2,26.6z"/>
		<path class="st1" d="M256.9,19.4c-0.1,0-0.1,0.1-0.2,0.1c-0.1,0.1,0,0.1,0.1,0.1c0,0,0.1,0,0.1-0.1c0.1-0.1,0.1-0.1,0.1-0.1
			C256.9,19.4,256.9,19.4,256.9,19.4z"/>
		<path class="st1" d="M232.3,27c-0.1,0.1-0.1,0.1-0.2,0.1c0,0-0.1,0.1,0,0.1c0.1,0.1,0.1,0.1,0.2,0C232.3,27.1,232.3,27.1,232.3,27
			C232.3,27,232.3,27,232.3,27z"/>
		<path class="st1" d="M250.1,17.7c-0.1,0-0.1,0.1-0.2,0.1c-0.1,0.1,0,0.1,0.1,0.1c0,0,0.1,0,0.1-0.1c0.1-0.1,0.1-0.1,0.1-0.1
			C250.1,17.7,250.1,17.7,250.1,17.7z"/>
		<path class="st1" d="M241,13.4L241,13.4c-0.1,0.1,0.1,0.2,0.2,0.2l0.1-0.1C241.2,13.4,241.1,13.4,241,13.4z"/>
		<path class="st1" d="M76.6,2.9c0-0.1-0.1-0.1-0.3-0.1l-0.1,0.1C76.3,3,76.3,3,76.6,2.9C76.5,2.9,76.6,2.9,76.6,2.9z"/>
		<path class="st1" d="M72.7,2.2c0.1,0,0.1,0,0.2,0L73,2.1C72.9,2,72.9,2,72.8,2c0,0-0.1,0-0.1,0C72.6,2.1,72.6,2.2,72.7,2.2z"/>
		<path class="st1" d="M151.4,16L151.4,16c0-0.1,0-0.1-0.1-0.2c-0.1-0.1-0.1,0-0.2,0.1v0.1C151.3,15.9,151.4,16,151.4,16z"/>
		<path class="st1" d="M134.4,16.3L134.4,16.3c0.1-0.1-0.1-0.2-0.1-0.2l-0.1,0.1C134.2,16.2,134.2,16.3,134.4,16.3z"/>
		<path class="st1" d="M126,16.4L126,16.4c0.1-0.2,0-0.3-0.1-0.2l-0.1,0.1C125.8,16.4,126,16.4,126,16.4z"/>
		<path class="st1" d="M109.8,12.9L109.8,12.9c0.1-0.2,0-0.2-0.1-0.2l-0.1,0.1C109.5,12.8,109.6,12.9,109.8,12.9z"/>
		<path class="st1" d="M105.3,10.3c-0.1,0-0.1,0.1-0.1,0.1c0,0,0.1,0.1,0.1,0c0.1,0,0.2-0.1,0.5-0.1
			C105.5,10.3,105.4,10.2,105.3,10.3z"/>
		<path class="st1" d="M118.1,15.1C118.1,15.1,118.2,15.1,118.1,15.1l0.1-0.1c0,0-0.1,0-0.1,0C118,15,118,15.1,118.1,15.1z"/>
		<path class="st1" d="M253.6,19C253.5,19,253.5,19,253.6,19c0.1,0.1,0.1,0.1,0.1,0v-0.1C253.6,19,253.6,19,253.6,19z"/>
		<path class="st1" d="M154.1,15.4C154.2,15.4,154.2,15.4,154.1,15.4l-0.1-0.1v0.1C154.1,15.4,154.1,15.4,154.1,15.4z"/>
		<path class="st1" d="M144.2,15C144.2,15.1,144.3,15.1,144.2,15c0.1,0.1,0.1,0,0.1,0v-0.1L144.2,15C144.3,15,144.2,15,144.2,15z"/>
		<path class="st1" d="M242.9,18.3C242.9,18.3,243,18.3,242.9,18.3l0.1-0.1c0,0-0.1,0-0.1,0C242.8,18.2,242.8,18.3,242.9,18.3z"/>
		<path class="st1" d="M108.1,12.8C108.1,12.8,108.2,12.8,108.1,12.8c0.1-0.1,0.1-0.1,0-0.1H108C108,12.8,108,12.8,108.1,12.8z"/>
		<path class="st1" d="M104,2.3c0,0.1,0.1,0.1,0.1,0.1V2.3H104C104.1,2.3,104,2.3,104,2.3z"/>
		<path class="st1" d="M102.9,4.6L102.9,4.6L102.9,4.6h-0.1C102.7,4.6,102.7,4.7,102.9,4.6C102.8,4.6,102.9,4.6,102.9,4.6z"/>
		<path class="st1" d="M82.6,0.3c0.1,0,0.1,0,0.1-0.1V0.1c-0.1,0-0.1,0-0.1,0S82.5,0.2,82.6,0.3L82.6,0.3z"/>
		<path class="st1" d="M74.1,2.2L74.1,2.2C74,2.2,74,2.2,74,2.2C74,2.2,74,2.2,74.1,2.2C74.1,2.2,74.1,2.2,74.1,2.2z"/>
		<path class="st1" d="M78,6c0,0.1,0.1,0.1,0.1,0.1V6H78C78,6,78,6,78,6z"/>
		<path class="st1" d="M82.6,4.8c0.1,0,0.1-0.1,0.2-0.1c0.1-0.1,0-0.1-0.1-0.1c-0.1,0-0.3,0.1-0.5,0.1C82.2,4.8,82.4,4.8,82.6,4.8z"
			/>
	</g>
</g>
</svg>
