<?xml version="1.0" encoding="utf-8"?>
<!-- Generator: Adobe Illustrator 24.0.3, SVG Export Plug-In . SVG Version: 6.00 Build 0)  -->
<svg version="1.1" id="Layer_1" xmlns="http://www.w3.org/2000/svg" xmlns:xlink="http://www.w3.org/1999/xlink" x="0px" y="0px"
	 viewBox="0 0 259 47.3" style="enable-background:new 0 0 259 47.3;" xml:space="preserve">
<style type="text/css">
	.st0{clip-path:url(#SVGID_2_);}
	.st1{opacity:0.7;fill:#6E5D9D;enable-background:new    ;}
</style>
<g>
	<defs>
		<rect id="SVGID_1_" width="259" height="47.3"/>
	</defs>
	<clipPath id="SVGID_2_">
		<use xlink:href="#SVGID_1_"  style="overflow:visible;"/>
	</clipPath>
	<g class="st0">
		<path class="st1" d="M221.4,26.7c-0.2,0.4-0.2,0.4,0,0.9c0.1,0,0.3,0,0.5-0.1c0.3,0.1,0.6,0.3,0.9,0.5c0.1,0.1,0.1,0.1-0.1,0.3
			c-0.1,0-0.1,0.1-0.2,0.1c-0.4,0.1-0.7,0.1-1.1,0.2c-0.3,0.1-0.7,0-1.1,0.1c-0.4,0-0.9,0.1-1.2,0.1c-0.5,0.1-0.7,0.3-1.4,0.2
			c-0.1,0-0.3-0.1-0.5-0.2c-0.2,0.1-0.3,0.1-0.5,0.1c-0.1,0-0.3-0.1-0.5-0.1c-0.1,0-0.2,0-0.3,0L214,29c-0.2,0-0.4,0.1-0.6,0.1
			c-0.4,0.1-0.8,0.1-1.3,0.2c-0.2,0-0.5-0.1-0.7-0.1c-0.2,0.1-0.3,0.1-0.6,0.2c-0.1,0-0.3-0.1-0.5-0.1c-0.3,0-0.5,0.1-0.8,0.2
			c-0.6,0.1-1.3,0.1-2.1,0.1c-0.2,0-0.5-0.1-0.7-0.1c-0.1,0-0.2,0-0.3,0.1c-0.7,0.2-1.3,0.3-1.9,0.2c-0.4-0.1-0.7-0.1-1.1,0.1
			c-0.3,0.1-0.5,0.1-0.9,0.1c-0.8,0.1-1.6,0.1-2.3,0.1c-0.9,0.3-0.9,0.3-2.3,0.2c-0.2,0.1-0.4,0.1-0.7,0.2c-0.9,0.1-1.8,0.2-2.7,0.2
			c-0.3,0-0.6,0.1-0.9,0.1c-0.4,0.1-0.8,0.1-1.2,0.2c-0.7,0.1-1.5,0.1-2.3,0.1c-0.1,0-0.3-0.1-0.6-0.1c-0.8,0.3-1.7,0.3-2.7,0.3
			c-0.1,0-0.5,0.1-0.8,0.1c-0.2,0-0.4,0-0.6,0.1c-0.5,0.1-0.9,0.1-1.3,0.2l-5.2,0.3l-2.5,0.1c-0.3,0-0.5,0.1-0.8,0.1
			c-0.1,0-0.3-0.1-0.6-0.1c-0.5,0.1-1.1,0.3-1.8,0.1c-0.2,0.1-0.5,0.1-0.7,0.1c-0.3,0.1-0.5,0.1-0.7,0.1l-3.2,0.2
			c-0.2,0-0.4,0-0.6,0.1c-0.6,0.2-1.3,0.2-1.9,0.3c-0.5,0.1-0.9,0.1-1.5,0.2c-0.3,0.1-0.7,0.1-1.1,0.1c-0.5,0.1-1.1,0.2-1.7,0.3
			c-0.5,0.1-1,0.2-1.5,0.3c-0.7,0.3-1.5,0.3-2.3,0.5c-0.7,0.2-1.4,0.3-2.1,0.5c-0.9,0.2-1.7,0.3-2.6,0.5c-0.2,0.1-0.4,0.1-0.6,0.1
			c-0.5,0.1-1,0.1-1.4,0.2c-1,0.1-1.9,0.4-3,0.4c-0.5,0-0.9,0.1-1.5,0.1c-0.2,0-0.4,0.1-0.6,0.1c-0.3,0.1-0.5,0.1-0.8,0.1
			c-0.1,0-0.1,0-0.1,0c-1.1,0.3-2.1,0.2-3.2,0.3c-1.1,0.1-2.1,0.2-3.2,0.3c-0.3,0-0.5,0.1-0.7,0c-0.4-0.1-0.8-0.1-1.2,0l-4.6,0.4
			c-0.2,0-0.4,0.1-0.6,0c-0.5-0.1-0.9,0-1.4,0c-0.3,0-0.6,0.1-0.9,0.1c-0.3,0-0.5-0.1-0.8-0.1c-0.1,0.1-0.3,0.1-0.5,0.1
			c-0.3-0.1-0.7-0.1-1.1-0.1c-0.3,0.1-0.7,0.2-1,0.1c-0.5-0.1-1,0-1.5,0c-0.1,0-0.1,0-0.3,0c-0.1-0.1-0.3-0.1-0.5-0.2
			c-0.6,0.1-1.1,0.3-1.7,0.1c-0.3-0.1-0.6,0.1-0.9,0.1c-0.3-0.1-0.6-0.1-0.9-0.1c-0.5,0.1-1,0.1-1.5,0.1c-0.5,0.1-0.9,0.1-1.4,0
			c-0.2-0.1-0.5,0-0.7,0c-0.3,0-0.7,0.1-1.1,0c-0.1,0-0.3,0-0.5,0c-0.5,0.1-1.1,0.1-1.6,0.1c-0.1,0-0.3,0-0.5,0.1
			c-0.4,0.1-0.9,0.1-1.2,0c-0.3,0.1-0.5,0.1-0.7,0.1c-1,0.1-1.9,0.1-2.9,0.1c-0.1,0-0.3-0.1-0.5,0c-0.7,0.1-1.5,0-2.2,0.1
			c-0.2,0-0.5,0-0.7,0c-0.1,0.1-0.3,0.1-0.4,0.1c-0.4,0-0.7,0-1.1,0.1c-0.3,0-0.6,0.1-0.9,0.1c-0.4,0-0.9,0.1-1.3,0.1
			c-0.3,0.1-0.7,0.1-1.1,0.1c-0.3,0-0.6,0-0.9,0.1c-0.5,0.1-1,0.1-1.5,0.1c-0.4,0-0.8,0.1-1.1,0.1c-0.4,0.1-0.7,0.1-1.1,0.1
			c-0.3,0-0.5,0.1-0.8,0.1c-0.7,0.1-1.3,0.2-1.9,0.2c-0.2,0-0.5,0.1-0.7,0.1c-0.5,0.1-1,0.2-1.5,0.1c-0.2,0-0.5,0.1-0.7,0.1
			c-0.7,0.1-1.3,0.3-1.9,0.2c-0.2,0-0.5,0.1-0.7,0.1C86.8,40,86.5,40,86.2,40c-0.3,0-0.6,0.1-0.9,0.1c-0.2,0-0.5,0-0.7,0.1
			c-0.5,0.1-1.1,0.3-1.6,0.2c-0.2,0-0.4,0.1-0.6,0.1c-0.7,0.1-1.5,0.3-2.3,0.3l-1.5,0.3c-0.3,0.1-0.7,0.1-1.1,0.1
			c-0.2,0-0.5,0.1-0.7,0.1l-1.5,0.3c-0.3,0.1-0.7,0.1-1.1,0.1c-0.4,0-0.8,0.1-1.2,0.2c-0.5,0.1-1.1,0.3-1.7,0.3
			c-0.4,0-0.8,0.1-1.2,0.2c-0.5,0.1-0.9,0.2-1.3,0.2c-0.1,0-0.1,0-0.3,0c-0.5,0.1-1.1,0.2-1.7,0.3c-0.3,0.3-0.8,0.3-1.3,0.5
			c-0.3,0.1-0.7,0.1-1.1,0.1c-0.2,0-0.4,0.1-0.6,0.1c-0.4,0.1-0.8,0.1-1.3,0.1c-0.1,0-0.3,0-0.4,0.1c-0.7,0.1-1.4,0.2-2.1,0.3
			c-0.5,0.1-0.9,0.1-1.4,0.1c-0.4,0.1-0.9,0.1-1.3,0.1c-0.1,0-0.3,0-0.4,0.1c-0.7,0.1-1.3,0.1-2,0.2c-0.4-0.1-0.9,0.1-1.3,0.1
			c-0.3,0.1-0.5,0.1-0.7,0.1c-0.3,0-0.5,0-0.7,0.1c-0.5,0.1-0.9,0.2-1.4,0.2c-0.4,0-0.9,0.1-1.3,0.1c-0.5,0-0.9,0.1-1.4,0.1
			c-0.4,0.1-0.9,0.1-1.3,0.1c-0.4,0-0.7,0.1-1.1,0.3c-0.5,0-1.1,0-1.9,0c-0.3,0.1-0.7,0.1-1.1,0.2C42.3,46,42,46,41.7,46
			c-0.6-0.1-1.1,0.1-1.7,0.3c-0.1,0-0.1,0.1-0.3,0.1c-0.1,0-0.3,0-0.5,0l-0.3,0.1c-0.2,0.1-0.4,0.1-0.6,0.2
			c-0.4,0.1-0.7,0.3-1.1,0.3c-0.3,0-0.7,0-1.1,0c-0.1,0-0.3,0.1-0.5,0.1c-0.1,0.1-0.3,0.1-0.5,0.1c-1.1,0-2.2-0.1-3.2-0.2
			c-0.3-0.1-0.8-0.1-1.2-0.1c-0.3-0.1-0.7-0.1-1.1-0.3c-0.4,0-0.8,0.1-1.3,0.1c-0.4,0-0.9-0.1-1.2-0.1c-0.5,0-0.9,0-1.3,0
			c-0.6,0-1.2,0-1.8-0.1c-0.2-0.1-0.5-0.1-0.7-0.1c-0.9-0.1-1.9-0.3-2.8-0.5c-0.7-0.2-1.4-0.5-2.1-0.7c-0.3,0-0.6,0-0.9-0.1
			c-0.6-0.1-1.2-0.3-1.8-0.5c-0.6-0.1-1.3-0.3-1.9-0.5c-0.4-0.1-0.7-0.2-1.1-0.3c-0.7-0.2-1.3-0.5-1.9-0.8c-1.4-0.7-2.6-1.7-3.7-2.6
			c-0.3-0.2-0.5-0.3-0.7-0.6c-0.2-0.1-0.5-0.2-0.7-0.3c-0.1-0.1-0.3-0.1-0.5-0.2c-0.5-0.3-0.9-0.6-1.3-0.9c-0.5-0.3-0.9-0.5-1.3-0.8
			c-0.4-0.2-0.7-0.5-1-0.8c-0.3-0.3-0.6-0.6-0.8-1c-0.1-0.2-0.3-0.4-0.4-0.6c-0.1-0.4-0.2-0.8-0.3-1.2c0-0.3-0.1-0.7-0.2-1.1
			c-0.1-0.3,0.2-0.3,0.2-0.8c0-0.1,0-0.3,0-0.5c0.1-0.3,0.3-0.3,0.5-0.3c0.2-0.1,0.4-0.2,0.6-0.3c0.2,0,0.5,0,0.8,0
			c0.1-0.1,0.3-0.2,0.5-0.4c0.2,0,0.5,0,0.7,0c0.3,0,0.5,0.1,0.8,0.1c0.3-0.1,0.5-0.1,0.8,0c0.1-0.1,0.3-0.2,0.5-0.3
			c0.1-0.1,0.3-0.1,0.4-0.1c0.3-0.3,0.5-0.6,0.7-0.8c0.2-0.5,0.2-1.1,0.1-1.6c-0.1-0.6-0.1-1.3,0-1.8c0-0.2,0-0.5,0-0.7
			c0-0.1,0.1-0.2,0.1-0.3c0.9-0.5,0.9-0.5,1.7-0.5c0.1-0.1,0.3-0.2,0.5-0.3C9,24,9.2,24,9.4,24c0.5-0.2,1.1-0.4,1.5-0.7
			c0.3-0.3,0.5-0.5,0.7-0.8c0.2-0.2,0.3-0.4,0.6-0.5c0,0,0.1,0,0.1-0.1c0.2-0.2,0.3-0.4,0.5-0.5c0.2-0.1,0.4-0.3,0.5-0.5
			c0.4-0.5,0.9-0.8,1.4-0.9c0.1,0,0.1-0.1,0.2-0.1c0.1-0.2,0.3-0.4,0.5-0.6c0.5-0.4,1-0.9,1.5-1.3c0.2-0.1,0.3-0.3,0.5-0.4
			c0.4-0.4,0.8-0.7,1.1-1.1c0.3-0.3,0.6-0.5,0.9-0.9c0.2-0.3,0.5-0.5,0.7-0.6c0.2-0.3,0.4-0.4,0.6-0.7c0.3-0.4,0.6-0.9,0.9-1
			l0.1-0.1c0.3-0.3,0.3-0.4,0.4-0.6c0.1-0.1,0.1-0.3,0.1-0.3c0.1-0.1,0.1-0.2,0.2-0.3c0.1-0.1,0.1-0.3,0.2-0.4
			c0.1-0.1,0.3-0.2,0.4-0.3c0.1-0.2,0.4-0.5,0.6-0.8c0.1-0.1,0.2,0.1,0.3-0.1c0.1-0.1,0.3-0.3,0.4-0.5c0.3-0.1,0.7-0.4,1.3-0.4
			c0.3-0.2,0.7-0.4,1-0.7c0.2-0.1,0.3-0.2,0.5-0.3c0.2-0.1,0.4-0.2,0.7-0.3c0.3,0,0.5,0,0.7,0c0.3-0.1,0.5-0.2,0.9-0.4
			c0.2,0,0.5-0.1,0.8-0.1c0.1,0,0.3-0.1,0.4,0c0.3,0.1,0.5,0,0.8-0.1c0.5-0.1,0.9-0.2,1.3-0.3C33.2,7.3,33.7,7.2,34,7
			c0.4-0.2,0.8-0.2,1.2-0.4c0.1-0.1,0.3-0.1,0.5-0.1c0.2,0.1,0.5,0.1,0.7,0.2c0.2,0,0.3-0.1,0.6-0.1c0.3-0.3,0.6-0.5,0.9-0.7
			c0.3-0.1,0.6-0.1,0.9-0.2c0.4,0,0.7,0.1,1.1,0.1c0.5-0.2,1-0.3,1.5-0.3c0.3-0.1,0.5-0.1,0.7-0.3c0.2,0,0.4,0.1,0.6,0.1
			c0.3-0.1,0.8-0.1,1.2-0.3c0.6,0.1,1.2-0.1,1.7,0.1C46,5.1,46.2,5.1,46.3,5c0.1,0.1,0.3,0.1,0.5,0.2c0.6-0.1,1.3-0.3,1.9-0.4
			c0.6-0.1,1.2-0.3,1.7-0.4c0.3,0,0.6,0,0.9,0c0.3-0.1,0.6-0.1,0.9-0.1c0.3,0,0.5-0.1,0.9-0.1c0.1,0.1,0.3,0.1,0.5,0.1
			c0.5-0.3,1.2-0.4,1.9-0.5c0.3,0.1,0.7,0.1,1.1,0.2c0.3-0.2,0.6-0.3,0.9-0.5c0.6-0.3,1.3-0.2,1.9-0.6c0.5-0.1,0.9-0.1,1.4,0
			c0.5,0,0.9-0.1,1.3-0.1C62.2,2.8,62.4,3,62.5,3c0.3,0,0.4-0.3,0.8-0.5c0.2-0.1,0.5-0.1,0.9-0.2c0.5,0,0.9,0,1.5,0
			c0.2-0.1,0.5-0.2,0.7-0.3c0.4-0.1,0.8-0.3,1.2-0.3c0.3,0,0.7-0.1,1.1-0.1c0.1-0.1,0.2-0.2,0.3-0.3c0.2-0.1,0.4-0.1,0.6-0.2
			c0.3,0,0.5,0,0.7,0c0.2,0,0.4-0.1,0.7-0.1c0.2,0.1,0.5,0.1,0.7,0.2c0.2,0.1,0.5,0.1,0.7,0.1l0.1,0.1l-0.1,0.1
			c-0.3,0-0.6,0.1-0.9,0.2c-0.1-0.1-0.3-0.1-0.5-0.1c-0.1,0.1-0.1,0.1-0.2,0.2c0,0.4,0.2,0.7,0.1,1.2c-0.3,0.1-0.4-0.3-0.7-0.2
			c-0.3,0.1-0.5,0.3-0.5,0.5c0,0.1,0.1,0.3,0.2,0.4C70,3.9,70,4,70,4.1c-0.3,0.1-0.5-0.1-0.9-0.2c-0.2,0-0.6,0.1-0.9,0.1
			c-0.3,0-0.5,0.2-0.9,0.1C67.2,4,67,3.8,66.9,3.7c-0.1-0.3-0.1-0.6-0.3-0.9c-0.1,0-0.1,0-0.1,0c-0.1,0.3-0.1,0.5-0.4,0.8
			c0.1,0.2,0.1,0.3,0.1,0.5c0.1,0.1,0.1,0.2,0.2,0.3c-0.1,0.1-0.1,0.1-0.2,0.2c-0.2-0.1-0.3-0.1-0.5-0.1c-0.1,0.1-0.2,0.1-0.3,0.1
			c-0.1,0.2-0.1,0.4,0.1,0.5c0.2,0,0.4,0.1,0.7,0.1c0.2,0.1,0.3,0.2,0.4,0.4c0.3,0.1,0.4,0.1,0.6,0c0.3-0.2,0.5-0.4,0.5-0.7
			c0-0.1,0.1-0.1,0.1-0.3c0.5,0.1,1,0.3,1.3,0.5c0.5,0,0.5-0.3,0.7-0.3c0.3,0,0.2,0.2,0.3,0.3c0.1,0.1,0.3,0.2,0.4,0.3
			c0.2,0.3,0.2,0.5,0.1,0.7c0.2,0.1,0.3,0.3,0.5,0.4c0,0,0.1,0,0.1,0c0.1-0.1,0-0.3,0.1-0.5c0-0.1,0.1-0.3,0.1-0.5
			c-0.1-0.1-0.3-0.2-0.4-0.3c0-0.1,0.1-0.3,0.2-0.5c0.2-0.1,0.4-0.1,0.6-0.2C71.8,4.3,72,4.1,72.2,4c0.2-0.1,0.4-0.1,0.6-0.1
			c0.1,0,0.3,0,0.5-0.1c0.1-0.1,0.1-0.2,0.2-0.3c0-0.1,0.1-0.3,0.3-0.3c0.3,0,0.2,0.2,0.4,0.3c0.3,0.1,0.5-0.2,0.7-0.2
			C75,3.3,75,3.3,75,3.4c0.1,0.1,0,0.3-0.1,0.3c-0.1,0.1-0.3,0.1-0.3,0.1c-0.1,0.1-0.2,0.1-0.3,0.2c-0.1,0.2,0.1,0.3,0.1,0.5
			c-0.1,0.2-0.1,0.4-0.2,0.6c0.1,0.2,0.3,0.2,0.5,0.3c0.1,0.1,0.1,0.2,0.3,0.2c0.1-0.3-0.1-0.5-0.1-0.8c0.1-0.3,0.3-0.5,0.5-0.6
			c0.3-0.1,0.5-0.1,0.8-0.1c0.3-0.1,0.4-0.5,0.9-0.5c0-0.3-0.1-0.5-0.1-0.7C77.2,2.7,77,2.5,77,2.3c0-0.1,0.1-0.3,0.5-0.4l0.1-0.5
			c-0.1-0.1-0.1-0.1-0.3-0.1c-0.2,0.1-0.4,0.3-0.6,0.4c-0.1,0-0.1,0-0.3,0.1c-0.3,0-0.5-0.3-0.9-0.3c-0.1,0-0.1,0-0.3,0
			c-0.1,0-0.1,0-0.1,0.1C75,1.8,75.1,2,75.2,2.2c0,0.1,0,0.1-0.1,0.2C75,2.5,75,2.6,75,2.8c0,0.1-0.1,0.3-0.3,0.3
			c-0.4-0.2-0.1-0.6-0.1-0.9c-0.2-0.2-0.3-0.4-0.7-0.5c-0.3,0-0.6,0.1-0.9,0.1c-0.2-0.1-0.2-0.1-0.2-0.3c0.1-0.1,0.1-0.1,0.2-0.2
			c0.5-0.1,0.9,0.1,1.5,0c0.1-0.1,0.3-0.1,0.5-0.1c0.5,0,0.9-0.1,1.3-0.2c0.1,0,0.2-0.1,0.3-0.1c1.1,0.1,2.1-0.3,3.2-0.5
			c0.1,0,0.3,0,0.3-0.1c0.3,0,0.4,0.1,0.5,0.3c0.1,0.1,0.2,0.3,0.3,0.5c0,0.1,0,0.1-0.1,0.2C80.5,1.7,80.3,1.8,80,2
			C80,1.9,80,1.8,79.9,1.6c-0.1-0.1-0.1-0.3-0.1-0.4c0-0.1-0.1-0.2-0.3-0.1c-0.3,0.1-0.6,0.1-0.9,0.2c-0.3,0.2-0.5,0.4-0.6,0.7
			C78,2,77.9,2.1,77.8,2.2c0.1,0.1,0.1,0.1,0.1,0.3c0,0.1-0.1,0.3-0.1,0.3C78,2.9,78.2,3,78.4,3.2c0.1,0.1,0.1,0.3-0.1,0.3
			C78,3.7,78,4,77.8,4.2c0,0.1-0.1,0.1-0.1,0.2c-0.1,0.1-0.3,0.2-0.3,0.3c-0.1,0.1-0.2,0.2,0,0.3c0.2,0.1,0.4,0.1,0.7,0.1
			c0-0.5,0.3-0.9,0.5-1.4c0.1-0.1,0.3-0.1,0.5-0.2c0-0.2-0.3-0.3-0.3-0.5c-0.1-0.1,0-0.3,0.2-0.3c0.1,0.1,0.3,0.1,0.4,0.1
			c0.4-0.1,0.2-0.5,0.4-0.7c0.1,0,0.2-0.1,0.3-0.1c0.1,0.3,0.1,0.7,0.2,1c0.2,0.1,0.3,0.3,0.5,0.4c-0.1,0.3-0.1,0.6,0.4,0.7
			c0.2,0,0.3-0.1,0.4-0.2c0.1-0.1,0.1-0.2,0.3-0.3c0.1,0,0.2-0.1,0.3-0.1c0.1-0.1,0.1-0.1,0.3-0.3c0.1,0,0.3-0.1,0.5-0.1
			c0.1-0.1,0.1-0.3,0.1-0.5c0-0.1,0-0.1,0.3-0.2c0,0,0.1,0,0.1,0.1c0.3,0.3,0.5,0.6,0.7,0.9c-0.1,0.2-0.2,0.4-0.3,0.5
			c0,0.2,0.2,0.2,0.3,0.2c0.1,0,0.3-0.1,0.3-0.1c0-0.1,0-0.1,0-0.2c0.1-0.1,0.2-0.1,0.3-0.1c0.3-0.1,0.3-0.5,0.7-0.5
			c0.3,0,0.4,0.1,0.5,0.3c0.3,0,0.3-0.1,0.4-0.3C86.2,3.2,86.1,3,86,2.9c0.1-0.1,0.1-0.1,0.1-0.1c0.2-0.1,0.4-0.1,0.6,0
			C87,2.9,87.3,3,87.5,3.2c0.1,0,0.2,0,0.3,0.1C88,3.1,88.2,3,88.4,2.8c0.1-0.1,0.3-0.2,0.5-0.3c0.1-0.1,0.2-0.2,0.2-0.3
			c-0.3-0.2-0.7-0.4-0.9-0.6c0-0.1,0-0.1-0.1-0.2c-0.1-0.1-0.3-0.1-0.3-0.2c-0.1-0.1-0.1-0.2-0.3-0.3c-0.2,0.2-0.5,0.4-0.7,0.6
			c-0.1,0.1-0.3,0.1-0.4,0.3c-0.1,0-0.2,0-0.3,0C86,1.7,86,1.6,86,1.6c0-0.1,0-0.2,0.1-0.3c-0.1,0-0.3-0.1-0.5-0.1
			c-0.2-0.1-0.3-0.2-0.5-0.3c-0.3-0.1-0.6,0-0.9,0c-0.4-0.1-0.8-0.1-1.1-0.2c0-0.1,0-0.1,0-0.1c0.1-0.1,0.1-0.1,0.2-0.1
			c0.2,0.1,0.4,0.1,0.6,0.1c0.1-0.1,0.3-0.1,0.5-0.1c0.3,0.1,0.5,0.1,0.8,0.1c0.5,0.1,0.9,0.1,1.4,0.1c0.6-0.1,1.1,0,1.7,0.1
			c0.3-0.1,0.7-0.1,1.1-0.1c0.1,0,0.3,0.1,0.4,0.1c0.2,0.1,0.4,0.1,0.6,0.1c0.1,0.1,0.3,0,0.5,0.2c-0.4,0.1-0.7,0.2-1.1,0.3
			c-0.1,0-0.1,0.1-0.1,0.1c0,0,0,0.1,0.1,0.1l0.1,0.1C89.8,1.8,90,1.8,90,1.8c0.3,0,0.5-0.1,0.7-0.2c0.1-0.1,0.3-0.1,0.5-0.1
			c0.3,0.1,0.5,0.1,0.8,0.2c0.5-0.1,0.5-0.1,0.7-0.4c-0.1-0.1-0.1-0.1-0.1-0.1c-0.2-0.1-0.4-0.1-0.5-0.1c-0.1,0.1-0.3,0.1-0.4,0.1
			c-0.2,0.1-0.3,0-0.4-0.2c0.1-0.1,0.2-0.1,0.3-0.2c0.5-0.1,1.7,0.1,2.5,0.3c0.1,0,0.3,0.1,0.5,0.1c0.3,0,0.6-0.1,0.9-0.1
			c0.4,0.1,0.7,0.3,1.2,0.2c0.1-0.1,0.1-0.1,0.1-0.2c0-0.1,0.1-0.1,0.1-0.2c0.2-0.2,0.5-0.2,0.7-0.2c0.4,0.1,0.7,0.1,1.1,0.1
			c0.3-0.1,0.5-0.2,0.9-0.3c0.8,0,1.7-0.1,2.5,0.2c0.2-0.1,0.3-0.1,0.5-0.1c0.3,0.3,0.2,0.7,0.3,0.9c-0.1,0.1-0.1,0.1-0.1,0.2
			c-0.1,0.1-0.3,0-0.3-0.1c-0.1-0.1-0.1-0.1-0.2-0.2c-0.1-0.1-0.1-0.1-0.1-0.1l-0.1-0.1c-0.3-0.1-0.5,0.2-0.7,0.1
			c-0.1-0.1,0.2-0.3,0.1-0.4c-0.1-0.1-0.2-0.2-0.4-0.1c-0.1,0.1-0.3,0.2-0.4,0.3c-0.1,0-0.1,0-0.1,0c-0.1-0.1-0.3-0.2-0.3-0.3
			c-0.1-0.1-0.3-0.1-0.5,0.1c-0.2,0.1-0.1,0.3-0.1,0.5c-0.1,0.3-0.5,0.5-0.6,0.9C99,2.3,99,2.4,99.1,2.4c0.3,0.1,0.7,0.2,1,0.3
			c0.3,0.2,0.5,0.5,0.4,0.8c-0.3,0.1-0.5,0-0.7,0.1c-0.3,0.1-0.5,0.1-0.7,0.3c-0.3,0-0.3-0.2-0.5-0.3c0-0.1,0-0.2,0.1-0.4
			c-0.1-0.1-0.1-0.2-0.2-0.3c-0.1-0.1-0.3-0.1-0.5-0.1c0,0.1,0,0.3-0.2,0.3c-0.1,0-0.3,0-0.5,0c-0.3,0.1-0.5,0.2-0.9,0.3
			c-0.1,0.2-0.1,0.2,0.2,0.1c0.1,0,0.1,0,0.3-0.1C97,3.8,97.2,4,97.5,4.1c0.2,0.3-0.2,0.5-0.2,0.7c0.1,0.1,0.3,0,0.5-0.1
			c0.1-0.1,0.3-0.3,0.4-0.5c0.3,0.1,0.5,0.4,0.5,0.7c0,0.1,0,0.2-0.3,0.4c-0.1-0.1-0.3-0.1-0.5-0.1c-0.2,0-0.5,0-0.7,0
			c-0.2,0.3-0.1,0.4,0.1,0.6c0.2-0.1,0.4-0.1,0.7-0.2c0.1,0.1,0.3,0.1,0.3,0.1c0.2,0.2,0,0.3,0,0.5c0.1,0.1,0.3,0.2,0.4,0.3
			c0,0.1,0,0.1,0,0.2c-0.2,0.3-0.5,0.5-0.8,0.7c-0.1,0.1-0.1,0.1-0.1,0.1l0.1,0.1c0.3,0,0.6-0.3,0.9-0.1c0.4-0.2,0.5-0.5,0.9-0.7
			c0.2,0,0.4,0.1,0.6,0.1c0,0.1,0,0.2,0,0.3c0.1,0.1,0.2,0.1,0.5,0.1c0.2-0.2,0.3-0.4,0.5-0.6c0.2-0.2,0.4-0.5,0.7-0.6
			c0.5,0,0.3,0.5,0.7,0.5c0.3-0.1,0.4-0.3,0.5-0.4c0.1-0.3-0.2-0.5-0.2-0.7l0.1-0.1c0.4,0,0.7,0,1.1-0.1c0.2,0.1,0.3,0.2,0.2,0.3
			c-0.1,0.3-0.1,0.5-0.1,0.7c-0.1,0.3-0.5,0.3-0.6,0.6c0.1,0.3,0.4,0.5,0.2,0.9c-0.1,0.3-0.5,0.5-0.9,0.8c0.1,0.1,0.1,0.1,0.1,0.2
			c0.7-0.2,0.7-0.2,1.6-0.2c0-0.1,0-0.2-0.1-0.3c0.1-0.1,0.2-0.1,0.4-0.2c0.1,0.3,0.3,0.5,0.5,0.7c0.1,0.1,0.1,0.2,0.1,0.3
			c-0.2,0.2-0.5,0.1-0.7,0.2c-0.3,0-0.5-0.1-0.9,0.1c-0.1-0.1-0.3-0.1-0.5-0.2c-0.5,0-0.9,0.1-1.4,0.1c-0.3,0.2-0.5,0.5-0.9,0.6
			c-0.1,0.3-0.2,0.7-0.7,0.9c-0.1,0-0.2,0-0.3,0c-0.2-0.1-0.5-0.1-0.7-0.2c-0.1,0-0.3-0.1-0.3-0.1c-0.2,0.1-0.3,0.1-0.4,0.3
			c0,0.1,0.1,0.3,0.3,0.3c0.2,0.1,0.3,0,0.5-0.1c0.5,0,0.9,0,1.3,0.2c0.1,0,0.1,0,0.1-0.1c0.2-0.1,0.4-0.3,0.6-0.5
			c0.2-0.1,0.3-0.1,0.5-0.1c0.3,0.1,0.4,0.4,0.6,0.6c-0.1,0.1-0.2,0.2-0.3,0.3c0.1,0.1,0.3,0.2,0.5,0.3c0.1,0.1,0.1,0.3,0.3,0.3
			c0.2-0.1,0.4-0.3,0.6-0.5c0.1-0.1,0.3-0.1,0.5,0c0,0.3-0.1,0.5-0.2,0.7c-0.3,0.1-0.7,0.3-1.1,0.3c-0.5-0.1-0.3-0.3-0.3-0.5
			c-0.1-0.2-0.4-0.3-0.6-0.4c-0.2,0.1-0.3,0.1-0.5,0.1c-0.1,0-0.3-0.1-0.3-0.2c-0.1-0.1-0.1-0.2-0.3-0.3c-0.3-0.1-0.3,0.2-0.5,0.3
			c-0.3,0-0.7,0-1.1,0.1c-0.1,0.1-0.2,0.1-0.3,0.2c-0.1,0.1-0.1,0.2-0.1,0.3v0.1c-0.1,0.2-0.4,0.2-0.6,0.3c-0.1,0.1-0.3,0.3-0.5,0.4
			c-0.3-0.1-0.2-0.3-0.2-0.5c0.1-0.1,0.3-0.2,0.5-0.3c-0.3-0.2-0.3-0.2-1.1-0.3c-0.3,0.1-0.5,0.3-0.8,0.4c-0.1,0-0.1,0-0.1,0
			c-0.2,0.1-0.3,0.1-0.2,0.1c0.1,0.1,0.1,0.1,0.2,0.1c0.1,0,0.2,0,0.3-0.1c0.1-0.1,0.3-0.1,0.4-0.2c0.3,0,0.5,0.1,0.5,0.3
			c-0.3,0.2-0.5,0.3-0.9,0.3c-0.3,0.1-0.6,0.3-0.9,0.3c-0.1,0.3,0.2,0.3,0.3,0.5c0.3,0.1,0.5,0.2,0.8,0.2c0.2-0.1,0.3-0.1,0.4-0.2
			c0.1,0,0.3,0.1,0.5,0.1c0.1,0,0.1,0,0.1,0c0.1-0.1,0.3-0.2,0.5-0.3c0.1,0.1,0.2,0.1,0.3,0.1c0.2,0.1,0.3,0.3,0.5,0.5
			c0.1,0,0.3,0,0.4,0c0.1,0.1,0.3,0.1,0.5,0.1c0.2,0,0.4-0.1,0.5-0.1c0.2-0.1,0.2-0.3,0.1-0.5c-0.1-0.1-0.2-0.3-0.3-0.5
			c0.1-0.1,0.1-0.1,0.2-0.3c0.1,0.1,0.3,0.1,0.4,0.1c0.1,0,0.2-0.1,0.2-0.1c0.1-0.2,0.2-0.3,0.3-0.5c0.1-0.1,0.1-0.2,0.2-0.3
			c0.1-0.1,0.1-0.1,0.2-0.1c0.1,0,0.1,0.1,0.2,0.1c-0.1,0.3-0.1,0.7-0.3,1c0.1,0.1,0.1,0.1,0.1,0.2c0.1,0.1,0,0.3-0.2,0.4l-0.4-0.1
			c-0.1,0-0.2,0.1-0.2,0.2c0.1,0.1,0.2,0.3,0.3,0.4c0.1,0,0.3,0,0.3-0.1c0.2-0.1,0.3-0.1,0.4,0.1c-0.1,0.1-0.2,0.3-0.3,0.3
			c0.1,0.1,0.2,0.1,0.3,0.2c0.1,0.1,0.2,0.1,0.3,0.1c0.3-0.1,0.1-0.3,0.2-0.5c0.1-0.1,0.1-0.1,0.2-0.1c0.2-0.1,0.5-0.1,0.7-0.1
			c0.1-0.1,0.1-0.1,0.1-0.2c-0.3-0.3-0.6-0.4-0.9-0.6c-0.1-0.1-0.3-0.3,0.1-0.5c0.2,0,0.4,0,0.6,0c0.2-0.1,0.4-0.3,0.5-0.3
			c0.2,0,0.3,0.1,0.3,0.1c-0.1,0.1-0.2,0.2-0.3,0.3c0.1,0.1,0.1,0.1,0.1,0.1c0.3,0.1,0.7,0.1,1.1,0.2c0.1,0.1,0.2,0.2,0.4,0.3
			c0.1,0.1,0.3,0.1,0.3,0.1c0.1,0.2,0,0.3-0.1,0.4c-0.3,0.2-0.4,0.5-0.5,0.7c-0.1,0.1-0.3,0.2-0.5,0.3c0.1,0.2,0.1,0.2,0.4,0.2
			c0.5-0.2,0.8-0.5,1.1-0.8c0.3,0.1,0.3,0.1,0.7,0.5c0.1-0.1,0.2-0.1,0.3-0.1c0.3-0.3,0.1-0.7,0.5-0.9c0.3-0.1,0.5,0,0.6,0.1
			c0.1,0.3-0.2,0.4-0.5,0.5c0.3,0.1,0.7,0.1,0.9,0.3c0.2,0,0.5-0.1,0.7-0.1c0,0.1,0.1,0.1,0.1,0.2c-0.1,0.2-0.2,0.3-0.3,0.5
			c0,0.1,0.1,0.1,0.1,0.1c0.1,0.1,0.2,0.1,0.3,0c0.1,0,0.1-0.1,0.2-0.1c0.1-0.1,0.2-0.1,0.3-0.1c0.3-0.1,0.5-0.1,0.8-0.2
			c0.2,0.1,0.4,0.3,0.3,0.5c-0.2,0.1-0.4,0.1-0.7,0.2c0.1,0.3,0.5,0.2,0.7,0.3c0.5,0,0.9,0,1.3-0.1c0.1-0.1,0.1-0.1,0.1-0.3
			c0-0.1,0.1-0.1,0.1-0.1c0.1-0.1,0.3-0.1,0.5,0c0.2,0.3,0.2,0.7,0.1,1.2c0.1,0.3,0.3,0.5,0.3,0.7l0.1,0.1c0.2,0,0.3-0.1,0.4-0.1
			c0.2-0.3,0.3-0.5,0.3-0.8c0-0.3,0.2-0.5,0.6-0.6c0.1,0,0.1-0.1,0.2-0.1c0.1-0.1,0.3-0.2,0.3-0.3c0-0.2,0-0.3-0.1-0.5
			c-0.1,0-0.3,0-0.5,0.1c-0.1,0.1-0.3,0.3-0.4,0.5c-0.1,0.1-0.1,0.1-0.2,0.1c-0.1,0-0.1-0.1-0.2-0.1c0-0.1,0-0.2,0-0.3
			c-0.1-0.2-0.3-0.5-0.4-0.7c0.1-0.3,0.5-0.2,0.7-0.3c0.1-0.1,0.1-0.2,0.1-0.4c-0.1-0.1-0.2-0.1-0.3-0.2c-0.1-0.1-0.1-0.2,0-0.3
			c0.5,0,0.6,0.5,1.1,0.7c0.2-0.1,0.5-0.1,0.7-0.2c0.1,0.1,0.3,0.1,0.3,0.2c0.1,0.2,0,0.4-0.1,0.6c0.1,0.1,0.1,0.3,0.2,0.4
			c0,0.1-0.1,0.3,0,0.5l0.1,0.1c0.1,0,0.3,0.1,0.3,0c0.4-0.1,0.8-0.1,1.2-0.3c0.3-0.3,0.6-0.7,1.1-1.1c0.2-0.1,0.3,0,0.3,0.1
			c-0.1,0.1-0.3,0.2-0.4,0.3v0.1c0.3,0.3,0.7,0.2,1.1,0.4c0.1,0.1,0.2,0.3,0.3,0.5c0.1,0.2-0.2,0.3-0.3,0.6c0,0.1-0.1,0.3-0.1,0.5
			c-0.3,0.2-0.7,0.3-0.9,0.5c-0.2,0-0.4,0-0.5-0.1c-0.2,0.1-0.3,0.1-0.3,0.3c0,0.1-0.1,0.1-0.1,0.2c0,0.4,0.1,0.8,0.1,1.2
			c0.3,0.1,0.5,0.1,0.7,0.2c0,0.1,0,0.2,0.1,0.3c-0.1,0.1-0.2,0.2-0.3,0.3c0,0.1,0,0.1,0,0.2c0.1,0.1,0.3,0.3,0.4,0.4
			c0.1,0.1,0.3,0.1,0.5,0.1c0.3,0.1,0.4-0.1,0.5-0.3v-0.1c-0.1,0-0.2,0-0.3,0c-0.2-0.2-0.2-0.2,0-0.5c0.2-0.1,0.5-0.2,0.7-0.3
			c-0.1-0.1-0.1-0.3-0.2-0.4c0.1-0.2,0.1-0.5,0.2-0.7c0.1-0.1,0.2-0.1,0.3-0.2c0.3-0.1,0.5,0.1,0.7,0.1c0.1-0.3,0.1-0.3-0.1-1
			c0.2-0.1,0.3,0,0.5,0.1c0.3,0.3,0.1,0.7,0.1,1.1c0.2,0.1,0.2,0.1,0.5,0c0.1-0.1,0.2-0.3,0.3-0.4c0.2-0.1,0.4-0.2,0.6-0.3
			c0.1-0.1,0-0.2-0.1-0.2c-0.1,0-0.2-0.1-0.3-0.1c0.1-0.1,0.3-0.1,0.3-0.2c0.3-0.2,0.5-0.5,0.7-0.7c0.3,0,0.5,0.1,0.6,0.3
			c-0.1,0.2-0.3,0.3-0.5,0.4c0,0.1-0.1,0.1-0.1,0.1c0,0.1,0.1,0.1,0.1,0.1c0.1,0.1,0.2,0.1,0.3,0.1c0.3,0,0.5-0.1,0.7-0.1
			c0.1-0.1,0.3-0.2,0.4-0.3c0.3-0.1,0.4,0.1,0.7,0.1c0.1-0.1,0.1-0.3,0.3-0.4c0.3,0,0.5,0.1,0.7,0.1c0.2,0,0.4,0,0.6,0
			c0.3,0.1,0.7,0.1,0.9,0.3c0.3,0.3,0.1,0.5,0.1,0.8c0.1,0.1,0.3,0.1,0.4,0.1c0.1-0.1,0.1-0.1,0.1-0.1c-0.1-0.3,0.1-0.5,0.2-0.8
			c-0.1-0.3-0.4-0.7-0.5-1c0.3-0.2,0.6-0.2,0.9-0.2c0.3,0.1,0.3,0.3,0.5,0.4c0,0.3-0.3,0.5,0,0.9c0.1,0.1,0.4,0.3,0.6,0.5
			c0.3,0.1,0.7,0.1,0.9-0.1c-0.1-0.3-0.5-0.3-0.6-0.5c-0.1-0.2,0-0.4,0.3-0.5c0.1-0.1,0.2-0.1,0.5,0l-0.3,0.4c0,0.2,0.1,0.3,0.5,0.3
			c0.2,0,0.3-0.1,0.4-0.2c0.1-0.1,0.1-0.3,0.2-0.4c0.3-0.2,0.5-0.3,0.9-0.3c0.3,0.1,0.5,0.3,0.8,0.4c0.3,0,0.4-0.1,0.5-0.3
			c0-0.1-0.1-0.2-0.1-0.3c0.1-0.1,0.1-0.2,0.3-0.3c0.2,0,0.4,0.1,0.6,0.1c0.1,0,0.1-0.1,0.3-0.1c0.3,0.2,0.5,0.3,0.7,0.5
			c0.7,0.1,0.7,0.1,0.9,0.4c-0.1,0.1-0.1,0.1-0.2,0.2c-0.1,0.1-0.1,0.1-0.1,0.1c0,0.1,0.1,0.2,0.3,0.3c0.3-0.1,0.3-0.3,0.6-0.5
			c0.2-0.1,0.4-0.1,0.6,0s0.2,0.2,0.1,0.3c-0.2,0.1-0.4,0.2-0.6,0.3c0.1,0.2,0.1,0.3,0.2,0.5c-0.1,0.2-0.1,0.4-0.2,0.5
			c0.1,0.1,0.1,0.1,0.1,0.2l0.1,0.1c0.1,0,0.1,0,0.3,0c0.1,0,0.1,0,0.1-0.1c0.2-0.3,0.5-0.5,0.8-0.7c0-0.1-0.1-0.3-0.1-0.3
			c0.1-0.2,0.3-0.3,0.4-0.4c0.1-0.1,0.4-0.1,0.5-0.2c-0.1-0.1-0.2-0.2-0.3-0.2c-0.3,0-0.5,0.3-0.8,0.1c0,0-0.1-0.1,0-0.1
			c0.1-0.2,0.3-0.5,0.5-0.7c0.1-0.1,0.3-0.2,0.4-0.3c0.3,0,0.5,0.1,0.6,0.2c0.1,0.2,0.1,0.4,0.2,0.7c0,0.1,0.1,0.1,0.1,0.3
			c0,0.1-0.1,0.3-0.1,0.5c0.2,0.1,0.4,0,0.5,0c0.2-0.1,0.4-0.1,0.6-0.1c0.1-0.1,0.2-0.1,0.3-0.3h0.3c0.3-0.1,0.4-0.4,0.7-0.5
			c0.2-0.1,0.4,0.1,0.6,0.1c0.2,0.2,0.4,0.3,0.6,0.5c-0.1,0.1-0.1,0.3-0.1,0.5c0.1,0.2,0.2,0.3,0.4,0.3c0.1,0,0.1,0,0.2-0.1
			c0.1-0.1,0.2-0.1,0.3-0.2c0.2-0.3,0.5-0.5,0.9-0.7c0.1-0.1,0.2-0.2,0.2-0.3c0-0.1-0.1-0.1-0.1-0.1c-0.1,0-0.3,0.1-0.5,0.1
			c-0.2,0-0.3-0.1-0.4-0.2c0.1-0.2,0.3-0.2,0.5-0.3c0.2,0,0.5,0,0.7-0.1c0.1,0,0.1,0,0.1,0.1c0.2,0.1,0.4,0.3,0.6,0.4
			c0.1,0.1,0.1,0.3,0.2,0.3c0.2,0.1,0.3,0.1,0.5,0c0.1-0.1,0.3-0.1,0.4-0.2s0.2-0.1,0.3-0.1c0.3,0,0.5,0.2,0.9,0.3
			c0.1-0.1,0.2-0.1,0.3-0.1c0.1-0.1,0.2-0.2,0.3-0.3c0.1-0.1,0.3-0.1,0.4,0c0.1,0.1,0.1,0.1,0.1,0.3c0.4,0,0.6-0.1,0.8-0.3
			c-0.1-0.1-0.1-0.2-0.1-0.3c0-0.1,0.1-0.1,0.1-0.1c0.4,0.1,0.8,0.3,1.3,0.2c0.1,0.2,0.3,0.3,0.4,0.5c0.3,0.1,0.5-0.1,0.7-0.1
			c0.3,0.1,0.5-0.1,0.7-0.1c0.3,0,0.5-0.1,0.7-0.1c0.5,0,0.9,0,1.5,0c0.1,0.1,0.3,0.1,0.6,0.3c0.4,0.1,0.9-0.1,1.3,0.1
			c0.7,0,1.3,0,1.9-0.2c0.3,0.1,0.6,0.1,0.9,0.1c0.2,0.1,0.5,0.3,0.7,0.4c0.1,0,0.3,0,0.4,0c0.2-0.1,0.4-0.2,0.6-0.3
			c0.1-0.1,0.2,0,0.7,0.1c0.3,0,0.7-0.1,1.1-0.1c0.5,0.1,1,0.2,1.5,0.3c0.3-0.1,0.5-0.1,0.7-0.2c0.2,0.1,0.4,0.1,0.7,0.1
			c0.5,0.1,0.9-0.1,1.4,0c0.2,0.2,0.4,0.4,0.7,0.6c0.2,0.2,0.5,0.3,0.7,0.5c0.5,0.1,0.9,0.3,1.5,0.1c0.2-0.1,0.4-0.2,0.6-0.3
			c0.5-0.1,0.7,0.1,1.1,0.1c0.3,0.1,0.5,0.2,0.7,0.3c0.5,0.1,1.1-0.1,1.5,0.1c0.1-0.1,0.3-0.1,0.5-0.1c0.3,0.1,0.7,0.1,1.1,0.1
			c0.3,0.1,0.5,0.3,0.9,0.4c0.1-0.1,0.3-0.1,0.3-0.1c0.1-0.1,0.1-0.1,0.1-0.2c0.1-0.1,0.1-0.2,0.1-0.3c0.1-0.1,0.3-0.1,0.5-0.1
			c0.3,0.1,0.6,0.1,0.9,0.3c0.1,0.1,0.2,0.1,0.3,0.1c0.1,0,0.1,0,0.1-0.1c0.2-0.1,0.1-0.3,0.3-0.4c0.1-0.1,0.2-0.1,0.3-0.1
			c0.4,0.1,0.3,0.3,0.5,0.5c0.3,0.1,0.5-0.1,0.7-0.2c0.2-0.1,0.5-0.1,0.7-0.1c0.2,0.1,0.3,0.1,0.5,0.3c0.1,0,0.1,0,0.1,0
			c0.3-0.1,0.5-0.2,1-0.1c0.1,0,0.2,0.1,0.4,0.1c0.3,0,0.5-0.1,0.8-0.1c0.3,0,0.6,0,0.9-0.1c0.1-0.1,0.3-0.3,0.5-0.5
			c0.1-0.1,0.3-0.1,0.5-0.1c0.2,0,0.4,0.1,0.5,0.1c0.1,0,0.2-0.1,0.3-0.1c0.3-0.1,0.7-0.3,1-0.4c0.1,0.1,0.3,0.1,0.3,0.1
			c0.1,0.1,0.1,0.2,0.2,0.3c0.4,0.1,0.5-0.2,0.8-0.3c0.1,0,0.2,0,0.3-0.1c0.2,0.1,0.4,0.2,0.6,0.3c0.1,0,0.2,0,0.3-0.1
			c0.1-0.1,0.3-0.1,0.3-0.2c0.3,0,0.5,0,0.7-0.1c0.3,0.2,0.3,0.2,0.4,0.6c0.1,0.1,0.1,0.1,0.5,0.1c0.1-0.1,0.2-0.3,0.3-0.4
			c0.3-0.2,0.7-0.4,1-0.5c0.2,0,0.3,0,0.5-0.1c0.3,0.1,0.5,0.3,0.8,0.4c0.1,0,0.1,0,0.1,0c0.1-0.1,0.3-0.2,0.5-0.3
			c0.1,0,0.3,0,0.3,0c0.2,0.1,0.3,0.1,0.5,0.2c0.3-0.1,0.5-0.1,0.8-0.2c0.2-0.1,0.5-0.1,0.7-0.1c0.3,0,0.5-0.1,0.8-0.2
			c0.1,0,0.2,0.1,0.3,0.2c0.1,0.2,0.2,0.3,0.5,0.4c0.3,0,0.5-0.2,0.8-0.3c0.1,0,0.2-0.1,0.3-0.1c0.3,0,0.5,0.1,0.7,0.1
			c0.1,0,0.2-0.1,0.3-0.1c0.2-0.1,0.2-0.3,0.2-0.3c0.1-0.1,0.1-0.2,0.3-0.3c0.3,0,0.3,0.3,0.6,0.3c0.1-0.1,0.3-0.1,0.5-0.1
			c0.3,0,0.3,0.3,0.5,0.3c-0.1,0.2-0.1,0.3-0.1,0.5c0.1,0.5,0.7,0.7,1.1,0.9c0.1,0,0.3,0,0.4-0.1c0.1,0,0.1-0.2,0.1-0.2
			c-0.1-0.1-0.3-0.1-0.5-0.2c-0.2-0.2-0.4-0.4-0.6-0.6c0.1-0.1,0.1-0.1,0.1-0.1c0,0,0.1,0,0.1-0.1c0.1,0.1,0.3,0.1,0.4,0.2
			c0.2,0,0.4,0,0.6,0.1c0.2,0.1,0.4,0.1,0.7,0.3c0.1,0,0.3,0,0.3-0.1c0.3-0.1,0.5-0.4,0.8-0.5c0.3,0.1,0.5,0.2,0.6,0.3
			c0,0.1,0,0.2-0.1,0.3c0.1,0.2,0.1,0.4,0.3,0.5c0.1,0,0.3-0.1,0.3-0.1c0.1-0.1,0.3-0.3,0.4-0.4c0.1,0,0.3,0,0.3,0.1
			c0.2,0.1,0.3,0.3,0.3,0.5c0.4,0,0.7-0.1,1-0.1c0.3,0,0.4,0.3,0.7,0.3c0.2-0.1,0.4-0.3,0.7-0.5c0.5,0.1,0.9,0.2,1.3,0.3
			c0.1,0,0.2,0,0.2-0.1c0.1-0.1,0.1-0.1,0.1-0.3v-0.1l-0.1-0.5l0.1-0.1c0.1-0.1,0.2-0.1,0.3-0.1c0.1-0.1,0.1-0.2,0.2-0.3
			c0.1-0.1,0.1-0.1,0.3-0.1c0.2,0.1,0.3,0.2,0.4,0.3c0.1,0.1,0.2,0.3,0.5,0.3c0.1,0,0.2-0.1,0.3-0.1c0.1,0,0.1,0,0.3,0
			c0.3,0.1,0.4,0.3,0.6,0.5c0,0.1,0.1,0.1,0.1,0.2c0,0.3,0.1,0.5,0.3,0.8c0.1,0.1,0,0.2,0,0.2c-0.1,0.1-0.3,0.1-0.5,0.2
			c-0.3,0.1-0.5,0.1-0.7,0.3c-0.1,0.1-0.1,0.1,0.1,0.2c0.2-0.1,0.4-0.1,0.6-0.1c0.3,0.1,0.2,0.5,0.3,0.7c0.1,0.2,0.4,0.3,0.7,0.4
			c0.1,0.1,0.2,0.3,0.3,0.3c0.3,0.1,0.5,0,0.7-0.2c0.1-0.2,0.2-0.5,0.3-0.8c-0.2-0.5-0.4-0.9-0.6-1.4c0.1-0.4,0.2-0.8,0.5-1.2
			c0.2-0.1,0.4-0.1,0.5-0.2c0.2-0.1,0.3-0.2,0.5-0.3c0.7-0.2,1.2-0.1,1.7,0.1c0.1,0.1,0.1,0.2-0.1,0.2c-0.1,0.1-0.2,0.1-0.6,0.2
			c-0.1,0-0.2,0.3-0.5,0.4c-0.1-0.1-0.3-0.1-0.4-0.2c-0.2,0-0.3,0.1-0.5,0.1c0,0.1,0,0.1,0,0.3c0.5,0.2,1.1,0.3,1.7,0.4
			c0.3,0.1,0.4,0.3,0.3,0.5c-0.2,0.3-0.5,0.1-0.8,0.1c-0.2,0.1-0.3,0.1-0.3,0.3c0.1,0.1,0.3,0.2,0.4,0.3v0.1
			c-0.1,0.1-0.2,0.2-0.3,0.3c-0.1,0.1-0.2,0.2-0.3,0.3c0.1,0.1,0.1,0.1,0.2,0.2c0.1,0,0.1,0,0.1,0c0.1-0.1,0.3-0.1,0.4-0.3
			c0.1-0.1,0.3-0.2,0.3-0.3c0.3-0.1,0.3,0,0.5,0.1c0.1,0.1,0.1,0.1,0.1,0.1c0,0.2,0,0.3-0.1,0.5c0.3,0.1,0.3,0.1,0.6-0.1
			c0-0.2-0.3-0.5-0.1-0.7c0.1-0.1,0.3-0.3,0.5-0.5c0.1,0,0.2,0,0.3,0.1c0.3,0.2,0.5,0.4,0.7,0.6c0.4,0.1,0.8,0.1,1.1,0.1
			c0.3-0.1,0.5-0.3,0.6-0.5c-0.4-0.4-1.1-0.5-1.8-0.5c-0.1-0.1-0.1-0.1-0.2-0.2c0-0.1,0-0.1,0-0.1c0.3-0.3,0.4-0.6,0.9-0.8
			c0.2,0.1,0.5,0.1,0.7,0.2c0.3,0.1,0.5-0.1,0.7-0.1c0.2,0,0.5,0.1,0.7,0.1c0.2,0.2,0.4,0.5,0.7,0.6c0.1,0.3,0.2,0.7,0.3,0.9
			c-0.3,0.3-0.7,0.1-1.1,0.3c-0.3,0.1-0.8,0.3-1.3,0.5c-0.2,0.1-0.2,0.4-0.5,0.5c-0.2,0.1-0.4-0.1-0.5-0.1c-0.3,0-0.7,0-1.1,0
			c-0.2,0.1-0.4,0.2-0.5,0.3c-0.1,0.1-0.1,0.1-0.1,0.2c0,0.3,0,0.6,0.1,0.9c0.1,0.1,0.3,0.3,0.5,0.3c0.1,0,0.3,0,0.5,0
			c0.1,0,0.1,0.1,0.3,0.2c-0.3,0.3-0.5,0.6-0.9,1c-0.1,0.1,0.2,0.2,0.2,0.3c-0.1,0.3-0.3,0.5-0.5,0.7c-0.4,0.1-0.8,0.1-1.1,0.4
			c-0.1,0.1-0.1,0.2-0.1,0.3c0,0.1-0.1,0.2-0.1,0.3c-0.3,0.1-0.5-0.1-0.8-0.1C222.3,26.8,221.8,26.9,221.4,26.7z M224.4,24.2
			c0,0.1,0.1,0.1,0.1,0.1c0.1,0,0.1,0,0.2-0.1c0-0.1,0-0.1,0.1-0.2c-0.1-0.1-0.1-0.1-0.1-0.1c-0.1,0-0.1,0.1-0.2,0.1
			C224.4,24.1,224.4,24.2,224.4,24.2z M223.8,22.9c0,0,0.1,0,0.1,0l0.1-0.1l-0.1-0.1C223.8,22.8,223.8,22.9,223.8,22.9z M221.8,24.9
			c0.3,0.1,0.5,0.3,0.7,0.5c0.1,0.1,0.2,0.2,0.3,0.3c0.1,0.1,0.1,0.1,0.2,0.1c0.1,0,0.3-0.1,0.3-0.1c0.2,0,0.4,0.1,0.6,0.1
			c0.2-0.1,0.3-0.1,0.3-0.3c-0.1-0.1-0.3-0.2-0.5-0.3c-0.4-0.1-0.9-0.1-1.1-0.4c0-0.1,0-0.2,0-0.3c-0.1-0.1-0.2-0.3-0.3-0.4
			c-0.1-0.1-0.1-0.1-0.1-0.1c-0.1-0.1-0.3-0.1-0.3-0.1c-0.1,0.1-0.1,0.1-0.1,0.1C221.8,24.2,221.8,24.5,221.8,24.9z M119.1,16.5
			c0.1,0,0.1-0.1,0.2-0.1c0-0.1,0-0.1-0.1-0.1s-0.1,0-0.2,0.1C118.9,16.4,119,16.5,119.1,16.5z M118.8,17.6c0.1,0,0.1,0,0.1,0
			c0.1-0.1,0.3-0.1,0.3-0.3c0-0.1-0.1-0.1-0.1-0.1c-0.1-0.1-0.3,0.1-0.4,0.2C118.6,17.5,118.6,17.6,118.8,17.6z M99.1,9.9
			c0.5,0.3,0.9,0.1,1.3-0.1l0.3,0.1c0.1-0.1,0.2-0.2,0.3-0.3c0.1-0.1,0.3-0.2,0.3-0.3c0.1-0.1,0.1-0.1,0-0.2c0-0.1-0.1-0.1-0.2-0.1
			c-0.1,0-0.3,0.1-0.4,0.1c-0.1-0.1-0.3-0.2-0.3-0.5c0.2-0.3,0.6-0.2,0.9-0.3c0.3,0,0.4,0.2,0.7,0.1c0.1-0.2,0.5-0.3,0.4-0.5
			c-0.3-0.1-0.5-0.2-0.7-0.3c-0.2-0.1-0.3-0.3-0.5-0.5c-0.3,0.1-0.3,0.2-0.4,0.4c-0.1,0.1,0.2,0.3,0,0.5c-0.3,0.1-0.7,0.3-1.1,0.5
			c-0.1,0.1-0.3,0.3-0.5,0.5C99.1,9.3,99.1,9.6,99.1,9.9z M98.1,9.1c0.1,0,0.1-0.1,0.2-0.1c0-0.1,0-0.1-0.1-0.1
			c-0.1,0-0.1,0-0.2,0.1C97.9,8.9,97.9,9.1,98.1,9.1z M97.1,1.7c0.3,0.1,0.1,0.4,0.2,0.6c0.1,0,0.2,0,0.3,0c-0.1-0.2,0-0.5,0.1-0.7
			c0.1-0.1,0-0.3-0.1-0.3C97.2,1.3,97.1,1.4,97.1,1.7z M69.2,2.3c0.1,0.2,0.3,0.3,0.6,0.2C70,2.4,70,2.2,69.9,2.2
			C69.8,2,69.7,2,69.5,1.8C69.2,2,69.2,2.2,69.2,2.3z M67.9,2.7L67.9,2.7c0.1,0,0.1,0,0.2,0c0.1-0.1,0.2-0.2,0.3-0.3
			c0-0.1-0.1-0.1-0.1-0.1s-0.1,0-0.2,0.1C67.9,2.4,67.8,2.6,67.9,2.7z M65,2.8c0.1,0.1,0.1,0.3,0.3,0.6C65.6,3,65.6,3,65.2,2.8
			C65.1,2.8,65,2.8,65,2.8z M34.2,7.3c0-0.1-0.2-0.2-0.3-0.1c-0.1,0.1-0.1,0.1-0.2,0.2c0.1,0.2,0.3,0.2,0.5,0.1l0.1-0.1
			C34.2,7.4,34.2,7.4,34.2,7.3z M36.1,8.7C36,8.7,36,8.5,35.8,8.5c-0.1-0.1-0.1-0.1-0.3,0.1c0.1,0.1,0.1,0.2,0.3,0.3
			C36,8.8,36,8.8,36.1,8.7z M36.9,6.8L36.9,6.8c-0.1,0-0.2,0-0.2,0.1c-0.1,0.1,0,0.1,0.1,0.1c0,0,0.1,0,0.1-0.1
			C36.8,6.8,36.9,6.8,36.9,6.8z M38.8,7.3c-0.3-0.2-0.5-0.5-0.6-0.7c-0.2,0-0.3-0.1-0.4,0.1c0.1,0.5,0.7,0.6,1.1,0.9
			C39,7.6,39,7.4,38.8,7.3z M49.5,6c0.1,0.1,0.2,0.3,0.5,0.3c0.1,0,0.1,0,0.2-0.1c-0.1-0.1-0.1-0.1-0.1-0.2c0.1-0.2,0.2-0.3,0.2-0.5
			c0.1-0.2,0.1-0.3,0.1-0.7C50.1,5,50.1,5,50.1,5.1c-0.2,0.3-0.4,0.5-0.6,0.7C49.5,5.9,49.5,6,49.5,6z M46.6,6.9
			c0.1,0,0.3,0.1,0.5,0.1c0,0.1,0.1,0.1,0.1,0.2c0.1,0.1,0.3,0,0.4-0.1l-0.1-0.6c-0.1-0.1-0.3-0.1-0.3-0.2c-0.1-0.1-0.2-0.2-0.4-0.1
			C46.7,6.4,46.5,6.6,46.6,6.9z M44.6,6.2c0,0.1,0.1,0.1,0.2,0.1l0.1-0.1C44.9,6.2,44.8,6.2,44.6,6.2C44.7,6.2,44.6,6.2,44.6,6.2z
			 M41.9,6c0.1,0.1,0.2,0.3,0.2,0.4c0.1,0.1,0.1,0.3,0.1,0.5c0.3,0,0.4,0.2,0.6,0.3c0.1,0,0.1,0,0.2,0c0-0.1,0.1-0.1,0.1-0.1
			C43,7,43.1,6.8,43,6.6c-0.1-0.1-0.3-0.1-0.3-0.1c-0.1-0.2-0.2-0.3-0.4-0.5c-0.1,0-0.1,0-0.2,0C42.1,6,42,6,41.9,6z M42.4,11.4
			L42.4,11.4L42.4,11.4v0.1V11.4C42.4,11.4,42.4,11.4,42.4,11.4z M42.1,7.6c0.1-0.2,0.1-0.4,0.3-0.6c-0.3-0.1-0.7-0.2-1.1-0.1
			c-0.2,0.1-0.3,0.1-0.4,0.3c0.1,0.2,0.2,0.2,0.4,0.1c0.1-0.1,0.3,0,0.3,0.1c-0.3,0.3-0.3,0.4,0.1,0.5C41.9,7.9,42,7.7,42.1,7.6z
			 M42.9,10.2c-0.1,0-0.1-0.1-0.1-0.1c-0.1-0.1-0.3,0-0.3,0.1c0,0.1,0,0.1,0,0.3c0.1,0,0.1,0.1,0.1,0.1c0.1,0.1,0.3,0,0.3-0.1
			C42.9,10.4,42.9,10.3,42.9,10.2z M42.5,7.7c0,0,0.1,0.1,0.1,0.1C42.7,7.7,42.7,7.7,42.5,7.7c0.1-0.1,0.1-0.1,0-0.1h-0.1
			C42.5,7.6,42.5,7.7,42.5,7.7z M43,9.1C43,9.1,42.9,9.1,43,9.1l-0.1,0.1H43C43.1,9.1,43.1,9.1,43,9.1z M43.6,9.8
			C43.7,9.8,43.6,9.7,43.6,9.8C43.6,9.7,43.5,9.7,43.6,9.8h-0.1H43.6C43.6,9.8,43.6,9.8,43.6,9.8z M43.9,10.5L43.9,10.5L43.9,10.5
			v0.1V10.5C43.9,10.6,43.9,10.6,43.9,10.5z M44.3,7.7c-0.1-0.5-0.1-0.5-0.5-0.6c-0.1,0.1-0.2,0.1-0.2,0.2c-0.1,0.1-0.1,0.3-0.1,0.3
			c0,0.1-0.1,0.2-0.3,0.3c-0.2-0.1-0.4-0.1-0.6-0.1c0.1,0.3,0.1,0.6,0.2,0.9c0.1,0.1,0.1,0.1,0.2,0.1c0.3-0.1,0.5-0.2,0.7-0.3
			c0.1-0.1,0.2-0.1,0.3-0.2C44.1,8.1,44.2,7.9,44.3,7.7z M45.3,9.3c-0.1-0.1-0.2-0.1-0.3-0.1c-0.1,0.1-0.1,0.1-0.1,0.2
			C45,9.4,45,9.4,45.1,9.5c0.1,0.1,0.1,0.1,0.2,0C45.3,9.3,45.3,9.3,45.3,9.3z M46.1,9.3L46.1,9.3c-0.1-0.1-0.2,0-0.1,0H46.1
			L46.1,9.3z M46.9,8.2c-0.1-0.2-0.3-0.4-0.3-0.7c-0.1-0.2-0.3-0.4-0.5-0.5c-0.3-0.1-0.3-0.3-0.4-0.3C45.5,6.8,45.4,7,45.1,7
			c-0.1,1-0.1,1-0.4,1.4c0,0,0,0.1,0.1,0.1c0.3,0.1,0.5,0.1,0.7,0c0.2-0.1,0.3-0.2,0.3-0.4c0.1-0.1,0.1-0.3,0.1-0.3
			c0.1-0.1,0.3-0.2,0.5-0.1c0.1,0.1,0.1,0.3,0.1,0.5c0,0.1,0.1,0.1,0.1,0.1C46.7,8.3,46.8,8.3,46.9,8.2C46.9,8.3,46.9,8.3,46.9,8.2z
			 M47.6,9.6c0.2-0.1,0.4-0.1,0.6-0.1c0-0.2,0.3-0.3,0.3-0.5c-0.3-0.1-0.3-0.1-0.5,0c-0.1,0.1-0.1,0.1-0.2,0.2c-0.1,0-0.2,0-0.3,0.1
			c-0.1,0-0.1,0.1-0.1,0.1c0,0.1,0.1,0.1,0.1,0.1C47.5,9.5,47.5,9.5,47.6,9.6z M48.3,11.1c-0.1-0.1-0.1,0-0.1,0
			C48.1,11.2,48.2,11.2,48.3,11.1C48.3,11.2,48.3,11.2,48.3,11.1z M48.9,9.7c0-0.1-0.1-0.1-0.1-0.1c-0.1-0.1-0.4-0.1-0.6-0.1
			c0.1,0.3,0.2,0.4,0.5,0.4C48.9,9.8,48.9,9.7,48.9,9.7z M49.2,7.9c0.1,0,0.2-0.1,0.3-0.2c0.1-0.1,0.1-0.3,0.1-0.5
			C49.8,7,50.1,7,50.2,6.8c-0.1-0.1-0.2-0.1-0.4-0.1C49.5,6.8,49.3,7,49,7.2c-0.1,0-0.3-0.1-0.4,0.1c0.1,0.1,0.2,0.1,0.3,0.2
			c0,0.1,0,0.1,0,0.2C48.9,7.8,49.1,7.9,49.2,7.9z M50,8.9C50,8.9,49.9,8.9,50,8.9l-0.1-0.1c-0.1,0.1-0.1,0.1-0.2,0.2
			c-0.1,0.1,0,0.1,0.1,0.1c0,0,0.1,0,0.1-0.1C49.9,9.1,49.9,9,50,8.9z M51.8,10.8C51.7,10.8,51.7,10.8,51.8,10.8
			c-0.1-0.1-0.1-0.1-0.1-0.1C51.6,10.8,51.6,10.8,51.8,10.8C51.7,10.9,51.7,10.9,51.8,10.8z M51.2,7.1C51.1,7,51,7,50.9,6.8
			c-0.3,0.2-0.4,0.5-0.6,0.7c-0.1,0-0.1,0-0.2,0.1C50,7.9,49.9,8,50,8.2c0.1,0,0.1,0.1,0.3,0.1c0.3-0.4,0.7-0.7,1-1
			C51.2,7.2,51.2,7.2,51.2,7.1z M51.6,5.6c0.1-0.1,0.1-0.1,0.1-0.1c-0.1-0.1-0.2-0.1-0.3-0.1c-0.3,0.1-0.5,0.3-0.8,0.4
			c-0.1,0-0.1,0.1-0.1,0.1C50.5,6,50.7,6,50.8,6C51.1,6,51.3,5.8,51.6,5.6z M53.1,8.3L53.1,8.3L53,8.3l0.1,0.1
			C53.1,8.3,53.2,8.3,53.1,8.3z M52.8,6.6L52.8,6.6c-0.2-0.1-0.3-0.1-0.5-0.1c-0.2,0.1-0.3,0.2-0.3,0.3c0,0.1,0.2,0.3,0.1,0.4
			c-0.1,0.1-0.3,0.2-0.3,0.4c0.1,0,0.3,0,0.3-0.1C52.6,7.3,52.8,7,52.8,6.6z M53.6,8.9c0,0-0.1,0-0.1,0.1c-0.1,0.1-0.1,0.2,0,0.2
			c0.1,0,0.1-0.1,0.2-0.1C53.7,9,53.7,8.9,53.6,8.9z M53.9,7.9c0-0.1-0.1-0.1-0.1-0.1c-0.1-0.1-0.1-0.1-0.2,0
			c-0.1,0.1-0.1,0.2,0,0.3c0.1,0,0.1,0.1,0.2,0.1C53.9,8.1,53.9,8,53.9,7.9z M54.1,6c-0.1-0.2-0.3-0.3-0.5-0.2
			c-0.3,0.1-0.5,0.2-0.5,0.5c0.1,0.4,0.1,0.4,0.3,0.4C53.7,6.4,53.9,6.2,54.1,6z M55.1,5.8c-0.1-0.1-0.2-0.2-0.3-0.1
			c-0.1,0.1-0.2,0.3-0.1,0.5c0.1,0,0.1,0,0.3,0.1C55.1,6,55.2,5.9,55.1,5.8z M55.9,7.2c0.3-0.1,0.5-0.3,0.7-0.4
			c0.1-0.1,0.1-0.3,0.1-0.4c0.1,0,0.1,0,0.1-0.1c0.1-0.1,0.2-0.1,0.1-0.2c-0.1-0.2-0.4-0.3-0.7-0.3s-0.5,0-0.7,0.3
			c0,0.3,0,0.6,0,0.9C55.7,7.2,55.8,7.2,55.9,7.2z M56.4,8.3C56.3,8.3,56.3,8.2,56.4,8.3c-0.1-0.1-0.1-0.1-0.1-0.1
			C56.2,8.3,56.2,8.3,56.4,8.3C56.3,8.3,56.3,8.3,56.4,8.3z M57.6,7.2c-0.3-0.2-0.5-0.2-0.8,0c0,0.1-0.1,0.3-0.1,0.4
			c0,0.1,0,0.1,0,0.2c0.1,0.1,0.2,0.1,0.3,0.1C57.2,7.6,57.3,7.4,57.6,7.2z M59.3,5.2C59.3,5.2,59.3,5.1,59.3,5.2
			c-0.1-0.1-0.1-0.1-0.1,0v0.1C59.2,5.3,59.3,5.3,59.3,5.2z M61.2,3.2c0,0.1,0.1,0.1,0.2,0.1c0.2,0,0.4-0.1,0.5-0.2
			C61.7,2.9,61.6,2.9,61.2,3.2z M60.2,4.2c0.1,0.1,0.2,0.3,0.3,0.4c0.3,0,0.3,0,0.3-0.2c-0.1-0.1-0.1-0.1-0.3-0.3
			c0,0-0.1-0.1-0.1-0.1S60.3,4.1,60.2,4.2z M59.9,6.5c0.1,0.2,0.3,0.3,0.4,0.5C60.4,7,60.5,7,60.5,7.1c0,0,0.1,0,0.1,0
			c0.1,0,0.1-0.1,0.1-0.1c0-0.3-0.2-0.5-0.3-0.9C60.5,6.1,60.5,6,60.6,6c-0.2-0.1-0.4-0.1-0.5-0.1c-0.1,0-0.2,0.1-0.3,0.2
			C59.9,6.2,59.9,6.4,59.9,6.5z M61,9.6c-0.1,0.2-0.1,0.3,0.1,0.5c0.1,0,0.1,0,0.2,0l0.1-0.1C61.4,9.7,61.3,9.6,61,9.6z M61,7.9
			c-0.1,0-0.1,0.1-0.2,0.1c-0.1,0.1-0.1,0.1-0.1,0.1c0,0.1,0.1,0.1,0.3,0.1c0.1-0.1,0.1-0.1,0.2-0.1C61.2,8,61.1,7.9,61,7.9z
			 M60.7,5.2L60.7,5.2c-0.1-0.1-0.2-0.1-0.3-0.1c-0.1,0.1-0.2,0.1-0.2,0.2c0,0,0,0.1,0.1,0.1c0.1,0,0.3,0,0.3-0.1
			C60.7,5.3,60.7,5.3,60.7,5.2z M61.1,5.8L61.1,5.8l-0.1-0.1L61,5.7C61,5.8,61.1,5.8,61.1,5.8z M61.7,6.5c0-0.1-0.1-0.2-0.3-0.3
			c-0.1,0-0.1,0.1-0.2,0.1v0.1C61.3,6.6,61.5,6.6,61.7,6.5z M63.9,7.6c0.1-0.1,0.1-0.1,0.1-0.3l-0.1-0.1c-0.1,0-0.3,0-0.4,0
			C63.1,7.2,62.9,7,62.5,7c-0.1,0.1-0.3,0.3-0.2,0.5C62.5,7.7,62.7,7.9,63,8C63.3,7.9,63.6,7.8,63.9,7.6z M64.5,9
			c-0.1,0-0.1,0-0.1,0.1c0,0,0.1,0,0.1,0.1L64.5,9C64.5,9.1,64.5,9.1,64.5,9z M64.7,5.3c-0.5,0.2-1,0.4-1.5,0.6c0,0.1,0,0.1,0.1,0.1
			c0.1,0.1,0.3,0,0.5-0.1c0.2-0.1,0.4-0.2,0.6-0.3c0.1,0.1,0.3,0.1,0.4,0.1C65,5.6,65,5.6,64.7,5.3z M64.6,3.4C64.4,3.3,64.4,3,64,3
			c-0.1,0.1-0.1,0.3-0.2,0.4c-0.2,0.1-0.4,0.2-0.6,0.2c-0.1-0.1-0.3-0.1-0.4-0.1c-0.2,0.1-0.3,0.3-0.4,0.4c-0.1,0.2-0.1,0.3-0.1,0.5
			c-0.1,0.1-0.2,0.3-0.3,0.4C62,5,62,5.1,62.1,5.2c-0.1,0.2-0.2,0.3-0.3,0.5c0,0.3,0.1,0.5,0.1,0.6c-0.1,0.1-0.1,0.1-0.1,0.2
			c0,0.1,0.1,0.2,0.3,0.3c0.3-0.1,0.5-0.2,0.7-0.5c-0.1-0.2-0.3-0.3-0.3-0.5c-0.1-0.3,0.1-0.4,0.3-0.5c0.1-0.1,0.3-0.1,0.5-0.2
			c-0.1-0.1-0.3-0.3-0.4-0.3c0-0.1,0-0.1,0.1-0.2c0.1-0.1,0.1-0.1,0.3-0.3c0.3,0,0.6,0,0.9,0c0.1,0,0.2,0.1,0.3,0.1
			C64.6,4.1,64.6,3.7,64.6,3.4z M67.4,10.5c0-0.1-0.1-0.1-0.1-0.1c-0.1,0-0.3,0.1-0.3,0.3c0,0,0,0.1,0.1,0.1c0,0,0.1,0,0.1,0
			C67.2,10.7,67.4,10.6,67.4,10.5z M67.4,6c0.4,0.1,0.6,0,0.9-0.1V5.8c0-0.1-0.2-0.1-0.3-0.1C67.8,5.8,67.6,5.9,67.4,6z M69.4,12.9
			c-0.1-0.1-0.1-0.1-0.2,0c-0.1,0.1-0.1,0.1-0.1,0.1s0.1,0,0.1,0.1C69.2,13.1,69.3,13.1,69.4,12.9C69.4,13,69.4,12.9,69.4,12.9z
			 M68,6.8c0.1,0,0.1-0.1,0.2-0.1c0.1-0.1,0.1-0.1,0.1-0.2c0-0.1-0.1-0.1-0.1-0.1s-0.1,0-0.1,0c0,0.1-0.1,0.1-0.1,0.3
			C67.9,6.7,68,6.8,68,6.8z M70,14.4L70,14.4c-0.2-0.1-0.3,0.1-0.3,0.1l0.1,0.1C70,14.6,70.1,14.5,70,14.4z M69.1,7.6
			c-0.1,0.1-0.4,0-0.6,0.2c0.3,0.2,0.3,0.2,0.5,0.3c0.1,0,0.1-0.1,0.3-0.1C69.4,7.8,69.4,7.7,69.1,7.6z M69.8,5.2
			c-0.1-0.1-0.1-0.1-0.3-0.1c-0.2,0.3-0.1,0.4,0.3,0.5C70,5.5,69.9,5.3,69.8,5.2z M72.8,6.8c0.1,0,0.3,0,0.5,0l0.1-0.1
			c-0.1-0.1-0.1-0.3-0.2-0.5c0.1-0.3,0.1-0.5,0.1-0.6c-0.1-0.1-0.2-0.3-0.3-0.4c0-0.1,0.1-0.3,0.3-0.4c0.1-0.1,0.3-0.2,0.4-0.3
			c0.1-0.1,0-0.1,0-0.2c-0.3,0-0.5,0-0.7,0.1c-0.3-0.1-0.5-0.1-0.7-0.1c-0.2,0.1-0.3,0.1-0.5,0.1c0.1,0.2-0.3,0.4-0.3,0.6
			c0.5,0.3,0.8,0.7,1.1,1.1c0,0.3-0.3,0.5-0.2,0.8C72.6,7,72.7,6.8,72.8,6.8z M73.5,8.1L73.5,8.1L73.5,8.1v0.1
			C73.5,8.2,73.6,8.1,73.5,8.1C73.6,8.1,73.6,8.1,73.5,8.1z M72.9,7.6c0.1-0.1,0.3-0.1,0.3-0.3c-0.1-0.1-0.3,0-0.5,0.1
			C72.8,7.4,72.8,7.5,72.9,7.6z M74.2,11.8c0.1,0,0.1-0.1,0.1-0.1c-0.1,0-0.1-0.1-0.1-0.1c-0.1,0-0.1,0.1-0.2,0.1
			C73.9,11.8,74.1,11.9,74.2,11.8z M74.7,12.5c-0.3,0.1-0.3,0.2-0.2,0.3c0.1,0.1,0.3,0.2,0.6,0.3C75.1,12.7,74.9,12.6,74.7,12.5z
			 M76.7,18.4c-0.1-0.1-0.1-0.1-0.1-0.1c0,0-0.1,0-0.1,0c-0.1,0.1-0.1,0.1,0,0.1S76.6,18.4,76.7,18.4C76.7,18.5,76.7,18.4,76.7,18.4
			z M74.2,6.4L74.2,6.4L74.2,6.4v0.1V6.4C74.2,6.4,74.2,6.4,74.2,6.4z M76,7.6L76,7.6c0.2,0.1,0.3,0,0.3-0.1l-0.1-0.1
			C76.1,7.4,76,7.5,76,7.6z M77,12.3c0.1,0,0.1,0,0.2,0l0.1-0.1c-0.1-0.1-0.1-0.1-0.1-0.1c0,0-0.1,0-0.1,0
			C76.9,12.2,76.8,12.3,77,12.3z M77.2,13.2c-0.1-0.1-0.1-0.1-0.3-0.1c-0.2,0.1-0.3,0.2-0.5,0.3c0,0.1,0,0.1,0.1,0.1s0.2,0,0.2,0
			C76.9,13.5,77,13.4,77.2,13.2z M78.2,15.7c0-0.1-0.1-0.1-0.2-0.1c-0.2,0.1-0.3,0.2-0.5,0.3C77.8,16,78,15.9,78.2,15.7L78.2,15.7z
			 M79.5,12.7c0.1-0.1,0.1-0.1,0.2-0.2c0.1-0.1,0-0.1-0.1-0.1c0,0-0.1,0-0.1,0.1c-0.1,0.1-0.1,0.1-0.1,0.3
			C79.4,12.7,79.4,12.8,79.5,12.7C79.4,12.7,79.4,12.7,79.5,12.7z M79.7,13.4c0.1,0.1,0.1,0,0.1-0.1c0,0,0-0.1-0.1-0.1h-0.1
			C79.7,13.3,79.7,13.3,79.7,13.4z M80.5,16.2c-0.1,0-0.1,0.1-0.1,0.1c0.1,0.1,0.1,0.1,0.1,0.1c0.1,0,0.1,0,0.2-0.1
			C80.7,16.3,80.6,16.2,80.5,16.2z M78.4,4.7c-0.1-0.1-0.3-0.1-0.5-0.1c-0.1,0.1-0.1,0.3-0.3,0.4c-0.2,0-0.4,0.1-0.6,0.1
			c-0.1,0.1-0.1,0.2-0.1,0.3C77,5.6,77,5.8,77.1,6c0.1,0.1,0.1,0.3,0.2,0.5c0.5,0.2,0.5,0.1,0.9-0.3c0-0.3-0.1-0.5-0.1-0.8
			C78.1,5.1,78.4,5,78.4,4.7z M79.8,8.2L79.8,8.2c-0.1-0.1-0.2,0-0.3,0.1c-0.1,0.1,0,0.1,0.1,0.1C79.6,8.4,79.7,8.3,79.8,8.2
			L79.8,8.2z M80.1,8.9L80.1,8.9L80,8.9C80,8.9,80,9,80,9C80.1,8.9,80.2,8.9,80.1,8.9z M79.6,4.4c-0.1-0.2-0.2-0.3-0.3-0.5
			c-0.1-0.2-0.1-0.4-0.2-0.6l-0.2-0.1c0.1,0.3,0.1,0.5,0,0.9c-0.1,0.1,0,0.3,0.1,0.4C79.3,4.6,79.3,4.6,79.6,4.4z M80.2,6
			C80,6,79.8,6.2,79.6,6.4c0.1,0.1,0.2,0.1,0.3,0.1c0.2-0.1,0.3-0.3,0.4-0.4C80.4,6,80.4,6,80.2,6z M84,13.4
			c-0.3-0.1-0.3-0.4-0.7-0.5c-0.1,0.1-0.1,0.2,0,0.4c0.1,0.1,0.3,0.1,0.5,0.2C83.9,13.6,84,13.5,84,13.4z M83.6,11
			c-0.1,0-0.1-0.1-0.2-0.1c-0.1,0-0.2,0.1-0.2,0.1c0,0.1,0,0.1,0.1,0.1c0.1,0,0.1,0,0.2,0C83.5,11.2,83.6,11.2,83.6,11
			C83.7,11.2,83.6,11.1,83.6,11z M82.8,4.4c-0.1-0.1-0.1-0.2-0.3-0.2c-0.3,0.1-0.5,0.2-0.7,0.4l-0.1,0.1c-0.1,0.1-0.2,0.1-0.3,0.2
			c0,0.1,0.1,0.1,0.2,0.1c0.3,0,0.5,0.1,0.7,0.2c0.1,0,0.1,0,0.2,0C82.8,4.9,82.9,4.7,82.8,4.4z M84.2,10c0,0-0.1,0-0.1,0.1
			C84,10.1,84,10.2,84,10.2s0.1,0,0.1,0.1c0.1,0,0.1-0.1,0.2-0.1C84.4,10,84.3,10,84.2,10z M84.1,6.2L84.1,6.2L84,6L84,6.1
			C84,6.2,84,6.2,84.1,6.2z M84.4,7.1c-0.1,0-0.1,0-0.1,0c-0.1,0-0.2,0.1-0.3,0.2c0,0-0.1,0.1,0,0.1c0.1,0.1,0.1,0.1,0.2,0.1
			C84.4,7.2,84.5,7.2,84.4,7.1z M84.5,3.9c-0.1,0-0.1-0.1-0.2-0.1c0,0.1,0,0.1,0.1,0.1c0,0,0,0.1,0.1,0.1h0.1
			C84.6,4,84.6,3.9,84.5,3.9z M85.9,4.3L85.9,4.3l-0.1,0.1c0,0,0,0.1,0.1,0.1h0.1C85.9,4.3,85.9,4.3,85.9,4.3z M86.4,3.7
			C86.4,3.7,86.4,3.7,86.4,3.7c-0.1-0.1-0.1-0.1-0.1-0.1C86.2,3.7,86.2,3.7,86.4,3.7C86.4,3.8,86.4,3.7,86.4,3.7z M91.1,4.8
			C91.1,4.8,91.1,4.9,91.1,4.8c0.3,0.1,0.5,0.3,0.7,0.3c0.1,0,0.1,0,0.3,0c0.1-0.3,0.5-0.7,0.4-1.1c-0.1-0.2-0.5-0.3-0.5-0.5
			c0.2-0.2,0.4-0.3,0.5-0.5c0-0.2-0.1-0.3-0.4-0.3c-0.1,0.3-0.4,0.4-0.7,0.5c-0.1,0-0.3,0.1-0.3,0.2c0.1,0.1,0.1,0.3,0.1,0.4
			c0.1,0.1,0.2,0.3,0.2,0.4C91.4,4.5,91.1,4.6,91.1,4.8z M91.7,9.9C91.7,9.9,91.8,9.9,91.7,9.9c0.1,0.1,0.2,0,0.3-0.1
			c0.1-0.1,0-0.1-0.1-0.1c0,0-0.1,0-0.1,0.1C91.8,9.7,91.7,9.8,91.7,9.9z M89.5,2.3c0.1-0.1,0.2-0.1,0.3-0.1C89.9,2.1,89.9,2,89.9,2
			L89.8,2c-0.1,0-0.2,0-0.2,0.1C89.6,2.1,89.6,2.2,89.5,2.3z M89.2,2.4c0.1,0.1,0.1,0,0.2,0c0.1-0.1,0.1-0.1,0.1-0.1l-0.2,0.1
			C89.3,2.4,89.2,2.4,89.2,2.4z M89.5,3.7C89.5,3.7,89.6,3.7,89.5,3.7c0.1-0.1,0.1-0.1,0-0.1c0,0-0.1,0-0.1,0
			C89.4,3.7,89.4,3.7,89.5,3.7z M90.2,10.5c0.2-0.1,0.4-0.2,0.5-0.3c0.1,0,0.3,0,0.4,0c0.1-0.2,0.1-0.2-0.3-0.3
			c-0.3,0.1-0.5,0.3-0.8,0.3C90.1,10.3,90.1,10.4,90.2,10.5z M88.6,4.2c0.1,0,0.1,0.1,0.2,0.1l0.1-0.1c0-0.1-0.1-0.1-0.1-0.1
			C88.7,4,88.6,4.1,88.6,4.2C88.6,4.1,88.6,4.2,88.6,4.2z M88.8,6.8c0,0.2-0.1,0.4,0.3,0.5c0.2-0.1,0.3-0.2,0.3-0.3
			C89.3,6.9,89.1,6.8,88.8,6.8z M88,4.9c0.1,0.3,0.5,0.3,0.8,0.4c0.1-0.1,0.1-0.2,0.1-0.2c-0.1-0.1-0.3-0.3-0.5-0.3S88.1,4.8,88,4.9
			z M86.9,4.4c0.1,0.1,0.2,0.1,0.3,0.1c0.1-0.1,0.2-0.1,0.3-0.3c0.1-0.1,0-0.1-0.1-0.1c0,0-0.1,0-0.1,0C87.1,4.2,87,4.3,86.9,4.4z
			 M87.9,8.9C88,8.8,88,8.7,88.1,8.7C88,8.6,88,8.6,88,8.6c-0.1,0-0.3-0.1-0.5-0.1c-0.1,0.1-0.1,0.1-0.1,0.2v0.1
			C87.6,8.9,87.8,9,87.9,8.9z M90.1,15.1L90.1,15.1H90C90,15.2,90,15.2,90.1,15.1L90.1,15.1z M92.9,17.3c-0.1-0.1-0.3-0.2-0.5-0.1
			c-0.1,0-0.2,0.1-0.2,0.2c0.2,0.1,0.3,0.3,0.5,0.4C92.9,17.5,93,17.4,92.9,17.3z M93,15c0-0.1-0.1-0.3-0.1-0.4
			c-0.1-0.1-0.3-0.2-0.5-0.3c0.1-0.1,0.1-0.2,0.2-0.3c-0.3,0-0.6,0-0.9,0c-0.1-0.1-0.2-0.2-0.3-0.3c0-0.2,0.1-0.4,0.1-0.5
			c-0.1-0.1-0.3-0.1-0.4,0c-0.3,0.2-0.2,0.5-0.5,0.7c-0.1,0-0.2,0.1-0.3,0c-0.2-0.1-0.4-0.2-0.5-0.3c-0.2,0-0.4,0-0.6,0
			c-0.1,0-0.1,0.1-0.1,0.1c0.2,0.3,0.5,0.5,0.9,0.7c0.2,0,0.4,0,0.6,0c0.3,0.1,0.7,0.3,0.9,0.4c0.2,0,0.3-0.1,0.5-0.1
			c0.2,0.1,0.3,0.2,0.4,0.3c0.3,0.3,0.1,0.7,0.5,0.9c0.1-0.1,0.2-0.1,0.3-0.1C93,15.5,93,15.3,93,15z M91.6,6.4
			c0.2-0.2,0.1-0.4,0.2-0.6c-0.1-0.1-0.3-0.1-0.5,0c-0.1,0.3-0.1,0.4,0,0.5L91.6,6.4z M93.5,16.5C93.5,16.4,93.5,16.4,93.5,16.5
			c-0.1-0.1-0.1-0.1-0.1-0.1C93.3,16.5,93.3,16.5,93.5,16.5L93.5,16.5z M92.5,9.1c0,0,0.1,0,0.1,0l0.1-0.1c0.1-0.1,0-0.3-0.1-0.3
			c0,0-0.1,0-0.1,0c-0.1,0.1-0.1,0.1-0.1,0.1C92.3,9,92.4,9.1,92.5,9.1z M92.6,10.1c0.3,0.1,0.7,0.1,0.9,0.2c0,0,0.1,0,0.1,0
			c0.1,0,0.1-0.1,0.2-0.1c0.1-0.1,0.1-0.1,0-0.2c-0.2-0.1-0.4-0.2-0.7-0.3C92.9,9.8,92.7,10,92.6,10.1z M93.9,13.8L93.9,13.8
			c-0.2,0.1-0.3,0.2-0.2,0.3l0.1,0.1c0.1,0,0.1,0,0.1,0C94.1,14.1,94.1,13.9,93.9,13.8z M94.7,15c-0.2-0.2-0.4-0.3-0.8-0.3
			c-0.1,0.1-0.1,0.2-0.1,0.3c0.2,0.2,0.4,0.3,0.8,0.3C94.6,15.2,94.7,15.1,94.7,15z M95.9,10c-0.1-0.1-0.1-0.1-0.1-0.1
			c-0.3-0.1-0.5-0.1-0.7,0.3c0.1,0.1,0.3,0.3,0.5,0.3C95.8,10.3,95.9,10.2,95.9,10z M95.5,8c-0.1,0.1-0.1,0.1-0.1,0.3l0.1,0.1
			c0.1,0,0.1,0,0.2-0.1c0.1-0.1,0.1-0.1,0.1-0.2c-0.1-0.1-0.1-0.1-0.1-0.1C95.6,7.9,95.5,7.9,95.5,8z M95.7,7.2c0.1,0,0.2,0,0.3-0.1
			c-0.1-0.3-0.1-0.3-0.4-0.2c0,0.1,0,0.1,0,0.1C95.5,7,95.5,7.2,95.7,7.2z M95.1,6.3c-0.1,0-0.1,0.1-0.1,0.1
			c0.1,0.1,0.1,0.1,0.1,0.1c0.1,0,0.1,0,0.2-0.1C95.3,6.4,95.2,6.3,95.1,6.3z M97.5,10.4c-0.1,0.1-0.1,0.3-0.1,0.5
			c0.3-0.1,0.5-0.1,0.5-0.4C97.8,10.4,97.7,10.4,97.5,10.4z M97.1,9.2L97.1,9.2V9.1c0,0-0.1,0-0.1,0C97,9.2,97,9.3,97.1,9.2z
			 M96.9,11.2c-0.1,0.1-0.3,0.2-0.5,0.3c0,0.1,0.1,0.2,0.1,0.4c-0.1,0.1-0.1,0.1-0.2,0.2c-0.1,0.1-0.1,0.1,0.2,0.3
			c0.2-0.1,0.4-0.3,0.7-0.4c0.3,0,0.5,0,0.7,0c0.1-0.1,0.1-0.1,0.1-0.1c-0.1-0.3-0.3-0.6-0.5-0.9C97.2,11,97.1,11.2,96.9,11.2z
			 M93.8,0.7C93.8,0.7,93.8,0.7,93.8,0.7c0.1,0.1,0.2,0,0.2-0.1c0-0.1,0-0.1,0-0.1C93.9,0.5,93.9,0.5,93.8,0.7
			C93.8,0.6,93.7,0.7,93.8,0.7z M93.7,1.2C94,1.3,94,1.3,94.1,1.3c0,0,0.1,0,0.1-0.1c0.1-0.1,0-0.1-0.1-0.1C94,1,93.9,1,93.7,1.2z
			 M93,3.5c0,0.1,0.1,0.1,0.3,0.1l0.1-0.1C93.3,3.5,93.3,3.5,93,3.5L93,3.5z M94.4,12.7c-0.1,0.1,0,0.3,0,0.4
			c0.1,0.1,0.3,0.1,0.4-0.1C94.8,12.7,94.8,12.7,94.4,12.7z M93.6,2.9c0.2-0.1,0.3-0.1,0.3-0.3c-0.1-0.1-0.2-0.1-0.5-0.2
			c-0.2,0.3-0.2,0.3-0.1,0.3C93.4,2.8,93.5,2.8,93.6,2.9z M94.4,5.3c0.1-0.1,0.2-0.1,0.3-0.1c0.1-0.2-0.1-0.5,0.1-0.7
			c0.5-0.1,0.6,0.2,1,0.2c0.2-0.2,0.1-0.4,0.3-0.7c-0.3-0.2-0.5-0.2-0.6-0.1c-0.3,0.1-0.7,0.1-1,0.2c-0.3,0.2-0.4,0.5-0.5,0.8
			C93.9,5.2,94.1,5.3,94.4,5.3z M97.7,14.7L97.7,14.7c-0.4-0.1-0.7,0-1,0.1c-0.1,0.1-0.1,0.1-0.2,0.1c-0.1,0.3,0.1,0.4,0.3,0.6
			c0.1,0,0.1-0.1,0.2-0.1c0.1-0.1,0.1-0.1,0.1-0.1c-0.1-0.1-0.1-0.2,0-0.3C97.3,14.8,97.6,14.9,97.7,14.7z M98.7,15.4l-0.8-0.1
			c0,0-0.1,0-0.1,0c0,0.1-0.1,0.1-0.1,0.1c0,0.1,0.1,0.2,0.3,0.2C98.3,15.8,98.5,15.7,98.7,15.4z M99.4,15.4L99.4,15.4
			c-0.2-0.1-0.2,0-0.1,0H99.4L99.4,15.4z M100.5,15.7c-0.1,0.1-0.2,0.1-0.2,0.2c-0.1,0.1,0,0.1,0,0.2c0.1,0.1,0.3,0.3,0.7,0.3
			C100.9,16.1,100.9,15.8,100.5,15.7z M101.6,16C101.5,16,101.5,16,101.6,16c-0.1-0.1-0.1,0-0.1,0C101.5,16.1,101.5,16.2,101.6,16
			L101.6,16z M102,15c-0.1,0-0.3,0.1-0.4,0.2v0.1c0.1,0.1,0.1,0.1,0.2,0.1C102,15.3,102,15.2,102,15z M103,16.1
			c-0.1-0.1-0.1-0.1-0.2,0c-0.1,0.1-0.1,0.1-0.1,0.1l0.1,0.1C102.9,16.2,102.9,16.2,103,16.1L103,16.1z M103.9,15
			C103.8,15,103.8,15,103.9,15c-0.1-0.1-0.1-0.1-0.1,0C103.7,15.1,103.7,15.1,103.9,15C103.8,15.1,103.8,15.1,103.9,15z M104.7,14.6
			c0.1,0.1,0.1,0.1,0.1,0.1c0.1,0.1,0.1,0.1,0.2,0c0-0.1,0.1-0.1,0-0.1c-0.1-0.1-0.2-0.1-0.3-0.1S104.7,14.5,104.7,14.6z
			 M105.3,16.7L105.3,16.7c-0.2-0.1-0.3,0-0.3,0.1l0.1,0.1C105.3,16.9,105.3,16.8,105.3,16.7z M107.1,16c-0.1,0.1-0.1,0.1-0.1,0.1
			c-0.1,0.1-0.1,0.1-0.2,0.2c-0.1,0.1,0.1,0.2,0.1,0.2c0.1,0,0.3-0.1,0.4-0.3C107.3,16.1,107.3,16.1,107.1,16z M109.8,18
			c-0.1-0.1-0.1-0.3-0.2-0.4c0-0.1,0.1-0.2,0.1-0.3c0,0,0-0.1-0.1-0.1c-0.1,0-0.2-0.1-0.3-0.1c-0.3,0.1-0.5,0.3-0.4,0.5
			c0.2,0.2,0.5,0.3,0.5,0.5l0.1,0.1c0.1,0,0.1,0.1,0.2,0C109.7,18.1,109.7,18.1,109.8,18z M115.8,16c0.1,0,0.3-0.1,0.4-0.1v-0.1
			c0-0.1-0.1-0.1-0.1-0.1C115.9,15.8,115.9,15.9,115.8,16z M116.2,18c0-0.1-0.1-0.1-0.2-0.1c-0.1,0.1-0.1,0.1-0.1,0.1
			c0,0.1,0,0.1,0.1,0.1C116.1,18.2,116.2,18.1,116.2,18z M117.5,18.4c-0.1-0.1-0.1-0.1-0.2-0.1c-0.1,0-0.1,0.1-0.1,0.1
			c0,0.1,0.1,0.2,0.1,0.3c-0.1,0.1-0.1,0.1-0.2,0.2c-0.1,0.1-0.3,0.1-0.5,0.1c-0.1,0.1-0.3,0.1-0.3,0.3c0.1,0.1,0.3,0.2,0.3,0.3
			c0.1,0.1,0,0.4,0.3,0.5c0.2-0.1,0.4-0.1,0.5-0.3c0.1-0.2-0.1-0.3-0.1-0.5c0.1-0.2,0.2-0.4,0.3-0.6
			C117.6,18.7,117.6,18.5,117.5,18.4z M117.6,16.9c-0.3,0.1-0.3,0.1-0.3,0.3c0,0.1,0.1,0.1,0.1,0.1c0.1,0,0.1,0,0.2-0.1
			C117.7,17.1,117.7,17,117.6,16.9z M119.6,21c-0.2,0.1-0.4-0.1-0.7,0c0,0.3,0,0.3,0.1,0.3c0.1,0.1,0.3,0,0.4-0.1
			C119.4,21.1,119.5,21.1,119.6,21z M120.7,20.4c0,0-0.1,0-0.1,0c-0.1,0.1-0.1,0.2-0.1,0.3C120.6,20.6,120.7,20.5,120.7,20.4
			C120.8,20.4,120.8,20.4,120.7,20.4z M121.6,20.1L121.6,20.1c0.3,0.1,0.5,0,0.6-0.2c-0.1-0.1-0.2-0.1-0.3-0.1
			C121.7,19.8,121.6,20,121.6,20.1L121.6,20.1z M122.4,21.9c-0.1-0.2-0.2-0.4-0.5-0.5c-0.2,0.1-0.3,0.3-0.5,0.5c0,0.3,0,0.6,0.2,0.9
			c0.2,0.1,0.3,0.3,0.6,0.2c0.1-0.3-0.1-0.5,0.1-0.8C122.3,22.1,122.4,21.9,122.4,21.9z M122.7,22.4
			C122.6,22.4,122.6,22.4,122.7,22.4l-0.1,0.1l0.1,0.1C122.6,22.5,122.7,22.5,122.7,22.4z M122.5,20.4c-0.1,0-0.1,0-0.2,0.1
			c-0.1,0.1,0,0.2,0.1,0.2c0.1,0,0.1-0.1,0.2-0.1C122.6,20.4,122.6,20.4,122.5,20.4z M124.4,20.8c-0.2-0.1-0.4-0.3-0.6-0.5
			c-0.2,0.1-0.3,0.1-0.4,0.2c-0.1,0.1-0.1,0.1-0.1,0.2c0.3,0.1,0.7,0.2,1,0.3C124.4,20.9,124.4,20.8,124.4,20.8z M124.4,18.6
			L124.4,18.6h-0.1C124.3,18.7,124.4,18.8,124.4,18.6L124.4,18.6z M128.9,20.1c-0.1-0.1-0.3-0.1-0.4-0.1c-0.1,0.1-0.1,0.2,0,0.3
			c0.1,0.1,0.3,0.1,0.4,0.1C129,20.3,129,20.2,128.9,20.1z M128.5,17.9c-0.2,0-0.4,0.1-0.5,0.2c-0.1,0.1-0.1,0.3-0.2,0.4
			c-0.1,0-0.1,0-0.1,0c-0.1-0.1-0.2-0.1-0.3-0.1c-0.1-0.1-0.3-0.2-0.5-0.2c-0.2,0.1-0.5,0.1-0.5,0.3c0.1,0.1,0.3,0.3,0.3,0.3
			c0,0.3-0.1,0.4-0.2,0.4c-0.2,0.1-0.3,0-0.4-0.1c-0.1-0.1-0.1-0.2-0.1-0.3c-0.1-0.1-0.1-0.1-0.3-0.1c-0.2,0.2-0.2,0.4-0.3,0.6
			c0.1,0.2,0.3,0.3,0.4,0.5c0.1,0.1,0.1,0.2,0.1,0.3c0,0.1-0.1,0.1-0.1,0.1c0,0-0.1,0-0.1,0c-0.1-0.1-0.3-0.2-0.4-0.3
			c-0.2,0-0.3,0-0.4,0.1c0.1,0.2,0.1,0.5,0.2,0.6c0.1,0.2,0,0.4,0.1,0.6c0.2-0.1,0.5-0.1,0.6-0.1c0.3,0.1,0.5,0.1,0.7,0.2
			c0,0,0.1,0,0.1,0c0.2-0.1,0.5-0.3,0.5-0.5c-0.2-0.1-0.3-0.2-0.6-0.3c0-0.3,0.5-0.5,0.4-0.9c0.2-0.3,0.4-0.5,0.6-0.8
			c0.1-0.1,0.2-0.1,0.3-0.1c0.1,0,0.1,0,0.1,0c0.1,0.1,0.1,0.3,0.3,0.5c0.1,0.1,0.1,0.1,0.3,0l0.1-0.1l0.1-0.5
			c-0.1-0.1-0.1-0.2-0.1-0.3c0.1-0.1,0.2-0.3,0.3-0.4C128.8,18,128.7,17.9,128.5,17.9z M129.1,19L129.1,19L129.1,19v0.1V19
			C129.1,19.1,129.1,19.1,129.1,19z M130.2,19.4L130.2,19.4H130C130,19.4,130.1,19.5,130.2,19.4C130.1,19.4,130.1,19.4,130.2,19.4z
			 M131.3,22.5C131.3,22.5,131.3,22.5,131.3,22.5c-0.1-0.1-0.1-0.1-0.1-0.1C131.1,22.5,131.1,22.5,131.3,22.5
			C131.2,22.5,131.2,22.5,131.3,22.5z M131,19c0-0.1-0.1-0.3-0.3-0.3c0,0-0.1,0-0.1,0.1c-0.1,0.1-0.1,0.3,0.1,0.3
			C130.9,19.1,131,19,131,19z M132.2,20.8C132.2,20.8,132.2,20.8,132.2,20.8l-0.1-0.1v0.1C132.2,21,132.2,20.9,132.2,20.8z
			 M132.3,19.8c-0.1-0.1-0.1-0.1-0.1-0.1c0,0-0.1,0-0.1,0c-0.1,0.1-0.1,0.1-0.1,0.1s0.1,0.1,0.2,0.1
			C132.2,19.9,132.3,19.8,132.3,19.8z M134,19.2c0-0.1-0.1-0.1-0.2-0.1s-0.1,0.1-0.3,0.1c0.3,0.2,0.3,0.5,0.1,0.9
			c0.2-0.1,0.3-0.1,0.3-0.2C134.2,19.7,134.2,19.5,134,19.2z M134.6,20.9L134.6,20.9c-0.1-0.1-0.2-0.1-0.3,0c-0.1,0.1,0,0.1,0.1,0.1
			c0,0,0.1,0,0.1,0C134.5,21.1,134.6,21,134.6,20.9z M134.8,18.4c0-0.1,0.1-0.3,0.2-0.4c0.1-0.1,0.1-0.1,0.1-0.2
			c-0.1,0-0.1-0.1-0.1-0.1c-0.3-0.1-0.7-0.1-1.1-0.1c-0.1,0.1-0.1,0.1-0.2,0.1c0.1,0.2,0.3,0.4,0.3,0.6
			C134.4,18.5,134.6,18.4,134.8,18.4z M134.9,18.6c0.1-0.1,0.1-0.1,0-0.1c-0.1,0-0.1-0.1-0.1-0.1c0,0.1,0,0.1,0,0.1
			C134.8,18.5,134.8,18.6,134.9,18.6C134.8,18.6,134.9,18.7,134.9,18.6z M135.5,19.2L135.5,19.2c-0.1-0.1-0.1-0.1-0.2-0.1
			c-0.2,0-0.3,0.1-0.3,0.2l0.1,0.1C135.2,19.5,135.4,19.4,135.5,19.2C135.5,19.3,135.5,19.3,135.5,19.2z M136.8,17.6
			c0.1-0.2,0.1-0.4,0.1-0.6c0,0-0.1,0-0.1-0.1c-0.2,0.1-0.4,0.1-0.5,0.3c0,0.1-0.1,0.1-0.1,0.2c0,0.1,0,0.1,0.1,0.2
			C136.4,17.8,136.5,17.8,136.8,17.6z M137.1,18.3c-0.1-0.1-0.1-0.1-0.1-0.1s-0.1,0-0.2,0.1c-0.1,0.1,0.1,0.2,0.1,0.2
			C137,18.3,137.1,18.3,137.1,18.3z M140.9,30.1C140.8,30.1,140.8,30,140.9,30.1c-0.1-0.1-0.1-0.1-0.1-0.1
			C140.7,30.1,140.8,30.1,140.9,30.1C140.8,30.1,140.8,30.1,140.9,30.1z M141.5,20.4c-0.1,0-0.1,0.1-0.1,0.1
			c0.1,0.1,0.1,0.1,0.1,0.1c0.1,0,0.1,0,0.2-0.1C141.7,20.4,141.6,20.3,141.5,20.4z M153.5,17.9C153.5,17.9,153.5,17.9,153.5,17.9
			c-0.1-0.1-0.1-0.1-0.1-0.1C153.3,17.9,153.4,17.9,153.5,17.9C153.5,17.9,153.5,17.9,153.5,17.9z M153.5,17.3
			c0-0.1-0.1-0.1-0.1-0.1c-0.1,0-0.1,0.1-0.2,0.1c-0.1,0.1,0,0.1,0.1,0.1C153.4,17.4,153.5,17.3,153.5,17.3z M156,17.5
			c0-0.1-0.1-0.2-0.2-0.1l-0.1,0.1C155.7,17.5,155.9,17.5,156,17.5C156,17.5,156,17.5,156,17.5z M160.7,17.8
			c-0.1-0.1-0.3-0.1-0.5-0.1c-0.1,0.1-0.1,0.3,0.2,0.4C160.5,18,160.6,17.9,160.7,17.8z M172.4,21.6
			C172.4,21.5,172.4,21.5,172.4,21.6c-0.1-0.1-0.1-0.1-0.1-0.1C172.2,21.6,172.3,21.6,172.4,21.6L172.4,21.6z M177.4,22.6
			C177.4,22.6,177.4,22.5,177.4,22.6c-0.1-0.1-0.1-0.1-0.1-0.1c-0.1,0.1-0.2,0.1-0.3,0.1v0.1l0.1,0.1
			C177.2,22.8,177.4,22.7,177.4,22.6z M191.8,26.7c-0.1-0.1-0.1-0.1-0.2-0.1c-0.1,0-0.2,0.1-0.1,0.2c0.1,0.1,0.1,0.1,0.2,0.1
			C191.8,26.9,191.9,26.8,191.8,26.7z M192.4,19.7c-0.1-0.1-0.1,0-0.1,0.1l0.1,0.1C192.4,19.8,192.4,19.8,192.4,19.7
			C192.5,19.8,192.4,19.7,192.4,19.7z M197.3,17.9L197.3,17.9L197.3,17.9V18V17.9C197.3,17.9,197.3,17.9,197.3,17.9z M200.6,19
			c-0.1-0.1-0.2-0.1-0.3-0.1c-0.1,0-0.1,0.1-0.2,0.1c-0.1,0.1-0.1,0.3-0.1,0.5c0.1,0,0.2,0.1,0.3,0.1c0.3-0.2,0.3-0.3,0.4-0.3
			C200.7,19.2,200.7,19.2,200.6,19z M203.7,19.2c0.2-0.1,0.5-0.1,0.6-0.3c-0.2-0.1-0.3-0.4-0.7-0.3c-0.1,0.1-0.1,0.3-0.1,0.4
			C203.5,19,203.6,19.1,203.7,19.2z M204.9,22.2c-0.1-0.1-0.1-0.1-0.1-0.1c-0.1,0-0.1,0-0.2,0.1c-0.1,0.1,0.1,0.2,0.1,0.1
			C204.7,22.3,204.8,22.3,204.9,22.2z M204.6,19.6c-0.2,0.1-0.3,0.3-0.5,0.5c0.1,0.2,0.1,0.2,0.3,0.1c0.2-0.1,0.5-0.1,0.6-0.3v-0.1
			C204.9,19.6,204.9,19.6,204.6,19.6z M208.3,22c-0.1-0.1-0.1-0.1-0.1-0.1c-0.1,0-0.1,0-0.2,0l-0.1,0.1c-0.1,0.1,0,0.2,0.1,0.3
			C208.1,22.3,208.2,22.2,208.3,22C208.3,22.1,208.3,22.1,208.3,22z M215,21.5c-0.5-0.1-0.5-0.1-1,0.1c-0.1,0.1-0.1,0.3,0.1,0.3
			c0.3-0.1,0.5-0.1,0.9-0.2C215,21.7,215.1,21.6,215,21.5z M215.1,19.7c0.2,0.1,0.4,0,0.5-0.3c-0.2-0.2-0.4-0.3-0.7-0.4
			c-0.2,0.1-0.4,0.1-0.3,0.3C214.7,19.5,214.9,19.6,215.1,19.7z M215.7,20.2c-0.3,0.2-0.4,0.5-0.5,0.7c0.1,0.1,0.2,0.1,0.3,0.1
			c0.3,0,0.5-0.1,0.5-0.3C216.1,20.4,216,20.2,215.7,20.2z M218.1,19.2c0.1,0.1,0.1,0.1,0.1,0.1s0.1,0,0.2-0.1
			c0.1-0.1-0.1-0.2-0.1-0.1C218.1,19.2,218.1,19.2,218.1,19.2z M218.9,27.3c-0.1-0.1-0.1-0.1-0.2-0.2c0,0-0.1,0-0.1,0
			c-0.1,0-0.1,0.1-0.1,0.1s0,0.1,0.1,0.1c0.1,0.1,0.1,0.1,0.2,0.1C218.8,27.5,218.8,27.4,218.9,27.3z M219.5,22.4
			c-0.2-0.1-0.4-0.2-0.7-0.3c-0.1,0-0.1,0.1-0.3,0.1c0.1,0.4,0.1,0.7,0.1,1.2c0,0,0.1,0.1,0.1,0.1c0.1,0,0.1,0.1,0.3,0.1
			c0.1-0.1,0.1-0.1,0.1-0.1c0-0.1-0.1-0.3-0.1-0.4c0,0,0-0.1,0.1-0.1C219.3,22.6,219.3,22.6,219.5,22.4z M220.3,26.7
			c-0.1,0-0.3,0-0.3,0c-0.1,0-0.1,0.1-0.1,0.1c0,0,0,0.1,0.1,0.1c0.1,0.1,0.2,0.1,0.3,0C220.3,26.9,220.3,26.8,220.3,26.7z"/>
		<path class="st1" d="M231.9,24.2c-0.1,0.3-0.5,0.3-0.8,0.4c-0.1,0-0.1,0-0.3,0c-0.2,0-0.4-0.1-0.6-0.1c-0.3,0-0.5,0.1-0.7,0.1
			c-0.1,0.1-0.1,0.1-0.2,0.1c-0.1,0.2-0.1,0.4,0.1,0.7c0.3,0,0.5,0,0.7,0c0.2,0.1,0.3,0.2,0.1,0.4c-0.1,0.1-0.3,0.3-0.6,0.3
			c-0.2,0.1-0.4,0.1-0.7,0.1c-0.3,0.2-0.6,0.5-0.9,0.7c-0.2,0.1-0.4,0.2-0.6,0.3c-0.1,0-0.3-0.1-0.3-0.1c-0.2-0.1-0.4-0.2-0.5-0.3
			c0-0.1-0.1-0.1-0.1-0.2c0.1-0.3,0-0.5,0.1-0.8c0.1-0.3,0.5-0.5,0.9-0.8c-0.1-0.1-0.1-0.3-0.2-0.4c0-0.1,0.1-0.3,0.1-0.4
			c-0.1-0.2-0.5-0.3-0.3-0.7c0,0,0.1-0.2,0.2-0.4c0.2-0.1,0.5-0.3,0.7-0.4c0.1-0.2,0.2-0.3,0.3-0.5c0.3-0.1,0.7-0.1,1.1-0.2
			c0.1,0.1,0.3,0.1,0.3,0.1c0.1,0.1,0.1,0.1,0.1,0.1l0.1,0.4c0.1,0.1,0.3,0.3,0.5,0.2c0.3,0,0.4-0.3,0.7-0.3c0.1,0,0.1,0,0.2,0.1
			c0.1,0.1-0.1,0.2-0.1,0.3l-0.1,0.1c-0.3,0.1-0.5,0.3-0.7,0.3c-0.5,0.1-0.6-0.1-0.9-0.1c-0.2,0.1-0.3,0.2-0.4,0.3
			c-0.1,0.2,0.2,0.2,0.3,0.3c0.1,0.1,0.1,0.2,0.3,0.3c0.3,0.1,0.6,0.1,0.9,0.1c0.3-0.1,0.4-0.2,0.6-0.3c0.2-0.1,0.4-0.1,0.6-0.1
			C231.8,24,231.9,24,231.9,24.2z M228.9,25.5c-0.1-0.1-0.3-0.3-0.6-0.3c-0.3,0.1-0.5,0.3-0.7,0.5c-0.1,0.2-0.1,0.4-0.1,0.5
			c0.2,0.1,0.3,0.1,0.4,0l0.1-0.1c0.1-0.3,0.5-0.5,0.7-0.7C228.9,25.6,228.8,25.5,228.9,25.5z M228.6,23c0-0.1-0.1-0.1-0.1-0.1
			c-0.1,0-0.1,0.1-0.2,0.1c-0.1,0.1,0,0.1,0.1,0.1C228.6,23.2,228.7,23.1,228.6,23z"/>
		<path class="st1" d="M236.2,22.5c0.4-0.1,0.4-0.4,0.5-0.6c-0.1-0.2-0.2-0.5-0.3-0.7c-0.5-0.3-0.5-0.3-1-0.9
			c-0.3-0.1-0.5,0.2-0.9,0.1c-0.2-0.1-0.4-0.3-0.7-0.4c0,0,0-0.1-0.1-0.1v-0.1l0.1-0.2c0.1-0.1-0.1-0.3-0.2-0.3
			c-0.1,0-0.3,0.1-0.3,0.1l-0.4,1v0.1c0.1,0.1,0.1,0.1,0.2,0.1c0.6,0,1.1,0.3,1.7,0.3c0.3,0,0.5,0.1,0.5,0.3c0,0.1-0.1,0.2-0.1,0.3
			c0,0.1,0.1,0.3,0.1,0.3C235.6,22.3,235.8,22.5,236.2,22.5C236,22.5,236.1,22.5,236.2,22.5z"/>
		<path class="st1" d="M226.2,27.7c-0.3-0.1-0.5-0.3-0.8-0.3c-0.3,0.1-0.3,0.3-0.5,0.5c-0.1,0.1-0.3,0.2-0.6,0.2
			c-0.4-0.2,0-0.5-0.1-0.7l-0.1-0.1c-0.2,0-0.3,0-0.5,0.1c-0.1,0.2-0.1,0.4-0.2,0.7c0.1,0.1,0.3,0.3,0.4,0.4
			c0.1,0.1,0.2,0.1,0.3,0.1c0.1-0.1,0.3-0.1,0.5-0.2c0.8,0.1,1.6-0.1,2.4-0.2c0.1,0,0.1-0.1,0.1-0.1c0.1-0.1,0.1-0.1,0.1-0.1
			C227,27.7,226.6,27.8,226.2,27.7z"/>
		<path class="st1" d="M232.7,18.5c0.2-0.1,0.5-0.2,0.9-0.4c0.1,0,0.1-0.1,0.1-0.2c0-0.1-0.1-0.3-0.1-0.5c-0.1,0-0.2-0.1-0.3-0.1
			c-0.3,0.2-0.1,0.5-0.3,0.6c-0.1,0-0.2,0-0.3,0c-0.1,0-0.3-0.1-0.5,0c-0.3,0.2-0.6,0.4-0.9,0.6l-0.1,0.1c-0.1,0.3-0.1,0.6,0.1,0.9
			c0.1,0.1,0.2,0.1,0.5,0C231.9,19.2,232.2,18.9,232.7,18.5z"/>
		<path class="st1" d="M238.7,19.2c-0.1-0.1-0.2-0.1-0.3-0.1c-0.1-0.1-0.2,0-0.4,0.1c0,0.1,0,0.3-0.1,0.5c-0.1,0.2-0.2,0.4-0.3,0.6
			c0,0.1,0,0.1,0,0.2c0,0.1,0.1,0.2,0.3,0.2c0.1-0.1,0.3-0.2,0.5-0.3c0.2-0.3,0.3-0.5,0.5-0.7c0,0,0-0.1,0-0.1
			C238.9,19.4,238.8,19.3,238.7,19.2z"/>
		<path class="st1" d="M103.7,10.1c-0.1,0-0.1-0.1-0.2-0.1c-0.1,0-0.2-0.1-0.3-0.1c-0.3,0-0.6-0.1-0.9-0.1c-0.2,0.1-0.2,0.2-0.1,0.3
			c0.1,0.1,0.1,0.2,0.3,0.3c0.2,0.1,0.4,0.1,0.6,0.1c0.2,0.1,0.3,0.1,0.5,0.1C103.9,10.5,103.9,10.3,103.7,10.1z"/>
		<path class="st1" d="M230.9,20c-0.3,0.1-0.4,0.3-0.3,0.5c0,0.2,0.1,0.4,0.1,0.6c0.2,0.1,0.4,0.1,0.6,0.1s0.3-0.1,0.3-0.3
			c-0.1-0.1-0.1-0.2-0.1-0.3c0.1-0.1,0.1-0.3,0.1-0.4C231.4,20.1,231.2,20,230.9,20z"/>
		<path class="st1" d="M248.9,18.5c-0.3,0.1-0.7,0.3-1,0.4c-0.2,0.1-0.3,0.2-0.2,0.4c0.2,0.1,0.5,0.2,0.8,0.1
			c0.3-0.1,0.3-0.3,0.5-0.5c0.1-0.1,0.2-0.1,0.3-0.1c0-0.1,0-0.2-0.1-0.3C249.1,18.6,249,18.5,248.9,18.5z"/>
		<path class="st1" d="M241.6,19c-0.1,0-0.1,0.1-0.1,0.2c0.5,0,0.5,0.4,0.9,0.4c0.2-0.1,0.3-0.2,0.3-0.3c0-0.3,0.2-0.5,0.3-0.7
			c-0.1,0-0.1-0.1-0.2-0.1C242.3,18.6,242,18.8,241.6,19z"/>
		<path class="st1" d="M84.7,2.2c0.1,0,0.1-0.1,0.1-0.2c-0.1-0.1-0.2-0.1-0.3-0.2c-0.1-0.2-0.1-0.4-0.3-0.5c-0.1,0-0.2,0.1-0.2,0.1
			c-0.3,0.3-0.3,0.5-0.2,0.9c0.1,0,0.1,0.1,0.2,0.1C84.2,2.3,84.5,2.3,84.7,2.2z"/>
		<path class="st1" d="M146.7,13.9c0.1-0.1,0.1-0.1,0.2-0.2c0-0.1-0.1-0.1-0.1-0.1c-0.1-0.1-0.1-0.1-0.2-0.1c-0.9,0-0.9,0-1.3,0.2
			c0,0.1,0,0.2,0,0.3c0.1,0,0.1,0.1,0.1,0.1C145.9,14.1,146.3,14.1,146.7,13.9z"/>
		<path class="st1" d="M233.1,21.7c0.1-0.1,0-0.1,0.1-0.2c-0.1-0.2-0.3-0.3-0.6-0.2c-0.2,0.1-0.4,0.3-0.5,0.5c0,0.1,0,0.1,0,0.3
			c0.3,0.1,0.5,0.1,0.7,0C232.8,22,233,21.9,233.1,21.7z"/>
		<path class="st1" d="M100.1,6.2c0.1,0,0.2,0,0.3-0.1c0.3-0.1,0.4-0.3,0.5-0.5c0.1-0.1,0.1-0.2,0-0.3c-0.1-0.1-0.1-0.1-0.2,0
			c-0.1,0.1-0.2,0.2-0.4,0.3c-0.3-0.1-0.5-0.1-0.7-0.2c-0.3,0.1-0.3,0.2-0.1,0.3C99.7,6,99.9,6.1,100.1,6.2z"/>
		<path class="st1" d="M236.5,19.1c-0.1,0.2-0.1,0.4,0.1,0.6c0.1,0.1,0.2,0.1,0.4,0c0.1-0.3,0.3-0.5,0.3-0.8
			C237,18.7,236.8,18.7,236.5,19.1z"/>
		<path class="st1" d="M225.4,19.4c0.3-0.1,0.4-0.4,0.4-0.7c-0.3-0.2-0.5-0.2-0.9-0.1c-0.1,0.1-0.1,0.1-0.2,0.2
			C225,19.1,225.1,19.4,225.4,19.4z"/>
		<path class="st1" d="M107.5,14.4c0.3-0.1,0.5-0.3,0.5-0.5c0-0.3-0.2-0.3-0.5-0.3c-0.4,0.2-0.4,0.5-0.3,0.7
			C107.3,14.4,107.3,14.4,107.5,14.4z"/>
		<path class="st1" d="M80.8,2.1c0.1,0.1,0.3,0.3,0.4,0.6c0.3-0.1,0.5-0.2,0.7-0.3C81.9,2.2,81.8,2,81.6,2C81.4,1.8,81,1.8,80.8,2.1
			z"/>
		<path class="st1" d="M142.7,16.8c0.3-0.3,0.4-0.5,0.3-0.9c-0.1,0-0.2-0.1-0.3-0.1c-0.1,0.1-0.2,0.2-0.3,0.3c0,0.3-0.1,0.5,0.1,0.7
			C142.4,16.8,142.5,16.8,142.7,16.8z"/>
		<path class="st1" d="M104.8,6.9c0.2-0.2,0.1-0.5,0.4-0.6c0.1,0,0.3,0,0.5,0c0.1-0.1,0.3-0.1,0.3-0.3c-0.4-0.1-0.7,0.1-1.1,0.1
			c-0.2,0.2-0.3,0.4-0.3,0.6C104.6,6.8,104.6,6.8,104.8,6.9z"/>
		<path class="st1" d="M131.1,15.5c0.3,0.1,0.5,0.2,0.9,0.3c0.2-0.2,0.1-0.4-0.1-0.6c-0.3-0.1-0.5-0.1-0.8-0.1
			c-0.1,0.1-0.1,0.1-0.2,0.1c0,0.1,0,0.1,0.1,0.1C131,15.4,131,15.5,131.1,15.5z"/>
		<path class="st1" d="M123,16.2c0-0.1,0-0.2,0-0.3c-0.2-0.1-0.3-0.1-0.5,0c-0.2,0.2-0.4,0.4-0.5,0.7c0.1,0.1,0.2,0.1,0.3,0.1
			C122.5,16.6,122.7,16.4,123,16.2z"/>
		<path class="st1" d="M112,16c0.3,0.1,0.5,0.2,0.9,0.2c0.2,0,0.4,0,0.5-0.2c0-0.1,0-0.1,0.1-0.4c-0.5,0.3-1,0.3-1.4,0.2
			C112,15.8,111.9,15.8,112,16C111.9,15.9,112,15.9,112,16z"/>
		<path class="st1" d="M247.3,17.5c0-0.1-0.1-0.1-0.2-0.1c-0.1,0-0.1,0-0.1,0.1c-0.1,0.1-0.2,0.3-0.3,0.5c0.2,0.2,0.3,0.3,0.7,0.3
			c0.1-0.1,0.1-0.1,0.1-0.2C247.5,17.9,247.3,17.8,247.3,17.5z"/>
		<path class="st1" d="M101.7,3L101.7,3c0.1,0.2,0.2,0.3,0.3,0.1c0.1-0.1,0.1-0.1,0.2-0.2c-0.1-0.1-0.3-0.3-0.5-0.4
			c-0.1,0-0.3-0.1-0.5-0.1c-0.1,0-0.1,0.1-0.2,0.1C101.3,2.8,101.5,3,101.7,3z"/>
		<path class="st1" d="M136.9,15.4c0-0.1,0-0.1,0-0.2c-0.1-0.1-0.3-0.2-0.5-0.2c-0.2,0.3-0.1,0.5,0,0.7
			C136.7,15.7,136.8,15.6,136.9,15.4z"/>
		<path class="st1" d="M140.4,15.6c0.1-0.2,0.1-0.4,0.3-0.6V15c-0.1-0.1-0.2-0.1-0.3,0c-0.1,0.1-0.2,0.2-0.3,0.3
			c0,0.3,0,0.3,0.1,0.5C140.2,15.7,140.3,15.7,140.4,15.6z"/>
		<path class="st1" d="M231.3,24.9c-0.3,0.1-0.5,0.3-0.5,0.5c0.1,0.1,0.2,0.2,0.3,0.2c0.2-0.1,0.3-0.2,0.3-0.4c0-0.1,0-0.2-0.1-0.3
			C231.5,24.9,231.4,24.8,231.3,24.9z"/>
		<path class="st1" d="M236.2,23c-0.1,0.1-0.1,0.1-0.1,0.2c0,0.1,0.1,0.1,0.3,0.1c0.2-0.1,0.5-0.2,0.7-0.3c0-0.1-0.1-0.1-0.1-0.2
			C236.7,22.9,236.4,22.9,236.2,23z"/>
		<path class="st1" d="M101.5,4.5c-0.1-0.1-0.1-0.1-0.1-0.2c-0.2-0.1-0.4-0.1-0.7-0.1l-0.1,0.1v0.1c0.1,0.1,0.2,0.3,0.5,0.4
			C101.1,4.7,101.3,4.7,101.5,4.5z"/>
		<path class="st1" d="M147.7,15.2c-0.5-0.1-0.7-0.1-0.8,0.3C147.4,15.7,147.7,15.6,147.7,15.2z"/>
		<path class="st1" d="M119.6,19c0,0.1,0,0.1,0.2,0.2c0.2-0.1,0.3-0.3,0.5-0.4c0-0.1,0.1-0.1,0-0.2c0-0.1-0.1-0.1-0.1-0.1
			c-0.1,0-0.1,0-0.2,0C119.8,18.6,119.6,18.8,119.6,19z"/>
		<path class="st1" d="M104.9,1.2c0.1,0,0.1,0,0.1,0c0.1-0.1,0.1-0.1,0.3-0.2c-0.3-0.2-0.6-0.5-1.1-0.3c0.2,0.1,0.4,0.3,0.5,0.4
			C104.9,1.1,104.9,1.2,104.9,1.2z"/>
		<path class="st1" d="M235.2,18.3c0.1,0,0.1-0.1,0.2-0.1c0.3-0.2,0.2-0.4-0.3-0.5c-0.3,0.3-0.3,0.3-0.1,0.6
			C235.1,18.3,235.1,18.3,235.2,18.3z"/>
		<path class="st1" d="M98.9,3.9c0,0.1,0,0.1,0.1,0.3c0.2,0.1,0.5,0.1,0.6-0.1c0-0.1,0-0.1-0.1-0.2C99.3,3.7,99.1,3.7,98.9,3.9z"/>
		<path class="st1" d="M219.5,18c0.3-0.1,0.5-0.2,0.5-0.5c-0.1,0-0.2,0-0.3,0c-0.2,0.1-0.4,0.1-0.6,0.3
			C219.1,17.9,219.2,18,219.5,18z"/>
		<path class="st1" d="M111.8,14.8c-0.3-0.2-0.3-0.2-0.6,0c0.1,0.2-0.1,0.4,0.1,0.6C111.6,15.2,111.7,15,111.8,14.8z"/>
		<path class="st1" d="M99.5,5.1c0.2,0.1,0.2,0.1,0.5,0c0.2-0.2,0.2-0.4,0-0.5c-0.1,0-0.1,0-0.2,0C99.5,4.7,99.5,4.9,99.5,5.1z"/>
		<path class="st1" d="M137.8,15.3C137.8,15.3,137.8,15.2,137.8,15.3c0.1-0.1,0.1-0.3,0.1-0.3c-0.1-0.1-0.1-0.3-0.4-0.4
			c-0.1,0.3-0.1,0.5,0.1,0.7C137.6,15.3,137.7,15.4,137.8,15.3z"/>
		<path class="st1" d="M252.5,15.4c0.1,0.3,0.1,0.3,0.5,0.3c0.1-0.1,0.1-0.3,0-0.4C252.8,15.2,252.6,15.3,252.5,15.4z"/>
		<path class="st1" d="M232.9,25c0.1,0.1,0.1,0.1,0.3,0.1c0.1,0.1,0.3,0,0.4-0.1c0-0.1,0-0.2-0.1-0.3C233,24.8,233,24.8,232.9,25z"
			/>
		<path class="st1" d="M234.9,23.3c-0.2,0.3-0.1,0.4,0.3,0.4c0.2-0.2,0.2-0.2,0-0.4C235.1,23.3,235,23.3,234.9,23.3z"/>
		<path class="st1" d="M227.6,18.4c-0.2-0.1-0.2-0.1-0.5-0.1c-0.2,0.2-0.2,0.4,0.1,0.6C227.4,18.8,227.6,18.6,227.6,18.4z"/>
		<path class="st1" d="M110.8,15.6c0.1-0.1,0.1-0.2,0.1-0.2c-0.1-0.1-0.3-0.1-0.5-0.1c-0.1,0.1-0.1,0.2-0.1,0.3
			C110.5,15.8,110.7,15.7,110.8,15.6z"/>
		<path class="st1" d="M253,17c-0.1,0.1-0.2,0.1-0.2,0.2c-0.1,0.1,0.1,0.4,0.3,0.4c0.2,0,0.3-0.2,0.3-0.3
			C253.3,17.1,253.2,17,253,17z"/>
		<path class="st1" d="M143.9,15.8c0.1,0,0.1-0.1,0.2-0.2c-0.1-0.1-0.1-0.2-0.4-0.3c-0.1,0.1-0.3,0.2-0.3,0.4
			C143.5,15.9,143.7,15.9,143.9,15.8z"/>
		<path class="st1" d="M230.4,22.2c0.2,0,0.4-0.1,0.6-0.1c0.1,0,0.1,0,0.1,0c0.1,0,0.1-0.1,0.1-0.1l-0.1-0.1c-0.3-0.1-0.5-0.1-0.8,0
			c-0.1,0-0.1,0.1-0.1,0.1S230.4,22.2,230.4,22.2z"/>
		<path class="st1" d="M151.7,15.4c0.3-0.2,0.3-0.3,0.1-0.5c-0.1-0.1-0.2-0.1-0.3,0c-0.1,0.1-0.1,0.1-0.1,0.1
			C151.5,15.2,151.5,15.4,151.7,15.4z"/>
		<path class="st1" d="M117.4,16c0.1,0,0.2,0,0.3-0.1c0-0.1-0.1-0.3-0.3-0.3c-0.1,0-0.2,0-0.3,0.1C117.2,15.9,117.2,15.9,117.4,16z"
			/>
		<path class="st1" d="M110.3,14.4c0.1-0.2,0.1-0.3,0.2-0.4l0.1-0.1c0-0.1-0.1-0.1-0.1-0.1c-0.1,0-0.1,0-0.2,0
			c-0.1,0.2-0.2,0.4-0.1,0.6C110.1,14.4,110.1,14.4,110.3,14.4z"/>
		<path class="st1" d="M238.8,23.6c-0.2,0.1-0.3,0.1-0.3,0.3c0.1,0.1,0.1,0.1,0.3,0.1c0.1,0.1,0.3,0,0.3-0.1
			C239.1,23.7,239,23.6,238.8,23.6z"/>
		<path class="st1" d="M243.5,17.9c-0.1,0-0.2,0-0.2,0.1c-0.1,0.1-0.1,0.1-0.1,0.2c0.1,0.1,0.3,0.2,0.5,0.1c0.1-0.1,0.1-0.2,0.1-0.3
			C243.6,17.9,243.6,17.9,243.5,17.9z"/>
		<path class="st1" d="M103.5,0.4c0.1,0,0.2,0,0.2-0.1V0.2c-0.1-0.1-0.3-0.2-0.5-0.1c-0.1,0.1-0.2,0.2-0.1,0.4
			C103.3,0.5,103.4,0.4,103.5,0.4z"/>
		<path class="st1" d="M235,24.4L235,24.4c0.1,0.2,0.2,0.3,0.3,0.3c0.1,0,0.1-0.1,0.2-0.1c0.1-0.1,0.1-0.2-0.1-0.3
			C235.2,24.2,235,24.2,235,24.4z"/>
		<path class="st1" d="M229.4,26.7c-0.1,0-0.1,0-0.1,0c0,0.1-0.1,0.1-0.1,0.3c0,0.1,0.1,0.2,0.3,0.1c0.1,0,0.2-0.1,0.2-0.2
			C229.6,26.8,229.6,26.7,229.4,26.7z"/>
		<path class="st1" d="M103.1,11.4c0.1,0.1,0.1,0.1,0.2,0.1c0.1,0,0.1-0.1,0.1-0.1c0-0.1-0.1-0.3-0.4-0.4
			C102.9,11.1,102.9,11.2,103.1,11.4z"/>
		<path class="st1" d="M141.8,14.8c0.1-0.1,0.1-0.1,0.2-0.2c0-0.1,0-0.1-0.1-0.1c-0.1,0-0.1-0.1-0.2-0.1c-0.1,0-0.3,0.1-0.3,0.2
			c0,0.1,0,0.1,0.1,0.1C141.6,14.9,141.7,14.9,141.8,14.8z"/>
		<path class="st1" d="M72.6,3c0.1,0.1,0.2,0.1,0.3,0.1c0.1,0,0.2-0.1,0.3-0.2c0-0.1-0.1-0.1-0.3-0.1c-0.1,0-0.1,0.1-0.2,0.1
			C72.6,2.9,72.6,3,72.6,3z"/>
		<path class="st1" d="M252.6,16.2c-0.1-0.1-0.2-0.1-0.3,0c-0.1,0.1-0.1,0.1-0.2,0.3c0.1,0.1,0.2,0.1,0.3,0.1c0.1,0,0.3-0.1,0.3-0.3
			C252.7,16.2,252.7,16.2,252.6,16.2z"/>
		<path class="st1" d="M96.9,13.7c-0.3,0.1-0.3,0.2-0.1,0.5c0.1,0,0.2,0,0.3,0C97.1,13.9,97.1,13.7,96.9,13.7z"/>
		<path class="st1" d="M128.6,16.9c0.1,0,0.2,0,0.3-0.1c-0.1-0.2-0.3-0.2-0.6-0.1c-0.1,0-0.1,0.1-0.1,0.1v0.1
			C128.2,16.9,128.4,16.9,128.6,16.9z"/>
		<path class="st1" d="M149.3,13.9c0.1-0.1,0.1-0.1,0.2-0.2c-0.2-0.1-0.4-0.3-0.7-0.2C148.9,13.8,149.1,13.9,149.3,13.9z"/>
		<path class="st1" d="M107.5,8.4c0.1-0.1,0.1-0.2,0-0.3c-0.1,0-0.1-0.1-0.2,0c-0.1,0-0.1,0.1-0.1,0.1
			C107.2,8.3,107.3,8.4,107.5,8.4z"/>
		<path class="st1" d="M106,13.5c0.1,0,0.2,0,0.2-0.1c0-0.1,0-0.1-0.1-0.1c-0.1,0-0.1-0.1-0.2-0.1c-0.1,0-0.2,0.1-0.2,0.1
			s0,0.1,0.1,0.1C105.8,13.5,105.9,13.5,106,13.5z"/>
		<path class="st1" d="M239.8,19C239.8,19,239.7,19,239.8,19c-0.1,0.1-0.2,0.2-0.1,0.3c0,0.1,0.1,0.1,0.2,0.1
			c0.1-0.1,0.2-0.1,0.2-0.2v-0.1C239.9,19,239.8,19,239.8,19z"/>
		<path class="st1" d="M102.2,2.4c0-0.1-0.1-0.3-0.3-0.3c-0.1,0.1-0.1,0.3-0.1,0.4C101.9,2.6,102.1,2.5,102.2,2.4z"/>
		<path class="st1" d="M147.9,13.9c0.1,0,0.1,0,0.2-0.1c0,0,0-0.1,0-0.1c-0.1,0-0.2-0.1-0.3-0.1c-0.1,0-0.1,0.1-0.2,0.1
			c0,0.1,0.1,0.1,0.1,0.1C147.8,13.8,147.9,13.9,147.9,13.9z"/>
		<path class="st1" d="M103.3,1.2c-0.3,0.2-0.2,0.3,0,0.6C103.5,1.2,103.5,1.2,103.3,1.2z"/>
		<path class="st1" d="M121.5,16.2c0.1-0.1,0.1-0.1,0.2-0.2c0.1-0.1-0.1-0.2-0.2-0.1c-0.1,0-0.1,0.1-0.1,0.1
			C121.3,16.1,121.4,16.2,121.5,16.2C121.4,16.2,121.4,16.2,121.5,16.2z"/>
		<path class="st1" d="M148.2,15.6c0,0.1,0.1,0.2,0.3,0.2c0-0.1,0.1-0.1,0.1-0.1c0-0.1,0-0.1-0.1-0.1c-0.1-0.1-0.1-0.1-0.2-0.1
			C148.3,15.4,148.2,15.6,148.2,15.6z"/>
		<path class="st1" d="M143.6,13.8c0.1,0,0.1,0,0.1-0.1c0.1-0.1,0.1-0.1,0.1-0.1c0,0-0.1-0.1-0.1-0.1c-0.1,0-0.2,0-0.3,0
			s-0.1,0.1-0.1,0.1C143.3,13.7,143.5,13.7,143.6,13.8z"/>
		<path class="st1" d="M85.2,1.3c0.1,0,0.1-0.1,0.1-0.1c-0.1-0.1-0.2-0.3-0.4-0.3c-0.2,0.2,0,0.3,0.2,0.5
			C85.1,1.3,85.2,1.3,85.2,1.3z"/>
		<path class="st1" d="M127.8,15.8c0.1,0,0.1-0.1,0.1-0.1c0.1-0.1-0.1-0.1-0.2-0.1c-0.1,0-0.1,0.1-0.2,0.1c0,0,0,0.1,0.1,0.1
			C127.7,15.8,127.8,15.8,127.8,15.8z"/>
		<path class="st1" d="M126.6,15.9c0.1-0.1-0.1-0.2-0.1-0.1c-0.1,0-0.1,0.1-0.1,0.1c0.1,0.1,0.1,0.1,0.1,0.1
			C126.4,16,126.5,16,126.6,15.9z"/>
		<path class="st1" d="M220.4,20.8c0.1,0,0.3-0.1,0.2-0.1c0-0.1-0.1-0.1-0.1-0.1c-0.1,0-0.1,0.1-0.2,0.1
			C220.2,20.8,220.2,20.8,220.4,20.8z"/>
		<path class="st1" d="M239.8,18.5c0.1-0.1-0.1-0.2-0.2-0.1c-0.1,0-0.1,0.1-0.1,0.1c0.1,0.1,0.1,0.1,0.1,0.1
			C239.8,18.7,239.8,18.6,239.8,18.5z"/>
		<path class="st1" d="M71,3.9c-0.1,0.1,0.1,0.2,0.2,0.1c0.1,0,0.1-0.1,0.1-0.1c-0.1,0-0.1-0.1-0.1-0.1C71.1,3.8,71,3.9,71,3.9z"/>
		<path class="st1" d="M225.4,23.3c0.1,0,0.3-0.1,0.2-0.1c0-0.1-0.1-0.1-0.1-0.1c-0.1,0-0.1,0.1-0.2,0.1
			C225.2,23.2,225.3,23.3,225.4,23.3z"/>
		<path class="st1" d="M238.7,20.8c-0.1,0-0.1,0.1-0.1,0.1c0.1,0.1,0.1,0.1,0.1,0.1c0.1,0,0.1,0,0.2-0.1
			C238.9,20.8,238.8,20.8,238.7,20.8z"/>
		<path class="st1" d="M258.8,18.3c-0.1,0-0.1,0.1-0.1,0.1c0.1,0.1,0.1,0.1,0.1,0.1c0.1,0,0.1,0,0.2-0.1
			C259,18.3,258.9,18.2,258.8,18.3z"/>
		<path class="st1" d="M80.9,0.4c0.1,0.1,0.2,0.1,0.2,0s0.1-0.1,0-0.1c-0.1-0.1-0.2-0.1-0.3-0.1c-0.1,0.1-0.1,0.1-0.1,0.2
			C80.8,0.3,80.9,0.3,80.9,0.4z"/>
		<path class="st1" d="M126.6,11.9c0.1-0.1,0.1-0.1-0.1-0.2c-0.1,0-0.1,0-0.2,0c-0.1,0.1-0.1,0.1-0.1,0.1c0,0.1,0.1,0.1,0.1,0.1
			C126.5,12,126.6,12,126.6,11.9z"/>
		<path class="st1" d="M227.9,28.2C227.9,28.2,227.9,28.2,227.9,28.2c0.2,0.1,0.5-0.1,0.5-0.2l-0.1-0.1C228.1,28,228,28,227.9,28.2z
			"/>
		<path class="st1" d="M105.2,7.8c0-0.1,0-0.1-0.1-0.1c-0.1,0-0.1,0-0.1,0c-0.1,0.1-0.1,0.2-0.1,0.3C104.9,7.9,105.1,7.9,105.2,7.8z
			"/>
		<path class="st1" d="M225.4,26.5c-0.1,0.1,0,0.1,0.1,0.1c0,0,0.1,0,0.1,0c0.1-0.1,0.1-0.1,0.1-0.1l-0.1-0.1
			C225.4,26.4,225.4,26.4,225.4,26.5z"/>
		<path class="st1" d="M255.9,19.3c-0.1,0-0.1,0.1-0.2,0.1c-0.1,0.1,0,0.1,0.1,0.1c0,0,0.1,0,0.1-0.1c0.1-0.1,0.1-0.1,0.1-0.1
			C255.9,19.3,255.9,19.3,255.9,19.3z"/>
		<path class="st1" d="M231.4,26.9c-0.1,0.1-0.1,0.1-0.2,0.1c0,0-0.1,0.1,0,0.1c0.1,0.1,0.1,0.1,0.2,0C231.4,27,231.4,27,231.4,26.9
			C231.4,26.9,231.4,26.9,231.4,26.9z"/>
		<path class="st1" d="M249.1,17.6c-0.1,0-0.1,0.1-0.2,0.1c-0.1,0.1,0,0.1,0.1,0.1c0,0,0.1,0,0.1-0.1c0.1-0.1,0.1-0.1,0.1-0.1
			C249.2,17.7,249.2,17.6,249.1,17.6z"/>
		<path class="st1" d="M240,13.3L240,13.3c-0.1,0.1,0.1,0.2,0.2,0.2l0.1-0.1C240.2,13.3,240.2,13.3,240,13.3z"/>
		<path class="st1" d="M76.3,2.9c0-0.1-0.1-0.1-0.3-0.1L76,2.8C76,3,76,3,76.3,2.9C76.2,2.9,76.3,2.9,76.3,2.9z"/>
		<path class="st1" d="M72.4,2.2c0.1,0,0.1,0,0.2,0l0.1-0.1C72.6,2,72.6,2,72.6,2c0,0-0.1,0-0.1,0C72.4,2.1,72.4,2.2,72.4,2.2z"/>
		<path class="st1" d="M150.9,15.9L150.9,15.9c0-0.1,0-0.1-0.1-0.2c-0.1-0.1-0.1,0-0.2,0.1v0.1C150.7,15.8,150.8,15.9,150.9,15.9z"
			/>
		<path class="st1" d="M133.9,16.2L133.9,16.2c0.1-0.1-0.1-0.2-0.1-0.2l-0.1,0.1C133.6,16.2,133.7,16.2,133.9,16.2z"/>
		<path class="st1" d="M125.6,16.4L125.6,16.4c0.1-0.2,0-0.3-0.1-0.2l-0.1,0.1C125.4,16.3,125.5,16.4,125.6,16.4z"/>
		<path class="st1" d="M109.3,12.9L109.3,12.9c0.1-0.2,0-0.2-0.1-0.2l-0.1,0.1C109.1,12.8,109.2,12.9,109.3,12.9z"/>
		<path class="st1" d="M104.9,10.2c-0.1,0-0.1,0.1-0.1,0.1c0,0,0.1,0.1,0.1,0c0.1,0,0.2-0.1,0.5-0.1C105.1,10.2,105,10.2,104.9,10.2
			z"/>
		<path class="st1" d="M117.7,15C117.7,15,117.8,15,117.7,15l0.1-0.1c0,0-0.1,0-0.1,0C117.6,15,117.6,15,117.7,15z"/>
		<path class="st1" d="M252.6,18.9C252.5,19,252.5,19,252.6,18.9c0.1,0.1,0.1,0.1,0.1,0v-0.1C252.7,18.9,252.7,18.9,252.6,18.9z"/>
		<path class="st1" d="M153.5,15.4C153.6,15.3,153.6,15.3,153.5,15.4l-0.1-0.1v0.1C153.5,15.4,153.5,15.4,153.5,15.4z"/>
		<path class="st1" d="M143.7,15C143.7,15,143.7,15,143.7,15c0.1,0.1,0.1,0,0.1,0v-0.1L143.7,15C143.7,15,143.7,15,143.7,15z"/>
		<path class="st1" d="M242,18.2C242,18.2,242,18.2,242,18.2l0.1-0.1c0,0-0.1,0-0.1,0C241.8,18.1,241.8,18.2,242,18.2z"/>
		<path class="st1" d="M107.7,12.7C107.7,12.7,107.7,12.7,107.7,12.7c0.1-0.1,0.1-0.1,0-0.1h-0.1C107.5,12.7,107.6,12.7,107.7,12.7z
			"/>
		<path class="st1" d="M103.6,2.3c0,0.1,0.1,0.1,0.1,0.1V2.3H103.6C103.7,2.3,103.6,2.3,103.6,2.3z"/>
		<path class="st1" d="M102.5,4.6L102.5,4.6L102.5,4.6h-0.1C102.3,4.6,102.3,4.7,102.5,4.6C102.4,4.6,102.5,4.6,102.5,4.6z"/>
		<path class="st1" d="M82.2,0.3c0.1,0,0.1,0,0.1-0.1V0.1c-0.1,0-0.1,0-0.1,0C82.2,0.1,82.2,0.2,82.2,0.3L82.2,0.3z"/>
		<path class="st1" d="M73.8,2.2L73.8,2.2c-0.1-0.1-0.1-0.1-0.1,0C73.7,2.2,73.8,2.2,73.8,2.2C73.8,2.2,73.8,2.2,73.8,2.2z"/>
		<path class="st1" d="M77.7,6c0,0.1,0.1,0.1,0.1,0.1V6H77.7C77.7,6,77.7,6,77.7,6z"/>
		<path class="st1" d="M82.2,4.8c0.1,0,0.1-0.1,0.2-0.1c0.1-0.1,0-0.1-0.1-0.1c-0.1,0-0.3,0.1-0.5,0.1C81.9,4.8,82,4.8,82.2,4.8z"/>
	</g>
</g>
</svg>
