<?xml version="1.0" encoding="utf-8"?>
<!-- Generator: Adobe Illustrator 24.0.3, SVG Export Plug-In . SVG Version: 6.00 Build 0)  -->
<svg version="1.1" id="Layer_1" xmlns="http://www.w3.org/2000/svg" xmlns:xlink="http://www.w3.org/1999/xlink" x="0px" y="0px"
	 viewBox="0 0 707 712.5" style="enable-background:new 0 0 707 712.5;" xml:space="preserve">
<style type="text/css">
	.st0{fill:#5D929D;}
</style>
<path class="st0" d="M86.3,192.6c-0.4,1.9-0.4,1.9,1.1,1.9c0.8-0.9,1.3-1.7,2.3-2.8c1.5-1.7,3-2.6,4.3-3.6c0.6-0.4,0.6-0.2,0.2,0.7
	c-0.2,0.4-0.4,0.8-0.8,1.3c-1.5,2.1-3.2,4.1-4.7,6.4c-1.5,2.1-3.2,4.1-4.7,6.2c-1.7,2.4-3.4,4.9-4.9,6.7c-1.7,2.6-2.4,4.9-5.3,8.4
	c-0.2,0.2-1.3,1.5-2.4,3c-0.6,1.1-1.1,2.1-1.7,3.4c-0.6,0.9-1.3,2.1-2.1,3.2l-0.9,1.5c-0.9,1.9-2.1,3.6-3,5.4L61,240
	c-0.8,1.3-1.3,2.6-1.9,3.9c-1.1,2.6-2.3,5.2-3.6,8.2c-0.7,1.3-1.5,2.8-2.4,4.5c-0.4,1.1-0.9,2.4-1.5,4.1c-0.4,0.9-1.1,2.3-1.7,3.6
	c-0.7,1.7-0.9,3.2-1.7,5.2c-0.4,0.9-0.7,2.1-1.1,3.2c-0.4,1.1-0.7,2.3-1.1,3.4c-0.7,2.3-1.7,4.7-2.4,7.1c-0.6,1.5-1.3,3-1.7,4.5
	c-0.2,0.8-0.4,1.3-0.4,1.9c-0.4,2.3-0.9,4.5-1.7,6.8c-0.4,1.1-0.7,2.2-0.9,3.4c-0.4,1.1-0.6,2.3-0.9,3.4c-0.8,2.4-1.3,5.1-1.7,7.7
	c-0.4,2.1-0.8,3.9-0.9,6c-0.9,5.6-2.1,11.1-2.6,16.1c-0.2,3.6-0.4,5.3-0.6,7.3c-0.4,2.1-0.6,4.3-1.1,9c0,1.3,0,3,0,5.1
	c-0.4,3.2-0.2,6.4-0.4,9.6c0,3.2-0.2,6.6-0.2,9.8c0,2.1,0.2,4.1,0.4,6.2c0.4,2.8,0.4,5.8,0.6,8.8c0.2,2.6,0.4,5.3,0.6,8.1
	c0.2,2.6,0.4,5.4,0.8,8.2c0,1.1,0.2,2.4,0.2,4.1c0.6,2.8,0.9,5.8,1.5,9c0.6,3.2,1.1,6.6,1.7,10.3c0.2,0.9,0.6,3.2,1.3,5.4
	c0.4,1.3,0.7,3,1.1,4.1c0.6,1.5,0.9,3,1.3,4.7c0.4,1.5,0.8,3.2,1.1,4.7c1.7,6,3.2,12,5.4,17.8c0.9,3,1.9,5.8,3,8.8l3.4,8.6
	c0.9,2.8,2.2,5.4,3.6,8.1l3.8,8.1c0.8,1.5,1.7,3,2.8,4.9c0.4,0.9,0.9,2.3,1.7,3.8c1.9,3.4,4.3,6.9,6.2,11.1c0.9,1.3,1.9,2.8,2.6,4.1
	c0.9,1.5,1.9,3,2.8,4.5l3.2,4.9c0.9,1.7,2.1,3.2,3.2,4.7l6.7,9.4c0.9,1.1,1.9,2.4,2.8,3.4c3.2,3.4,5.8,7.1,9,10.7
	c2.4,2.6,4.5,5.2,7.1,7.7c1.9,1.7,3.7,3.7,5.6,5.6c1.5,1.3,2.8,2.8,4.3,4.1c1.5,1.3,3,2.6,4.5,4.1c1.3,1.3,2.8,2.4,4.1,3.7
	c1.3,1.3,3,2.3,4.3,3.6c2.1,1.5,4.3,3.4,6.4,5.1c2.1,1.7,4.5,3.4,6.6,4.9c2.1,1.5,4.1,3,6.2,4.3c2.3,1.3,4.3,2.8,6.6,4.1l3.9,2.6
	l4.1,2.4c2.6,1.5,5.4,3.2,8.1,4.7c1.3,0.6,2.4,1.3,3.8,2.1c3,1.7,6,3.6,9,4.9c3.2,1.5,6.4,3,9.8,4.5c1.5,0.8,3.2,1.5,4.9,2.3
	c1.7,0.8,3.4,1.5,4.9,2.3c1.5,0.8,3.2,1.5,4.7,2.1l4.9,1.9c1.3,0.6,2.8,1.1,3.9,1.5c1.9,0.6,3.8,1.3,5.6,2.1
	c0.2,0.2,0.6,0.2,0.8,0.4c3.8,1.1,7.3,2.2,11.1,3.6c3.8,1.1,7.5,2.1,11.2,3.2c1.9,0.6,3.8,0.9,5.6,1.3l5.6,1.3
	c1.9,0.4,3.8,0.9,5.6,1.3l5.8,0.9c1.7,0.4,3.6,0.6,5.1,1.1c1.3,0.4,2.8,0.6,4.1,0.8c1.5,0.2,2.8,0.4,4.3,0.6
	c2.8,0.4,5.6,0.8,8.4,1.1l8.4,0.6c5.6,0.6,11.3,0.6,16.9,0.8c1.5,0,3,0.2,4.3,0.2c3.4,0.2,6.9,0,10.3,0c1.1,0,2.3,0,3.6-0.2
	c1.1,0,2.3-0.2,3.4-0.2c2.1-0.2,3.9-0.2,5.8-0.2c1.1-0.2,2.3-0.4,3.9-0.6c2.4,0,5.1-0.4,8.1-0.6c2.4-0.6,5.1-0.9,7.5-1.1
	c3.6-0.4,7.3-1.1,11.1-1.7c0.6,0,1.1-0.2,1.9-0.2c1.1,0,2.4-0.2,3.6-0.4c4.1-1.3,8.3-2.1,12.4-2.8c2.3-0.4,4.3-1.3,6.7-2.1
	c2.1-0.4,4.3-0.8,6.6-1.5c3.4-1.3,6.9-2.3,10.5-3.4c1.7-0.6,3.2-1.1,4.9-1.7c1.7-0.6,3.2-1.1,4.9-1.7c1.5-0.4,3.2-1.1,4.9-1.9
	c2.4-1.1,4.7-2.1,7.1-3c0.9-0.4,2.1-0.8,3.2-1.3l2.8-1.3c0.9-0.4,1.9-0.9,2.8-1.3c1.9-0.9,3.6-1.7,5.4-2.4c0.9-0.4,2.1-0.9,3.2-1.5
	c2.8-1.5,5.6-3.2,8.2-4.1c1.7-0.9,3.2-1.9,4.9-2.8c6.2-3.9,12.6-7.3,18.4-11.4c0.9-0.6,2.1-1.1,2.8-1.9c2.2-1.7,4.5-3.2,6.7-4.9
	c2.3-1.7,4.5-3.2,6.7-4.9c1.3-1.1,2.6-2.1,4.1-3.2c0.8-0.8,1.5-1.5,2.1-2.1c2.3-1.9,4.5-3.4,6.4-5.3c1.7-1.7,3.4-3.2,5.2-4.7
	c1.1-1.1,2.4-2.1,3.6-3.2c1.1-1.1,2.3-2.3,3.4-3.6c1.9-1.9,3.7-3.7,5.6-5.6c1.7-1.5,3.2-3.4,4.7-5.2c1.3-1.5,2.6-2.8,3.8-4.3
	l1.9-2.1l1.9-2.3c1.9-2.1,3.7-4.5,5.6-6.7c0.9-1.1,1.9-2.3,2.6-3.6c0.9-1.1,1.7-2.3,2.6-3.4c1.3-1.5,2.4-3.2,3.7-4.9
	c2.8-4.1,5.4-8.4,8.4-12.4c0.9-1.3,1.9-3,2.6-4.5c0.9-1.7,1.9-3.4,3-4.9c0.9-1.7,2.1-3.2,3-4.9c0.9-1.3,1.7-3.2,2.4-4.7
	c1.1-2.3,2.4-4.5,3.4-6.8c1.1-2.2,2.1-4.5,3.4-6.7c0.8-1.5,1.5-3.2,2.2-4.9c0.9-2.3,1.7-4.3,2.8-6.6c0.9-2.1,1.7-4.3,2.6-6.4
	c0.8-1.5,1.3-3.4,1.9-4.9c0.8-2.1,1.3-3.9,2.1-5.8l1.1-2.8l0.9-2.8c0.4-1.3,0.8-2.8,1.3-4.3c0.8-2.8,1.7-5.6,2.4-8.6
	c0.8-2.8,1.5-5.8,2.2-8.4c0.9-3.7,1.7-7.5,2.3-11.4c0.4-2.6,0.9-5.2,1.5-7.9c0.4-1.7,0.6-3.6,0.8-5.2l0.8-5.8l0.4-2.8l0.2-3
	c0.2-2.6,0.6-5.2,0.8-7.9c0.2-1.5,0.4-3,0.4-4.3c0-1.5,0.2-3,0.2-4.5c0.2-4.1,0.4-8.3,0.6-12.6c0.2-2.8,0-6-0.2-9
	c0-3.4-0.4-6.6-0.4-9.7c0-0.6,0-1.1,0-1.7l-0.4-6.4c-0.2-2.1-0.4-4.1-0.8-6.2c-0.6-3.9-0.6-7.7-1.3-11.6c-0.6-2.6-0.9-5.3-1.1-7.9
	c-0.2-1.3-0.4-3-0.6-4.3c-0.6-3-1.3-5.8-1.7-8.8c-0.2-0.8-0.4-1.7-0.6-2.6c-0.2-1.3-0.6-2.4-0.8-3.8c-0.4-1.3-0.6-2.4-0.9-3.8
	c-0.6-2.4-1.3-4.9-1.9-7.3c-0.8-3.2-1.7-6.2-2.6-9.4c-0.9-2.8-1.9-5.8-2.6-8.4c-0.2-0.8-0.6-1.7-0.9-2.4c-0.9-2.2-1.7-4.5-2.4-6.7
	l-1.1-3.4c-0.4-1.1-0.9-2.3-1.3-3.4c-0.9-2.6-2.1-5.4-3.4-8.2c-0.8-1.7-1.5-3.4-2.3-4.9c-0.8-1.7-1.5-3.2-2.2-4.9
	c-0.8-1.5-1.5-3-2.3-4.5s-1.7-3-2.3-4.3c-1.3-2.6-2.8-5.4-4.1-7.9c-1.5-3-3.4-5.6-5.1-8.4c-1.7-2.6-3.2-5.1-4.9-7.7
	c-1.3-2.3-3.2-4.5-4.9-6.6c-1.9-3.2-4.3-6.2-7.3-10.5c-1.1-1.3-2.8-3.8-4.9-6c-1.3-1.7-2.8-3.4-3.9-4.9c-1.1-1.5-2.4-3.2-3.8-4.5
	c-1.3-1.3-2.8-2.8-4.1-4.1c-0.4-0.4-0.9-0.8-1.3-1.3c-0.7-0.8-1.5-1.7-2.2-2.6c-0.4-0.4-0.9-0.8-1.3-1.3c-1.1-0.9-2.2-1.9-3.4-3
	c-2.1-1.9-4.1-3.2-6-5.2c-1.7-1.7-3.4-3.4-5.4-5.3c-0.6-0.6-1.5-1.3-2.4-2.1c-0.9-0.8-1.9-1.5-2.6-2.1c-2.6-2.6-5.4-4.9-8.1-7.3
	c-2.6-2.4-5.1-4.7-7.9-6.9c-1.7-1.5-3.6-3-5.3-4.5c-1.5-1.3-2.6-2.6-4.3-3.9c-1.9-1.1-3.9-2.4-5.8-3.8c-2.1-1.3-3.9-2.8-5.4-3.9
	c-2.2-1.3-4.1-2.4-6-3.4c-3-1.7-5.8-3.4-8.6-5.1c-0.9-0.6-2.1-1.1-3.2-1.7c-2.2-1.3-4.5-2.4-6.7-3.8c-2.3-1.1-4.3-2.4-6.6-3.6
	c-3.2-1.9-6.6-3.7-9.9-5.2c-1.5-0.6-2.8-0.9-4.3-1.5c-2.8-1.1-5.4-2.6-8.4-3.6c-2.8-1.1-5.8-2.1-8.8-3c-1.7-0.6-3.6-1.1-5.3-1.7
	c-3-0.9-5.8-1.9-8.6-2.8c-3.6-1.3-6.9-2.3-10.5-3.4c-3.4-1.1-6.7-2.4-10.3-3.2c-1.5-0.4-2.8-0.8-4.3-1.1c-1.1-0.2-2.4-0.4-3.6-0.4
	c-0.9-0.2-1.7-0.2-2.8-0.2c-2.6-0.6-5.4-0.8-7.7-1.1c-3-0.2-5.4-0.4-7.7-0.6c-4.3-0.2-8.4-0.4-12.7-1.1c-1.1-0.2-2.4-0.4-3.6-0.6
	c-1.7-0.6-3.4-0.9-5.2-1.3c-1.5-0.4-3.4-0.8-5.1-0.9c-1.3-0.4-0.6-0.7-2.3-1.5c-0.2,0-1.1-0.4-2.1-0.7c-0.6-0.6,0-0.9,0.8-1.3
	c0.6-0.4,0.8-0.9,1.1-1.5c0.9-0.4,2.1-0.9,3.2-1.3c0.2-0.4,0.4-0.7,0.6-1.3c0.9-0.4,1.9-0.8,3.2-1.3c1.3-0.4,3-0.7,3.9-1.3
	c0.9-0.6,2.3-0.9,3.8-1.1c0.4-0.4,0.8-0.8,1.1-1.1c0.4-0.4,1.1-0.6,1.5-0.7c0-0.9,0.2-1.7,0.2-2.2c-0.6-0.6-1.5-1.1-2.6-1.5
	c-1.1-0.6-2.6-0.9-4.3-1.1c-3.4-0.8-6.8-1.5-9.4-2.2c-0.9-0.4-2.6-0.6-3.8-0.8c-0.8-0.2-0.9-0.4-1.5-0.6c2.4-2.2,2.4-2.2,7.5-3.7
	c0.2-0.4,0.6-0.9,0.9-1.3c1.3-0.2,2.8-0.6,4.9-0.9c2.3-1.1,4.7-2.6,6.9-3.6c0.2-0.9,0.4-1.7,0.6-2.4c0.2-0.6,0-1.1,1.7-1.7
	c0.2,0,0.2-0.2,0.2-0.2c0.2-0.6,0.2-1.1,0.8-1.7c0.6-0.6,1.9-0.9,1.9-1.7c0-1.5,2.6-2.6,7.3-3.4c0.4,0,0.8-0.2,1.3-0.4
	c0-0.6,0.2-1.1,0.2-1.7c3.4-1.3,3.8-2.8,8.8-3.6c1.7-0.2,2.4-0.6,3.4-1.1c2.1-0.9,5.4-1.7,7.9-2.4c2.1-0.7,5.1-0.9,7.7-1.5
	c2.1-0.4,3.9-0.7,7.7-0.6c2.1-0.4,5.3-0.4,7.1-0.7c2.8-0.6,6.8-0.7,13.7,0.2c0.8,0.2,1.5,0.2,1.9,0.2c3.6,0,8.6,1.3,13.3,2.1
	c3.6,0.4,6.9,0.7,11.4,1.9c2.3,0.6,3.9,0.7,6.6,1.1c1.9,0.6,3.8,0.9,5.8,1.7c2.1,0.6,4.5,1.3,7.1,2.2c2.1,0.6,4.1,1.1,6.7,1.7
	c2.4,0.6,5.3,1.3,8.4,2.3c1.3,0.4,4.7,2.2,7.9,3.2c3,0.9,5.3,1.5,8.6,2.6c7.5,3.4,15.7,6.7,24.4,12c2.8,1.3,5.8,2.6,8.8,4.3
	c3,1.7,6,3.4,9,5.1c6.2,3.2,12.2,7.7,18,11.1c1.1,0.7,2.1,1.5,3,2.2c0.9,0.8,1.9,1.5,2.8,2.4c2.6,1.9,5.4,3.8,9,6.4
	c0.9,0.8,2.1,1.7,3.4,2.6c1.3,1.1,2.6,2.3,3.9,3.4c1.1,0.9,2.6,2.3,3.4,3c2.1,2.3,4.7,4.1,6.7,6c3.8,3.4,7.5,6.8,11.1,10.3
	c3.4,3.2,6.6,6.7,9.9,9.7c1.7,1.5,3.2,3.2,4.9,4.9c1.5,1.7,3.2,3.6,4.7,5.1c1.1,1.3,2.6,3,3.9,4.5c1.3,1.9,2.6,3.7,4.1,5.8
	c1.1,1.5,2.4,3,4.1,5.3c1.9,2.1,4.3,4.7,6.9,7.5c1.9,2.6,3.9,5.6,6,8.4c2.1,3.4,4.1,6.4,6,9.6c3.2,4.5,6.2,9,8.8,13.7
	c1.5,2.3,2.8,4.7,4.1,6.7c0.9,1.9,1.7,3.6,2.8,5.6c2.1,3.4,3.9,7.1,6,11.2c1.1,2.6,2.4,5.4,3.7,8.1c1.3,2.8,2.3,5.6,3.2,8.1
	c0.8,1.5,1.3,3,2.1,4.5c0.4,1.3,0.8,2.8,1.3,4.5c2.4,6,4.9,12.2,7.3,18.4c2.1,6,4.1,11.8,5.8,17.1c0.9,3.4,1.3,6,2.1,8.4
	c0.8,3,1.5,6,2.1,8.8c0.6,2.4,1.3,5.2,1.9,8.1c0.2,1.5,0.4,3,0.6,5.1c0.8,2.8,1.5,5.6,2.2,8.8c0.6,3.2,1.1,6.4,1.7,9.9
	c0.2,3,0.6,6.6,0.8,10.5c0.6,3,1.3,6.2,1.9,9c0.6,3.2,0.9,6.4,1.1,9.6c0.2,3.2,0.6,6,0.9,8.8c0.2,2.3,0.2,4.5,0.2,6.6
	c0,1.1,0,2.1,0,3.2c0,1.1,0,2.1-0.2,3.2c0,3.6,0.2,7.3,0.2,11.4c-0.4,1.3-0.6,2.4-0.9,3.6c0,3.4,0.4,4.7,0.6,8.1
	c0,2.3-0.2,5.3-0.2,8.4c-0.2,4.3-0.9,8.6-1.5,13.3c0,2.1-0.2,4.3-0.2,6.6c0,3.9-0.6,7.5-1.3,11.3c-0.6,2.8-0.9,6-1.5,9.2
	c0,0.9,0,2.2,0,3.4c-0.2,1.9-0.6,3.8-0.9,5.6c-0.6,2.3-0.9,4.3-1.5,6.6c-0.4,1.9-0.8,3.7-1.1,5.6c-0.8,1.7-1.3,3.4-2.1,5.1
	c-0.6,1.7-1.3,3.6-1.9,5.4c0,0.2-0.2,0.4-0.2,0.4s0-0.6,0-0.8c0.8-2.6,1.3-5.1,1.9-7.7c0.4-1.1,0.9-2.1,1.3-3.4c0-0.9,0-1.7,0.2-2.4
	c-0.8-0.9-1.7-0.2-2.2-1.3c0.6-3,1.3-2.8,1.9-5.8c0.6-3.4,0.4-4.5,0-5.1c-0.4-0.4-0.8,0-1.1,0.8c-0.2,0.6-0.6,0.9-0.6,0
	c0.6-3,1.3-3.8,1.9-6.9c0.4-2.1,0.8-5.2,1.1-8.1c0.6-2.6,0.6-5.3,1.1-8.1c0.6-0.9,1.1-1.9,1.7-2.8c0.8-0.6,1.3,0.2,2.1-0.4
	c0-0.6,0.2-1.1,0-1.1c-0.4-1.5-0.9-2.6-1.1-5.2c-0.4,0-0.8-0.2-1.1,0c-0.2,0.2-0.6,0.9-0.8,1.3c0-0.7,0-1.3-0.2-2.1
	c0.4-1.5,0.6-2.8,0.9-4.5c0-0.9,0-2.1,0.2-3c-0.2-1.9-0.6-1.9-1.1-0.8c-0.2,1.7-0.6,3.8-0.9,5.8c-0.4,1.9-0.8,2.4-1.1,2.8
	c-0.6,2.1-0.8,3.6-0.6,5.3c0,1.3,0,2.6,0.2,3.6c0,0.9,0.2,1.7,0.4,2.3c0.2,0.2,0.2,0.9,0.4,1.3c-0.9,4.9-2.1,8.1-2.8,10.1
	c-0.8,3.8-0.4,5.3-0.8,7.3c-0.6,2.3-0.8,1.3-1.1,2.3c-0.6,1.1-0.9,2.1-1.3,2.8c-0.8,0.9-1.1,0.4-1.5-0.9c-0.6,1.3-1.1,2.4-1.7,3.8
	c0,0.2-0.2,0.6-0.2,0.9c0,1.5,0.4,0.9,0.8,1.5c0.2,0.6,0.4,1.1,0.6,1.7c0.6-1.1,0.9-2.1,1.3-2.8c0.2,0.6,0.4,1.1,0.4,2.6
	c-0.2,1.7-0.4,3.8-0.9,5.4c0,1.5-0.4,4.1-0.8,6.2c-0.4,2.1-0.9,3.8-1.5,5.4c-0.4,1.3-0.8,2.8-1.1,4.3c-0.2,1.5,0,1.9,0,2.3
	c0.2,0.4,0.2,1.1-0.2,2.8c-0.8,2.3-0.9,0.9-1.5,2.6c-0.9,2.1-0.9,4.1-1.7,6.2c-0.2,0.4-0.4,0.8-0.6,0.9c-0.4,0.2-0.4-0.8,0-2.1
	c0.2-1.1,0.6-2.3,0.8-3.2c0.2-0.9,0.4-1.9,0.6-2.6c0-1.5-0.9,0-1.3,0c-0.2-0.9-0.2-2.1-0.4-3c-0.6,0-1.1,2.3-1.7,3
	c-0.4,0.6-0.6,0-1.1,2.1c0.2,1.3,1.1,0.4,1.5,1.5c0,1.3,0,3.4-0.6,5.8c-0.6,2.8-1.7,4.5-2.4,6.8c-0.9,3.2-0.6,4.5-1.9,8.1
	c0.4,0.8,1.1,0.4,1.3,1.3c0.2,0.9,0.7,0.6,1.1,0.9c0.4,0.2,0,1.7-0.9,4.7l0.4,1.5c0.4-0.2,0.8-0.9,1.1-2.1c0.6-2.1,0.9-3.9,1.3-5.8
	c0.2-0.6,0.4-1.3,0.8-2.1c1.1-2.8,2.1-3.6,3.2-6.6c0.2-0.8,0.6-1.3,0.8-2.1c0.2-0.4,0.2-0.8,0.4-1.1c0.4-2.3-0.4-1.1-0.9-0.9
	c0-0.4-0.2-0.6,0-0.9c0.4-1.9,0-2.1,0-2.8c-0.2-0.6-0.2-1.3,0.4-3.2c1.5-2.8,1.1,0.9,1.7,1.1c0.8-1.1,1.5-1.7,2.8-5.1
	c0.6-2.1,1.7-5.1,2.2-7.7c0.8-1.3,0.8-1.3,1.1-1.1c0,0.6,0,1.1-0.2,1.9c-1.1,4.5-2.8,7.9-4.1,12.4c-0.4,1.5-0.7,3.2-1.1,4.3
	c-0.6,1.9-1.3,3.6-1.9,5.4c-0.6,1.9-1.3,3.6-1.9,5.4c-0.2,0.8-0.6,1.5-0.8,2.3c-0.9,2.2-1.7,4.3-2.6,6.6c-0.9,2.3-1.7,4.5-2.6,6.6
	c-1.9,4.5-3.4,9-5.4,13.3c-0.6,1.1-0.9,2.1-1.3,2.8c-1.1,1.9-1.7,3-2.3,3.4c-0.6,0.4-1.1,0.8-1.9,1.3c0-0.4,0-0.6,0.2-1.1
	c0.8-2.2,1.5-4.7,2.3-7.1c0.4,0,0.6,0.2,1.1-0.2c0.6-0.6,0.8,0,0.9,0.4c0.2,0.2,0.8-0.8,1.1-1.9c0.8-2.6,2.1-4.9,2.8-7.3
	c0.8-2.6,1.1-4.5,1.1-6.2c0-0.6,0.6-1.9,0.8-2.8c-0.2,0-0.6,0.4-0.8,0.2c-0.2-0.4-0.2-0.9-0.2-1.5c-0.9,1.1-1.7,2.3-2.4,3.2
	c-0.4,0.2-0.8,0.2-0.4-1.1c0.8-2.6,0.6-3.8,0.8-5.4c0-0.4,0-0.9,0.2-1.3c0.2-1.1,0.6-2.4,0.8-3.6c0.2-1.1,0.2-1.9-0.4-0.9
	c-0.7,1.5-1.5,3.2-2.2,5.1c0.6,1.3,0.2,4.3,0,7.5c-0.6,1.5-0.9,2.8-1.5,4.1c0.4,0.6,1.3-1.3,1.9-1.3c0.4,0,0.4,0.4-0.4,2.4
	c-0.6,0.9-1.1,1.9-1.7,3c-1.1,3.4-0.2,2.6-0.6,5.1c-0.4,0.8-0.8,1.7-1.1,2.6c-0.8-0.4-1.5-0.6-2.1-0.9c-0.9,1.1-1.7,1.9-2.4,2.8
	c0-1.5-0.4-2.4-2.6,1.5c-0.8,1.5-1.1,2.8-1.3,3.7c-0.2,0.9-0.4,1.7-0.6,2.6c-0.4,0.8-0.7,1.5-0.9,2.2c-0.2,0.8-0.4,1.5-0.8,2.4
	c-0.6,1.1-1.3,2.4-1.9,3.6c-0.6,1.5,0,1.3,0,1.9c0,0.4,0,0.4-0.9,2.4c-0.2,0.2-0.4,0.6-0.6,0.6c-1.5,1.1-2.8,2.4-4.3,3.6
	c0.4-1.3,0.6-2.6,0.8-3.8c-0.4-0.2-1.1,0.9-1.7,2.3c-0.6,0.9-0.9,1.9-1.5,2.8c0,0.2,0.2,0.4,0.2,0.6c-0.4,0.8-0.8,1.5-1.1,2.4
	c-1.1,2.4-0.6,3-2.8,6.6c-1.1,1.7-2.1,2.6-2.6,3c-1.3,2.1-1.3,2.6-1.5,3.4c0.6-0.2,0.9-0.4,1.5-0.6c-0.2,0.6-0.4,0.9-0.6,1.3
	c-0.9,1.7-2.1,3.2-3,4.3c-1.5,1.5-2.8,2.8-4.3,4.3c-0.6,0.7-1.1,1.5-1.9,2.4c-0.8,1.7-1.5,3.2-2.4,4.9c-0.8,1.3-1.7,3-2.4,4.3
	c-0.6,1.1-1.1,2.1-0.8,2.1c1.9-1.7,3.7-3.4,5.6-5.1c0.2,0.2,0.2,0.2,0.4,0.4c0.6-0.6,1.5-1.5,2.1-2.1c0.6-0.6,0.6,0,1.7-1.5
	c0.9-2.1,2.1-4.3,3-6.4c0.6-1.1,1.3-2.4,1.9-3.6c0.4-0.6,0.9-1.3,1.1-1.7c0.6-0.8,0.9-0.8,0.9-0.4c0,0.4,0,0.6,0,1.1
	c0.8-1.1,1.7-2.3,2.4-3.4c0.9-0.9,1.9-2.1,2.6-2.8c1.5-2.1,2.6-4.3,3.9-6.2c0.9-1.3,1.9-2.8,2.8-4.1c0.9-1.5,1.9-2.8,2.6-3.9
	c0,0.2,0.2,0.2,0,0.4c-0.2,0.6-0.4,1.1-0.8,1.9c-0.9,1.3-1.7,2.6-3,4.3c-0.6,1.1-1.3,2.4-2.1,3.9c-1.3,1.9-2.6,3.7-3.9,5.8
	c-2.1,3.2-4.5,6.4-6.9,9.6c-2.8,4.3-5.4,7.9-8.6,11.4c-1.7,2.3-3.4,4.7-5.4,7.5c-0.6,0.8-1.5,1.7-2.3,2.6c-1.1,1.3-2.3,2.4-3.4,3.6
	c-0.9,0.9-1.9,2.3-2.6,2.4c2.1-2.8,4.1-5.4,6-8.1c0.2-0.4,0.4-0.9,0.6-1.1c0-0.2-0.2,0-0.2,0c-0.2,0.2-0.4,0.2-0.6,0.4
	c-0.9,0.9-1.7,2.1-2.4,2.6c-1.7,1.9-2.4,3.4-3.6,4.7c-0.9,1.1-1.9,2.4-2.8,3.6c-1.7,1.7-3.2,3.2-4.5,4.7c-2.8,3.4-2.8,3.4-3.9,5.4
	c0.2-0.2,0.4,0,0.8-0.4c1.1-0.9,2.2-2.3,3.6-3.2c0.8-1.1,1.5-1.9,2.1-2.8c1.1-1.3,1.9-2.1,2.3-2.1c-0.6,0.9-1.1,1.9-1.5,2.6
	c-1.3,1.9-3.9,4.7-6.7,7.3c-2.8,2.8-5.8,5.6-8.1,7.7c-0.9,0.9-2.1,1.9-3.2,2.8c-1.7,1.7-3.6,3.6-5.2,5.3c-2.8,2.4-4.7,3.7-7.9,6.6
	c-0.2,0.4-0.4,0.8-0.6,0.9c-0.2,0.4-0.2,0.6-0.4,0.9c-1.1,1.5-2.8,3.2-4.5,4.5c-2.4,2.1-4.9,3.9-7.7,6c-1.7,1.7-3.6,3.4-6,5.4
	c-1.3,1.1-2.8,2.3-4.1,3.4c-1.5,1.1-3,2.2-4.5,3.2c-3,2.1-6,4.1-8.8,5.8c-1.3,1.1-2.4,1.9-3.8,3c-1.9,0.6-1.7-0.6-2.1-1.1
	c0.4-0.6,0.6-0.8,1.1-1.1c0.9-0.8,1.7-1.1,2.2-1.5c0.6-0.2,1.1-0.4,1.7-0.6c0.4-0.2,0.8-0.2,1.1-0.4c0.2,0,0.6-0.2,0.8-0.4
	c1.9-1.1,3-2.8,4.9-3.9c0.9-0.2-1.1,1.7-0.9,1.9c0.6-0.2,1.5-0.8,3-1.9c0.9-0.9,1.9-2.1,3-3c0.4-0.2,0.8-0.6,0.9-0.8
	c0.9-0.4,1.7-0.8,2.6-1.1c1.1-0.8,2.3-1.7,3.2-2.8c1.3-1.5,0.2-1.1,0.6-1.7c0.6-1.5,3.2-4.1,3.6-5.2c-0.4,0.2-0.8,0-1.3,0.6
	c-2.3,1.5-4.7,3.2-6.9,4.9c-2.1,0.9-3.8,1.9-3.2,0.4c1.5-1.7,3.4-2.6,4.9-4.1c1.5-1.5,3.2-3,4.7-4.3c2.1-1.7,2.4-1.3,3.7-2.1
	c0,0.4,0,0.8,0,1.1c0.6-0.2,1.1-0.4,1.5-0.6c1.1-0.8,2.1-1.7,3.2-2.6c0-0.4,0-0.8,1.1-1.9c0.9-0.7,1.9-1.7,3.6-3
	c1.5-1.7,3.4-3.6,5.2-5.8c0.2-0.8,0.2-0.8-1.5,0.9c-0.6,0.6-0.9,1.1-1.5,1.5c-1.5,0.8-2.8,1.3-4.9,2.8c-1.5,0.6,0.9-2.2,0.9-2.8
	c-1.1,0.8-2.1,1.7-3.4,3c-0.8,0.9-1.5,2.3-2.4,3.6c-2.1,1.3-3.2,1.7-3.4,0.9c0-0.4,0-0.6,1.9-2.8c0.9-0.8,1.9-1.3,3.4-2.6
	c1.3-1.1,3-2.6,4.9-4.3c1.1-1.7,0.4-1.5-0.9-0.8c-1.5,1.5-2.6,2.8-4.1,4.3c-0.8,0.6-1.7,1.1-2.1,1.5c-1.1,0.6-0.2-0.7-0.6-1.1
	c-0.7,0.6-1.7,1.1-2.6,1.7c0-0.2-0.2-0.2,0-0.6c1.1-1.9,2.6-3.9,4.9-6.4c0.4-0.4,0.4-0.8,0.6-0.9l-0.9,0.6c-2.1,1.9-3.6,4.1-5.6,5.4
	c-1.3,1.5-2.1,2.6-3,3.8c-0.7,1.1-1.7,2.1-3,3.4c-1.5,1.1-2.8,2.1-3.9,2.6c0-0.2-0.2-0.6-0.2-0.8c-0.6,0.2-1.5,0.8-3,2.1
	c-1.1,1.3-2.1,2.8-3.4,4.5c-1.3,1.5-2.4,3-4.7,4.9c-3.4,2.4-2.1,0.2-5.4,2.6c-2.2,1.9-2.6,2.8-3.4,3.6c-0.8,1.3,1.3,0.4,1.5,0.8
	c-0.2,0.2-0.4,0.4-0.6,0.6c-2.6,1.9-5.4,3.6-8.1,5.4c-1.7,0.9-2.2,0.9-1.7,0.2c0.8-1.1,0.8-1.9,0.8-2.3c1.1-1.3,3.6-3.2,3.9-4.1
	c-0.4-0.4-3,0.8-1.5-1.3c0.6-0.7,1.5-1.7,2.6-2.8c1.1-1.1,2.4-2.4,3.6-3.7c-0.4,0.2-0.7,0.2-1.1,0.4c-2.3,2.1-3.6,3-4.9,3.9
	c-1.5,0.9-3,2.1-6.4,4.3c0.2,0.2,0.4,0.4,0.4,0.6c-0.6,0.8-1.7,1.5-2.8,2.3c-0.4-0.4-2.4,0.4-3.7,0.6c-0.6,0.2-1.1,0.2-0.9-0.4
	c1.1-1.1,3.4-2.4,4.7-3.6c2.1-1.3,3.9-2.4,6-4.1c0.9-0.6,1.9-0.9,3.2-1.7c3.2-2.3,6.4-5.1,9.6-7.3c2.3-2.3,3.6-3.7,6-6.2
	c0.6-1.3,1.1-2.8,4.1-5.8c0.6-0.6,1.5-1.1,2.3-1.7c1.5-1.1,3-2.1,4.5-3c0.8-0.6,1.5-1.3,2.1-1.7c1.3-1.3,2.1-2.1,2.3-2.8
	c0-0.4-0.9,0-1.9,0.8c-1.1,0.7-2.1,1.9-3,2.8c-3,2.4-6,4.7-8.3,6.2c-0.4,0.4-0.8,0.8-0.9,0.9c-1.3,1.5-2.6,3-3.8,4.3
	c-1.3,1.1-2.3,2.1-3.8,2.8c-1.7,0.7-3.2,1.3-4.1,1.3c0.6-0.8,1.1-1.3,1.7-2.3c-1.1,0.6-2.3,1.1-3.2,1.5c-0.8,0.4-0.6-0.2-2.2,0.9
	c-1.3,1.3-2.6,2.6-3.9,4.1c-0.8,0.8-2.1,1.5-3.9,2.4c-0.2-0.6,0.6-1.5,1.3-2.8c2.4-1.9,4.9-4.1,7.3-6.2c3.2-2.2,2.4-0.9,2.4-0.6
	c0.8,0,2.8-1.3,4.3-2.1c1.1-0.9,2.3-1.9,3.4-3c0.9-0.8,1.9-1.3,2.4-1.5c0.6-0.2,0.6,0.2,1.7-0.6c1.9-1.3,1.9-2.1,3-3.2
	c2.4-1.9,4.9-3.8,6.9-6.2c0.8-0.8,1.3-1.5,1.7-2.1c0.6-0.9,0.8-1.3,0.2-1.1c-0.2,0-0.2,0-0.2,0c0.4-0.9,2.6-2.8,3.4-3.9
	c0.7-1.1,1.9-2.4,2.8-3.7c1.9-1.5,1.5-0.6,1.3,0.2c-0.8,1.1-1.9,2.3-2.8,3.4c1.7-0.9,1.9-0.8,6.9-5.6c1.5-1.9,3.2-3.7,4.7-5.8
	c0.2-0.4,0.6-0.6,0.8-0.8c1.1-1.1,1.5-1.9,1.1-1.5c-0.4,0.2-0.8,0.6-1.3,0.9c-0.4,0.4-0.9,0.9-1.5,1.5c-0.9,0.9-1.7,2.1-2.4,3
	c-1.9,1.9-3,2.6-3.2,2.3c1.3-1.9,3-3.9,4.9-5.8c1.1-1.1,1.9-2.1,2.6-3c0.7-0.9,1.5-1.9,2.2-2.8c0-0.9-1.5,0.4-1.9,0.4
	c-1.7,1.5-3.4,2.8-4.9,4.1c-1.3,1.5-2.1,2.2-2.4,3c-0.9,0.9-1.9,1.7-2.8,2.4c-0.2,0.4-0.6,0.6-0.8,0.8c-0.9,1.1-1.7,2.4-2.8,3.6
	c-0.6,0.4-1.5,1.1-1.9,1.3c-1.1,0.6-2.2,0.9-3.4,1.5c-0.8,0.8-1.5,1.3-2.4,2.3c-0.9,0.8-2.3,1.7-3.4,2.6c-1.1,1.1-2.4,2.2-3.4,3
	c-1.3,1.5-1.3,1.9-0.7,1.9c0.6,0,1.3-0.2,1.9-0.2c-0.6,0.6-0.9,1.1-1.3,1.9c-0.9,0.6-1.9,1.1-2.8,1.7c-0.4,0.4-1.1,0.9-1.3,1.3
	c-0.6,0.9-1.1,1.9-1.7,2.8c-0.4,0.6-0.8,1.1-1.1,1.7c-0.4,0.4-0.9,0.9-1.3,1.3c-0.4,0.4-0.9,0.6-1.5,0.9c0.4-1.1,0.9-2.4,1.3-3.6
	c-0.4,0-0.8,0.2-1.1,0.2c-0.6,0-0.2-0.6,1.1-1.9c0.9-0.6,1.9-1.1,2.6-1.7c0.9-0.8,1.5-1.5,1.1-1.5c-0.6,0-1.3,0.4-2.3,0.8
	c-0.9,0.8-1.7,1.3-2.3,2.1c-1.1,1.1-2.1,1.7-2.8,2.1c0.6-0.8,1.3-1.5,1.9-2.4c-0.9,0.8-1.5,0.8-2.2,1.1c-0.6,0.2-1.3,0.6-1.9,0.9
	c-1.9,1.9-0.4,1.3-1.1,2.2c-0.4,0.4-0.8,0.8-1.1,1.3c-1.5,1.3-3,2.4-4.9,3.9c-0.2,0.4-0.6,0.8-0.8,1.1c1.7-0.6,4.5-2.3,6.4-3
	c0.8-0.2,1.9-0.6-0.2,1.5c-1.3,0.9-2.6,1.9-3.9,2.8c-1.3,1.3-2.6,2.4-3.8,3.6c-1.3,0.8-2.1,1.3-1.7,0.8c0.4-0.6,1.1-1.3,1.7-2.1
	c-0.4,0-0.6,0-0.9,0.2c-2.3,1.1-4.9,2.8-7.7,4.5c-0.8,0.4-1.7,0.6-2.6,0.9c-0.8,0.4-1.9,0.9-2.4,1.1c-0.6-0.2,0.2-0.8,0.8-1.5
	c1.7-1.7,2.6-3,3-3.9c1.1-0.9,2.2-1.9,3.4-2.8c-0.4-0.4-0.4-0.4-2.8,1.3c-3.2,2.6-5.3,4.9-7.9,7.1c-2.3,1.1-2.3,1.1-5.4,1.9
	c-0.7,0.6-1.5,1.1-2.2,1.7c-1.9,1.9-0.9,2.3-3.4,4.3c-2.2,1.5-3.2,1.7-4.3,1.9c-0.4-0.4,1.7-1.9,3.6-3.2c-2.4,1.1-4.9,2.2-6.4,2.6
	c-1.7,0.9-3.4,1.9-5.2,3c-0.2,0-0.8,0-0.4-0.4c0.6-0.8,1.5-1.7,2.1-2.4c-0.2,0-0.2-0.2-0.6,0c-0.8,0.2-1.7,0.8-2.4,1.3
	c-0.6,0.4-1.1,0.8-1.7,1.1c-0.8,0.6-1.7,0.9-2.4,1.5c-2.1,1.1-3.9,2.2-6,3.2c-1.3,0.4-2.8,0.8-2.3-0.2c1.5-0.9,3.2-1.9,4.9-2.8
	c-1.1,0-4.1,1.5-5.1,1.5c-1.7,0.8-3.4,1.7-4.9,2.4c-1.7,0.8-3.2,1.3-4.9,2.1c-0.2,0.4-0.6,0.6-0.9,0.9c-0.2,0.2-0.6,0.6-0.9,0.8
	c-1.1,0.6-2.3,1.1-3.6,1.5c-1.7,0-1.3-1.1-0.2-2.4c-0.9-0.2-1.9-0.4-2.6-0.8c0,0-0.4,0-0.6,0.2c-1.3,0.6-2.4,1.1-3,1.7
	c-1.3,1.1-2.4,2.1-2.4,2.8c0,0.8-1.7,1.9-4.9,3.2c-0.6,0.2-1.1,0.6-1.7,0.8c-1.1,0.6-1.9,1.1-1.9,1.5c0,0.4,0.2,0.8,0.2,1.1
	c1.1-0.6,2.4-0.9,3.8-1.5c1.1-0.8,2.2-1.5,3.4-2.3c0.4-0.2,1.1-0.6,1.7-0.8c0.6-0.2,1.1-0.4,1.7-0.6c0,0.2,0,0.4-0.2,0.8
	c0.8,0.2,1.9,0.6,3,0.8c-0.8,0.9-3.9,1.9-5.2,2.6c-1.3,0.8-1.1,0.9-0.6,1.1c0.6-0.2,1.9-0.4,2.6-0.6c0.9-0.2,1.1,0,0.2,0.8
	c-4.3,1.5-4.7,0.4-8.6,1.7c-0.8,0.4-1.7,0.8-2.6,1.1c-0.9,0.4-1.9,0.8-2.8,1.1c-0.9,0.2-1.9,0.2-2.4,0.4c-0.9-0.2,0-0.9,0.6-1.5
	c-0.4-0.2-0.9-0.4-1.3-0.6c-0.2-0.2,1.3-1.1,0.2-1.1c-0.2,0-0.6,0-0.7,0.2c-0.9,0.2-2.1,0.6-2.8,0.9c-3,1.1-6.4,2.3-9.8,3.8
	c-2.1,1.3-5.1,3-8.8,4.7c-1.5,0.4-2.4,0.6-2.4,0.2c0.9-0.6,2.8-1.1,3.4-1.7v-0.2c-1.9-0.2-5.8,1.1-8.4,0.9c-0.8-0.2-1.7-0.4-2.4-0.8
	c-0.4-0.4,1.5-1.1,2.6-1.9c0.2-0.4,0.6-0.8,0.9-1.3c2.2-0.9,5.4-1.9,7.3-2.8c1.7-0.4,3-0.8,4.1-0.9c1.3-0.4,2.2-0.9,2.6-1.3
	c0.2-0.2,0.4-0.4,0.4-0.6c0-0.9-0.6-1.7-0.9-2.4c-1.9,0.4-3.6,0.6-5.3,0.9c-0.2-0.2-0.2-0.4-0.4-0.6c0.8-0.4,1.7-0.7,2.6-1.1
	c0-0.2,0.2-0.4-0.2-0.4c-0.9,0-2.3,0-3.2,0c-1.1,0.2-2.3,0.4-3.4,0.6c-2.1,0.4-3.4,0.9-3.9,1.7v0.2c0.9-0.2,1.7-0.4,2.4-0.6
	c1.3,0.2,1.3,0.2,0,1.1c-1.7,0.8-3.6,1.3-5.6,2.1c0.4,0.2,0.8,0.4,1.3,0.6c-0.6,0.6-1.3,1.3-1.9,2.1c-0.9,0.4-1.7,0.6-2.3,0.8
	c-2.4,0.8-3.6,0.4-5.6,0.9c-1.1,0.9-1.1,0.9,0.6,2.3c-1.9,0.6-2.8,0.6-4.3,0.6c-1.9-0.4-0.9-1.3-0.6-2.2c-1.5,0-1.5,0-3.6,0.6
	c-0.9,0.4-1.9,0.9-3,1.3c-1.5,0.4-3.2,0.9-4.9,1.3c-0.4,0.4,0,0.4,0.9,0.4c0.9,0,1.9-0.2,2.6-0.2c-0.6,0.4-2.1,0.6-3,0.9
	c-2.1,0.8-4.1,1.7-6,2.2c-2.6,0.2-3.7,0-4.5-0.2c0.6-0.6,2.6-0.9,3.9-1.1c0.2-0.2,0.6-0.4,0.4-0.4c-0.2-0.2-0.2-0.2-0.8-0.2
	c-0.8,0-1.5,0-2.4,0c-1.9,0.2-3.9,0.6-6.2,0.8c-0.9,0.4-2.3,0.7-3.4,1.1c-2.2,0.6-3.4,0-5.6,0c-0.8,0.4-1.5,0.6-2.4,0.9
	c-1.9,0-3.8,0.2-5.6,0.2c-1.7,0.2-3.4,0.2-4.9,0.4c-2.6-0.2-5.3-0.2-6.9-0.6c-2.1-0.6-0.7-1.1-0.4-1.7c-0.6-0.2-2.1-0.2-3.2-0.4
	c-0.4,0-1.3,0.2-1.3,0.2c0.2,0.6-1.7,1.1-2.1,1.7c0.8,0.8,2.8,1.5,3.2,2.3c-2.3,0.4-4.9,0.6-7.5,0.4c-1.9-0.2-2.4-0.8-3.4-1.1
	c0.2-0.6,2.3-1.1,0.9-1.9c-1.1-0.4-2.8-0.9-4.5-1.3c-2.8-0.2-5.2-0.4-7.7-0.2c0.6,0.6,3.8,0.9,4.3,1.5c0.6,0.6-0.4,0.9-2.8,1.1
	c-0.9,0-1.7,0.2-3.8-0.2c0.8-0.2,1.7-0.4,2.4-0.8c0-0.4-0.9-0.8-3.2-0.9c-1.5-0.2-2.6,0-3.2,0.2c-0.8,0.2-1.3,0.6-1.9,0.8
	c-2.2,0.2-4.5,0.4-7.9,0c-1.9-0.4-4.1-1.1-6.2-1.7c-2.4-0.4-3.6-0.2-4.5,0c0.2,0.2,0.4,0.6,0.6,0.7c-0.4,0.2-1.3,0.2-3,0.2
	c-1.5-0.2-3-0.6-4.5-0.8c-0.6,0-1.3-0.2-2.1-0.2c-1.9-0.8-3.7-1.5-5.2-2.1c-5.8-1.5-5.8-1.5-6.9-2.2c0.6,0,1.3,0,1.9,0
	c0.4,0,0.8-0.2,0.9-0.2c0-0.4-0.6-0.6-2.1-0.9c-2.8-0.4-2.8,0.2-5.1-0.2c-1.5-0.2-3.2-0.6-4.5-1.1c-1.3-0.6-1.1-0.7-0.8-0.9
	c1.5,0.2,3.2,0.4,4.9,0.6c-0.4-0.6-0.8-0.9-1.1-1.3c0.8-0.2,1.3-0.6,1.9-0.8c-0.4-0.2-0.6-0.4-0.8-0.6c-0.2,0-0.4-0.2-0.8-0.2
	c-0.6-0.2-1.3-0.4-1.9-0.4c-0.4,0-0.8-0.2-0.9-0.2c-2.1,0-4.5,0-6.9-0.2c0,0.4,0.2,0.6,0.2,0.9c-0.9,0.2-2.3,0-3.6-0.2
	c-1.3-0.2-3.2-0.7-4.1-0.7c0.2,0.4,1.3,0.7,2.6,1.1c2.1,0.6,4.1,0.6,6.4,1.5c0,0,0.2,0.2,0,0.2c-1.5,0.2-2.8,0.4-4.5,0.4
	c-0.9,0-2.4-0.2-3.4-0.4c-2.3-0.6-3.4-1.1-4.3-1.9c-0.2-0.6-0.4-1.1-0.6-1.7c-0.2-0.2-0.6-0.6-0.8-0.8c0.4-0.2,0.8-0.4,1.1-0.6
	c-1.3-0.8-2.8-0.9-4.3-1.3c-0.8-0.2-1.5-0.4-2.4-0.6c-0.8-0.2-1.7-0.6-2.4-0.8c-0.9-0.2-1.9-0.4-2.8-0.4c-0.9-0.4-1.9-0.8-2.8-0.9
	c-2.3-0.6-3.6-0.4-6.4-1.1c-1.7-0.6-2.8-1.3-4.1-1.9c-1.1-0.9-2.4-1.9-3.8-2.8c0.4-0.2,0.9-0.4,1.3-0.6c0-0.4-1.1-1.1-2.6-1.9
	c-0.6-0.2-1.3-0.4-1.7-0.6c-0.8-0.2-1.7-0.4-2.3-0.4c-2.1,0-4.9-0.9-7.5-1.7c-0.9-0.2-1.9-0.6-2.1-0.2c0.2,0.2,0.6,0.4,1.1,0.8
	c1.1,0.6,2.4,0.9,3.6,1.5c1.3,0.6,2.2,1.1,2.6,1.7c-0.8,0.2-2.8-0.8-4.5-1.3c-1.7-0.8-3.4-1.5-5.1-2.3c-0.6-0.4-0.8-0.4-0.9-0.6
	c-1.3-0.9-2.8-1.9-3.9-2.8c-0.4-0.6-0.8-0.9-1.1-1.3c-1.3-0.9-2.4-1.5-3.6-1.9c-1.1-0.4-2.1-0.8-3.2-1.1c-0.8-0.4-1.7-0.8-2.3-0.9
	c-2.6-1.3-3.6-2.3-5.6-3.8c-0.6-0.2-1.3-0.6-2.1-0.9c-0.9-0.4-1.7-0.4-2.4-0.8c-0.9-0.4-2.4-1.3-2.8-1.7c-0.4-0.4-0.4-0.6-0.6-0.9
	c-2.6-1.5-4.3-2.2-6-2.8c0,0.4,0.2,0.6,0.2,0.9c-0.2,0-0.8-0.2-1.1-0.6c-2.8-2.1-5.1-4.1-8.4-6.2c-0.8-0.9-1.3-1.7-1.9-2.4
	c-1.7-1.3-3.2-2.1-4.9-3.4c-1.5-1.3-3.2-1.9-4.7-3c-1.7-1.1-3.2-2.1-4.5-3.2c-3-2.4-5.8-4.7-9.4-7.7c-0.6-0.6-1.7-1.9-3.2-3.6
	c-2.2-2.1-5.4-4.7-7.9-7.3c-3.9-3.6-7.5-7.3-11.4-10.5c-1.7-1.7-3-3.6-4.7-5.4c-0.9-1.5-2.1-3-3.2-4.9c-0.6-0.8-1.3-1.5-2.1-2.3
	c-1.3-0.9-2.4-2.1-3.6-3c-0.8-0.7-1.1-1.3-3.2-4.1c-1.9-2.1-3.9-4.5-5.6-6.6c-2.4-3.7-4.7-6.7-6.7-9.9c-1.3-1.5-2.4-2.8-3.9-4.7
	c-0.8-1.3-1.9-2.8-2.8-4.5c-0.9-1.5-2.1-3-3.2-4.5c-1.1-1.5-2.1-3.2-3-4.9c-0.4-1.5-0.9-3.2-1.5-4.9c-0.6-1.7-1.5-3.6-2.1-5.3
	c-1.7-3.4-3-6.6-5.4-10.3c-0.9-1.3-2.2-2.8-3-4.1c-1.7-3-2.2-5.4-3.4-7.5c-0.7-2.1-1.3-3.6-1.7-4.7c-1.7-3.9-3.6-7.5-4.5-11.1
	c-0.6-1.1-1.1-2.3-1.9-3.4c-0.9-2.6-1.9-5.3-3-8.4c-0.4-1.9-0.9-4.1-1.3-6.4c-0.6-0.9-0.7-1.9-1.1-2.4c-0.4-0.4-0.6-0.9-0.8-1.1
	c-0.4-0.4-0.7-0.6-1.1-0.9c-0.6-0.9-1.1-2.3-1.3-3.4c-0.6-2.4-1.1-4.7-1.5-6.8c-0.2-0.8-0.4-1.7-0.4-2.2c-0.2-0.6-0.2-0.8-0.4-1.1
	c-0.6-1.3-0.9-0.8-1.3-1.7c-0.4-0.6-0.6-1.3-0.9-1.9c-0.7-3,0.2-2.3,0-3.9c-0.4-2.1-1.1-3.2-1.7-4.9c-0.6-1.7-0.9-3.6-1.5-5.4
	c-0.2-1.5-0.2-2.8-0.4-4.1c0-0.4,0-0.6-0.2-0.9c-0.4-1.1-0.6-2.1-0.9-3.2c-0.4-1.1-0.6-2.6-0.8-4.3c0-0.4-0.2-1.7-0.2-3.2
	c-0.4-2.3-0.9-4.1-1.3-6.4c-0.4-2.3-0.7-4.5-1.1-6.8c-0.6-1.3-0.9-2.4-1.3-3.8c-0.4-1.1-0.4-2.4-0.6-3.7c-0.2-1.5-0.2-3.2-0.4-4.3
	c-0.2-1.1-0.2-1.7-0.4-2.3c-0.4-2.6-0.9-5.3-1.3-8.1c0-0.9,0-1.9,0.2-2.4c0.2-0.8,0.4-1.1,0.6-1.5c0-3-0.6-4.1-0.9-6.6
	c0-0.6,0-1.5,0-2.6c0.2-1.5,0.4-3.2,0.6-4.7c0-0.8,0-1.3-0.2-1.9c-0.2-1.1-0.4-2.1-0.6-2.8c0-1.9,0-3.4,0.2-5.1
	c0.6-2.1,0.6-2.1,1.5-2.8c0.4-1.1,0.4-1.1,0.4-4.1c-0.2-0.9-0.4-1.9-0.7-3c-0.4-2.6-0.4-5.4-0.6-7.9c0.2-1.5,0.2-2.8,0.4-4.3
	c0.4-1.9,0.9-3.9,1.3-5.8c0-0.4,0.2-0.8,0.2-0.9c0-1.3,0-2.8,0-4.1c0.2-0.9,0.2-1.9,0.4-2.8c0.4-1.3,0.7-2.6,1.1-4.1
	c0.2-2.1,0.4-4.3,0.6-6.4c0.2-1.9,0.4-3.7,0.7-5.6c0.4-2.2,0.6-4.3,0.9-6.6c0.2-0.9,0.6-1.5,0.7-1.7c0.6-0.4,0.9-1.1,1.7-3
	c0.7-2.6,0.4-3.7,0.7-6.4c0.2-0.6,0.2-1.5,0.6-2.4c0.6-1.9,0.9-3.6,1.7-5.3c0.2-0.8,0.4-1.7,0.6-2.3c0.2-1.5,0-1.5-0.2-2.1
	c-0.2-0.6-0.2-1.3,0.2-2.6c0.8-2.1,1.3-2.1,2.1-3.9c0.2-1.3,0.8-2.6,1.1-4.1c0.9-2.3,1.3-1.7,2.1-3.2c0.2,0.6,0.4,0.9,0.6,1.5
	c1.3-0.6,3-3.8,4.9-7.1c0.4-1.1,0.7-2.1,0.9-3c0.4-0.8,0.2-1.3-0.2-0.8c-0.6,0.8-0.9,1.7-1.7,3c-0.8,1.1-1.9,2.4-2.8,3.8
	c0-0.4,0-0.6,0-0.9c0-0.2,0.2-0.6,0.2-0.9c0.4-0.8,0.9-1.7,1.3-2.4c0.6-1.5,1.1-2.8,1.7-4.3c0.7-1.5,1.5-2.8,2.4-4.3
	c0.4-0.9,0.8-1.9,0.9-2.4c0.7-2.6,0.7-3.9,1.5-6.2c0.9-1.9,1.9-2.8,2.6-3.8c0.2,0.2,0.2,0.4,0.4,0.8c0.6-0.4,1.1-0.2,2.3-1.7
	c0.2-0.8,0.7-1.7,0.9-2.3c0.2-1.1,0.4-2.1,0.6-3.2c0.4-0.8,0.8-1.7,1.1-2.3c0.9-1.3,1.5-1.3,1.9-1.5c1.3-2.4,2.2-4.9,3.6-6.9
	c1.1-2.1,1.9-2.1,3-3.9c0.6-1.5,1.1-3.2,1.9-4.9c1.9-2.6,3.7-5.3,5.6-7.9c0.4-0.6,0.7-1.1,0.9-1.5c0.4-0.8,0.2-0.9,0-0.9h-0.2
	l-0.6,0.2c0-0.2,0-0.4,0.2-0.6c0.4-0.8,0.8-1.5,1.3-2.4c0.4-0.9,0.4-1.3,0.4-1.9c0-0.4,0.4-1.1,1.1-2.1c0.9-0.9,1.5-1.3,2.1-1.7
	c0.6-0.6,1.1-0.8,2.3-2.3c0.4-0.6,0.8-1.3,1.3-2.1c0.4-0.6,0.8-0.9,1.1-1.5c1.7-1.9,2.4-1.9,3.4-2.6c0.2,0,0.4-0.2,0.6,0
	c0.4,0.4,1.3,0,2.4-0.4c0.2-0.2,0.2,0.4,0.2,0.6c-0.4,1.1-1.1,2.3-1.9,3.2c-1.3,1.9-2.3,3.6-3,5.1c-0.4,0.8,0,0.6,0.8-0.2
	c0.8-1.1,1.7-2.4,2.4-3.7c1.7-1.7,1.5-0.4,2.3-0.6c0.8-0.2,2.3-2.1,3.4-3c0.6-0.4,1.3-0.8,1.7-1.1c1.5-1.9,2.4-3,3.2-4.7
	c0.2-0.9,0.2-1.9,0.4-3c-1.5,0.4-3.2,0.8-4.7,1.1c0-1.5-0.2-2.6,0.9-5.3c0.8-1.1,1.7-2.4,2.4-3.6s1.3-2.3,1.9-3.2c3-3.9,6-6.8,9-9.6
	c0.6-0.4,0.6,0,0,0.8c-0.4,0.8-1.1,1.5-2.8,3.8c-0.4,0.4-0.6,1.7-2.3,3.7c-0.8,0.6-1.5,1.1-2.1,1.7c-1.1,1.1-1.7,2.1-2.1,3
	c0.2,0.2,0.4,0.2,0.4,0.4c2.8-2.6,6-5.6,8.8-8.6c1.5-1.3,2.3-1.5,2.1-0.6c-0.8,1.7-2.4,3.2-3.9,4.7c-0.9,1.1-1.1,1.7-1.1,2.1
	c0.8-0.6,1.5-0.9,2.3-1.5c0,0,0.2,0,0.2,0.2c-0.2,0.8-0.6,1.3-0.9,2.1c-0.4,0.8-0.8,1.5-1.1,2.2c0.4-0.2,0.8-0.4,1.1-0.6
	c0.4-0.4,0.6-0.8,0.8-0.9c0.6-0.9,1.1-1.7,1.5-2.6c0.6-0.8,0.9-1.7,1.3-2.3c1.1-1.5,1.9-1.9,2.4-2.2c0.2-0.2,0.6-0.2,0.8-0.4
	c0.2,0.4,0.2,0.9,0.4,1.3c1.9-1.5,1.9-1.7,2.8-3.4c-0.4-0.4-1.9,0.4-1.3-0.9c0.4-0.8,0.9-2.1,2.4-3.9c0.6-0.4,1.1-1.1,1.7-1.3
	c1.5-0.9,3-1.7,4.5-2.6c2.1-1.9,4.3-3.4,6.4-5.4c1.5-1.9,2.6-3.2,2.8-4.1c-2.8-0.9-6.6,2.3-10.3,5.6c-0.4,0.2-0.8,0.4-1.1,0.6
	c0-0.2-0.2-0.2,0-0.4c1.3-2.1,1.7-3.4,4.1-6.2c1.3-0.9,2.6-1.9,3.8-2.8c1.7-1.3,2.6-2.6,4.1-3.9c1.3-0.9,2.8-2.1,4.1-3.2
	c1.3-0.6,2.6-0.8,4.5-1.9c0.9,0.2,1.7,0.4,2.6,0.6c-1.5,1.9-3.9,3.8-6.4,6c-0.9,0.9-2.1,2.1-3.2,3.4c-1.1,1.3-2.3,2.6-3.6,4.1
	c-0.8,1.1-0.8,1.9-2.4,3.6c-1.1,1.1-2.1,1.7-3.2,2.4c-1.7,1.7-3.4,3.4-5.4,5.2c-0.8,0.9-1.7,2.3-2.6,3.4c-0.2,0.4-0.4,0.8-0.4,0.9
	c0.2,0.8,0.7,1.1,1.5,1.3c0.8-0.2,1.7-0.9,2.8-1.9c0.9-0.8,1.7-1.7,2.6-2.4c0.6-0.4,0.9-0.6,1.5-0.9c-1.1,1.9-2.1,3.8-3.4,6.2
	c-0.2,0.4,1.1-0.6,1.3-0.2c-0.2,0.9-1.3,2.6-2.1,4.1c-1.9,2.2-3.7,4.7-4.9,6.7c-0.4,0.8-0.4,1.1-0.2,1.5c0,0.2,0,0.6-0.2,0.9
	c-1.3,1.9-2.4,2.4-3.9,3.9C90.2,188.1,88.4,190.7,86.3,192.6z M97.2,171.9c0.2,0,0.6-0.4,0.9-0.6c0.4-0.4,0.8-0.9,0.9-1.1
	c0-0.2,0-0.4,0-0.6c-0.2,0.2-0.6,0.2-0.8,0.4c-0.4,0.4-0.8,0.9-0.8,1.1C97.2,171.8,97,171.9,97.2,171.9z M93.1,172.3
	c0,0,0.4-0.4,0.6-0.6l0.4-0.6c-0.2,0.2-0.4,0.2-0.4,0.4C92.9,172.1,92.7,172.5,93.1,172.3z M85.9,186.9c1.7-1.7,2.8-2.3,3.8-3
	c0.6-0.4,1.1-0.6,1.7-0.9c0.4-0.2,0.8-0.8,1.1-0.9c0.6-0.8,1.1-1.3,1.7-2.1c0.9-1.1,2.1-2.1,2.8-3c0.9-1.1,1.3-1.9,1.1-2.1
	c-0.6,0.2-1.5,1.1-2.6,1.9c-2.1,2.1-4.5,4.5-5.8,5.1c-0.2-0.2-0.4-0.4-0.6-0.4c-0.6,0.4-1.3,0.8-1.9,0.9c-0.2,0.2-0.6,0.4-0.8,0.6
	c-0.4,0.4-1.3,1.3-1.5,1.7c-0.2,0.4-0.4,0.9-0.4,0.9C84.8,186,85.2,186.4,85.9,186.9z M410.9,691.5c-0.6,0.2-0.9,0.4-1.5,0.6
	c-0.2,0.2,0,0.2,0.8,0.2c0.8-0.2,1.1-0.4,1.7-0.6C412.4,691.3,411.8,691.3,410.9,691.5z M413.9,688.3c-0.2,0-0.6,0.2-0.9,0.2
	c-1.3,0.6-2.1,0.9-2.1,1.1c0,0.2,0.6,0.2,0.9,0c0.9-0.2,2.4-0.8,3-1.1C415.4,688.3,415,688.1,413.9,688.3z M558.4,630.8
	c-1.5,0.9-2.8,2.1-4.3,3.2c-1.3,1.1-2.6,2.4-3.9,3.6c-0.8,0.4-1.5,0.9-2.1,1.3c-0.6,0.8-1.3,1.5-1.9,2.4c-0.8,0.7-1.5,1.7-2.1,2.4
	c-0.2,0.4-0.4,0.6-0.2,0.6c0.2,0,0.8-0.6,1.3-0.8c0.8-0.8,1.5-1.3,2.8-2.4c0.4,0,2.2-1.1,2.1-0.4c-1.3,1.7-3.7,3.6-5.8,5.2
	c-1.9,1.3-3,1.7-4.9,3.2c-0.8,0.9-3.2,3.2-2.8,3.6c1.7-0.9,3.6-2.1,5.1-2.8c1.3-0.6,2.3-0.9,3.4-1.3c1.7-1.5,2.3-2.4,2.8-3.2
	c0.4-0.8-1.5,0.6-0.2-1.1c2.3-2.1,4.5-4.5,7.1-7.1c0.9-1.3,2.3-2.6,3.2-3.9C558.2,632.4,558.4,631.7,558.4,630.8z M565.4,627
	c-0.4,0.4-0.8,0.8-1.1,1.3c-0.2,0.4,0.2,0.2,0.7-0.2c0.6-0.4,0.9-0.9,1.3-1.3C566.7,626.1,566.1,626.3,565.4,627z M576.2,639
	c-1.7,1.1-1.3,0-1.9-0.2c-0.8,0.6-1.5,1.3-2.1,1.9c0.4,0.4,0.2,1.1-0.4,2.3c-0.2,0.6,0,0.6,1.1-0.2
	C575.1,641.1,575.9,639.9,576.2,639z M695.3,431.8c-0.6,0.6-1.1,2.1-1.5,4.7c0,1.3,0.2,1.9,0.4,1.3c0.4-0.6,0.9-1.3,1.5-2.4
	C695.9,431.8,695.9,431.3,695.3,431.8z M696.8,419.1c0,0-0.2,0.6-0.2,0.8c0,0.4-0.2,0.7-0.2,1.1c0,1.3,0,2.4,0.2,2.8
	c0,0.2,0.4-0.2,0.4-0.8c0.2-0.4,0.2-1.5,0.2-1.9C697.4,419.8,697.2,418.9,696.8,419.1z M700.4,392.8c-0.4,0.4-0.8,0.6-1.5,1.1
	c0.6,3.2,0.6,3.2,1.3,0.8C700.4,394.1,700.4,393.4,700.4,392.8z M600.8,107.8c0.2-0.2-0.9-1.7-2.1-2.6c-0.8-0.6-1.3-0.9-1.9-1.5
	c0.2,0.7,1.1,2.1,2.6,3.6c0.2,0.2,0.6,0.4,0.6,0.4C600.6,107.8,600.8,108,600.8,107.8z M610.2,123.6c-0.2-0.6-0.6-1.3-0.8-1.9
	c-0.2-0.6-0.6-0.9-1.9-2.1c0.4,0.8,0.6,1.3,0.9,2.1C608.7,122.1,608.9,122.4,610.2,123.6z M620.7,130.1c-0.2-0.2-0.4-0.6-0.4-0.8
	c-0.4-0.6-0.9-1.1-1.3-1.3c-0.4-0.4-0.4,0,0.2,0.6c0.2,0.2,0.6,0.6,0.8,0.8C620.1,129.8,620.3,129.8,620.7,130.1z M630.8,146.6
	c-0.9-2.1-1.3-3.8-1.5-5.1c-0.9-1.5-1.9-2.6-3-3.8c-0.2,0.8,0.6,2.1,1.5,3.8c0.8,1.7,1.7,3.6,2.3,5.1
	C631,147.8,631,147.4,630.8,146.6z M679.9,243.6c-0.2,0.8-0.2,1.5,0.2,3.6c0.2,0.8,0.4,1.3,0.8,1.7c0.2,0,0.2-0.2,0.4-0.2
	c0.8,0.9,1.5,2.1,2.1,2.8c0.6,0.8,1.1,1.1,2.1,1.9c-0.7-1.7-1.1-2.6-1.3-3c-1.1-2.3-2.4-4.3-3.6-6.4
	C680.1,243.6,680.1,243.8,679.9,243.6z M668.3,216.2c0.6,1.5,0.9,3,1.5,4.3c-0.2,0.2-0.2,0.4-0.2,0.4c0.4,1.3,0.9,2.4,1.7,3.8
	l1.1-0.6c-0.2-1.1-0.6-2.1-0.8-3c-0.2-0.9-0.2-1.3-1.1-3.8C669.6,216.8,668.5,215.3,668.3,216.2z M662.3,198.4
	c-0.2,0,0.2,1.1,0.6,2.1c0.2,0.2,0.4,0.6,0.4,0.6c0.2,0,0-0.8-0.6-1.9C662.7,198.8,662.5,198.4,662.3,198.4z M650.9,174.4
	c0,0.6,0.2,1.3,0,1.7c-0.2,0.6-0.6,0.6-0.8,0.9c1.1,2.3,1.3,3.6,1.9,5.1c0.2,0.4,0.6,1.1,0.9,1.9c0.4,0.4,0.9,1.1,0.9,0.9
	c0-0.9,0.9-0.2,1.1-0.8c-0.4-1.1-0.8-2.1-1.1-2.8c-0.2-1.1,0.2-1.3-0.6-3.2c-0.2-0.6-0.6-1.3-0.9-1.9
	C651.8,175.5,651.4,174.9,650.9,174.4z M637.9,175.3c0-0.2-0.2-0.4-0.4-0.6c-0.2,0-0.2-0.2-0.4-0.2c0,0,0.2,0.4,0.2,0.6
	c0.2,0.2,0.4,0.4,0.4,0.6C637.9,175.5,637.9,175.3,637.9,175.3z M647.1,174.2c1.1,0.9,1.9,1.7,2.8,2.6c-0.8-1.5-1.3-3-2.3-4.5
	c-0.8-1.5-1.7-3-2.6-4.7c-1.1-1.7-2.3-3.2-3-3.7c-0.2,0.6,0.6,1.7,1.9,3.7c0.9,1.5,1.5,2.4,1.1,2.6c-2.4-2.8-2.6-2.6-0.9,0.8
	C645.2,172.5,646.4,173.4,647.1,174.2z M643.7,180.2c-0.2-0.4-0.2-0.6-0.4-0.9c-0.4-0.8-1.1-2.1-1.5-2.3c-0.2-0.2-0.4,0-0.6,0
	c0.2,0.4,0.2,0.6,0.4,0.8c0.4,0.8,1.1,2.1,1.5,2.3C643.4,180.4,643.6,180.2,643.7,180.2z M648.8,178.5c0,0.2,0.4,0.8,0.6,1.3
	l0.2-0.2c0,0,0-0.2,0-0.4s-0.2-0.4-0.4-0.6C649,178.5,648.8,178.3,648.8,178.5z M646.9,181.5c-0.2-0.2-0.4-0.6-0.6-0.8v0.2
	c0.2,0.2,0.4,0.7,0.4,0.7C647.5,182.4,647.5,182.3,646.9,181.5z M648.1,186.8C648.1,186.9,648.1,186.9,648.1,186.8
	c0-0.2-0.2-0.6-0.2-0.8c-0.2-0.2-0.4-0.4-0.6-0.8c0,0.2,0.2,0.4,0.2,0.8C647.7,186.4,647.9,186.6,648.1,186.8z M647.1,188.4
	c0,0-0.2-0.4-0.4-0.6c-0.2,0-0.2-0.2-0.2-0.2s0,0.4,0.2,0.6c0.2,0.2,0.4,0.4,0.4,0.6C647.1,188.6,647.1,188.6,647.1,188.4z
	 M656.9,194.3c0.9-0.6,0.9-0.6-0.2-3.6c-0.4-0.8-1.1-1.7-1.5-2.1c-0.6-0.6-0.9-0.6-1.3-0.9c-0.6-0.4-1.1-1.1-2.1-2.4
	c-0.8-1.7-1.5-3.4-2.3-5.2c-0.6,0.4-1.1,0.6-1.7,0.9c0.2,0.6,0.4,1.1,0.6,1.7c1.5,2.3,2.8,4.5,4.3,6.6c0.6,0.9,1.1,1.5,1.7,2.6
	C655.2,192.8,656.1,193.5,656.9,194.3z M656.5,201.6c-0.2-0.6-0.4-1.5-0.6-2.1c-0.6-0.9-0.8-1.1-0.8-0.8c0,0.4,0.2,0.8,0.2,1.1
	c0.2,0.6,0.6,1.3,0.8,1.7C656.3,201.8,656.5,201.9,656.5,201.6z M660.1,209.6c0-0.2,0-0.4-0.2-0.8c-0.4-0.9-0.6-1.1-0.6-0.9
	c0,0.2,0.2,0.6,0.4,0.8L660.1,209.6z M665.7,217.7c0.2-0.8,0.4-1.7,0.6-2.4c0.2-0.6,0.2-1.9-0.6-4.1s-0.4-2.3-0.6-3.6
	c-1.1-2.4-2.4-3.6-3.6-6.4c-3.4-2.1-3.4-2.1-5.6-4.7c0,0.2,0,0.2,0,0.4c0.6,2.1,1.9,4.5,3.2,6.8c0.9,1.7,1.9,2.8,2.4,3.4
	c0.6,0.4,0.9,0.8,1.1,0.9c0.9,1.7,1.5,3,2.3,5.3c-0.2,0.4-0.6,0.6-0.8,0.9c0,0.2,0,0.4,0,0.8c0,0.4,0.2,1.1,0.6,1.7
	C665.3,217.1,665.7,217.9,665.7,217.7z M664.4,222.4c0.8,1.7,1.7,3.8,2.4,5.8c0.6,0.6,1.9,3.6,2.2,3.2c-0.6-2.1-0.8-3-1.5-4.5
	c-0.4-0.8-0.7-1.5-1.3-2.3c-0.4-0.9-0.8-1.9-1.3-3c-0.2-0.6-0.8-1.3-0.9-1.3c-0.2-0.2,0,0.4,0,0.8
	C664,221.3,664.2,221.8,664.4,222.4z M662.5,226.9c0-0.2,0-0.4-0.2-0.6c0-0.2-0.4-0.6-0.4-0.6c-0.2-0.2-0.2,0.2,0.2,0.9
	C662.1,226.9,662.3,226.9,662.5,226.9z M668.3,234.2c0.2,0.2,0.2-0.2,0.2-0.6c-0.2-1.3-0.8-3.2-1.7-5.2c-0.6,0.2-0.6,1.3,0.7,4.7
	C667.7,233.4,668.1,234,668.3,234.2z M674.1,238.5c0.4,0.9,0.9,2.1,1.3,2.4c0.6,0.6,1.1,1.1,1.7,1.7c1.1,2.2,1.7,5.1,2.6,6.2
	c0.2-0.4-0.2-1.7-0.8-3.6c-0.6-1.3-1.1-2.6-1.7-4.1c-0.6-1.3-1.3-2.8-2.1-4.1c-0.6-1.3-0.8-2.8-1.5-3.6c0.2,0.9,0.4,1.9,0.6,2.8
	c-0.2,0-0.4-0.2-0.4,0C673.6,236.6,673.7,237.4,674.1,238.5z M673.6,244.7c0-0.2,0-0.4,0-0.6c0-0.2-0.2-0.8-0.2-0.8
	c-0.4-0.7-0.8-1.5-1.1-1.9c-0.4-0.4-0.4,0,0,0.8c0,0.2,0.4,0.8,0.4,0.9C672.8,243.8,673.2,244.3,673.6,244.7z M672.8,258.4
	c0,0,0,0,0-0.2c0-0.2-0.2-0.8-0.2-0.9c-0.4-0.8-0.4-0.6-0.2,0.4C672.6,257.8,672.8,258,672.8,258.4z M681.4,258.2c0-0.6,0-1.3,0-2.1
	c-1.5-3.6-2.4-4.3-3.6-6.6c-0.2-0.8-0.6-1.5-0.7-2.1c-0.8-1.1-1.5-2.4-1.9-2.3c0.2,0.6,0.2,1.1,0.4,2.3c1.9,3.9,3.7,7.1,5.4,10.5
	C681.2,258.2,681.4,258.2,681.4,258.2z M686.1,263.6c0.2,0.4,0.4,0.8,0.6,0.6c0-0.2-0.2-1.1-0.4-1.9c-0.4-1.3-0.9-2.6-1.3-3.9
	c-0.6-1.3-1.1-2.6-1.5-3.9c-0.2-0.6-0.6-0.9-0.8-1.1c-0.2-0.2,0.2,1.1,0.6,2.4C684.2,258.9,685.2,261.4,686.1,263.6z M682.7,274.5
	c0,0-0.2-0.6-0.2-0.8c-0.2-0.2-0.2-0.6-0.4-0.8c0,0,0,0.2,0,0.4C682.6,274.3,682.7,274.7,682.7,274.5z M686.1,273.8c0,0,0-0.4,0-0.6
	c-0.2-1.1-0.4-2.4-0.8-3.6c-0.6-1.9-0.9-2.6-1.5-3c-0.4-0.2-0.2,1.5-0.9,0.4c-0.4-0.6-1.1-3.4-1.5-3c0.4,1.1,0.6,2.3,0.9,3
	C683.9,270.9,685.2,272.8,686.1,273.8z M681.8,277.3c0-0.2-0.2-0.8-0.4-0.9c-0.6-1.3-0.7-1.3-0.6-0.2c0.2,0.8,0.4,1.5,0.8,1.9
	C682,278.4,682,278.3,681.8,277.3z M685,282.2c0.2,0,0.2-0.2,0.2-0.6c0-0.4,0-1.1-0.2-1.9c-0.4-1.3-0.7-1.7-0.7-0.6
	c0,0.4,0.2,1.3,0.2,1.9C684.6,281.6,684.8,282.2,685,282.2z M690.2,287.3c0.4-0.4,0.2-1.9-0.2-3.9c-0.6-3.2-1.3-4.9-2.1-5.8
	c-0.9-0.2-0.9-0.2-0.6,2.8C688.4,282.6,689.3,285,690.2,287.3z M692.3,297c0.2-0.8,0.2-1.3-0.2-3.2c-0.6-1.3-0.9-2.3-1.3-2.1
	c0,0.8,0.2,1.5,0.2,2.3C691.7,296.1,691.9,297.2,692.3,297z M689.7,301.5c0.6,2.6,1.1,4.9,1.7,6.9c0.4,0.6,0.7,1.1,1.1,1.5
	c0.2,0.6,0.2,0.9,0.2,1.3c0.4,1.5,0.6,2.2,0.8,1.9c0.2-1.1,0.2-3.2,0-5.6c-0.4-2.6-0.8-5.1-1.5-7.1c-0.8-0.4-1.5-0.8-2.3-1.3
	C689.5,300,689.5,300.8,689.7,301.5z M687.6,303.9c0,0,0.2,0,0.2-0.2c0-0.2,0-0.8-0.2-0.9c-0.2-0.8-0.4-0.8-0.2,0.4
	C687.4,303.4,687.6,303.6,687.6,303.9z M691.6,317.3c0.4-2.1,0-4.5-0.8-7.3c-0.4-0.6-0.8-1.3-0.9-1.9c-0.2-0.2-0.2-0.2-0.4-0.2
	c0,0.6,0,1.3,0,2.4C690.1,312.8,690.8,314.4,691.6,317.3z M697.2,336.2c0,0,0-0.2,0.2-0.4c0-0.2,0-0.8-0.2-0.8
	c0-0.2-0.2-0.4-0.2-0.2C696.8,335.4,697,335.8,697.2,336.2z M701.9,358.1c-0.2-0.2-0.4,0.6-0.4,1.7c0,1.9,0,3.8,0.2,5.4
	C702.2,362.8,702.4,361.9,701.9,358.1z M699.6,347.1c-0.4,0.6-0.6,1.3-0.9,1.9c0,2.3,0,2.3,0.6,3.4c0.2-0.6,0.4-1.1,0.6-1.9
	c0-0.4,0.2-0.9,0.2-1.5C700,348.2,700,347.4,699.6,347.1z M694.4,339.4c-0.4,0.9-0.8,1.7-0.9,2.4c-0.2,0.2-0.2,0.8-0.2,1.3
	c0,0.2,0,0.8,0,1.1c0,0.4,0.2,0.8,0.2,0.9c0.8,0.9,1.1-0.9,1.9-0.6c0.2,0.8,0.4,1.5,0.6,2.4c0.2-1.5,0.2-3.2,0.2-4.9
	c0-1.1-0.2-2.1-0.6-2.8C694.9,339.4,694.6,339.4,694.4,339.4z M687.4,343.3c-0.6-1.9-0.8-1.1-0.9,0.6c0,0.4,0,1.1,0,1.9
	c0,0.2,0.2,0.6,0.2,0.6C687.2,346.5,687.6,345.8,687.4,343.3z M691.4,346.5c0-0.8-0.2-1.5-0.2-2.1c-0.2-0.6-0.2-0.9-0.4-1.1
	c-0.2-0.4-0.2,0.9,0,2.4c0.2,0.6,0.2,1.3,0.4,1.9C691.2,348.2,691.6,347.4,691.4,346.5z M697.4,349.7c0-0.2,0.2-0.2,0.2-0.6
	c0-0.6,0-1.3,0-2.1c-0.2-1.1-0.4-2.1-0.6-2.1c0,0-0.2,0.2-0.2,0.4c0,0.9,0,2.2,0.2,3.2C697.2,349.1,697.4,349.3,697.4,349.7z
	 M696.2,352.1c0,0.2,0.2,0.2,0.2,0.4l0.2-0.6c0-0.2-0.2-0.6-0.2-0.8C696.2,351,696.2,351.4,696.2,352.1z M694.6,355.1
	c0.2,0,0.6-0.2,0.6-1.7c0-0.8,0-1.5-0.2-1.9c0-0.2-0.2-0.2-0.2,0C694.6,352.3,694.6,353.6,694.6,355.1z M691.4,373.5
	c0,0.9,0.2,1.5,0.4,1.1c0-0.2,0.2-0.4,0.2-0.8c0.2-1.3,0.2-2.8,0.2-3.7c0.4-3.6,0.9-5.4,1.1-9c-0.4-1.7-0.8-2.8-1.1-3
	c-0.6,1.1-0.7,3.6-1.3,5.6C691,367.1,691.4,370.3,691.4,373.5z M688.2,375.2c0.2-0.6,0-0.9,0-1.1l-0.2,0.4
	C688,374.8,688,375.2,688.2,375.2C688,375.4,688.2,375.4,688.2,375.2z M695.7,384.8c-0.2-4.7,0-9.7-0.2-14.8
	c-0.2-0.4-0.2-0.4-0.4,0.4c-0.2,1.3-0.2,2.8-0.2,4.3c0,2.3,0,4.3,0.2,6.2c-0.2,1.3-0.4,2.4-0.6,3.6
	C694.9,387.6,694.9,387.6,695.7,384.8z M699.6,388.7c0.4-1.5,0.9-1.3,1.1-4.7c-0.2-0.9-0.6-1.9-0.8-2.6c-0.2-2.1,0-3.9,0-5.8
	c0.2-1.1,0.4-2.3,0.6-3.4c0-2.1-0.4-3.2-0.8-4.5c-0.4-0.8-0.8-1.5-1.1-2.3c-0.2-1.5-0.6-3-0.8-4.5c-0.2,0.2-0.6,0.4-0.8,0.4
	c-0.4-1.3-0.8-2.6-1.1-3.8c-0.6-0.2-0.9-0.6-1.3-0.8c-0.2-0.9-0.4-1.3-0.4-1.9c-0.2,0-0.6,0.2-0.6,1.7c0,2.8,0.4,5.1,0.8,6.9
	c0.4-0.4,0.8-2.3,1.3-1.5c0.4,0.9,0.8,2.6,0.8,5.1c0,1.5,0,3.2,0.4,4.5c0.4-0.9,0.6-1.9,0.9-2.8c0.2,0.4,0.4,0.4,0.4,0.9
	c0.2,0.8,0.4,1.7,0.4,2.8c-0.2,2.8-0.6,5.6-0.8,8.4c0,0.9-0.2,1.5-0.4,2.6C698.1,387,698.9,387.8,699.6,388.7z M682.7,397.1
	c0.2,0,0.4-0.6,0.4-0.9c0.2-1.3,0.2-2.6,0-3.4c0,0-0.2,0-0.2,0.2c0,0.2-0.2,0.6-0.2,0.9C682.6,395.6,682.6,396.9,682.7,397.1z
	 M691.6,406.7c-0.6,3.6-0.8,5.1-0.9,8.2c0,0.2,0,0.4,0.2,0.2c0.2,0,0.6-1.3,0.6-2.1c0-0.9,0.2-2.1,0.2-3
	C691.6,408.9,691.6,407.8,691.6,406.7z M675.6,409.3c0.2-0.4,0.4-1.1,0.2-1.7c0-0.4-0.2-0.8-0.2-0.9c0,0-0.2,0.4-0.2,0.6
	c0,0.6,0,1.1,0,1.7C675.4,409.3,675.6,409.5,675.6,409.3z M689.1,410.8c0,0.4-0.2,1.3-0.2,1.9c0,0.6,0.2,0.7,0.2,1.1
	c0.2,0.2,0.2-0.2,0.4-0.9c0-0.4,0.2-0.8,0.2-1.3c0-0.4-0.2-1.1-0.4-1.3C689.5,409.9,689.3,410.3,689.1,410.8z M672.1,411.8
	c0-0.2,0.2-0.4,0.2-0.6c0.2-0.9,0.2-2.1-0.2-2.1c0,0-0.2,0.4-0.2,0.7C671.7,411.2,671.7,411.8,672.1,411.8z M685.9,418.5
	c0.2-1.5,0.8-3.6,0.6-5.4c-0.9,2.3-0.9,2.3-1.3,4.3c-0.2,0.6-0.2,1.3-0.2,2.6C685.2,420.4,685.4,420.4,685.9,418.5z M689.1,429.9
	c0.2-0.2,0.6-1.1,0.8-2.4c-0.4-2.3-0.6-2.1-1.5,1.5C688.4,430.5,688.7,430.5,689.1,429.9z M679.9,452.3c-0.4,1.3-0.8,2.8-1.1,4.1
	c0,0.2,0,0.6,0,0.8c0.4-0.2,0.9-0.4,1.3-0.6c0.4,0.9,0.6,1.7,0.8,2.4c0.6-0.6,0.9-1.1,1.3-1.5c0.2,0.6,0.2,1.5,0,2.8
	c-0.2,1.3-0.4,2.6-0.4,3.8c0,0.4,0.2,0.4,0.2,0.6c0.6-2.1,1.1-4.1,1.7-6.2c0.8-1.9,1.3-3.8,1.9-5.3c0.4-1.7,0.8-3.2,1.1-4.5
	c-0.6,0.2,0-3.2-0.6-3.4c-1.5,3.6-3,5.2-4.3,6.4c-0.6-0.6-0.2-3.6-0.9-3.4C680.3,449.4,680.3,450.9,679.9,452.3z M676.4,454.9
	c0,0,0.2-0.4,0.2-0.8c0-0.2,0-0.4,0-0.4s-0.2,0.4-0.2,0.6c0,0.2,0,0.6,0,0.8C676.2,455.1,676.2,454.9,676.4,454.9z M678.6,450.9
	c-0.2,1.1-0.6,2.8-0.4,3.6c0.6-1.1,0.8-2.4,0.9-3.8C679.2,449.8,679,449.8,678.6,450.9z M668.5,451.7c0,0.6,0,0.9,0,1.3
	c0.2-0.4,0.4-0.6,0.6-1.1c0.2-0.6,0.2-1.3,0.2-1.7C669.2,449.6,668.7,450.8,668.5,451.7z M666.4,454.3c0.4-2.3,0.4-3,0-2.4
	c-0.6,0.9-1.1,2.1-1.9,4.7C664.9,457.3,665.7,455.6,666.4,454.3z M651.8,457.3c0.2-0.2,0.4-0.6,0.6-0.8c0-0.2,0.2-0.6,0.2-0.9
	c0.2-0.8,0-1.1-0.2-0.6c-0.2,0.4-0.4,0.9-0.6,1.5C651.8,456.6,651.8,456.9,651.8,457.3z M677.3,464.3c0,0,0.2-0.6,0.2-0.8
	c0-0.2,0-0.4,0-0.4s-0.2,0.4-0.2,0.6c0,0.2,0,0.6,0,0.8C677.1,464.6,677.3,464.4,677.3,464.3z M670.6,476.1c0,0-0.2,0.4-0.4,0.8
	c-0.4,1.3-0.4,2.1-0.2,2.1c0.2-0.2,0.2-0.4,0.4-0.6C670.6,477.2,670.7,476.1,670.6,476.1z M660.6,472.7c-0.2,0.4-0.4,0.9-0.6,1.5
	c0,0.2,0,0.6-0.2,0.8c0.2-0.4,0.4-0.6,0.6-0.9c0-0.2,0.2-0.6,0.4-0.9C661,472.5,661,472.3,660.6,472.7z M658.6,472.5
	c0.4,0,0.4,0,0.9-1.9c0.4-1.5,0.8-3.4,0.8-4.5c-0.2,0-0.2-0.2-0.4,0.2c-0.2,0.4-0.6,1.3-0.6,1.7
	C659.1,469.7,658.7,471.4,658.6,472.5z M652.2,474.8c0.2,0,0.4-0.6,0.6-1.3c0.4-1.7,0.8-3.2,0.8-4.7c-0.8,2.3-1.3,3.9-1.3,5.6
	C652,474.6,652,474.8,652.2,474.8z M652.4,491.8c0,0.6-0.2,1.3-0.2,1.9c0,0.4,0.2,0.2,0.6-0.4c0-0.2,0.2-0.8,0.2-0.9
	c0-0.6,0-1.1,0-1.7c0-0.2-0.2,0-0.2,0.2C652.7,490.9,652.6,491.3,652.4,491.8z M650.7,492c-0.2,0.4-0.4,0.9-0.4,1.1l0.2-0.2
	c0-0.2,0.2-0.6,0.2-0.8C650.9,492,650.9,491.8,650.7,492z M644.1,491.3c0.2-0.6,0.2-0.9,0.2-1.5c-0.2,0.2-0.4,0.4-0.6,0.8
	c-0.4,0.6-0.6,1.3-0.6,1.7C643.4,492.8,643.7,492.2,644.1,491.3z M667.4,501.6c0.6-0.8,1.1-2.1,1.7-3.6c0-0.9,0-1.9,0.6-3.8
	c0.6-1.7,1.1-3.4,1.9-5.1c0-0.8,0-1.3,0.2-1.9c-0.6,0.4-1.1,0.9-1.7,1.3c-0.6,0.2-0.8-0.4-1.5,0.6c-1.7,3.2-1.9,3.9-2.3,7.5
	c0.4,0.4,0.9,0.8,1.3,1.1C667.7,498.6,666.6,501.8,667.4,501.6z M657.6,504.6c0.2-0.2,0.4-0.6,0.4-0.8c0.2-0.6,0.4-1.3,0.6-1.7
	c0-0.6-0.2-0.4-0.6,0.4c-0.2,0.4-0.4,1.1-0.4,1.7C657.6,504.4,657.6,504.4,657.6,504.6z M655.6,505.7c0,0,0.2-0.4,0.4-0.8
	c0-0.2,0.2-0.6,0.2-0.7c0,0-0.2,0.2-0.2,0.4C655.6,505.3,655.4,505.9,655.6,505.7z M663.2,512.3c0.6-0.4,1.3-0.8,1.7-0.9
	c0.6-0.2,0.8,0.8,1.5-0.2c0.2-0.4,0.6-0.9,0.7-1.3c-0.6-0.4-1.1-0.6-1.1-2.3c0-0.8-0.4-0.6-0.8-0.8
	C664.2,509.1,664.2,509.1,663.2,512.3z M658.9,513.6c0.8-2.1,1.3-3.9,1.5-5.4c-0.4,0.6-0.7,1.3-1.1,1.9c-0.6,1.9-0.9,3.2-0.9,4.1
	C658.4,514.5,658.6,514.3,658.9,513.6z M635.3,524.1c1.1-1.5,1.5-0.8,3.2-3.9c0.4-1.3,0-1.1-0.4-0.9c-0.6,0.9-1.5,2.1-2.3,3.4
	C635.3,522.9,635.3,523.7,635.3,524.1z M639.6,526.7c0.4-0.4,0.6-0.9,0.9-1.5c0.4-0.8,0.6-1.3,0.6-1.7c0-0.2-0.2,0-0.4,0.2
	c-0.2,0.4-0.6,1.1-0.9,1.7c-0.2,0.6-0.6,1.3-0.8,1.7C639.1,527.4,639.4,527.1,639.6,526.7z M650.7,536.8c0.4,0,0.8-0.6,1.7-2.1
	c0.9-2.1,1.9-4.5,2.1-5.8l0.4-0.9c0.4-1.1,0.8-1.9,0.8-2.6c0-0.4-0.4,0-1.1,1.3c-1.1,2.1-1.9,3.2-2.8,4.7c-0.2,0.4-0.6,1.1-0.9,1.9
	C650.1,535.3,650.1,536.8,650.7,536.8z M638.1,534.2c0.2-0.2,0.4-0.8,0.4-0.9c0.2-0.4,0.2-0.7,0.2-1.1c0,0-0.4,0.4-0.4,0.6
	c-0.4,0.8-0.6,1.3-0.8,1.7C637.6,534.9,637.7,534.9,638.1,534.2z M643.2,542.3c0,0.2,0,0.2,0,0.4l0.4-0.4c0-0.2,0.2-0.6,0.2-0.8
	C643.6,541.3,643.4,541.7,643.2,542.3z M640.6,542.6c0.2-0.2,0.4-0.4,0.6-0.7c0.6-1.1,0.8-1.9,0.9-2.6c0-0.2,0.2-0.6,0-0.4
	c-0.2,0.2-0.6,0.7-0.9,1.3C640.4,542.1,640.2,543,640.6,542.6z M644.1,550.5c0.2-0.4,0.6-0.8,0.9-1.1c-0.2,0-0.2,0-0.4,0
	c0,0-0.2,0.2-0.4,0.4c0,0.2-0.4,0.4-0.4,0.6C643.6,550.7,643.7,550.9,644.1,550.5z M637.2,559.9c0,0,0.4-0.4,0.4-0.6
	c0.2-0.2,0.2-0.6,0.2-0.6s-0.2,0-0.4,0.2c0,0-0.2,0.4-0.4,0.8C637,559.7,637,559.9,637.2,559.9z M634.9,565.3c0,0,0.2,0,0.2-0.2
	c0.2-0.2,0.4-0.6,0.6-0.8c0.4-0.7,0.2-0.7-0.4,0.2C635.1,564.8,635.1,564.9,634.9,565.3z M610,594.4c0,0-0.2,0-0.4,0
	c-1.1,1.1-2.3,2.1-3.6,3.2c-0.4,0.2-0.8,0.9-1.7,2.1c-0.4,1.7-2.1,4.9-1.3,5.3c0.9-0.4,3-2.6,3.2-1.9c-0.9,1.7-1.9,3.4-2.6,4.7
	c0.2,0.6,0.9,0.2,2.6-1.9c0.6-1.3,1.9-3.6,3.7-6c0.8-0.9,1.3-1.7,1.5-2.4c-0.2,0-0.6-0.2-1.1,0c-0.6,0.2-1.5,0.9-1.5,0.4
	C608.5,597.4,610.2,594.8,610,594.4z M602.3,586.3c0,0-0.4,0.4-0.6,0.6c-0.6,0.6-0.8,1.1-0.9,1.5c-0.2,0.4,0,0.4,0.6-0.2
	c0.2-0.2,0.6-0.6,0.6-0.8C602.1,586.9,602.1,586.5,602.3,586.3z M620.5,590.3c-0.6,0.8-1.1,1.7-1.5,2.4c-0.4,0.6-0.4,0.9,0,0.6
	c0.2,0,0.4-0.4,0.6-0.6c0.6-0.6,0.9-1.3,0.9-1.7C620.5,590.8,620.5,590.4,620.5,590.3z M622,587.4c-0.4,0.4-0.8,0.8-0.9,1.3
	c-0.2,0.4-0.4,0.8-0.4,1.1c0.4-0.6,0.8-0.9,0.9-1.5c0.2-0.2,0.4-0.6,0.4-0.8C622.2,587.6,622.2,587.4,622,587.4z M619.4,586.3
	c-0.2,0.2-0.4,0.6-0.6,0.8h0.2c0.2-0.2,0.6-0.6,0.6-0.8C620.1,585.6,619.9,585.6,619.4,586.3z M609.2,575.3c-0.9,1.5-1.7,3-2.6,4.5
	c-0.8,0.9-1.3,1.7-1.9,2.4c-0.4,1.1-0.4,1.1,1.5-0.7c1.5-2.3,2.6-4.3,3.7-6C610.2,574.9,610.4,574.3,609.2,575.3z M623.7,579.4
	c-0.4,0.4-0.8,0.9-1.1,1.3c-0.2,0.2-0.2,0.6-0.4,0.8c0.4-0.2,0.6-0.4,0.9-0.8c0.6-0.6,0.9-1.1,0.9-1.5
	C623.9,579.2,623.7,579.2,623.7,579.4z M620.3,574.1c-0.4-0.4,0.2-1.7-2.1,0.6c-1.1,1.7-1.5,2.6-1.5,3
	C617.5,577.3,618.6,576.6,620.3,574.1z M626.1,573c-0.9,0.4-2.6,2.8-4.5,4.5c-0.2,0.6-0.4,1.1-0.6,1.5c0.9-0.7,1.7-0.9,3-2.4
	C625,575.3,625.7,574.1,626.1,573z M632.1,566.6c-0.6,0.6-0.9,1.1-1.7,1.7c-0.4,0.9-0.8,1.7-0.9,2.3c-0.2,0.6,0,0.6,0.4,0
	c0.2-0.2,0.4-0.6,0.6-0.8C631.2,568.9,631.9,567.6,632.1,566.6z M622.6,563.3c-0.4,0.8-0.6,1.3-0.9,2.1c0.2-0.2,0.4-0.2,0.4-0.4
	c0.8-0.9,1.5-1.9,2.3-2.8c0.2-0.4,0.2-0.8,0.2-0.9c0-0.2-0.2,0-0.2,0C624.1,561,623.1,561.9,622.6,563.3z M605.9,563.3l0.4-0.4
	c0-0.2,0.2-0.6,0.2-0.6c0-0.2-0.4,0-0.6,0.8C605.7,563.1,605.9,563.3,605.9,563.3z M589.4,576.4c0.8-0.4,1.7-1.3,2.8-2.8
	c0.6-0.8,1.1-1.5,0.9-1.9c-0.9,0.8-2.1,1.7-3.2,2.6C589.4,575.4,589.2,576.2,589.4,576.4z M591.2,581.8c0.2,0.2,0.6,0.4,0.9,0.4
	c0.9-0.7,1.9-1.5,2.8-2.2c-0.4,0.8-0.6,1.5-0.9,2.2c1.5-1.9,3.2-3.6,4.5-5.4c0.6-0.6,1.3-0.9,1.9-1.3c0,0.8,0,1.3,0,1.9
	c0.8-0.8,1.5-1.7,2.3-2.8c1.1-2.1,0.6-2.6,2.2-5.2c0.4-0.6,1.1-1.5,1.5-1.9c1.1-1.1,2.1-2.1,3-3c0.9-1.5,2.1-2.8,3-4.1
	c0.4-0.6,0.6-1.1,0.4-1.1c-1.1,0.4-2.8,1.7-5.1,4.7c-0.8,1.1-1.9,2.4-3.2,3.9c-1.7,1.7-3.6,3.6-5.1,5.1c-0.9,1.3-1.5,2.1-2.3,3.2
	c-0.9,0.9-1.9,1.9-2.4,2.3c-1.9,0.9-1.1-1.1-3.2,0.6c-0.4,0.8-0.9,1.5-1.3,2.3C590.5,581.1,590.9,581.4,591.2,581.8z M605.9,593.8
	c-1.1,1.9-0.6,2.1-0.8,2.8c0.9-0.8,1.7-1.7,2.4-3c0.8-1.7,0.6-2.1-0.6-1.3L605.9,593.8z M586.9,582h0.2c0.2-0.2,0.4-0.6,0.6-0.8
	c0.4-0.6,0.2-0.6-0.4,0C587.1,581.4,587.1,581.8,586.9,582z M598.7,592.9c-0.2,0.2-0.4,0.6-0.8,0.8c-0.2,0.2-0.4,0.6-0.4,0.6
	c-0.2,0.8,0.2,0.6,1.1-0.2c0.2-0.2,0.4-0.6,0.6-0.8c0.2-0.4,0.6-0.9,0.6-1.1C599.9,591.9,599.3,592.3,598.7,592.9z M597.2,591.2
	c-1.7,1.9-3.6,4.1-5.1,5.2c-0.2,0.2-0.6,0.4-0.8,0.6c-0.4,0.6-0.9,0.9-1.1,1.5c-0.4,0.6-0.4,0.8,0.2,0.4c1.3-0.9,2.6-2.1,3.9-3.2
	C595.9,593.8,596.9,592.3,597.2,591.2z M586.9,591c0.2,0,0.4-0.4,0.6-0.6c0.9-1.1,1.1-1.9,0.4-1.5c-0.2,0.2-0.4,0.4-0.6,0.6
	c-0.2,0.2-0.6,0.6-0.6,0.8C586,591,586.2,591.4,586.9,591z M582.1,592.5c1.5-0.9,2.8-1.7,4.7-4.1c0.6-0.9,0.8-1.3,0.2-1.1
	c-1.1,0.8-2.4,1.7-4.7,4.3C582.1,591.9,582.1,592.1,582.1,592.5z M578.5,612c0.4-0.2,0.6-0.2,0.9-0.6c2.1-1.3,3.2-3,3.9-4.7
	c-0.8,0.4-1.9,1.3-3.4,2.6C578.7,610.9,578.1,611.8,578.5,612z M582.1,614.6c0.2-0.4,0.2-0.6,0.2-0.9l-0.4,0.2
	c-0.4,0.4-0.9,0.9-1.1,1.3c-0.4,0.6-0.6,0.9-0.8,1.3c0.4-0.2,0.8-0.4,1.1-0.8C581.3,615.6,582.1,614.8,582.1,614.6z M581.5,617.4
	c-0.8,0.8-1.3,1.3-1.7,1.9c0.4,0.6,0.4,0.6,2.8-1.9c0-0.2,0-0.4,0-0.4C582.4,616.9,582.2,616.9,581.5,617.4z M585.4,616.3
	c0.4-0.4,0.6-0.8,0.9-1.3c-0.4,0.2-0.6,0.2-0.9,0.6c-0.6,0.4-0.9,0.9-1.1,1.3C584.1,617.4,584.9,617.1,585.4,616.3z M568.7,620.1
	c0.9-1.3,0.4-1.3,0.2-1.7c-1.7,1.7-3.2,3.4-3.4,4.1C566.3,622.3,567.2,621.6,568.7,620.1z M571.4,621c-0.2,0.2-0.4,0.4-0.4,0.6
	c0.2,0,0.2,0,0.4-0.2c0.2-0.2,0.6-0.6,0.6-0.7C572.3,620.3,572.1,620.4,571.4,621z M571.4,615c0.9-1.1,2.1-2.4,3.2-3.9
	c-0.2-0.2-0.4-0.4-0.6-0.6c0.4-0.4,0.8-1.1,1.1-1.7c0.8-1.1,0.6-1.1-1.3,0.4c-1.1,1.5-2.4,3.2-3.8,4.9c-1.5,1.5-3,2.8-4.5,4.3
	c-0.4,0.4-0.6,0.8-0.9,1.1c1.1,0,2.3-0.2,3.9-1.1C569.7,617.3,570.4,616.1,571.4,615z M597.4,621.8c0,0-0.2,0-0.4,0.2
	c-0.4,0.4-0.7,0.8-0.6,0.9c0,0.2,0.2,0.2,0.2,0.2c0.2-0.4,0.6-0.8,0.8-1.1V621.8z M597.4,620.3c-1.7,1.3-1.7,1.3-2.6,2.2
	c-0.2,0.2-0.4,0.6-0.6,0.8c-0.2,0.4-0.2,0.4,0.4,0C595.9,622.5,596.7,621.4,597.4,620.3z M600.1,609.9c0-0.2-0.9,0.4-1.5,1.3
	c-0.2,0.2-0.4,0.6-0.4,0.6c0,0.4,0.6-0.2,1.5-1.1C599.7,610.5,600.1,610.1,600.1,609.9z M585.1,596.8c0.6-0.9,0-0.9-0.6-0.9
	c-0.9,0.6-1.7,1.5-2.3,2.4C582.8,599.1,582.8,599.1,585.1,596.8z M597.1,615c-1.1,1.3-1.7,2.3-1.7,2.8c0.6-0.2,1.3-0.7,2.8-2.4
	c0.9-1.7,0.9-1.9,0.4-1.7C598.2,614.1,597.6,614.6,597.1,615z M590.5,614.3c-0.4,0.6-0.9,1.3-1.3,1.9c-0.2,0.9,0.9,0.4,0,2.1
	c-2.6,3-3.9,3.2-6.4,5.6c-1.1,1.7-0.6,1.9-1.1,3c2.2-1.7,3-2.3,3.9-3.4c1.9-2.3,3.9-4.1,6-6.4c1.7-2.6,2.1-3.9,2.2-5.1
	C593.3,611.6,592.2,612.4,590.5,614.3z M564.1,611.6c0.2-0.2,0.4-0.2,0.6-0.4c1.9-1.9,3.8-3.8,5.6-5.8c0.4-0.4,0.6-0.9,0.9-1.3
	c0.4-1.3-1.1-0.2-2.4,0.6c-0.4,0.4-0.9,0.9-1.1,1.3c-0.2,0.4-0.4,0.7-0.2,0.7c0.4,0,0.9-0.4,0.4,0.8
	C566.9,608.6,564.8,610.3,564.1,611.6z M558.2,614.8l2.4-2.1l2.4-2.3c0.2-0.2,0.4-0.4,0.6-0.8c0.2-0.4,0.4-0.8,0.4-0.8
	c-0.2-0.2-1.1,0.4-2.1,1.3C560.1,612,558.6,613.7,558.2,614.8z M553.6,619.1c0.2-0.2,0.4-0.2,0.6-0.4c0.6-0.6,0.9-0.9,0.6-0.8
	c0,0-0.4,0.4-0.6,0.6L553.6,619.1z M546.6,624c0.4-0.6,1.1-1.1,1.3-1.7c0.2-0.4,0-0.4,0-0.6c-1.1,0.6-2.1,0.8-4.3,2.8
	C543.4,625.5,543.6,626.3,546.6,624z M539.1,629.1c0.2,0,0.2,0,0.4-0.2c0.2,0,0.4-0.4,0.4-0.6c0-0.2-0.2-0.2-0.8,0.4
	C539.3,628.9,539.3,629.1,539.1,629.1z M537.1,633.6c0.9-0.9,1.9-1.7,2.2-2.4c0-0.2,0-0.2-0.2-0.2c-0.4,0.2-0.9,0.6-1.3,0.9
	C536.9,633,536.9,633.4,537.1,633.6z M529.7,636c0.4-0.2,0.9-0.6,1.3-0.9c0.4-0.4,0.4-0.6,0.4-0.8c0,0-0.4,0.2-0.6,0.2
	c-0.4,0.4-0.8,0.7-1.1,1.1C529.7,636,529.6,636.2,529.7,636z M524.5,642.8c0.2,0,0.2,0,0.4-0.2c0.2-0.2,0.6-0.4,0.8-0.6
	c0.4-0.4,0.2-0.4-0.6,0.2C524.9,642.4,524.7,642.6,524.5,642.8z M518.7,648.2c-0.2,0-0.6,0.2-1.1,0.4c-0.6,0.2-1.1,0.6-1.3,0.9
	c-0.2,0.2-0.2,0.6,0,0.4c0.6-0.2,1.3-0.6,1.9-0.8C518.7,648.4,518.9,648,518.7,648.2z M513.8,645.6c0,0,0.4-0.2,0.6-0.2
	c1.1-0.8,1.5-1.3,1.3-1.3c0,0-0.4,0-0.6,0.2C514.4,644.8,513.6,645.6,513.8,645.6z M501.8,654.9c0.6-0.4,0.8-0.6,0.9-0.8
	c0.6-0.4,0.9-0.9,1.3-1.3c0.4-0.4-0.6-0.2-1.3,0.2c-1.1,0.8-2.4,1.7-2.8,2.4C499.7,655.9,500.3,655.7,501.8,654.9z M481.9,660.9
	c0.6,0,1.1,0,1.7,0.2c-0.2,0.4-0.4,0.8-0.6,1.1c0,0,0.2,0,0.4,0c0.6-0.2,1.3-0.6,2.3-0.9c2.4-1.7,3.6-2.6,2.8-2.6
	c-1.3,0.4-3.4,0.9-3.9,0.6c0,0-0.4,0-0.6,0.2c-0.6,0.2-1.1,0.6-1.5,0.7C482.3,660.6,482.1,660.8,481.9,660.9z M436.4,685.1
	c-1.1,0.4-2.3,0.9-3,1.3c-0.2,0.2-0.2,0.2-0.2,0.2c0.2,0,0.8,0,1.3-0.2C435.6,685.9,436,685.5,436.4,685.1z M433.7,681.6
	c0.2,0,0.9-0.2,1.3-0.2c0.4-0.2,0.9-0.6,1.1-0.8c0.2-0.2-0.2-0.2-0.8,0C434.7,680.8,433.4,681.4,433.7,681.6z M423.8,683.6
	c0.4,0,0.9,0,1.5-0.4c0.4-0.2,0.9-0.6,0.9-0.6c0-0.2-0.4-0.4-0.6-0.4c0.4-0.2,0.9-0.6,1.7-0.9c1.1-0.6,2.3-0.9,3.4-1.5
	c1.1-0.6,2.1-0.9,2.1-1.3c-0.9,0-1.9,0-2.6,0.2c-1.1,0,0-0.9-1.9-0.6c-1.5,0.6-2.8,1.1-3.8,1.7c-0.9,0.8,0.6,0.6,0.8,0.9
	c-0.8,0.6-1.5,1.3-2.1,2.1C422.9,683.4,422.9,683.6,423.8,683.6z M423.2,687.4c1.9-0.9,2.3-0.9,2.3-1.3c0-0.2-0.6-0.2-0.9,0
	c-0.4,0.2-1.3,0.4-1.5,0.6C422.1,687.2,422.1,687.6,423.2,687.4z M408.2,682.1c1.7-0.6,3.4-0.6,5.1-1.3c0.2-0.6,0.2-0.8-0.6-0.6
	c-0.9,0.2-2.3,0.6-3.2,1.1C409,681.6,408.6,681.9,408.2,682.1z M398.9,685.9c0.2,0,0.6-0.2,0.7-0.2c0.9-0.4,0.9-0.6,0.9-0.9
	c-1.1,0.4-1.9,0.6-2.4,0.9C397.7,686.1,398.1,686.1,398.9,685.9z M391.9,687.8c-0.2,0-0.4,0-0.7,0c-2.1,0.4-3.7,0.9-4.5,1.5
	c0.4,0.2,1.3,0,2.3-0.2C390.2,688.7,391.2,688.3,391.9,687.8C391.9,687.9,391.9,687.8,391.9,687.8z M385.7,685.1
	c0.8,0.2,1.1,0.8,3.8,0.2c1.5-0.6,2.8-1.3,4.5-2.1c-0.2-0.6,0.4-1.5-1.1-1.7c-1.3,0-2.1-0.4-4.5,0.4c-1.1,0.8,0.4,1.1-0.8,1.9
	C387.1,684.6,386.3,684.9,385.7,685.1z M383.7,684.4c0.2,0,0.6,0,0.8-0.2c0.2,0,0.4-0.2,0.8-0.2c-0.2,0-0.4,0-0.6,0
	C384.4,684.2,384.1,684.2,383.7,684.4C383.7,684.4,383.9,684.4,383.7,684.4z M384.6,688.7c0.6,0,1.1-0.2,1.5-0.4
	c0.6-0.2,0-0.4-0.8-0.2c-0.6,0.2-0.9,0.4-1.5,0.4C383.7,688.7,383.9,688.7,384.6,688.7z M370,690c1.3,0.2,2.8,0.2,4.7,0.4
	c1.5-0.4,2.4-0.6,3-0.9c0.6-0.2,0.8-0.4,0.9-0.6c-2.4,0-5.1,0.2-7.7,0.6C370.4,689.6,370,689.8,370,690z M368.7,694.9h0.6
	c0.2,0,0.6-0.2,0.6-0.2c0.2-0.2-0.2-0.2-0.9,0C368.7,694.9,368.7,694.9,368.7,694.9z M333.6,694.1c1.1,0.2,2.1,0.2,3.2,0.2
	c0.9-0.4,0.9-0.6,0-0.8c-1.1-0.2-2.1-0.2-3.2,0C332.7,693.8,332.7,693.9,333.6,694.1z M335.1,699c1.9,0,3.2-0.4,4.5-0.7
	c0.6-0.4,1.1-0.8,1.7-0.9c0.4,0,0.8,0,0.9,0c0.7,0,1.7,0.2,2.4,0.2c1.3,0.2,2.3,0.4,4.1,0.2c1.7-0.2,3.9-0.4,4.5-0.9
	c-0.6-0.4-2.8-0.4-2.6-0.6c0-0.6,0.6-0.9,2.1-1.1c1.5-0.2,2.4-0.2,3.4,0c0.2,0.2,0.4,0.4,0.8,0.6c0.4,0.2,1.1,0.2,2.3,0
	c1.9-0.6,1.7-1.1,2.2-1.7c-0.9-0.2-2.1-0.6-2.8-0.9c-0.4-0.2-0.4-0.6-0.4-0.8c0,0,0.8-0.2,1.1-0.4c0.2,0,0.8,0,0.9,0
	c1.1,0.2,2.1,0.2,3,0.4c1.3,0,2.6-0.2,3.4-0.6c-0.4-0.4-0.4-0.9-1.3-1.3c-1.1-0.4,0.4-0.9-0.8-1.3c-1.9,0.2-3.8,0.6-5.1,0.8
	c-2.1,0-3.8,0-5.4,0c-0.2,0-0.6,0-0.9,0.2c-1.9,0.4-3.9,0.8-3.9,1.3c1.3,0.2,2.8,0.4,4.5,0.4c-0.4,0.8-3.9,1.3-3.7,2.1
	c-1.7,0.8-3.6,1.3-5.1,2.1c-0.8,0.2-1.5,0.2-2.1,0.4c-0.2,0-0.6,0-1.3,0c-0.6-0.4-1.1-0.6-1.7-0.9c-0.4-0.2-0.6-0.2-2.4,0.2
	c-0.2,0-0.4,0.2-0.6,0.2c-0.4,0.4-0.9,0.8-1.3,0.9c0.2,0.2,0.6,0.6,0.8,0.8c-0.9,0.4-1.9,0.6-2.8,0.9
	C332.7,698.6,333.6,699,335.1,699z M331.2,696.4c0,0,0.4,0,0.6,0c0,0,0.4-0.2,0.2-0.2c0,0-0.4,0-0.6-0.2
	C331.4,696.2,331,696.2,331.2,696.4C330.8,696.4,331,696.4,331.2,696.4z M322.9,695.8l0.6,0.2c0.2,0,0.6,0,0.6-0.2
	c0.2-0.2-0.2-0.2-0.8-0.2C322.9,695.6,322.9,695.6,322.9,695.8z M316,688.7C316,688.7,316,688.9,316,688.7c0.4,0.2,0.7,0.2,0.9,0.2
	c0.8,0,0.6-0.2-0.2-0.2C316.6,688.7,316.2,688.7,316,688.7z M315.2,696.4c-0.2,0.2,0.8,0.6,1.9,0.6c0.2,0,0.6,0,0.8,0
	c0.8-0.2,0.6-0.6-0.4-0.8C316.7,696.2,315.2,696.2,315.2,696.4z M307.2,691.9l0.2,0.2c0.2,0,0.6,0,0.6,0c0.2,0,0.2-0.2,0.2-0.2
	C307.9,691.7,307.6,691.7,307.2,691.9z M305.9,694.1c0.2,0.2,0.6,0.2,0.9,0.4c0.2,0,0.6,0,0.8,0c0.8,0,0.9-0.2,0.6-0.4
	c-0.4-0.2-0.9-0.2-1.5-0.2C306.4,693.9,306.1,693.9,305.9,694.1z M291.4,694.1c0.2,0.2,0.8,0.2,1.3,0.4c0.6,0,1.1,0,2.1,0
	c-1.7-0.8-1.9-1.3-0.4-2.1c-1.7,0.2-2.6,0.2-2.6,0.2C290.7,692.8,290.7,693.4,291.4,694.1z M288.2,690c0.2,0,0.4,0.2,0.8,0.2
	c0.8,0,1.3,0,1.7,0c0.4-0.2,0.2-0.2-0.4-0.4c-0.2,0-0.8,0-0.9,0C289,689.8,288.6,690,288.2,690z M284.9,695.1
	c-0.2,0.4-0.9,0.6-2.2,0.6c-0.6,0-0.9,0.2-1.3,0.4c0.4,0.2,0.8,0.2,0.9,0.4l4.1,0.8c1.3,0.2,2.8,0.4,4.1,0.6c0.6,0,0.9-0.2,1.5-0.2
	c-0.8-0.6-1.7-1.1-2.4-1.5C288.1,695.4,286.4,695.3,284.9,695.1z M283.7,694.5c-0.6,0-0.6,0.2-0.2,0.2c0.4,0.2,0.8,0.2,1.1,0.4
	c0-0.2,0-0.2,0-0.4c0,0-0.2-0.2-0.4-0.2C284.3,694.5,283.9,694.5,283.7,694.5z M279.8,692.4c0.2,0,0.4,0.2,0.6,0.2
	c0.2,0,0.6,0.2,0.8,0.2c1.5,0.2,2.8,0.2,2.6,0c0,0-0.2-0.2-0.6-0.2C281.9,692.3,280.7,692.3,279.8,692.4z M267.6,694.1
	c-0.4,0.4-0.9,0.6-1.5,0.9c0,0,0.4,0.2,0.9,0.4c1.5,0,3.4,0.4,4.9,0.2c0.2,0,0.6-0.2,0.8-0.2c0-0.2-0.2-0.2-0.4-0.4
	C271.6,694.3,270.1,694.1,267.6,694.1z M265.7,692.4c0.2,0.2,0.4,0.4,0.8,0.4c0.6,0.2,1.3,0.2,1.7,0.2c0.6,0,0-0.4-0.9-0.6
	C266.7,692.4,266.3,692.4,265.7,692.4z M249.2,662.4c0.2,0,0.2,0.2,0.4,0.2c0.2,0,0.6,0.2,0.8,0.2c0.4,0,0.4-0.2-0.4-0.4
	C249.6,662.4,249.4,662.4,249.2,662.4z M233.7,679.9c0.4,0.2,0.9,0.2,1.3,0.2c-0.2-0.2-0.4-0.4-0.8-0.6c-0.6-0.2-1.1-0.4-1.5-0.4
	C232.4,679.3,232.9,679.7,233.7,679.9z M144.2,643.3c0,0.2,0.2,0.2,0.2,0.4c0.2,0.2,0.6,0.4,0.8,0.4c0.6,0.2,0.4,0-0.4-0.4
	C144.6,643.5,144.4,643.3,144.2,643.3z M143.1,644.3c0,0.2,0.6,0.6,0.8,0.8c0.4,0.2,1.1,0.6,1.3,0.6c0.4,0.2,0.2-0.2-0.4-0.6
	C144.1,644.4,142.9,644.1,143.1,644.3z M127,632.1c-0.4,0.2,0.2,0.6,1.1,1.3c0.2,0.2,0.6,0.4,0.6,0.4c0.2,0-0.4-0.8-1.1-1.3
	C127.4,632.3,127,632.1,127,632.1z M99.6,607.5c0.6,0.9,1.3,1.9,2.6,3c0.9,0.6,0.9,0-0.4-1.5C100.7,608.1,100,607.3,99.6,607.5z
	 M50.1,530.6c0,0.2,0,0.2,0,0.4c0.2,0.2,0.4,0.6,0.4,0.8c0.4,0.4,0.4,0.2,0-0.6C50.5,531,50.3,530.8,50.1,530.6z M35.3,495.6
	c0,0,0,0.2,0,0.4c0,0.2,0.2,0.6,0.2,0.8c0.4,0.8,0.8,1.3,1.1,1.9c0.2,0.2,0.2,0.2,0.2,0c0-0.2-0.2-0.4-0.2-0.6
	C36.2,496.5,35.9,495.8,35.3,495.6z M21.1,390c0,0.2,0,0.9,0,1.3c0,0.9,0.4,1.5,0.6,1.1c0-0.2,0.2-0.9,0-1.3
	C21.4,390.2,21.1,389.4,21.1,390z M5.7,383.1c0,0.6,0,0.9,0.2,0.9c0,0,0-0.2,0.2-0.4C5.9,383.4,5.9,383.1,5.7,383.1
	C5.7,382.9,5.7,382.9,5.7,383.1z M3.4,344.4c0,0,0,0.4,0,0.6s0,0.4,0.2,0.2l0.2-0.4C3.6,344.6,3.6,344.4,3.4,344.4
	C3.4,344.3,3.4,344.3,3.4,344.4z M9.4,320.3c-0.2,0.4-0.6,1.5-0.6,2.3c0,0.6,0,1.1,0,1.5c0.2,1.1,0.6,1.1,1.1,0.8
	c0.2-0.6,0.4-1.3,0.6-1.9c0-2.6,0-2.8-0.2-3.2C10,319.3,9.6,319.7,9.4,320.3z M14.9,297c0.2-1.7,0.6-3.6,0.6-5.1
	c-0.7,1.5-1.5,2.3-2.1,5.3c0,1.3,0.2,1.5,0.8,1.1C14.3,298.1,14.5,297.6,14.9,297z M23.3,291.9c-0.2,0.2-0.4,0.4-0.6,0.8
	c-0.2,0.6-0.4,1.1-0.4,1.5c0,0.4,0.6-0.2,0.8-0.9C23.1,292.7,23.1,292.3,23.3,291.9z M17.5,290.4c0,1.5-0.2,3-0.2,4.3
	c0.6-0.8,0.6-0.8,0.7-1.5c0.4-1.7,0.8-3.4,0.8-4.7c0-0.2,0-0.2-0.2-0.4C18.2,288.2,18.2,288.2,17.5,290.4z M31.2,266.8
	c-0.2,0.2-0.4,0.2-0.6,0.6c-0.2,0.4-0.4,0.9-0.6,1.5c0,0.2,0,0.4,0,0.6c0,0.6,0.4,0.4,0.6-0.2c0.2-0.4,0.6-1.5,0.6-2.1
	C31.2,267,31.2,266.8,31.2,266.8z M52.4,221.3c-2.1,3-2.4,3.2-3.7,6.7c0,0.6,0,0.9,0.7,0c0.9-1.9,1.9-3.8,2.8-5.6
	C52.6,221.6,52.7,221.1,52.4,221.3z M49.9,217.5c0.9-1.3,1.5-2.8,1.7-3.8c-0.9,0.8-2.1,1.9-3.4,3.9c-0.7,1.5-1.3,2.6-0.9,2.8
	C48.1,219.9,49,219,49.9,217.5z M52.6,215.1c-1.1,2.6-0.9,3.4-0.7,4.3c0.6-0.8,1.1-1.3,1.5-2.1c1.1-1.9,1.5-3.2,1.7-4.1
	C54.6,212.8,54.2,212.8,52.6,215.1z M61.4,198.4c0.2-0.2,0.4-0.2,0.8-0.6c0.4-0.4,0.8-0.9,0.8-1.3c0.2-0.4-0.6,0-0.9,0.8
	C61.7,197.6,61.6,198,61.4,198.4z M76.4,207.6c-0.4,0.2-0.8,0.4-1.1,0.8c-0.2,0-0.4,0.4-0.6,0.6c-0.4,0.6-0.4,0.9-0.4,0.9
	c0.2,0,0.2,0.2,0.4,0c0.2-0.2,0.6-0.8,0.9-1.1C76.2,208.5,76.2,207.9,76.4,207.6z M72.1,195.6c-1.1,0.9-2.3,2.1-3.4,3.2
	c-0.4,0.6-0.7,1.1-1.3,2.1c0.8,0.6,1.3,0.9,2.1,1.3c0,0,0.2-0.2,0.6-0.2c0.4-0.4,0.8-0.8,1.3-1.1c0.2-0.4,0.4-0.9,0.4-0.9
	c-0.4-0.2-0.8,0-1.1-0.2c0,0,0-0.2,0-0.4C71.7,196.9,71.7,196.9,72.1,195.6z M81.4,198.6c-0.6,0.8-1.1,1.3-1.5,1.9
	c-0.4,0.6-0.6,0.9-0.4,0.9c0,0,0.2,0,0.4-0.2c0.6-0.6,1.1-1.1,1.3-1.7C81.4,199.1,81.4,198.9,81.4,198.6z"/>
<path class="st0" d="M136.5,136.9c-0.6,1.3-2.3,2.6-4.5,4.3c-0.6,0.4-0.9,0.8-1.5,0.9c-0.9,0.8-2.1,1.7-3.2,2.6
	c-1.3,1.1-2.6,2.4-3.9,3.4c-0.4,0.6-0.8,0.9-0.9,1.3c-0.2,0.8,0,1.1,1.5,0.8c1.3-0.9,2.4-1.9,3.6-2.8c1.1-0.8,1.7-0.8,1.1,0.2
	c-0.8,0.9-1.9,2.1-3,3.4c-0.9,0.9-2.1,2.1-3.4,3.2c-1.3,1.7-2.6,3.6-3.9,5.6c-0.9,0.9-1.9,2.3-3,3.6c-0.8,0.6-1.3,1.1-1.9,1.5
	c-1.1,0.8-2.3,1.5-3.2,2.1c-0.2,0-0.6,0.2-0.6-0.2c0.4-1.1-0.6-1.1-0.4-2.1c0.4-1.5,2.4-3.8,3.6-5.6c-0.6,0-0.9,0.2-1.7,0.2
	c0-0.4,0-0.8,0-1.1c-0.8,0-2.6,1.7-2.4,0c0,0,0.4-0.9,0.8-1.9c1.1-1.3,2.1-2.8,3.2-4.1c0.4-0.8,0.6-1.5,0.9-2.3
	c1.7-2.1,3.9-3.8,6.4-5.8c0.6-0.4,1.5-0.9,1.9-1.1c0.4-0.2,0.6-0.2,0.8-0.2c0.4,0,0.8,0.2,1.1,0.2c0.8-0.2,1.5-0.6,2.8-1.7
	c1.5-1.3,2.1-2.3,3.9-3.9c0.2-0.2,0.9-0.6,1.3-0.6c0.4,0,0,0.6-0.6,1.1c-0.2,0.2-0.2,0.4-0.6,0.6c-1.3,1.3-2.8,2.6-3.6,3.6
	c-2.4,2.1-3.6,2.4-5.3,3.8c-1.1,1.1-1.7,1.9-2.1,2.6c-0.2,0.6,1.3-0.6,1.7-0.6c0.6-0.2,1.1-0.2,1.7-0.4c1.7-1.3,3.6-2.6,4.9-3.8
	c1.5-1.5,2.1-2.3,3-3.2c0.9-0.9,2.1-1.9,3.4-2.6C135.8,136.7,136.5,136.5,136.5,136.9z M120.8,152.6c-0.9,0.4-1.9,0.8-3.4,2.3
	c-1.3,1.7-2.1,2.8-2.8,4.1c-0.6,1.1-0.2,1.3,0.4,1.3c1.3-0.9,1.9-1.3,2.3-1.9c0.2-0.2,0.4-0.4,0.4-0.6c0.6-1.3,1.9-3,3.2-4.7
	C120.9,152.8,120.8,152.6,120.8,152.6z M117.6,148.5c-0.2,0-0.6,0.4-0.9,0.4c-0.4,0.4-0.8,0.8-0.9,1.1c-0.2,0.4,0.2,0.2,0.6-0.2
	C117,149.3,117.8,148.5,117.6,148.5z"/>
<path class="st0" d="M161.2,116.4c2.2-1.7,2.4-2.4,3-3.2c-0.8-0.2-1.3-0.4-2.1-0.6c-3.4,1.1-3.2,1.1-6.4,1.5
	c-1.9,0.9-3.2,2.4-5.8,3.8c-0.6,0.2-1.3,0.6-2.1,0.8c-0.8,0.4-1.5,0.6-2.2,0.9c-0.2,0-0.2,0-0.4,0v-0.2c0-0.2,0.2-0.4,0.2-0.6
	c0.2-0.6-0.4-0.4-1.5,0.2c-0.6,0.4-1.5,1.3-1.7,1.5c-0.6,1.3-1.1,2.4-1.9,3.8h0.2c0.4-0.2,0.8-0.2,1.1-0.4c3.8-2.4,6.4-3.6,10.3-5.6
	c1.5-0.9,2.8-1.3,3.6-1.3c0,0.4-0.4,0.7-0.2,1.1c0,0.2,0.4,0.4,0.4,0.6c1.3-0.2,2.6-0.8,4.5-1.7
	C160.7,116.8,161.1,116.6,161.2,116.4z"/>
<path class="st0" d="M109.5,169.3c-1.7,1.5-2.6,1.7-4.3,3.4c-1.3,1.5-1.1,2.1-2.1,3.6c-0.8,0.9-1.1,2.1-2.6,3.6
	c-1.9,1.5-0.7-0.8-1.1-0.9l-0.9,0.6c-0.9,0.9-1.5,1.7-1.9,2.6c-0.2,0.8-0.2,1.5-0.4,2.4c0.8-0.4,1.5-0.6,2.2-1.1
	c0.4-0.2,0.9-0.9,1.5-1.3c0.8-0.9,1.3-1.9,1.7-2.6c1.9-2.1,3.9-4.1,5.8-6c1.9-2.1,3.7-4.1,5.6-6c0.2-0.2,0.4-0.4,0.6-0.6
	c0.4-0.4,0.6-0.8,0.4-0.8C113.1,165.8,111.4,167.6,109.5,169.3z"/>
<path class="st0" d="M138,120.8c1.3-1.1,3.4-2.8,5.2-4.5c0.4-0.4,0.6-0.6,0.9-1.1c-0.2-0.4-0.4-0.6-0.6-0.9
	c-0.8,0.4-1.3,0.8-1.9,1.1c-1.5,1.5,0,1.1-1.7,2.8c-0.6,0.4-1.3,0.9-2.1,1.3c-1.1,0.6-2.1,1.3-3.4,2.3c-1.7,1.5-3.4,3.4-5.2,5.2
	c-0.2,0.2-0.2,0.4-0.6,0.6c-0.6,1.3,0,1.5,0.9,1.7c0.4,0,1.1-0.6,3-2.1c0.4-0.8,0.9-1.7,1.9-2.8C135.4,123.4,136.5,122.3,138,120.8z
	"/>
<path class="st0" d="M176.8,100.3c-0.6,0-1.1,0.2-1.9,0.4c-0.8,0.2-1.5,0.6-2.4,1.3c-0.2,0.4,0,0.9-0.4,1.5
	c-0.4,0.8-1.1,1.7-1.7,2.4c-0.2,0.2,0,0.4-0.2,0.6c0,0.4,1.1,0,2.4-0.8c0.9-0.8,2.1-1.5,3-2.1c1.1-1.1,2.3-2.3,3.2-3.2
	c0.2-0.2,0-0.2-0.2-0.2C178.1,100.1,177.6,100.1,176.8,100.3z"/>
<path class="st0" d="M526.3,654c0.6-0.2,0.9-0.4,1.5-0.8c0.8-0.4,1.5-0.9,2.4-1.5c2.1-1.5,4.3-3,6.4-4.5c1.1-1.1,1.3-1.5,0.9-1.5
	c-0.4,0-1.1,0.4-2.3,0.9c-1.3,0.9-2.8,1.9-3.9,2.8c-1.3,0.7-2.4,1.5-3.6,2.2C525.2,653.6,525,654.4,526.3,654z"/>
<path class="st0" d="M127.9,132c-1.3,1.3-2.1,2.2-1.7,2.6c0.2,0.4,0.6,0.8,0.9,0.9c1.1-0.4,2.4-1.3,3.6-2.2c0.9-0.8,1.7-1.5,1.7-1.9
	c-0.4,0-0.9,0-1.1,0c0.2-0.6,0.2-0.9,0.4-1.3C130.7,130.1,129.7,130.5,127.9,132z"/>
<path class="st0" d="M246.7,75.8c-1.3,0.4-2.6,0.7-3.7,1.1c-1.3,0.4-2.4,0.9-3.6,1.3c-1.3,0.6-2.3,0.9-1.5,1.3
	c1.5-0.2,3.2-0.4,5.4-0.9c1.7-0.6,2.3-1.1,3.4-1.7c0.8-0.2,1.5-0.4,2.6-0.8c0-0.2,0-0.4-0.4-0.6C248.4,75.6,247.5,75.8,246.7,75.8z"
	/>
<path class="st0" d="M195.9,91.5c-0.4,0.2-0.6,0.4-1.1,0.9c3-1.3,3-0.4,5.8-1.3c1.1-0.6,2.1-1.1,2.1-1.3c-0.2-0.6,1.7-1.7,2.2-2.4
	c-0.4,0.2-0.9,0.2-1.3,0.4c-1.5,0.6-2.8,1.1-4.1,1.9C198.4,90,197.2,90.8,195.9,91.5z"/>
<path class="st0" d="M643.7,556.3c-0.6,0.9-0.6,1.5,0,0.9c0.6-0.6,1.1-1.1,1.5-1.5c0.8-0.6,0.8,0.4,2.1-1.1c0.4-0.6,0.7-1.5,0.9-1.7
	c0.9-2.4,0.9-4.1-0.2-3.4c-0.4,0.4-0.6,0.8-1.1,1.3C645.7,552.6,644.8,554.4,643.7,556.3z"/>
<path class="st0" d="M186,677.1c-0.8-0.4-1.3-0.4-2.1-0.4c0.2,0.2,0.2,0.2,0.4,0.4c0.4,0.2,0.8,0.6,1.1,0.8c3.4,1.7,5.1,2.3,6.4,2.8
	c1.3,0.6,2.1,0.8,3.8,1.1c0-0.2,0.2-0.4,0.2-0.6c-0.4-0.2-0.6-0.4-0.8-0.4C192.2,679.5,189,678.4,186,677.1z"/>
<path class="st0" d="M142.1,126.4c0.2-0.2,0.2-0.4,0.2-0.6c-0.8,0-1.9,0.6-3.9,2.1c-1.1,0.9-2.3,2.3-2.6,3.2
	c0.2,0.2,0.2,0.4,0.4,0.4c0.9-0.6,1.7-0.9,2.3-1.5c0.8-0.4,1.1-0.9,1.7-1.3C140.8,127.9,141.4,127.1,142.1,126.4z"/>
<path class="st0" d="M552.2,645.6c-0.8,0.6-1.5,1.3-2.1,1.9c-1.7,1.7-2.6,2.8-3.6,3.9c-0.4,0.6-0.6,0.9,0.2,0.6
	c0.4-0.2,0.9-0.6,1.5-1.1c0.8-0.8,1.3-1.7,2.4-2.8c2.1-1.5,3.6-2.4,5.1-3.6c1.5-1.7,1.7-1.9,0.8-1.5
	C555.4,643.3,554.1,644.3,552.2,645.6z"/>
<path class="st0" d="M162.4,107.4c-0.2,0.6-0.2,1.1,0.7,1.1c0.4,0,1.1-0.4,2.4-1.1c0.8-0.9,2.1-2.4,2.1-3
	C165,105,164.4,105.4,162.4,107.4z"/>
<path class="st0" d="M96.7,156.8c1.5-2.1,1.7-2.8,1.7-3.6c-1.5,0.7-3.2,2.6-4.9,4.5c-0.2,0.4-0.4,0.8-0.7,1.3
	C93.9,158.4,94.7,158.6,96.7,156.8z"/>
<path class="st0" d="M498.4,660.4c-1.9,1.5-3.2,2.6-3.9,3.6c0,0.6,1.5,0.2,3.9-1.5c2.8-2.2,2.8-2.8,1.9-3
	C499.9,659.8,499.1,660,498.4,660.4z"/>
<path class="st0" d="M660.6,527.6c-0.8,0.6-1.3,1.1-2.4,1.7c-1.1,2.6-1.7,4.7-2.6,6.6c0.6-0.2,1.3-0.8,2.2-2.1
	C658.9,532.1,660,529.9,660.6,527.6z"/>
<path class="st0" d="M220.1,684c-2.3-0.2-3.7-0.2-3,0.9c0.6,0.2,1.3,0.6,2.1,0.9c1.1,0.2,2.1,0.4,3,0.4c0.2-0.6,1.3-0.8-0.4-1.7
	C221.4,684.6,220.9,684.2,220.1,684z"/>
<path class="st0" d="M519.6,666.8c-1.3,1.3-0.2,1.3-2.8,3.2c-0.9,0.6-2.3,1.3-3.4,2.1c-1.3,0.8-2.1,1.5-1.9,1.9
	c2.8-1.5,5.4-3.4,8.4-5.4c1.3-1.5,2.1-2.4,2.1-2.8C521.1,665.8,521.1,665.8,519.6,666.8z"/>
<path class="st0" d="M311.1,703.7c-2.3-0.4-4.5-0.6-6.6-0.9c-1.7,0.4-1.5,0.8,0.4,1.3c2.1,0.2,4.3,0.4,6.4,0.6
	c0.6,0,1.3-0.2,1.5-0.2c0.2-0.2,0-0.2-0.4-0.4C312,703.9,311.6,703.9,311.1,703.7z"/>
<path class="st0" d="M378.6,698.6c0,0.2,0,0.4,0.2,0.6c1.3,0,2.8,0,4.5-0.6c1.5-0.8,3.2-1.3,3.9-2.1c-0.8,0-1.3,0.2-2.3,0
	C382.7,697.1,380.6,697.9,378.6,698.6z"/>
<path class="st0" d="M464.6,674.1c-2.1,0.6-4.3,1.3-6.7,2.3c-1.5,0.6-3,1.3-4.3,2.3c0,0.2-0.2,0.4-0.4,1.1c4.1-2.4,7.5-3.8,10.7-4.9
	c0.6-0.2,1.1-0.6,1.1-0.8C465,673.9,464.8,673.9,464.6,674.1z"/>
<path class="st0" d="M235.7,75.9c0-0.2-0.6,0-1.3,0.2c-0.2,0-0.6,0.2-0.8,0.4c-0.8,0.6-1.5,1.1-2.4,1.7c1.1,0.2,2.4,0.2,5.2-0.6
	c0.4-0.4,0.9-0.6,0.9-0.6C237,76.5,235.9,76.3,235.7,75.9z"/>
<path class="st0" d="M542.8,660.9c-0.6-0.2-1.5,0.4-2.4,1.3c-0.6,0.6-0.9,0.9-1.3,1.5c1.1-0.6,2.2-0.9,3.4-1.3
	c1.1-0.8,2.1-1.5,3.2-2.3c0.6-0.4,0.9-0.9,1.1-1.1C546.2,659.3,544.7,660,542.8,660.9z"/>
<path class="st0" d="M263.8,698.6c-0.2,0-0.2,0.2,0,0.4c0.8,0.4,1.7,0.9,3.9,1.1c2.1-0.2,1.9-0.8,0.8-1.5
	C266.1,698.3,264.7,698.4,263.8,698.6z"/>
<path class="st0" d="M236.6,691.7c-0.9,0.2-1.7,0.4-2.6,0.6c-0.2,0,0,0.2,0.2,0.2c0.6,0.4,1.5,0.8,2.4,0.8c0.9,0,1.9,0,2.4,0
	c0.4-0.6,0.4-0.6-0.8-1.3C237.6,691.9,236.8,691.7,236.6,691.7z"/>
<path class="st0" d="M133.9,140.6c-1.5,1.3-2.4,2.4-2.2,3c0.4,0,1.1-0.4,2.2-1.1c1.1-0.9,1.5-1.7,1.5-2.1c0-0.2-0.2-0.4-0.4-0.4
	C134.8,140.1,134.3,140.3,133.9,140.6z"/>
<path class="st0" d="M162,117.4c-0.6,0.4-0.9,0.8-0.9,1.1c0,0.2,0.8-0.2,1.9-0.8c1.3-1.1,2.8-2.1,4.3-3c-0.2,0-0.4-0.2-0.6-0.2
	C164.6,115.3,163.1,116.3,162,117.4z"/>
<path class="st0" d="M544.1,656.1c0.4,0,0.4,0,0.9-0.2c1.3-0.6,3-1.9,4.9-3c0.2-0.2,0.4-0.4,0.6-0.6c0.2-0.2,0.2-0.4,0-0.2
	c-0.8,0.2-1.7,0.4-3.2,1.3C546,654.2,544.9,655.1,544.1,656.1z"/>
<path class="st0" d="M179.6,671.1c3.4,1.9,5.1,2.6,6.2,2.1C182.6,671.3,180.7,670.7,179.6,671.1z"/>
<path class="st0" d="M406.1,687c0.2-0.2-0.2-0.4-1.3,0c-1.9,0.8-2.8,1.3-3.6,1.9c-0.2,0.2-0.4,0.4-0.2,0.4c0,0.2,0.4,0.2,0.8,0.2
	c0.4,0,1.1-0.2,1.7-0.4C405,688.1,405.9,687.4,406.1,687z"/>
<path class="st0" d="M520.1,681.2c-0.2,0.2-0.6,0.4-1.1,0.6c-0.6,0.6-1.1,0.9-2.3,1.9c2.8-1.1,4.5-1.7,8.2-4.1
	c-1.5,0.6-2.8,0.9-4.1,1.5C520.7,681,520.3,681,520.1,681.2z"/>
<path class="st0" d="M153.2,110.6c0.4-0.4,0.9-0.7,1.3-0.9c1.7-1.5,0.9-1.7-1.7-0.2c-2.1,2.1-2.1,2.1-0.2,1.7
	C152.8,111,153,110.8,153.2,110.6z"/>
<path class="st0" d="M561.6,644.3c-0.2-0.2-0.2-0.2-0.4-0.4c-1.7,0.9-3,2.1-4.1,3.8c0.2,0.2,0.2,0.2,0.4,0.4
	C558.9,647.1,560.2,645.8,561.6,644.3z"/>
<path class="st0" d="M64.9,187.7c0.9-1.7,1.9-3.4,1.5-3.9c-0.6,0.8-1.1,1.3-1.5,2.1c-0.9,1.5-1.7,3-2.2,4.1
	C63.2,189.9,63.9,189.2,64.9,187.7z"/>
<path class="st0" d="M465.9,676.1c2.6-0.8,2.6-0.8,4.7-2.3c-0.2-0.4,0.4-1.1-1.1-0.9C467.8,674.3,467.2,675,465.9,676.1z"/>
<path class="st0" d="M557.6,644.3c-1.3,0.9-1.3,0.9-3,2.4c-1.3,1.5-1.1,1.9,0.2,1.3c0.6-0.4,0.9-0.7,1.5-1.1
	C557.8,645.2,557.2,645,557.6,644.3z"/>
<path class="st0" d="M256.9,697.3c-0.4,0-0.6,0-0.8,0c-0.8,0-0.9,0.2-0.6,0.4c0.4,0.4,0.9,0.8,2.6,1.5c1.1-0.4,1.3-0.8,0.4-1.5
	C258.2,697.5,257.6,697.3,256.9,697.3z"/>
<path class="st0" d="M274.9,65.1c0.6,0.6,0.6,0.6,3.8,0.4c1.1-0.4,1.5-0.8,0.2-0.9C277.5,64.3,276,64.7,274.9,65.1z"/>
<path class="st0" d="M142.9,134.4c0.6-0.2,0.9-0.4,1.5-0.6c0.9-0.6,1.7-1.1,2.3-1.7c0-0.4,0-0.6-1.1,0
	C143.4,133.5,143.4,133.5,142.9,134.4z"/>
<path class="st0" d="M153.9,122.8c-1.3,1.5-0.7,1.3,2.3-0.4c1.3-1.3,1.3-1.3-0.4-0.9C155.2,121.9,154.5,122.4,153.9,122.8z"/>
<path class="st0" d="M107.8,143.6c-1.3,0.8-1.3,0.8-2.8,2.1c-0.9,1.5-0.7,1.9,0.9,0.9C106.7,145.5,107.6,144.2,107.8,143.6z"/>
<path class="st0" d="M473.4,670.5c-0.8,0.6-0.9,0.9-0.4,0.8c1.1-0.4,2.3-0.8,4.1-1.7c0.4-0.4,0.8-0.8,1.1-1.3
	C476.2,669,474.7,669.8,473.4,670.5z"/>
<path class="st0" d="M277.3,68.3c-0.6,0.2-1.3,0.4-1.9,0.6c-0.9,0.4,0.2,0.9,1.7,0.8c1.3-0.2,2.8-0.8,2.4-0.9
	C279.6,68.3,278.8,68.1,277.3,68.3z"/>
<path class="st0" d="M209.2,682.3c-0.8-0.2-1.3-0.2-1.9-0.2c0.4,0.4,0.9,0.9,2.8,1.5c1.1,0.2,3,0.6,3.4,0.2
	C212.4,683.3,210.7,682.7,209.2,682.3z"/>
<path class="st0" d="M126.7,138.6c1.1-0.8,2.1-1.9,3.4-2.6c0.4-0.2,0.6-0.4,0.8-0.6c0.6-0.4,0.8-0.8,0.8-0.9c0,0-0.2,0-0.4,0.2
	c-1.7,0.8-3.2,2.1-4.9,3.6c-0.4,0.4-0.6,0.8-0.6,0.8C126,139.1,126.4,138.9,126.7,138.6z"/>
<path class="st0" d="M151.7,655.1c-2.4-0.9-2.8-0.8-1.5,0.4c0.6,0.6,1.3,0.9,2.1,1.3c0.4,0.2,0.8,0.2,1.1,0.2
	C153,656.4,153,656.1,151.7,655.1z"/>
<path class="st0" d="M423,689.3c-0.9,0.2-1.7,0.6-2.3,0.9c0,0.4,0.9,0.4,2.4,0c0.9-0.2,1.7-0.6,2.2-0.9
	C424.5,688.9,424.5,688.9,423,689.3z"/>
<path class="st0" d="M477.9,671.3c-0.8,0.8-1.1,1.3-1.7,1.7c-0.2,0.2-0.4,0.4-0.2,0.4c0.2,0,0.2,0.2,0.6,0c0.4-0.2,0.9-0.6,1.5-0.7
	c1.1-0.9,1.5-1.7,0.9-1.9C479.2,670.7,478.7,670.9,477.9,671.3z"/>
<path class="st0" d="M178.1,110.1c-1.3,0.8-1.9,1.3-2.1,1.9c0.6-0.2,0.9-0.2,1.5-0.6c0.9-0.4,2.1-0.9,2.3-1.3
	C180,109.7,179.6,109.5,178.1,110.1z"/>
<path class="st0" d="M209.3,84.2c-0.6,0.2-1.1,0.4-1.5,0.8c-0.6,0.4-0.8,0.6-1.1,0.9c0.8,0.2,1.9-0.2,3.4-0.9
	c0.8-0.6,0.9-0.8,0.6-0.9C210.2,84,209.6,84,209.3,84.2z"/>
<path class="st0" d="M530.4,676.5c-0.8,0.6-1.3,0.9-1.3,1.1c0,0,0,0.2,0.2,0c0.9-0.2,2.1-0.8,3.7-2.1c1.1-0.9,1.1-1.3,0.4-1.3
	C532.3,675.2,531.4,675.9,530.4,676.5z"/>
<path class="st0" d="M154.7,125.1c-0.2,0.2,0,0.2-0.2,0.4c0.4,0,1.1-0.2,2.3-0.8c0.4-0.2,0.9-0.6,1.1-0.9c0.6-0.6,0.2-0.6-0.9-0.2
	C156.2,123.8,155.2,124.5,154.7,125.1z"/>
<path class="st0" d="M125.1,152.6c-0.2,0.2-0.4,0.4-0.9,0.8c0,0.2-0.4,0.8-0.2,0.9c0,0.2,0.8-0.2,1.3-0.8c0.8-0.6,1.1-1.1,0.9-1.3
	C126.2,152.1,125.8,152.1,125.1,152.6z"/>
<path class="st0" d="M530.2,647.8c-0.4,0.2-1.1,0.6-1.5,0.9c-0.4,0.4-0.8,0.8-0.6,0.9c0.2,0.2,1.1,0,2.6-0.9
	C531.2,647.6,531.2,647.4,530.2,647.8z"/>
<path class="st0" d="M224.2,689.8c-0.8,0-1.1,0-1.7,0c0.2,0.2,0.2,0.2,0.4,0.4c0.4,0.2,0.9,0.4,1.3,0.6c1.1,0.4,2.3,0.6,2.6,0.4
	c0.2,0,0-0.2-0.2-0.4C226.1,690.2,225,689.8,224.2,689.8z"/>
<path class="st0" d="M685.7,458.8c-0.2,0.4-0.6,1.3-0.9,2.4c-0.2,1.1-0.4,2.1-0.4,2.6c0,0.4,0.6-0.6,0.8-1.9
	c0.2-0.7,0.4-1.5,0.4-2.1C685.9,459,685.9,458.6,685.7,458.8z"/>
<path class="st0" d="M275.2,66.6c-0.4-0.2-1.5,0-2.2,0.2c-0.6,0.2-1.1,0.4-1.7,0.8c0.8,0,1.3,0.2,2.1,0c0.9,0,2.1-0.4,2.4-0.8
	C275.8,66.8,275.6,66.6,275.2,66.6z"/>
<path class="st0" d="M569.1,608.8c2.1-2.3,2.1-2.4,0.4-1.7c-0.6,0.6-1.3,1.3-1.9,1.9C567.7,609.4,567.7,609.9,569.1,608.8z"/>
<path class="st0" d="M333.2,701.1c-0.9,0-1.9,0-2.3,0.4c0.8,0.4,2.6,0.4,4.7,0.4c0.2,0,0.6-0.2,0.8-0.2c0.2,0,0-0.2,0-0.2
	C335.6,701.1,334.5,701.1,333.2,701.1z"/>
<path class="st0" d="M166.1,667.1c-0.6-0.2-1.3-0.4-1.9-0.6c1.3,1.1,2.6,2.1,5.1,3C168.9,669,167.6,668.3,166.1,667.1z"/>
<path class="st0" d="M499.3,675c-0.9,0.8-0.8,0.9,0.2,0.8c0.4,0,1.1-0.6,1.5-0.8c0.4-0.2,0.8-0.8,0.8-0.8
	C501.6,673.9,500.6,674.3,499.3,675z"/>
<path class="st0" d="M509.2,656.3c-0.8,0.4-1.3,0.8-1.3,1.1c0,0.2,0.2,0.2,0.6,0c0.4-0.2,1.1-0.6,1.5-0.9c0.6-0.4,1.1-0.9,1.3-1.1
	c0.2-0.2-0.2-0.2-0.6,0C510.4,655.7,509.8,656.1,509.2,656.3z"/>
<path class="st0" d="M183.6,96.8c-0.2,0-0.6,0.4-0.6,0.4c-0.6,0.6-0.8,0.8-0.4,0.8c0.2,0,0.6,0,1.1-0.4c0.8-0.6,1.1-0.9,1.3-1.1
	c0,0,0-0.2-0.2-0.2C184.5,96.4,184.1,96.4,183.6,96.8z"/>
<path class="st0" d="M539.8,665.1c0.2,0.4,0.8,0.2,2.6-1.3c0.9-0.9,0.2-0.9,0-1.3C541.3,663.4,540.2,664.3,539.8,665.1z"/>
<path class="st0" d="M176.2,672.8c-0.6-0.4-1.1-0.6-1.5-0.6c-0.2,0-0.2,0-0.2,0.2c0.6,0.4,1.3,0.8,2.1,1.1c0.6,0.2,1.1,0.4,1.7,0.6
	c-0.2-0.2-0.2-0.4-0.4-0.6C177.4,673.3,176.8,672.9,176.2,672.8z"/>
<path class="st0" d="M531.6,673.9c2.3-1.9,1.3-1.9,0-1.5C530.4,674.4,530.4,674.4,531.6,673.9z"/>
<path class="st0" d="M390.4,696.6c-0.6,0.2-1.1,0.6-1.5,0.8c-0.4,0.2,0.8,0.2,1.5,0c0.6-0.2,1.1-0.4,1.3-0.6
	c0.4-0.2,0.4-0.4-0.4-0.4C391.1,696.4,390.7,696.6,390.4,696.6z"/>
<path class="st0" d="M177,668.8c0-0.2-0.6-0.8-1.9-1.5c-0.4,0-0.8-0.2-0.8,0c-0.2,0,0,0.4,0.4,0.6c0.4,0.2,0.9,0.8,1.3,0.9
	C176.4,668.8,177,669,177,668.8z"/>
<path class="st0" d="M208.9,687c-0.4-0.2-0.9-0.2-1.1-0.2c-0.4,0-0.9-0.2-0.9,0c0,0,0.6,0.4,1.1,0.6c0.9,0.4,1.9,0.6,2.8,0.9
	c0.8,0.2,1.1,0.4,0.9,0C210.9,687.8,209.8,687.4,208.9,687z"/>
<path class="st0" d="M642.4,562.1c-0.4,0.8-0.6,1.1-0.2,0.9c0.6-0.4,1.1-0.8,2.1-2.1c0.6-1.9-0.2-1.1-1.3,0.2
	C642.7,561.6,642.6,561.9,642.4,562.1z"/>
<path class="st0" d="M338.4,703.3c-0.6,0-0.9,0.2-1.3,0.4c-0.4,0.2,0.4,0.4,1.7,0.2c0.6,0,1.3-0.2,1.7-0.2c0.2,0-0.2-0.2-0.6-0.2
	C339.6,703.3,338.8,703.3,338.4,703.3z"/>
<path class="st0" d="M348.7,702.6c-0.4,0.2,0.4,0.4,1.1,0.4c0.6,0,0.9-0.2,1.3-0.4c-0.4,0-0.6-0.2-0.9-0.2
	C349.7,702.4,349.1,702.4,348.7,702.6z"/>
<path class="st0" d="M72.6,187.9c0.6-0.6,1.1-1.5,0.9-1.5s-0.6,0.4-0.8,0.6c-0.2,0.4-0.6,0.9-0.8,1.1
	C72,188.4,72.2,188.3,72.6,187.9z"/>
<path class="st0" d="M184.3,95.4c0.2-0.4-0.4-0.2-1.1,0.2c-0.4,0.2-0.8,0.6-0.9,0.8c0.2,0,0.6,0,0.9-0.2
	C183.6,96,184.1,95.6,184.3,95.4z"/>
<path class="st0" d="M688.1,442.9c0-0.6-0.6,0.6-0.6,1.5c0,0.6,0,0.9,0,1.3c0.2-0.4,0.4-0.8,0.4-1.1
	C687.9,444,688.1,443.3,688.1,442.9z"/>
<path class="st0" d="M100.3,165c0.6-0.6,1.3-1.5,1.1-1.5c-0.2,0-0.6,0.4-0.9,0.6c-0.4,0.4-0.8,0.9-0.8,1.1
	C99.6,165.6,99.7,165.4,100.3,165z"/>
<path class="st0" d="M177,104.1c-0.4,0.2-0.6,0.6-0.9,0.8c0.2,0,0.6,0,0.9-0.2c0.6-0.2,1.1-0.6,1.3-0.8
	C178.5,103.5,177.8,103.7,177,104.1z"/>
<path class="st0" d="M317.6,70.1c-0.4,0-0.7,0.2-1.1,0.2c0.2,0,0.4,0.2,0.8,0.2c0.6,0,1.1,0,1.5-0.2
	C318.9,70.3,318.4,70.1,317.6,70.1z"/>
<path class="st0" d="M662.2,532.3c-0.4,0.6-0.7,1.3-0.7,1.7c0,0.4,0,0.6,0.2,0.4c0.4-0.4,0.9-1.3,1.3-1.9c0.4-0.9,0.4-1.5,0.2-1.1
	C662.8,531.6,662.6,531.9,662.2,532.3z"/>
<path class="st0" d="M345.9,711.2c-0.8,0.2-0.8,0.4,0.4,0.4c0.4,0,1.3,0,1.7,0c0.4-0.2,0.6-0.2,0.6-0.4c0-0.2-0.6-0.2-0.7-0.4
	C347.2,711.2,346.5,711.2,345.9,711.2z"/>
<path class="st0" d="M118.3,162.6c0,0,0.2,0,0.4-0.2c0.9-0.7,2.1-2.1,1.9-2.2c-0.2,0.2-0.4,0.2-0.6,0.4
	C118.9,161.4,118.5,162,118.3,162.6z"/>
<path class="st0" d="M516.6,666.6c-0.2,0.4,0.2,0.2,0.9-0.2c0.2-0.2,0.6-0.4,0.8-0.6c1.1-0.9,0.9-1.1,0.9-1.5
	C518.1,665.1,516.9,666,516.6,666.6z"/>
<path class="st0" d="M519.2,664.3C519.4,664.1,519.4,664.1,519.2,664.3L519.2,664.3z"/>
<path class="st0" d="M103.7,171.4c-0.2,0.4,0,0.4,0.6,0c0.2-0.2,0.4-0.4,0.6-0.6c0.2-0.4,0.2-0.6,0.4-0.9c-0.2,0.2-0.4,0.2-0.6,0.4
	C104.1,170.6,103.7,171,103.7,171.4z"/>
<path class="st0" d="M295.7,72.2c-0.6,0-1.1,0.2-1.5,0.2c-0.4,0.2-0.2,0.2,0.4,0.4c0.2,0,0.6,0,0.8-0.2c0.4-0.2,0.6-0.2,0.9-0.4
	C296.2,72.2,295.9,72.2,295.7,72.2z"/>
<path class="st0" d="M135.4,144.9c-0.4,0.4-0.8,0.8-0.9,0.9c-0.2,0.2-0.2,0.4,0,0.2c0.4,0,0.8-0.4,1.1-0.7c0.2-0.4,0.4-0.6,0.4-0.8
	C135.9,144.6,135.6,144.8,135.4,144.9z"/>
<path class="st0" d="M249,73.3c-0.6,0.2-1.1,0.4-1.5,0.6c-0.4,0.2-0.2,0.4,0.6,0.2c0.2,0,0.6-0.2,0.8-0.2c0.4-0.2,0.6-0.4,0.8-0.6
	C249.6,73.3,249.4,73.3,249,73.3z"/>
<path class="st0" d="M185.2,82.7c-0.2,0.2-0.6,0.4-0.6,0.4c0,0.2,0.9,0,1.7-0.4c0.2-0.2,0.4-0.4,0.6-0.4
	C186.9,81.9,186.4,82.1,185.2,82.7z"/>
<path class="st0" d="M675.6,489.6c0.2,0.2,0.6-0.8,0.9-1.9c0-0.2,0.2-0.8,0.2-0.8c-0.2-0.2-0.6,0.4-0.9,1.7
	C675.7,489.2,675.6,489.6,675.6,489.6z"/>
<path class="st0" d="M687.6,459.2c-0.2,0.4-0.4,1.1-0.6,1.7c0,0.2,0,0.6,0,0.8c0.2-0.4,0.4-0.6,0.6-0.9c0-0.2,0.2-0.8,0.2-0.9
	C687.9,459,687.7,458.6,687.6,459.2z"/>
<path class="st0" d="M158.2,657.9c-0.2,0-0.4-0.2-0.8-0.2c0.2,0.2,0.4,0.4,0.6,0.8c0.4,0.4,0.9,0.8,1.3,0.8c0.2,0,0.2,0,0-0.2
	C159.2,658.5,158.8,658.1,158.2,657.9z"/>
<path class="st0" d="M289.1,700.5c-0.2,0-0.7,0-0.7,0c-0.2,0.2,0.7,0.4,1.7,0.6c0.2,0,0.6,0,0.6,0
	C291,700.7,290.4,700.5,289.1,700.5z"/>
<path class="st0" d="M357,700.9c-0.2,0-0.6,0.2-0.6,0.2c-0.2,0.2,0.6,0.4,1.7,0.2c0.2,0,0.7-0.2,0.7-0.2
	C358.9,700.9,357.9,700.7,357,700.9z"/>
<path class="st0" d="M485.1,671.6c-0.2,0.2-0.6,0.4-0.6,0.4c0,0.4,0.6,0,1.7-0.6c0.2-0.2,0.6-0.4,0.6-0.4
	C486.9,670.9,486,671.1,485.1,671.6z"/>
<path class="st0" d="M517.9,659.3c0.6-0.4,0.9-0.8,0.6-0.8c-0.2,0-0.4,0.2-0.6,0.4c-0.8,0.6-1.3,1.1-3.2,2.4
	C516.6,660.2,517.3,659.8,517.9,659.3z"/>
<path class="st0" d="M420.6,692.1c-0.2,0-0.6,0.2-0.8,0.4c0,0,0,0.2,0.2,0c0.2,0,0.6-0.2,0.8-0.2
	C421.5,691.9,421.5,691.9,420.6,692.1z"/>
<path class="st0" d="M273,72.8c-0.6,0.2-0.6,0.2,0.2,0.2c0.2,0,0.4,0,0.8-0.2c0,0,0-0.2-0.2-0.2C273.6,72.6,273.2,72.6,273,72.8z"/>
<path class="st0" d="M138.9,647.1c-0.6-0.4-0.6-0.2,0,0.4c0.2,0.2,0.4,0.2,0.8,0.4v-0.2C139.5,647.4,139.1,647.1,138.9,647.1z"/>
<path class="st0" d="M210,684.6c0,0-0.2-0.2-0.4-0.4c-0.2,0-0.6-0.2-0.6,0c0,0,0,0.2,0.2,0.2c0,0,0.4,0.2,0.6,0.2H210z"/>
<path class="st0" d="M198.6,88.7c0.2,0,0.4-0.2,0.6-0.4c0,0,0,0-0.2,0c-0.2,0-0.6,0.2-0.8,0.4C197.8,88.9,197.8,88.9,198.6,88.7z"/>
<path class="st0" d="M497.1,665.4c-0.2,0.2-0.4,0.4-0.6,0.4c0.2,0,0.2,0,0.4-0.2c0.2-0.2,0.6-0.4,0.8-0.6
	C498,664.9,497.8,665.1,497.1,665.4z"/>
<path class="st0" d="M529.5,672.2c0-0.2-0.4,0-0.9,0.4c-0.2,0.2-0.2,0.2-0.2,0.4l0.6-0.2C529.1,672.6,529.5,672.2,529.5,672.2z"/>
<path class="st0" d="M536.8,661.3v0.2c0,0,0.4-0.2,0.6-0.4c0.2-0.2,0.4-0.4,0.4-0.4s-0.2,0-0.4,0C537.2,660.9,537,661.1,536.8,661.3
	z"/>
<path class="st0" d="M656.8,542.8c-0.2,0.2-0.4,0.6-0.4,0.9c0,0.2,0,0.2,0,0.2c0.2-0.4,0.4-0.6,0.6-0.8c0.2-0.4,0.2-0.6,0.4-0.8
	C657.2,542.4,657,542.4,656.8,542.8z"/>
<path class="st0" d="M683.8,471.2C683.8,471.4,683.8,471.4,683.8,471.2c0.4-0.6,0.6-1.1,0.4-1.1c0,0-0.2,0.2-0.2,0.4
	C683.8,470.8,683.8,471.2,683.8,471.2z"/>
<path class="st0" d="M666.6,493.3c-0.2-0.2-0.4,0.2-0.4,0.8c0,0.2,0,0.2,0,0.4l0.4-0.6C666.6,493.7,666.7,493.3,666.6,493.3z"/>
<path class="st0" d="M651.7,531.6c-0.2,0.6-0.6,1.3-0.8,1.7c-0.2,0.4,0.2,0,0.6-0.8c0.6-1.1,1.1-2.4,1.7-3.6
	C652.9,529.3,652.3,530.3,651.7,531.6z"/>
</svg>
