<svg width="87px" height="87px" viewBox="0 0 87 87" version="1.1" xmlns="http://www.w3.org/2000/svg" xmlns:xlink="http://www.w3.org/1999/xlink" xmlns:sketch="http://www.bohemiancoding.com/sketch/ns">
    <!-- Generator: Sketch 3.4.2 (15855) - http://www.bohemiancoding.com/sketch -->
    <title>BirdPress Logo</title>
    <desc>Created with Sketch.</desc>
    <defs></defs>
    <g id="logo-svg-Page-1" stroke="none" stroke-width="1" fill="none" fill-rule="evenodd" sketch:type="MSPage">
        <g id="logo-svg-Oval-1-Copy-+-BP-Copy-2" sketch:type="MSLayerGroup" transform="translate(6.000000, 6.000000)" fill="#000000">
            <path d="M58.2852449,68.7173481 C52.3360563,72.6863594 45.188218,75 37.5,75 C31.4320573,75 25.7007274,73.5587894 20.6296422,71 L43.8781537,71 C46.3696751,71 48.9557725,70.8107734 51.6365234,70.4323144 C53.8112647,70.1252921 56.0274906,69.5536409 58.2852449,68.7173481 Z M67.5182892,59.9792925 C72.2165533,53.7153901 75,45.9327495 75,37.5 C75,16.7893219 58.2106781,0 37.5,0 C29.70077,0 22.4576378,2.38093736 16.4578016,6.45561373 C19.240777,6.39835685 21.9751409,6.34110008 24.4753758,6.28384279 C28.606886,6.18922806 32.2957774,6.11826807 34.9607592,6.0709607 C37.625741,6.02365333 39.494354,6 40.5666544,6 L42.3170183,6 C45.5969959,6 49.0267287,6.33903106 52.6063196,7.01710335 C56.1859105,7.69517564 58.45007,9.23264207 61.398896,11.6295488 C64.347722,14.0264555 65.8221129,17.4798416 65.8221129,21.9898108 C65.8221129,25.3644031 64.6236775,28.2658782 62.2267709,30.6943231 C59.8298642,33.1227681 56.9034114,35.1254167 51.4472949,36.702329 C55.1688079,37.3646321 57.4093141,38.4763386 60.1689106,40.0374818 C62.9285071,41.598625 65.0178846,43.5776202 66.4371056,45.9745269 C67.8563267,48.3714336 68.5659266,51.0679132 68.5659266,54.0640466 C68.5659266,56.2856749 68.2167163,58.2574166 67.5182892,59.9792925 Z M10.4287997,11.5499705 C9.49860225,12.5201016 8.6200437,13.5401342 7.79754152,14.6056508 C6.40205333,17.3387726 7.94375193,19.4142464 8.97814937,20.7147217 C10.6580814,22.8267822 14.9401859,21.6700439 15.7833255,25.6171875 C16.4348664,28.6673647 14.5978999,32.4007568 10.3330073,32.4007568 C7.73650218,32.4007568 2.51233672,30.9528032 2.63988828,23.6517963 C0.936466512,27.9361332 0,32.6087049 0,37.5 C0,49.2638576 5.41681539,59.7625502 13.8922702,66.6379017 C16.3746875,66.5834322 18.9108414,66.3028721 20.0789665,65.7962154 C21.3878037,65.228527 22.2393236,64.4243138 22.6335517,63.3835517 C23.0277797,62.3427896 23.2248908,60.9078209 23.2248908,59.0786026 L23.2248908,18.5836972 C23.2248908,15.7452551 22.4991021,14.1702012 21.4745269,12.6703057 C20.4564615,11.1799398 15.4228133,7.45170035 10.4287997,11.5499705 Z M55.0426369,53.2598253 C55.0426369,48.9075474 53.9151616,45.5251212 51.660177,43.1124454 C49.4051924,40.6997696 46.2277618,39.4934498 42.1277898,39.4934498 L34.4640343,39.4934498 L34.4640343,54.915575 L34.4640343,56.1928675 C34.4640343,58.5266977 34.6059543,60.3480041 34.8897985,61.6568413 C35.1736427,62.9656785 35.8832426,63.9748873 37.0186195,64.6844978 C38.1539963,65.3941084 39.9516494,65.7489083 42.4116326,65.7489083 C45.6916102,65.7489083 48.6167386,64.7554684 51.1871056,62.768559 C53.7574727,60.7816495 55.0426369,57.6121033 55.0426369,53.2598253 Z M53.292273,22.3682678 C53.292273,20.1605906 52.7640153,18.228902 51.7074841,16.5731441 C50.6509529,14.9173862 49.0898331,13.6243375 47.024078,12.6939592 C44.9583229,11.763581 42.4274166,11.2983988 39.4312832,11.2983988 L34.4640343,11.2983988 L34.4640343,34.2896652 L38.3432192,34.2896652 C43.4208768,34.2896652 47.1817562,33.2173809 49.6259703,31.0727802 C52.0701843,28.9281795 53.292273,26.0267044 53.292273,22.3682678 Z" id="logo-svg-Oval-1-Copy" sketch:type="MSShapeGroup"></path>
        </g>
        <path d="M43.4990038,85.0025747 C20.6142818,85.0025747 1.99448058,66.3841965 1.99448058,43.4970104 C1.99448058,20.612813 20.6142818,1.99443486 43.4990038,1.99443486 C66.3837257,1.99443486 85.0015344,20.612813 85.0015344,43.4970104 C85.0015344,66.3841965 66.3837257,85.0025747 43.4990038,85.0025747 M43.4990038,0 C19.5134321,0 0,19.513981 0,43.4970104 C0,67.4850209 19.5134321,86.9970095 43.4990038,86.9970095 C67.4825829,86.9970095 87,67.4850209 87,43.4970104 C87,19.513981 67.4825829,0 43.4990038,0" id="logo-svg-OUTER-STROKE" fill="#000000" sketch:type="MSShapeGroup"></path>
    </g>
</svg>
