<?xml version="1.0" encoding="utf-8"?>
<!-- Generator: Adobe Illustrator 15.1.0, SVG Export Plug-In . SVG Version: 6.00 Build 0)  -->
<!DOCTYPE svg PUBLIC "-//W3C//DTD SVG 1.1//EN" "http://www.w3.org/Graphics/SVG/1.1/DTD/svg11.dtd">
<svg version="1.1" id="Layer_1" xmlns:sketch="http://www.bohemiancoding.com/sketch/ns"
	 xmlns="http://www.w3.org/2000/svg" xmlns:xlink="http://www.w3.org/1999/xlink" x="0px" y="0px" width="87px" height="87px"
	 viewBox="0 0 87 87" enable-background="new 0 0 87 87" xml:space="preserve">
<title>BirdPress Logo Maker</title>
<desc>Created with Sketch.</desc>
<g id="Page-1" sketch:type="MSPage">
	<g id="Source" transform="translate(5.000000, 12.000000)" sketch:type="MSLayerGroup">
	</g>
	<g id="Oval-1-Copy-_x2B_-BP-Copy-2" transform="translate(6.000000, 6.000000)" sketch:type="MSLayerGroup">
		<path id="Oval-1-Copy" sketch:type="MSShapeGroup" fill="#FFFFFF" d="M58.285,68.717C52.336,72.687,45.188,75,37.5,75
			c-6.068,0-11.799-1.441-16.87-4h23.248c2.491,0,5.077-0.189,7.759-0.568C53.811,70.125,56.027,69.554,58.285,68.717z
			 M67.518,59.979C72.217,53.715,75,45.933,75,37.5C75,16.789,58.211,0,37.5,0c-7.799,0-15.042,2.381-21.042,6.456
			c2.783-0.057,5.517-0.114,8.018-0.172c4.131-0.094,7.82-0.166,10.485-0.213S39.494,6,40.566,6h1.75
			c3.281,0,6.711,0.339,10.29,1.017s5.844,2.215,8.792,4.612c2.949,2.397,4.424,5.851,4.424,10.36c0,3.375-1.199,6.276-3.596,8.705
			c-2.396,2.428-5.323,4.431-10.779,6.008c3.722,0.663,5.962,1.774,8.722,3.335c2.76,1.562,4.849,3.541,6.269,5.938
			c1.419,2.396,2.129,5.094,2.129,8.09C68.566,56.285,68.217,58.258,67.518,59.979z M10.429,11.55
			c-0.93,0.97-1.809,1.99-2.631,3.056c-1.396,2.733,0.146,4.809,1.181,6.109c1.68,2.112,5.962,0.955,6.805,4.902
			c0.652,3.05-1.186,6.784-5.45,6.784c-2.597,0-7.821-1.448-7.693-8.749C0.937,27.936,0,32.609,0,37.5
			c0,11.764,5.417,22.263,13.892,29.138c2.482-0.054,5.019-0.335,6.187-0.841c1.309-0.568,2.16-1.373,2.555-2.413
			c0.394-1.041,0.591-2.476,0.591-4.306V18.583c0-2.838-0.726-4.413-1.75-5.913C20.457,11.18,15.423,7.452,10.429,11.55z
			 M55.043,53.26c0-4.352-1.128-7.734-3.383-10.147s-5.433-3.618-9.532-3.618h-7.664v15.422v1.277c0,2.334,0.142,4.154,0.426,5.463
			c0.284,1.31,0.994,2.318,2.129,3.028c1.136,0.71,2.933,1.064,5.394,1.064c3.279,0,6.205-0.993,8.775-2.98
			S55.043,57.612,55.043,53.26z M53.293,22.368c0-2.208-0.529-4.139-1.586-5.795s-2.617-2.949-4.684-3.879
			c-2.064-0.93-4.596-1.396-7.592-1.396h-4.968V34.29h3.88c5.077,0,8.838-1.072,11.282-3.217S53.293,26.027,53.293,22.368z"/>
	</g>
	<path id="OUTER-STROKE" sketch:type="MSShapeGroup" fill="#FFFFFF" d="M43.499,85.002c-22.885,0-41.504-18.617-41.504-41.505
		c0-22.884,18.62-41.502,41.504-41.502s41.503,18.618,41.503,41.502C85.002,66.385,66.384,85.002,43.499,85.002 M43.499,0
		C19.514,0,0,19.514,0,43.497c0,23.987,19.514,43.5,43.499,43.5C67.482,86.997,87,67.484,87,43.497C87,19.514,67.482,0,43.499,0"/>
</g>
</svg>
