<svg version="1.1" class="birdpress-svg-logo" xmlns="http://www.w3.org/2000/svg" xmlns:xlink="http://www.w3.org/1999/xlink" width="87px" height="87px" viewBox="0 0 87 87" aria-labelledby="svg-logo--birdpress--title svg-logo--birdpress--description" focusable="false" role="img">
	<title id="svg-logo--birdpress--title">Birdpress Logo</title>
	<desc id="svg-logo--birdpress--description">A logomark for Birdpress, which looks like the classic Wordpress logo as a reference to its connection to Wordpress.</desc>

	<g id="birdpress-logo-page" stroke="none" stroke-width="1" fill="none" fill-rule="evenodd">
		<path id="birdpress-logo-combined-path" fill="currentColor" d="M26.6296422,77 L49.8781537,77 C52.3696751,77 54.9557725,76.8107734 57.6365234,76.4323144 C59.8112647,76.1252921 62.0274906,75.5536409 64.2852449,74.7173481 C58.3360563,78.6863594 51.188218,81 43.5,81 C37.4320573,81 31.7007274,79.5587894 26.6296422,77 Z M19.8922702,72.6379017 C11.4168154,65.7625502 6,55.2638576 6,43.5 C6,38.6087049 6.93646651,33.9361332 8.63988828,29.6517963 C8.51233672,36.9528032 13.7365022,38.4007568 16.3330073,38.4007568 C20.5978999,38.4007568 22.4348664,34.6673647 21.7833255,31.6171875 C20.9401859,27.6700439 16.6580814,28.8267822 14.9781494,26.7147217 C13.9437519,25.4142464 12.4020533,23.3387726 13.7975415,20.6056508 C14.6200437,19.5401342 15.4986023,18.5201016 16.4287997,17.5499705 C21.4228133,13.4517004 26.4564615,17.1799398 27.4745269,18.6703057 C28.4991021,20.1702012 29.2248908,21.7452551 29.2248908,24.5836972 L29.2248908,65.0786026 C29.2248908,66.9078209 29.0277797,68.3427896 28.6335517,69.3835517 C28.2393236,70.4243138 27.3878037,71.228527 26.0789665,71.7962154 C24.9108414,72.3028721 22.3746875,72.5834322 19.8922702,72.6379017 Z M22.4578016,12.4556137 C28.4576378,8.38093736 35.70077,6 43.5,6 C64.2106781,6 81,22.7893219 81,43.5 C81,51.9327495 78.2165533,59.7153901 73.5182892,65.9792925 C74.2167163,64.2574166 74.5659266,62.2856749 74.5659266,60.0640466 C74.5659266,57.0679132 73.8563267,54.3714336 72.4371056,51.9745269 C71.0178846,49.5776202 68.9285071,47.598625 66.1689106,46.0374818 C63.4093141,44.4763386 61.1688079,43.3646321 57.4472949,42.702329 C62.9034114,41.1254167 65.8298642,39.1227681 68.2267709,36.6943231 C70.6236775,34.2658782 71.8221129,31.3644031 71.8221129,27.9898108 C71.8221129,23.4798416 70.347722,20.0264555 67.398896,17.6295488 C64.45007,15.2326421 62.1859105,13.6951756 58.6063196,13.0171033 C55.0267287,12.3390311 51.5969959,12 48.3170183,12 L46.5666544,12 C45.494354,12 43.625741,12.0236533 40.9607592,12.0709607 C38.2957774,12.1182681 34.606886,12.1892281 30.4753758,12.2838428 C27.9751409,12.3411001 25.240777,12.3983569 22.4578016,12.4556137 Z M61.0426369,59.2598253 C61.0426369,63.6121033 59.7574727,66.7816495 57.1871056,68.768559 C54.6167386,70.7554684 51.6916102,71.7489083 48.4116326,71.7489083 C45.9516494,71.7489083 44.1539963,71.3941084 43.0186195,70.6844978 C41.8832426,69.9748873 41.1736427,68.9656785 40.8897985,67.6568413 C40.6059543,66.3480041 40.4640343,64.5266977 40.4640343,62.1928675 L40.4640343,60.915575 L40.4640343,45.4934498 L48.1277898,45.4934498 C52.2277618,45.4934498 55.4051924,46.6997696 57.660177,49.1124454 C59.9151616,51.5251212 61.0426369,54.9075474 61.0426369,59.2598253 Z M59.292273,28.3682678 C59.292273,32.0267044 58.0701843,34.9281795 55.6259703,37.0727802 C53.1817562,39.2173809 49.4208768,40.2896652 44.3432192,40.2896652 L40.4640343,40.2896652 L40.4640343,17.2983988 L45.4312832,17.2983988 C48.4274166,17.2983988 50.9583229,17.763581 53.024078,18.6939592 C55.0898331,19.6243375 56.6509529,20.9173862 57.7074841,22.5731441 C58.7640153,24.228902 59.292273,26.1605906 59.292273,28.3682678 Z M43.4990038,85.0025747 C20.6142818,85.0025747 1.99448058,66.3841965 1.99448058,43.4970104 C1.99448058,20.612813 20.6142818,1.99443486 43.4990038,1.99443486 C66.3837257,1.99443486 85.0015344,20.612813 85.0015344,43.4970104 C85.0015344,66.3841965 66.3837257,85.0025747 43.4990038,85.0025747 M43.4990038,0 C19.5134321,0 7.10542736e-15,19.513981 7.10542736e-15,43.4970104 C7.10542736e-15,67.4850209 19.5134321,86.9970095 43.4990038,86.9970095 C67.4825829,86.9970095 87,67.4850209 87,43.4970104 C87,19.513981 67.4825829,0 43.4990038,0"></path>
	</g>
</svg>
